<svg width="298" height="268" viewBox="0 0 298 268" fill="none" xmlns="http://www.w3.org/2000/svg">
<mask id="path-1-inside-1" fill="white">
<path fill-rule="evenodd" clip-rule="evenodd" d="M185.237 60.8465C238.561 100.2 277.906 155.569 297.529 218.87L142.059 267.064C123.057 209.982 68.6087 168.764 4.40476 168.764C3.0757 168.764 1.75082 168.782 0.430348 168.817L0.101562 -0.000488281C66.3739 0.0906882 131.914 21.4933 185.237 60.8465Z"/>
</mask>
<path fill-rule="evenodd" clip-rule="evenodd" d="M185.237 60.8465C238.561 100.2 277.906 155.569 297.529 218.87L142.059 267.064C123.057 209.982 68.6087 168.764 4.40476 168.764C3.0757 168.764 1.75082 168.782 0.430348 168.817L0.101562 -0.000488281C66.3739 0.0906882 131.914 21.4933 185.237 60.8465Z" fill="#00218A"/>
<path d="M297.529 218.87L298.713 222.691L302.534 221.506L301.349 217.686L297.529 218.87ZM185.237 60.8465L187.613 57.6281L185.237 60.8465ZM142.059 267.064L138.264 268.328L139.501 272.045L143.244 270.885L142.059 267.064ZM0.430348 168.817L-3.56964 168.825L-3.56166 172.925L0.536622 172.816L0.430348 168.817ZM0.101562 -0.000488281L0.107066 -4.00048L-3.90625 -4.00601L-3.89843 0.00730203L0.101562 -0.000488281ZM301.349 217.686C281.474 153.57 241.622 97.4879 187.613 57.6281L182.862 64.065C235.499 102.912 274.338 157.569 293.708 220.055L301.349 217.686ZM143.244 270.885L298.713 222.691L296.344 215.05L140.875 263.244L143.244 270.885ZM4.40476 172.764C66.8641 172.764 119.799 212.858 138.264 268.328L145.854 265.801C126.315 207.105 70.3534 164.764 4.40476 164.764L4.40476 172.764ZM0.536622 172.816C1.8217 172.781 3.11115 172.764 4.40476 172.764L4.40476 164.764C3.04024 164.764 1.67994 164.782 0.324074 164.818L0.536622 172.816ZM-3.89843 0.00730203L-3.56964 168.825L4.43034 168.809L4.10155 -0.00827859L-3.89843 0.00730203ZM187.613 57.6281C133.596 17.7632 67.2238 -3.90815 0.107066 -4.00048L0.0960594 3.99951C65.524 4.08952 130.232 25.2233 182.862 64.065L187.613 57.6281Z" fill="white" mask="url(#path-1-inside-1)"/>
<path d="M116.375 130.563C113.476 130.509 111.27 129.718 109.758 128.19C108.266 126.642 107.548 124.389 107.603 121.429L107.802 110.661C107.826 109.361 108.478 108.723 109.758 108.747C111.038 108.771 111.665 109.432 111.641 110.732L111.443 121.47C111.407 123.37 111.811 124.808 112.653 125.783C113.515 126.739 114.776 127.233 116.436 127.264C119.816 127.326 121.54 125.458 121.611 121.658L121.81 110.92C121.834 109.62 122.486 108.982 123.765 109.006C125.025 109.029 125.643 109.691 125.619 110.991L125.42 121.759C125.365 124.718 124.573 126.944 123.046 128.436C121.518 129.908 119.295 130.617 116.375 130.563ZM137.02 130.945C135.68 130.92 134.373 130.746 133.099 130.423C131.845 130.099 130.753 129.629 129.825 129.012C129.37 128.703 129.097 128.328 129.005 127.886C128.913 127.445 128.951 127.035 129.118 126.658C129.305 126.262 129.58 125.997 129.943 125.863C130.326 125.71 130.754 125.788 131.229 126.097C132.099 126.633 133.022 127.031 133.997 127.289C134.973 127.547 136 127.686 137.08 127.706C138.66 127.735 139.814 127.496 140.544 126.99C141.274 126.463 141.646 125.78 141.662 124.94C141.675 124.24 141.425 123.686 140.913 123.276C140.42 122.867 139.556 122.521 138.321 122.238L135.035 121.487C131.29 120.617 129.446 118.653 129.503 115.593C129.527 114.274 129.899 113.13 130.617 112.163C131.335 111.197 132.318 110.455 133.568 109.938C134.818 109.421 136.253 109.177 137.872 109.207C139.072 109.23 140.209 109.401 141.284 109.721C142.358 110.04 143.32 110.498 144.169 111.094C144.563 111.382 144.797 111.736 144.869 112.157C144.942 112.559 144.885 112.938 144.698 113.294C144.512 113.631 144.217 113.866 143.815 113.998C143.433 114.111 142.984 114.013 142.47 113.703C141.738 113.27 140.994 112.956 140.237 112.762C139.481 112.568 138.662 112.462 137.783 112.446C136.403 112.421 135.318 112.691 134.527 113.256C133.736 113.822 133.332 114.574 133.315 115.514C133.302 116.234 133.531 116.818 134.003 117.267C134.475 117.696 135.289 118.041 136.444 118.302L139.701 119.053C141.672 119.509 143.13 120.196 144.073 121.114C145.036 122.032 145.504 123.241 145.476 124.741C145.453 126 145.092 127.104 144.395 128.051C143.697 128.998 142.713 129.73 141.444 130.247C140.194 130.744 138.72 130.977 137.02 130.945ZM158.822 131.349C156.482 131.306 154.511 130.829 152.907 129.919C151.324 129.01 150.127 127.737 149.318 126.102C148.508 124.467 148.123 122.539 148.164 120.32C148.206 118.08 148.671 116.158 149.561 114.555C150.452 112.931 151.715 111.694 153.351 110.844C154.987 109.974 156.935 109.56 159.195 109.602C160.314 109.623 161.432 109.783 162.546 110.084C163.681 110.365 164.743 110.835 165.731 111.493C166.166 111.761 166.409 112.116 166.461 112.557C166.533 112.978 166.466 113.377 166.259 113.753C166.052 114.13 165.747 114.394 165.344 114.547C164.942 114.679 164.503 114.601 164.028 114.312C163.277 113.858 162.513 113.524 161.736 113.31C160.96 113.095 160.092 112.979 159.132 112.961C156.893 112.92 155.181 113.538 153.997 114.817C152.833 116.095 152.229 117.955 152.184 120.394C152.138 122.854 152.693 124.734 153.85 126.036C155.006 127.338 156.743 128.01 159.063 128.053C159.723 128.065 160.394 128.027 161.076 127.94C161.778 127.833 162.471 127.676 163.155 127.468L163.246 122.549L159.946 122.488C158.906 122.469 158.395 121.979 158.413 121.02C158.431 120.08 158.959 119.619 159.999 119.639L164.948 119.73C165.988 119.75 166.498 120.279 166.479 121.319L166.344 128.608C166.327 129.527 165.956 130.111 165.231 130.357C164.346 130.661 163.331 130.912 162.187 131.111C161.043 131.29 159.922 131.369 158.822 131.349ZM106.866 171.094C105.507 171.069 104.839 170.376 104.865 169.017L105.18 151.95C105.206 150.59 105.898 149.922 107.258 149.948L113.077 150.055C116.616 150.121 119.329 151.081 121.215 152.936C123.121 154.792 124.042 157.42 123.98 160.819C123.917 164.198 122.899 166.79 120.925 168.594C118.971 170.398 116.225 171.267 112.685 171.202L106.866 171.094ZM108.725 167.948L112.504 168.018C117.383 168.108 119.869 165.684 119.96 160.745C120.051 155.825 117.657 153.321 112.778 153.23L108.999 153.16L108.725 167.948ZM132.138 171.862C131.078 171.842 130.132 171.625 129.3 171.209C128.488 170.774 127.848 170.202 127.381 169.493C126.934 168.785 126.719 167.991 126.735 167.111C126.755 166.031 127.051 165.187 127.622 164.577C128.194 163.948 129.112 163.504 130.377 163.248C131.642 162.991 133.334 162.882 135.454 162.922L136.504 162.941L136.516 162.311C136.534 161.311 136.327 160.587 135.896 160.139C135.464 159.691 134.728 159.458 133.688 159.438C133.108 159.428 132.477 159.486 131.795 159.613C131.132 159.741 130.428 159.968 129.682 160.294C129.198 160.506 128.797 160.528 128.48 160.362C128.164 160.176 127.949 159.902 127.835 159.54C127.742 159.158 127.769 158.779 127.917 158.401C128.084 158.024 128.399 157.75 128.862 157.579C129.789 157.216 130.674 156.962 131.516 156.818C132.379 156.674 133.161 156.608 133.86 156.621C136 156.661 137.581 157.19 138.602 158.209C139.624 159.208 140.115 160.748 140.077 162.827L139.943 170.026C139.92 171.306 139.328 171.935 138.168 171.914C136.988 171.892 136.41 171.241 136.434 169.961L136.446 169.301C136.091 170.115 135.539 170.755 134.79 171.221C134.042 171.667 133.158 171.881 132.138 171.862ZM132.966 169.297C133.946 169.315 134.762 168.99 135.414 168.322C136.087 167.654 136.433 166.801 136.452 165.761L136.464 165.101L135.444 165.082C133.564 165.047 132.252 165.173 131.506 165.459C130.781 165.726 130.412 166.239 130.398 166.999C130.386 167.659 130.606 168.203 131.058 168.631C131.51 169.06 132.146 169.282 132.966 169.297ZM150.431 172.201C146.552 172.129 144.648 170.173 144.719 166.334L144.837 159.945L143.277 159.916C142.278 159.898 141.786 159.418 141.804 158.478C141.821 157.539 142.33 157.078 143.33 157.097L144.889 157.125L144.94 154.396C144.963 153.136 145.605 152.518 146.864 152.541C148.104 152.564 148.712 153.205 148.689 154.465L148.639 157.195L151.818 157.254C152.818 157.272 153.309 157.751 153.292 158.691C153.274 159.631 152.766 160.092 151.766 160.073L148.586 160.014L148.472 166.193C148.454 167.153 148.651 167.877 149.062 168.365C149.473 168.852 150.148 169.105 151.088 169.122C151.428 169.128 151.729 169.104 151.99 169.049C152.251 168.994 152.482 168.958 152.682 168.942C152.922 168.926 153.121 169.01 153.277 169.193C153.434 169.356 153.508 169.697 153.498 170.217C153.491 170.617 153.414 170.976 153.268 171.293C153.143 171.591 152.909 171.796 152.567 171.91C152.306 171.985 151.964 172.049 151.543 172.101C151.122 172.173 150.751 172.206 150.431 172.201ZM160.053 172.379C158.993 172.359 158.047 172.142 157.215 171.726C156.403 171.291 155.763 170.719 155.296 170.01C154.849 169.302 154.634 168.508 154.65 167.628C154.67 166.548 154.966 165.703 155.537 165.094C156.109 164.464 157.027 164.021 158.292 163.765C159.557 163.508 161.25 163.399 163.369 163.439L164.419 163.458L164.431 162.828C164.449 161.828 164.243 161.104 163.811 160.656C163.379 160.208 162.643 159.974 161.603 159.955C161.024 159.945 160.392 160.003 159.71 160.13C159.047 160.258 158.343 160.485 157.597 160.811C157.113 161.022 156.712 161.045 156.395 160.879C156.079 160.693 155.864 160.419 155.751 160.057C155.658 159.675 155.685 159.296 155.832 158.918C155.999 158.541 156.314 158.267 156.777 158.096C157.704 157.733 158.589 157.479 159.432 157.335C160.294 157.191 161.076 157.125 161.776 157.138C163.915 157.178 165.496 157.707 166.517 158.726C167.539 159.725 168.03 161.264 167.992 163.344L167.859 170.543C167.835 171.823 167.243 172.452 166.083 172.43C164.904 172.408 164.325 171.758 164.349 170.478L164.361 169.818C164.006 170.632 163.454 171.271 162.706 171.738C161.957 172.184 161.073 172.398 160.053 172.379ZM160.881 169.814C161.861 169.832 162.677 169.507 163.329 168.839C164.002 168.171 164.348 167.317 164.367 166.277L164.379 165.618L163.359 165.599C161.48 165.564 160.167 165.69 159.422 165.976C158.697 166.243 158.327 166.756 158.313 167.516C158.301 168.176 158.521 168.72 158.973 169.148C159.425 169.577 160.061 169.798 160.881 169.814Z" fill="white"/>
</svg>
