<svg width="403" height="805" viewBox="0 0 403 805" fill="none" xmlns="http://www.w3.org/2000/svg">
<mask id="path-1-inside-1" fill="white">
<path fill-rule="evenodd" clip-rule="evenodd" d="M402.5 0C295.75 0 193.373 42.4061 117.89 117.89C42.4061 193.373 8.05938e-06 295.75 0 402.5C-8.05937e-06 509.25 42.4061 611.627 117.889 687.11C193.373 762.594 295.75 805 402.5 805L402.5 701.987C399.765 701.975 397.028 701.926 394.289 701.84C329.742 699.814 267.54 677.448 216.768 638.008L216.954 637.773C169.217 600.183 133.931 549.025 115.765 490.99C97.2937 431.981 97.4155 368.721 116.112 309.786L116 309.75C135.728 249.399 173.96 196.809 225.261 159.456C276.313 122.284 338.976 100.419 402.102 100.007V100L402.5 100.001V0ZM268.537 400.52C268.537 386.612 270.578 373.179 274.377 360.507L274.798 360.649C290.093 311.887 331.438 274.671 382.508 265.341C317.915 277.356 269 334.195 269 402.5C269 412.638 270.078 422.523 272.124 432.046C269.777 421.917 268.537 411.363 268.537 400.52Z"/>
</mask>
<path fill-rule="evenodd" clip-rule="evenodd" d="M402.5 0C295.75 0 193.373 42.4061 117.89 117.89C42.4061 193.373 8.05938e-06 295.75 0 402.5C-8.05937e-06 509.25 42.4061 611.627 117.889 687.11C193.373 762.594 295.75 805 402.5 805L402.5 701.987C399.765 701.975 397.028 701.926 394.289 701.84C329.742 699.814 267.54 677.448 216.768 638.008L216.954 637.773C169.217 600.183 133.931 549.025 115.765 490.99C97.2937 431.981 97.4155 368.721 116.112 309.786L116 309.75C135.728 249.399 173.96 196.809 225.261 159.456C276.313 122.284 338.976 100.419 402.102 100.007V100L402.5 100.001V0ZM268.537 400.52C268.537 386.612 270.578 373.179 274.377 360.507L274.798 360.649C290.093 311.887 331.438 274.671 382.508 265.341C317.915 277.356 269 334.195 269 402.5C269 412.638 270.078 422.523 272.124 432.046C269.777 421.917 268.537 411.363 268.537 400.52Z" fill="#6BB024"/>
<path d="M117.89 117.89L120.718 120.718L117.89 117.89ZM402.5 0H406.5V-4H402.5V0ZM0 402.5H-4H0ZM117.889 687.11L120.718 684.282L117.889 687.11ZM402.5 805V809H406.5V805H402.5ZM402.5 701.987H406.5V698.005L402.518 697.987L402.5 701.987ZM394.289 701.84L394.163 705.838H394.163L394.289 701.84ZM216.768 638.008L213.637 635.518L211.119 638.685L214.314 641.167L216.768 638.008ZM216.954 637.773L220.085 640.263L222.587 637.117L219.429 634.63L216.954 637.773ZM115.765 490.99L119.582 489.795L115.765 490.99ZM116.112 309.786L119.924 310.996L121.131 307.193L117.332 305.977L116.112 309.786ZM116 309.75L112.198 308.507L110.948 312.332L114.78 313.56L116 309.75ZM225.261 159.456L222.906 156.222L225.261 159.456ZM402.102 100.007L402.128 104.007L406.102 103.981V100.007H402.102ZM402.102 100L402.11 96L398.102 95.9918V100H402.102ZM402.5 100.001L402.492 104.001L406.5 104.009V100.001H402.5ZM274.377 360.507L275.652 356.716L271.732 355.398L270.545 359.359L274.377 360.507ZM274.798 360.649L273.523 364.44L277.393 365.742L278.615 361.846L274.798 360.649ZM382.508 265.341L383.239 269.273L381.789 261.406L382.508 265.341ZM272.124 432.046L268.227 432.949L276.035 431.206L272.124 432.046ZM120.718 120.718C195.451 45.9847 296.811 4 402.5 4V-4C294.69 -4 191.295 38.8276 115.061 115.061L120.718 120.718ZM4 402.5C4.00001 296.811 45.9847 195.451 120.718 120.718L115.061 115.061C38.8276 191.295 -3.99999 294.689 -4 402.5H4ZM120.718 684.282C45.9847 609.549 3.99999 508.189 4 402.5H-4C-4.00001 510.31 38.8275 613.705 115.061 689.939L120.718 684.282ZM402.5 801C296.811 801 195.451 759.015 120.718 684.282L115.061 689.939C191.295 766.172 294.689 809 402.5 809V801ZM398.5 701.987L398.5 805H406.5L406.5 701.987H398.5ZM394.163 705.838C396.938 705.925 399.711 705.975 402.482 705.987L402.518 697.987C399.819 697.975 397.118 697.926 394.414 697.842L394.163 705.838ZM214.314 641.167C265.758 681.129 328.775 703.786 394.163 705.838L394.414 697.842C330.708 695.843 269.323 673.768 219.221 634.849L214.314 641.167ZM213.824 635.283L213.637 635.518L219.898 640.498L220.085 640.263L213.824 635.283ZM111.948 492.185C130.355 550.99 166.109 602.827 214.48 640.916L219.429 634.63C172.325 597.539 137.508 547.06 119.582 489.795L111.948 492.185ZM112.299 308.577C93.3547 368.294 93.2313 432.393 111.948 492.185L119.582 489.795C101.356 431.569 101.476 369.149 119.924 310.996L112.299 308.577ZM114.78 313.56L114.892 313.595L117.332 305.977L117.22 305.941L114.78 313.56ZM222.906 156.222C170.925 194.071 132.187 247.358 112.198 308.507L119.802 310.993C139.269 251.441 176.995 199.547 227.615 162.69L222.906 156.222ZM402.075 96.0075C338.061 96.4254 274.592 118.589 222.906 156.222L227.615 162.69C278.033 125.979 339.891 104.414 402.128 104.007L402.075 96.0075ZM398.102 100V100.007H406.102V100H398.102ZM402.508 96.0008L402.11 96L402.093 104L402.492 104.001L402.508 96.0008ZM398.5 0V100.001H406.5V0H398.5ZM270.545 359.359C266.636 372.399 264.537 386.218 264.537 400.52H272.537C272.537 387.005 274.52 373.959 278.208 361.656L270.545 359.359ZM276.073 356.858L275.652 356.716L273.102 364.299L273.523 364.44L276.073 356.858ZM381.789 261.406C329.24 271.006 286.715 309.291 270.982 359.452L278.615 361.846C293.471 314.484 333.635 278.336 383.226 269.276L381.789 261.406ZM273 402.5C273 336.147 320.517 280.941 383.239 269.273L381.776 261.408C315.314 273.772 265 332.243 265 402.5H273ZM276.035 431.206C274.047 421.957 273 412.353 273 402.5H265C265 412.922 266.108 423.089 268.213 432.887L276.035 431.206ZM264.537 400.52C264.537 411.669 265.812 422.526 268.227 432.949L276.021 431.143C273.742 421.308 272.537 411.057 272.537 400.52H264.537Z" fill="white" mask="url(#path-1-inside-1)"/>
<path d="M68.8611 500.278C68.8663 504.144 67.8702 507.106 65.873 509.162C63.849 511.191 60.8637 512.208 56.917 512.214L42.557 512.233C40.8237 512.235 39.9559 511.383 39.9536 509.676C39.9514 507.97 40.8169 507.115 42.5502 507.113L56.8702 507.094C59.4035 507.09 61.3094 506.514 62.5879 505.366C63.8397 504.191 64.4641 502.497 64.4611 500.284C64.4551 495.777 61.9188 493.527 56.8521 493.534L42.5321 493.553C40.7988 493.555 39.931 492.703 39.9287 490.996C39.9265 489.316 40.792 488.475 42.5253 488.473L56.8853 488.454C60.832 488.448 63.82 489.444 65.8493 491.442C67.852 493.439 68.8559 496.384 68.8611 500.278ZM68.8244 472.746C68.8267 474.533 68.6291 476.28 68.2314 477.987C67.8336 479.668 67.2356 481.135 66.4372 482.39C66.0381 483.003 65.5452 483.377 64.9587 483.512C64.3722 483.646 63.8255 483.606 63.3186 483.394C62.7849 483.154 62.4244 482.795 62.2371 482.315C62.0231 481.809 62.1157 481.235 62.5148 480.595C63.2066 479.421 63.7116 478.18 64.0299 476.873C64.3481 475.566 64.5063 474.192 64.5044 472.752C64.5016 470.646 64.1528 469.113 63.4582 468.154C62.7369 467.195 61.8163 466.716 60.6963 466.717C59.763 466.719 59.0301 467.066 58.4977 467.76C57.9653 468.428 57.5268 469.588 57.1823 471.242L56.2682 475.643C55.2082 480.658 52.6383 483.168 48.5583 483.173C46.7983 483.176 45.2643 482.711 43.9564 481.78C42.6485 480.848 41.6334 479.556 40.9112 477.904C40.189 476.251 39.8265 474.345 39.8236 472.185C39.8215 470.585 40.0194 469.065 40.4175 467.624C40.8156 466.184 41.4005 464.89 42.1723 463.742C42.5449 463.208 43.0112 462.888 43.571 462.78C44.1042 462.673 44.611 462.739 45.0913 462.978C45.545 463.217 45.8655 463.604 46.0529 464.137C46.2135 464.643 46.0943 465.243 45.6953 465.937C45.1366 466.925 44.7379 467.925 44.4993 468.939C44.2606 469.953 44.1421 471.046 44.1436 472.219C44.1461 474.059 44.5347 475.499 45.3094 476.538C46.0841 477.577 47.0982 478.095 48.3515 478.094C49.3115 478.092 50.0844 477.771 50.6702 477.131C51.2293 476.49 51.6679 475.396 51.9858 473.849L52.9 469.488C53.4565 466.847 54.3339 464.886 55.5321 463.604C56.7304 462.296 58.3295 461.64 60.3295 461.638C62.0095 461.636 63.4901 462.087 64.7713 462.992C66.0525 463.897 67.0543 465.189 67.7765 466.868C68.4721 468.52 68.8213 470.48 68.8244 472.746ZM68.7856 443.672C68.7897 446.792 68.2066 449.433 67.0361 451.594C65.8656 453.729 64.2012 455.358 62.0426 456.481C59.8841 457.604 57.3249 458.167 54.3649 458.171C51.3782 458.175 48.8041 457.605 46.6426 456.462C44.4544 455.318 42.7722 453.667 41.596 451.508C40.3931 449.35 39.7897 446.764 39.7856 443.751C39.7836 442.257 39.9683 440.764 40.3397 439.27C40.6843 437.75 41.2824 436.322 42.1339 434.988C42.4798 434.401 42.946 434.067 43.5326 433.986C44.0925 433.878 44.6259 433.958 45.1329 434.224C45.6399 434.49 46.0005 434.889 46.2145 435.422C46.4019 435.955 46.3094 436.542 45.9369 437.183C45.3516 438.197 44.9263 439.224 44.661 440.264C44.3957 441.305 44.2639 442.465 44.2656 443.745C44.2696 446.731 45.1393 448.997 46.8747 450.541C48.6101 452.059 51.1044 452.816 54.3577 452.811C57.6377 452.807 60.13 452.017 61.8346 450.441C63.5392 448.866 64.3894 446.531 64.3852 443.438C64.3841 442.558 64.3162 441.665 64.1817 440.758C64.0204 439.825 63.7925 438.905 63.498 437.999L56.938 438.008L56.9439 442.408C56.9457 443.795 56.3066 444.489 55.0266 444.49C53.7733 444.492 53.1457 443.8 53.1439 442.413L53.1351 435.813C53.1332 434.426 53.8256 433.732 55.2123 433.73L64.9323 433.717C66.1589 433.716 66.9462 434.195 67.2942 435.154C67.7224 436.327 68.0842 437.673 68.3796 439.193C68.6483 440.712 68.7836 442.205 68.7856 443.672ZM68.6664 414.36C68.6687 416.066 67.7899 416.921 66.0299 416.923L42.7499 416.954C41.0165 416.957 40.1487 416.091 40.1464 414.358L40.1335 404.718C40.1294 401.624 40.8729 399.237 42.364 397.555C43.8284 395.873 45.8939 395.03 48.5606 395.027C50.6673 395.024 52.4147 395.568 53.8028 396.66C55.1643 397.751 56.0864 399.323 56.5691 401.376C56.9939 400.015 58.0191 398.894 59.6446 398.012L65.2006 395.004C66.0533 394.55 66.8399 394.469 67.5603 394.761C68.2806 395.027 68.6415 395.706 68.643 396.8C68.644 397.52 68.4981 398.107 68.2053 398.56C67.8859 399.014 67.4065 399.415 66.7669 399.762L59.3323 403.812C58.4263 404.293 57.8271 404.867 57.5346 405.535C57.2155 406.175 57.0566 407.002 57.058 408.015L57.063 411.815L66.023 411.803C67.783 411.801 68.6642 412.653 68.6664 414.36ZM53.263 411.82L53.2547 405.58C53.2497 401.847 51.7272 399.982 48.6872 399.986C45.6739 399.99 44.1697 401.859 44.1747 405.592L44.183 411.832L53.263 411.82ZM68.7017 380.846C68.7047 383.059 68.2939 384.966 67.4693 386.567C66.6448 388.168 65.4731 389.41 63.9543 390.292C62.4354 391.147 60.636 391.576 58.556 391.579C56.5294 391.582 54.7555 391.171 53.2344 390.346C51.7132 389.495 50.525 388.336 49.6697 386.871C48.7877 385.379 48.3455 383.686 48.3429 381.793C48.3392 379.019 49.2163 376.832 50.9742 375.229C52.732 373.6 55.1309 372.784 58.1709 372.78C59.1576 372.778 59.6518 373.418 59.6535 374.698L59.6696 386.778C63.1624 386.4 64.9064 384.397 64.9016 380.771C64.9007 380.077 64.8196 379.304 64.6585 378.451C64.4707 377.571 64.1629 376.745 63.7352 375.972C63.3343 375.279 63.2135 374.693 63.3728 374.213C63.5055 373.732 63.7851 373.399 64.2115 373.212C64.6379 372.998 65.1179 372.97 65.6514 373.13C66.1582 373.262 66.5987 373.635 66.9729 374.248C67.5608 375.18 68.0022 376.26 68.2972 377.486C68.5655 378.686 68.7003 379.806 68.7017 380.846ZM51.7427 381.588C51.7446 383.055 52.1995 384.241 53.1074 385.146C54.0153 386.052 55.2427 386.597 56.7896 386.781L56.7765 376.941C55.15 377.05 53.9106 377.505 53.0583 378.306C52.1793 379.081 51.7408 380.175 51.7427 381.588ZM75.8023 366.316C75.8045 367.97 74.9656 368.797 73.2856 368.8L50.9256 368.83C49.2456 368.832 48.4046 368.02 48.4024 366.393C48.4002 364.74 49.2391 363.912 50.9191 363.91L51.7591 363.908C50.7183 363.35 49.8905 362.511 49.2757 361.392C48.6342 360.273 48.3125 358.993 48.3106 357.553C48.3083 355.846 48.7197 354.353 49.5446 353.071C50.3695 351.764 51.5415 350.749 53.0605 350.027C54.5529 349.305 56.3524 348.942 58.4591 348.94C60.5391 348.937 62.3529 349.294 63.9005 350.012C65.4215 350.73 66.5962 351.729 67.4245 353.008C68.2529 354.286 68.6683 355.793 68.6706 357.526C68.6724 358.913 68.3808 360.166 67.7956 361.287C67.1837 362.381 66.3715 363.222 65.359 363.81L73.279 363.8C74.959 363.797 75.8001 364.636 75.8023 366.316ZM64.8724 358.931C64.8705 357.438 64.3355 356.238 63.2676 355.333C62.1731 354.428 60.5725 353.977 58.4658 353.979C56.3325 353.982 54.7464 354.438 53.7077 355.346C52.6422 356.254 52.1105 357.455 52.1125 358.948C52.1145 360.441 52.6494 361.641 53.7173 362.546C54.7585 363.451 56.3457 363.902 58.4791 363.899C60.5857 363.897 62.1851 363.441 63.2773 362.533C64.3427 361.625 64.8744 360.424 64.8724 358.931ZM68.6417 335.902C68.6444 337.928 68.2334 339.689 67.4088 341.183C66.5841 342.678 65.4123 343.839 63.8934 344.668C62.3478 345.497 60.5351 345.912 58.4551 345.915C56.3751 345.918 54.5745 345.507 53.0534 344.682C51.5323 343.858 50.3574 342.699 49.5288 341.207C48.7001 339.715 48.2844 337.955 48.2817 335.929C48.279 333.902 48.69 332.141 49.5147 330.647C50.3394 329.153 51.5111 327.991 53.03 327.162C54.5489 326.334 56.3484 325.918 58.4284 325.915C60.5084 325.912 62.3223 326.323 63.87 327.148C65.3911 327.973 66.566 329.131 67.3947 330.623C68.2233 332.115 68.639 333.875 68.6417 335.902ZM64.8417 335.907C64.8397 334.413 64.3048 333.214 63.2369 332.309C62.1424 331.404 60.5418 330.952 58.4351 330.955C56.3018 330.958 54.7157 331.413 53.6769 332.321C52.6115 333.23 52.0797 334.43 52.0817 335.924C52.0837 337.417 52.6187 338.616 53.6865 339.521C54.7277 340.427 56.315 340.878 58.4483 340.875C60.555 340.872 62.1544 340.417 63.2465 339.509C64.312 338.601 64.8437 337.4 64.8417 335.907ZM68.5394 319.215C68.5417 320.921 67.6895 321.776 65.9829 321.778L50.8629 321.798C49.1829 321.801 48.3418 320.988 48.3396 319.362C48.3374 317.735 49.1764 316.921 50.8564 316.918L52.0964 316.917C49.8017 315.96 48.519 313.908 48.2481 310.762C48.1133 309.615 48.7658 308.974 50.2056 308.839C51.6187 308.704 52.4063 309.396 52.5683 310.916L52.6495 311.796C52.9739 315.076 54.6561 316.713 57.6961 316.709L65.9761 316.698C67.6827 316.696 68.5372 317.535 68.5394 319.215ZM68.5885 296.018C68.5954 301.191 66.0388 303.781 60.9188 303.788L52.3988 303.799L52.4016 305.879C52.4034 307.213 51.7776 307.88 50.5243 307.882C49.271 307.884 48.6434 307.218 48.6416 305.884L48.6389 303.804L44.9989 303.809C43.3189 303.812 42.4777 302.973 42.4755 301.293C42.4733 299.639 43.3122 298.812 44.9922 298.809L48.6322 298.804L48.6265 294.564C48.6247 293.231 49.2505 292.564 50.5038 292.562C51.7572 292.56 52.3847 293.226 52.3865 294.559L52.3922 298.799L60.6322 298.788C61.9122 298.787 62.8718 298.505 63.511 297.945C64.1503 297.384 64.4691 296.477 64.4674 295.223C64.4668 294.77 64.4263 294.37 64.3458 294.023C64.2653 293.677 64.2116 293.37 64.1846 293.104C64.1575 292.784 64.2638 292.517 64.5035 292.303C64.7166 292.09 65.1698 291.982 65.8631 291.981C66.3964 291.981 66.8765 292.073 67.3035 292.26C67.7037 292.419 67.9841 292.725 68.1447 293.178C68.2518 293.525 68.3458 293.978 68.4265 294.538C68.5339 295.098 68.5879 295.591 68.5885 296.018Z" fill="white"/>
</svg>
