<svg width="49" height="49" viewBox="0 0 49 49" fill="none" xmlns="http://www.w3.org/2000/svg">
<path d="M25.0077 27.0874C25.0375 27.064 25.0651 27.0381 25.0902 27.0098C25.2102 26.8737 25.276 26.6983 25.275 26.5169C25.2736 26.3443 25.2204 26.176 25.1223 26.0339C25.012 25.8777 24.8494 25.7662 24.6639 25.7198L24.6307 25.7136L23.7818 23.1188C23.5887 22.5439 23.4158 22.0182 23.2631 21.5418C23.1053 21.0489 22.9522 20.6321 22.8035 20.2912C22.6773 19.9835 22.5117 19.6936 22.3107 19.4287C22.0297 19.0764 21.7316 19.0024 21.5307 19.0024C21.2474 19.0024 20.9874 19.1478 20.7558 19.4349C20.5523 19.7035 20.3827 19.996 20.2506 20.306C20.0929 20.6534 19.9327 21.065 19.7652 21.5381C19.5976 22.0112 19.435 22.5151 19.2563 23.0732L17.3269 29.0587C17.3135 29.1202 17.3069 29.183 17.3072 29.246C17.3045 29.3534 17.3268 29.4599 17.3724 29.5572C17.4179 29.6545 17.4854 29.7398 17.5696 29.8066C17.7108 29.9151 17.8843 29.9733 18.0624 29.9717C18.278 29.9717 18.5935 29.8904 18.867 29.5097C18.8936 29.4723 18.9136 29.4306 18.9261 29.3864L19.5828 27.2402H23.3776L23.9506 29.4665C24.0153 29.6087 24.1205 29.7287 24.2531 29.8113C24.3857 29.894 24.5398 29.9356 24.696 29.931C25.1802 29.931 25.5104 29.6403 25.5584 29.1721C25.563 29.1224 25.5588 29.0724 25.5461 29.0242L25.0077 27.0874ZM21.8129 22.6038L22.6199 25.0027C22.6852 25.2109 22.7431 25.4105 22.8109 25.6039H20.1508L21.4852 21.649C21.5813 21.9373 21.6905 22.2547 21.8129 22.6014V22.6038Z" fill="white"/>
<path d="M29.7067 26.3802C29.7277 25.8331 29.7474 25.2504 29.7671 24.6405L29.8632 21.3508C29.8693 21.1044 29.8743 20.8888 29.878 20.7064C29.9359 20.7064 30.0012 20.7064 30.0677 20.7064C30.361 20.7188 30.6148 20.7323 30.8316 20.7483C31.2826 20.7791 31.6251 20.5118 31.6941 19.9832C31.6973 19.7857 31.6293 19.5937 31.5026 19.4421C31.376 19.2906 31.199 19.1896 31.0041 19.1577C30.8809 19.1405 30.6998 19.122 30.4447 19.0998C30.1897 19.0776 29.2385 19.0887 27.6849 19.1294C26.8421 19.106 26.0474 19.1639 25.8983 19.7454C25.7751 20.2518 25.9501 20.5019 26.1214 20.6226C26.3011 20.7521 26.5245 20.8061 26.7436 20.773C26.8814 20.7572 27.02 20.7486 27.1588 20.7471L27.9732 20.7348H28.2602C28.2602 20.8062 28.2602 20.8826 28.2602 20.9664C28.2602 21.2449 28.2492 21.5689 28.2356 21.9422L28.1124 25.3575C28.0705 26.381 28.0426 27.1334 28.0286 27.6147C28.0188 27.8932 28.0089 28.1367 27.999 28.3454C27.2844 28.333 26.8249 28.3281 26.6166 28.3281C26.4551 28.3266 26.296 28.3669 26.1546 28.4451C26.0006 28.5302 25.8183 28.7137 25.8183 29.0957C25.8109 29.2682 25.8589 29.692 26.4725 29.9015C26.512 29.9158 26.5536 29.9237 26.5957 29.9249L30.8476 29.9963C30.9478 30.0021 31.0481 29.9879 31.1427 29.9543C31.2373 29.9208 31.3242 29.8687 31.3984 29.8011C31.4726 29.7335 31.5324 29.6517 31.5745 29.5606C31.6166 29.4695 31.6401 29.3709 31.6436 29.2706C31.6574 29.1638 31.6491 29.0552 31.619 28.9517C31.5888 28.8482 31.5377 28.7521 31.4686 28.6694C31.3818 28.5785 31.2771 28.5066 31.1611 28.4582C31.0451 28.4099 30.9203 28.3861 30.7946 28.3885L29.6131 28.3712C29.6279 28.216 29.639 28.0398 29.6488 27.8439C29.6673 27.4164 29.6882 26.9272 29.7067 26.3802Z" fill="white"/>
<path d="M46.1711 31.4945V28.6977C46.1701 27.8267 45.8238 26.9917 45.208 26.3757C44.5923 25.7597 43.7574 25.413 42.8864 25.4117H36.7432V23.587H42.8864C43.7573 23.586 44.5922 23.2397 45.208 22.6239C45.8238 22.0081 46.1701 21.1732 46.1711 20.3023V17.5055C47.045 17.3031 47.8139 16.7862 48.3313 16.0534C48.8486 15.3205 49.0782 14.423 48.9764 13.5317C48.8745 12.6405 48.4483 11.8179 47.7789 11.2207C47.1096 10.6235 46.2439 10.2934 45.3469 10.2934C44.4498 10.2934 43.5841 10.6235 42.9148 11.2207C42.2454 11.8179 41.8192 12.6405 41.7174 13.5317C41.6155 14.423 41.8451 15.3205 42.3625 16.0534C42.8798 16.7862 43.6487 17.3031 44.5226 17.5055V20.3023C44.5223 20.7363 44.3498 21.1524 44.0431 21.4593C43.7363 21.7663 43.3204 21.9391 42.8864 21.9397H36.7432V15.2175C36.7413 14.4338 36.4291 13.6828 35.875 13.1287C35.3209 12.5746 34.5699 12.2624 33.7862 12.2605H27.059V6.11484C27.0594 5.68067 27.232 5.26437 27.539 4.95736C27.846 4.65035 28.2623 4.47773 28.6965 4.4774H31.4958C31.6982 5.35131 32.215 6.1202 32.9479 6.63754C33.6807 7.15488 34.5783 7.3845 35.4695 7.28264C36.3607 7.18078 37.1834 6.75456 37.7806 6.08521C38.3778 5.41586 38.7078 4.55018 38.7078 3.65314C38.7078 2.7561 38.3778 1.89041 37.7806 1.22106C37.1834 0.551714 36.3607 0.125496 35.4695 0.0236364C34.5783 -0.0782233 33.6807 0.151396 32.9479 0.668735C32.215 1.18607 31.6982 1.95496 31.4958 2.82887H28.6965C27.8255 2.83018 26.9906 3.17684 26.3748 3.79283C25.7591 4.40882 25.4127 5.24386 25.4117 6.11484V12.2568H23.5883V6.11484C23.5873 5.24365 23.2408 4.40842 22.6247 3.79239C22.0087 3.17636 21.1735 2.82985 20.3023 2.82887H17.5042C17.3018 1.95496 16.785 1.18607 16.0521 0.668735C15.3193 0.151396 14.4217 -0.0782233 13.5305 0.0236364C12.6392 0.125496 11.8166 0.551714 11.2194 1.22106C10.6222 1.89041 10.2922 2.7561 10.2922 3.65314C10.2922 4.55018 10.6222 5.41586 11.2194 6.08521C11.8166 6.75456 12.6392 7.18078 13.5305 7.28264C14.4217 7.3845 15.3193 7.15488 16.0521 6.63754C16.785 6.1202 17.3018 5.35131 17.5042 4.4774H20.3023C20.7365 4.47773 21.1528 4.65035 21.4598 4.95736C21.7668 5.26437 21.9394 5.68067 21.9397 6.11484V12.2568H15.2175C14.4338 12.2587 13.6828 12.5709 13.1287 13.125C12.5746 13.6791 12.2624 14.4301 12.2605 15.2138V21.936H6.11361C5.67955 21.9357 5.26337 21.763 4.95656 21.456C4.64975 21.149 4.4774 20.7327 4.4774 20.2986V17.5018C5.35131 17.2994 6.1202 16.7825 6.63754 16.0497C7.15488 15.3168 7.3845 14.4193 7.28264 13.528C7.18078 12.6368 6.75456 11.8142 6.08521 11.217C5.41586 10.6198 4.55018 10.2897 3.65314 10.2897C2.7561 10.2897 1.89041 10.6198 1.22106 11.217C0.551714 11.8142 0.125496 12.6368 0.0236364 13.528C-0.0782233 14.4193 0.151396 15.3168 0.668735 16.0497C1.18607 16.7825 1.95496 17.2994 2.82887 17.5018V20.2986C2.82985 21.1695 3.17624 22.0044 3.79203 22.6202C4.40783 23.236 5.24274 23.5823 6.11361 23.5833H12.2568V25.4117H6.11361C5.24263 25.413 4.40772 25.7597 3.79196 26.3757C3.1762 26.9917 2.82985 27.8267 2.82887 28.6977V31.4945C1.95496 31.6969 1.18607 32.2138 0.668735 32.9466C0.151396 33.6795 -0.0782233 34.577 0.0236364 35.4683C0.125496 36.3595 0.551714 37.1821 1.22106 37.7793C1.89041 38.3765 2.7561 38.7066 3.65314 38.7066C4.55018 38.7066 5.41586 38.3765 6.08521 37.7793C6.75456 37.1821 7.18078 36.3595 7.28264 35.4683C7.3845 34.577 7.15488 33.6795 6.63754 32.9466C6.1202 32.2138 5.35131 31.6969 4.4774 31.4945V28.6977C4.4774 28.2636 4.64975 27.8473 4.95656 27.5403C5.26337 27.2333 5.67955 27.0606 6.11361 27.0603H12.2568V33.7825C12.2587 34.5662 12.5709 35.3172 13.125 35.8713C13.6791 36.4254 14.4301 36.7376 15.2138 36.7395H21.936V42.8815C21.9357 43.3156 21.7631 43.7319 21.4561 44.0389C21.1491 44.346 20.7328 44.5186 20.2986 44.5189H17.5042C17.3018 43.645 16.785 42.8761 16.0521 42.3588C15.3193 41.8414 14.4217 41.6118 13.5305 41.7137C12.6392 41.8155 11.8166 42.2417 11.2194 42.9111C10.6222 43.5804 10.2922 44.4461 10.2922 45.3432C10.2922 46.2402 10.6222 47.1059 11.2194 47.7752C11.8166 48.4446 12.6392 48.8708 13.5305 48.9727C14.4217 49.0745 15.3193 48.8449 16.0521 48.3276C16.785 47.8102 17.3018 47.0413 17.5042 46.1674H20.3023C21.1735 46.1664 22.0087 45.8199 22.6247 45.2039C23.2408 44.5879 23.5873 43.7527 23.5883 42.8815V36.7432H25.4117V42.8852C25.4127 43.7561 25.7591 44.5912 26.3748 45.2072C26.9906 45.8232 27.8255 46.1698 28.6965 46.1711H31.4958C31.6982 47.045 32.215 47.8139 32.9479 48.3313C33.6807 48.8486 34.5783 49.0782 35.4695 48.9764C36.3607 48.8745 37.1834 48.4483 37.7806 47.7789C38.3778 47.1096 38.7078 46.2439 38.7078 45.3469C38.7078 44.4498 38.3778 43.5841 37.7806 42.9148C37.1834 42.2454 36.3607 41.8192 35.4695 41.7174C34.5783 41.6155 33.6807 41.8451 32.9479 42.3625C32.215 42.8798 31.6982 43.6487 31.4958 44.5226H28.6965C28.2623 44.5223 27.846 44.3497 27.539 44.0426C27.232 43.7356 27.0594 43.3193 27.059 42.8852V36.7432H33.7825C34.5662 36.7413 35.3172 36.4291 35.8713 35.875C36.4254 35.3209 36.7376 34.5699 36.7395 33.7862V27.0603H42.8827C43.3167 27.0609 43.7326 27.2337 44.0394 27.5407C44.3461 27.8476 44.5186 28.2637 44.5189 28.6977V31.4945C43.645 31.6969 42.8761 32.2138 42.3588 32.9466C41.8414 33.6795 41.6118 34.577 41.7137 35.4683C41.8155 36.3595 42.2417 37.1821 42.9111 37.7793C43.5804 38.3765 44.4461 38.7066 45.3432 38.7066C46.2402 38.7066 47.1059 38.3765 47.7752 37.7793C48.4446 37.1821 48.8708 36.3595 48.9727 35.4683C49.0745 34.577 48.8449 33.6795 48.3276 32.9466C47.8102 32.2138 47.0413 31.6969 46.1674 31.4945H46.1711ZM43.3373 13.9534C43.3373 13.5566 43.455 13.1688 43.6754 12.839C43.8958 12.5091 44.209 12.252 44.5756 12.1002C44.9421 11.9484 45.3454 11.9087 45.7345 11.9861C46.1236 12.0635 46.481 12.2545 46.7615 12.535C47.042 12.8155 47.2331 13.1729 47.3105 13.562C47.3879 13.9511 47.3481 14.3544 47.1963 14.721C47.0445 15.0875 46.7874 15.4007 46.4575 15.6211C46.1277 15.8416 45.7399 15.9592 45.3432 15.9592C44.812 15.9576 44.3032 15.7456 43.9279 15.3697C43.5527 14.9938 43.3417 14.4845 43.341 13.9534H43.3373ZM35.0466 1.64854C35.4435 1.64829 35.8314 1.76576 36.1615 1.98607C36.4915 2.20638 36.7488 2.51963 36.9008 2.8862C37.0527 3.25277 37.0926 3.65618 37.0152 4.04539C36.9379 4.4346 36.7468 4.79211 36.4662 5.07271C36.1856 5.3533 35.8281 5.54437 35.4389 5.62172C35.0497 5.69908 34.6463 5.65925 34.2797 5.50728C33.9131 5.35531 33.5999 5.09803 33.3796 4.76798C33.1593 4.43794 33.0418 4.04996 33.042 3.65314C33.0427 3.12169 33.2541 2.61219 33.6299 2.23639C34.0057 1.8606 34.5152 1.64919 35.0466 1.64854ZM13.9534 5.65897C13.5566 5.65921 13.1687 5.54178 12.8386 5.32153C12.5086 5.10127 12.2513 4.78809 12.0993 4.42159C11.9473 4.05509 11.9074 3.65175 11.9847 3.26258C12.0619 2.8734 12.2529 2.51588 12.5334 2.23524C12.8138 1.95459 13.1712 1.76343 13.5604 1.68594C13.9495 1.60844 14.3529 1.64809 14.7194 1.79987C15.086 1.95165 15.3994 2.20875 15.6198 2.53863C15.8403 2.86851 15.958 3.25637 15.958 3.65314C15.9573 4.18471 15.7459 4.69433 15.3702 5.07032C14.9944 5.44631 14.4849 5.65799 13.9534 5.65897ZM1.64854 13.9534C1.64854 13.5566 1.76621 13.1687 1.98667 12.8389C2.20712 12.509 2.52047 12.2519 2.88706 12.1001C3.25365 11.9483 3.65702 11.9087 4.04614 11.9862C4.43527 12.0637 4.79267 12.2548 5.07314 12.5355C5.35362 12.8161 5.54456 13.1736 5.62181 13.5628C5.69907 13.952 5.65917 14.3553 5.50716 14.7218C5.35516 15.0883 5.09787 15.4015 4.76785 15.6217C4.43783 15.842 4.04991 15.9594 3.65314 15.9592C3.12147 15.9585 2.61179 15.747 2.23596 15.3709C1.86013 14.9948 1.64886 14.485 1.64854 13.9534ZM5.65897 35.0466C5.65897 35.4434 5.54133 35.8312 5.32093 36.161C5.10052 36.4909 4.78725 36.748 4.42074 36.8998C4.05422 37.0516 3.65091 37.0913 3.26182 37.0139C2.87273 36.9365 2.51532 36.7455 2.2348 36.465C1.95428 36.1845 1.76324 35.8271 1.68585 35.438C1.60845 35.0489 1.64817 34.6456 1.79999 34.279C1.95181 33.9125 2.2089 33.5993 2.53876 33.3788C2.86861 33.1584 3.25642 33.0408 3.65314 33.0408C4.18492 33.0415 4.69473 33.253 5.07076 33.629C5.44678 34.005 5.65832 34.5149 5.65897 35.0466ZM13.9534 47.3515C13.5565 47.3517 13.1686 47.2342 12.8385 47.0139C12.5085 46.7936 12.2512 46.4804 12.0992 46.1138C11.9472 45.7472 11.9074 45.3438 11.9848 44.9546C12.0621 44.5654 12.2532 44.2079 12.5338 43.9273C12.8144 43.6467 13.1719 43.4556 13.5611 43.3783C13.9503 43.3009 14.3537 43.3407 14.7203 43.4927C15.0869 43.6447 15.4001 43.902 15.6204 44.232C15.8407 44.5621 15.9582 44.95 15.958 45.3469C15.9573 45.8783 15.7459 46.3878 15.3701 46.7636C14.9943 47.1394 14.4848 47.3508 13.9534 47.3515ZM35.0466 43.341C35.4434 43.3408 35.8313 43.4582 36.1614 43.6785C36.4914 43.8987 36.7487 44.2119 36.9007 44.5784C37.0527 44.9449 37.0926 45.3482 37.0153 45.7374C36.9381 46.1266 36.7471 46.4841 36.4666 46.7648C36.1862 47.0454 35.8288 47.2366 35.4396 47.3141C35.0505 47.3916 34.6471 47.3519 34.2806 47.2001C33.914 47.0483 33.6006 46.7913 33.3802 46.4614C33.1597 46.1315 33.042 45.7436 33.042 45.3469C33.0427 44.8153 33.2541 44.3057 33.6298 43.9297C34.0056 43.5537 34.5151 43.342 35.0466 43.341ZM34.5 33.7862C34.4997 34.1342 34.246 34.5496 34 34.7958C33.7825 34.7958 34.1305 34.9993 33.7825 35L15.2138 34.7958C14.8655 34.7955 14.7462 34.7462 14.5 34.5C14.2538 34.2538 14.2894 33.9773 14.2891 33.629V15.6217C14.2894 15.2735 14.5 15 14.5 15C14.5 15 14.6518 15.0003 15 15C15.3482 14.9997 33.6518 14.9997 34 15C34.3482 15.0003 34.5 15 34.5 15C34.7462 15.2462 34.4997 14.8692 34.5 15.2175V33.7862ZM45.3469 37.0512C44.95 37.0515 44.5621 36.934 44.232 36.7137C43.902 36.4934 43.6447 36.1801 43.4927 35.8136C43.3407 35.447 43.3009 35.0436 43.3783 34.6544C43.4556 34.2652 43.6467 33.9077 43.9273 33.6271C44.2079 33.3465 44.5654 33.1554 44.9546 33.0781C45.3438 33.0007 45.7472 33.0405 46.1138 33.1925C46.4804 33.3445 46.7936 33.6017 47.0139 33.9318C47.2342 34.2618 47.3517 34.6498 47.3515 35.0466C47.3505 35.578 47.139 36.0873 46.7632 36.463C46.3875 36.8387 45.8782 37.0503 45.3469 37.0512Z" fill="white"/>
</svg>
