<svg width="26" height="24" viewBox="0 0 26 24" fill="none" xmlns="http://www.w3.org/2000/svg">
<path d="M23.0848 3.37582H12.3292L10.4047 1.3334C9.58397 0.436167 8.64602 0 7.53737 0H2.91515C1.30772 0 0 1.31325 0 2.92747V21.0725C0 22.6868 1.30772 24 2.91515 24H23.0848C24.6923 24 26 22.6868 26 21.0725V6.3033C26 4.68907 24.6923 3.37582 23.0848 3.37582ZM23.7059 21.0725C23.7059 22.2505 24.2578 22.0645 23.0848 22.0645H2.91515C1.74216 22.0645 1.91176 22.2505 1.91176 21.0725V8.83517C1.91176 7.65721 2.26818 7.74194 3.44118 7.74194H23.7059C24.8789 7.74194 23.7059 7.65721 23.7059 8.83517V21.0725ZM23.0848 5.90769H2.91515C2.07664 5.90769 2.44411 5.73226 1.91176 6.3033V3.37582C1.91176 2.19787 1.74216 1.87511 2.91515 1.87511H7.53737C8.4261 1.87511 8.88592 1.58612 9.55882 2.32258C9.55741 2.32116 9.29128 2.38738 9.55882 2.32258L11.4706 4.64516C11.545 4.72412 12.2353 4.64516 12.2353 4.64516H23.0848C24.2578 4.64516 24.8529 4.72974 24.8529 5.90769L24.4706 6.3033C23.9382 5.73226 23.9234 5.90769 23.0848 5.90769Z" fill="white"/>
</svg>
