<svg width="360" height="193" viewBox="0 0 360 193" fill="none" xmlns="http://www.w3.org/2000/svg">
<mask id="path-1-inside-1" fill="white">
<path fill-rule="evenodd" clip-rule="evenodd" d="M268.579 9.6061C246.693 23.6594 220.578 31.8227 192.533 31.8227C158.626 31.8227 127.539 19.8896 103.337 0.0410156L0.765625 129.008C51.5384 168.448 113.74 190.814 178.287 192.84C242.834 194.865 306.346 176.444 359.548 140.266L268.579 9.6061Z"/>
</mask>
<path fill-rule="evenodd" clip-rule="evenodd" d="M268.579 9.6061C246.693 23.6594 220.578 31.8227 192.533 31.8227C158.626 31.8227 127.539 19.8896 103.337 0.0410156L0.765625 129.008C51.5384 168.448 113.74 190.814 178.287 192.84C242.834 194.865 306.346 176.444 359.548 140.266L268.579 9.6061Z" fill="#D5DAFE"/>
<path d="M268.579 9.6061L271.862 7.32057L269.66 4.15828L266.418 6.24025L268.579 9.6061ZM103.337 0.0410156L105.874 -3.05186L102.734 -5.62678L100.206 -2.44884L103.337 0.0410156ZM0.765625 129.008L-2.36497 126.518L-4.88351 129.685L-1.68821 132.167L0.765625 129.008ZM359.548 140.266L361.797 143.574L365.141 141.3L362.831 137.981L359.548 140.266ZM266.418 6.24025C245.16 19.8905 219.791 27.8227 192.533 27.8227V35.8227C221.364 35.8227 248.227 27.4283 270.74 12.9719L266.418 6.24025ZM192.533 27.8227C159.58 27.8227 129.383 16.2288 105.874 -3.05186L100.8 3.13389C125.695 23.5504 157.672 35.8227 192.533 35.8227V27.8227ZM100.206 -2.44884L-2.36497 126.518L3.89622 131.498L106.468 2.53087L100.206 -2.44884ZM-1.68821 132.167C49.7557 172.129 112.773 194.786 178.161 196.838L178.412 188.842C114.707 186.843 53.3211 164.768 3.21946 125.849L-1.68821 132.167ZM178.161 196.838C243.55 198.89 307.893 180.229 361.797 143.574L357.299 136.959C304.798 172.659 242.118 190.841 178.412 188.842L178.161 196.838ZM362.831 137.981L271.862 7.32057L265.296 11.8916L356.265 142.552L362.831 137.981Z" fill="white" mask="url(#path-1-inside-1)"/>
<path d="M108.268 116.24C107.568 116.24 107.068 116 106.768 115.52C106.468 115.04 106.478 114.46 106.798 113.78L114.718 96.23C114.978 95.65 115.288 95.24 115.648 95C116.028 94.74 116.458 94.61 116.938 94.61C117.398 94.61 117.808 94.74 118.168 95C118.548 95.24 118.868 95.65 119.128 96.23L127.078 113.78C127.398 114.48 127.418 115.07 127.138 115.55C126.858 116.01 126.378 116.24 125.698 116.24C125.138 116.24 124.698 116.11 124.378 115.85C124.078 115.57 123.808 115.15 123.568 114.59L122.068 111.11H111.748L110.278 114.59C110.018 115.17 109.748 115.59 109.468 115.85C109.188 116.11 108.788 116.24 108.268 116.24ZM116.878 99.02L113.068 108.05H120.748L116.938 99.02H116.878ZM131.882 116.24C130.642 116.24 130.022 115.6 130.022 114.32V102.98C130.022 101.72 130.632 101.09 131.852 101.09C133.072 101.09 133.682 101.72 133.682 102.98V103.61C134.182 102.77 134.852 102.13 135.692 101.69C136.552 101.25 137.512 101.03 138.572 101.03C142.032 101.03 143.762 103.04 143.762 107.06V114.32C143.762 115.6 143.142 116.24 141.902 116.24C140.642 116.24 140.012 115.6 140.012 114.32V107.24C140.012 106.1 139.792 105.27 139.352 104.75C138.932 104.23 138.272 103.97 137.372 103.97C136.272 103.97 135.392 104.32 134.732 105.02C134.092 105.7 133.772 106.61 133.772 107.75V114.32C133.772 115.6 133.142 116.24 131.882 116.24ZM149.431 116.24C148.191 116.24 147.571 115.6 147.571 114.32V102.98C147.571 101.72 148.181 101.09 149.401 101.09C150.621 101.09 151.231 101.72 151.231 102.98V103.61C151.731 102.77 152.401 102.13 153.241 101.69C154.101 101.25 155.061 101.03 156.121 101.03C159.581 101.03 161.311 103.04 161.311 107.06V114.32C161.311 115.6 160.691 116.24 159.451 116.24C158.191 116.24 157.561 115.6 157.561 114.32V107.24C157.561 106.1 157.341 105.27 156.901 104.75C156.481 104.23 155.821 103.97 154.921 103.97C153.821 103.97 152.941 104.32 152.281 105.02C151.641 105.7 151.321 106.61 151.321 107.75V114.32C151.321 115.6 150.691 116.24 149.431 116.24ZM171.81 116.3C170.29 116.3 168.97 115.99 167.85 115.37C166.73 114.75 165.86 113.87 165.24 112.73C164.62 111.57 164.31 110.21 164.31 108.65C164.31 107.09 164.62 105.74 165.24 104.6C165.86 103.46 166.73 102.58 167.85 101.96C168.97 101.34 170.29 101.03 171.81 101.03C173.33 101.03 174.65 101.34 175.77 101.96C176.89 102.58 177.76 103.46 178.38 104.6C179 105.74 179.31 107.09 179.31 108.65C179.31 110.21 179 111.57 178.38 112.73C177.76 113.87 176.89 114.75 175.77 115.37C174.65 115.99 173.33 116.3 171.81 116.3ZM171.81 113.45C172.93 113.45 173.83 113.05 174.51 112.25C175.19 111.43 175.53 110.23 175.53 108.65C175.53 107.05 175.19 105.86 174.51 105.08C173.83 104.28 172.93 103.88 171.81 103.88C170.69 103.88 169.79 104.28 169.11 105.08C168.43 105.86 168.09 107.05 168.09 108.65C168.09 110.23 168.43 111.43 169.11 112.25C169.79 113.05 170.69 113.45 171.81 113.45ZM188.979 116.3C185.099 116.3 183.159 114.38 183.159 110.54V104.15H181.599C180.599 104.15 180.099 103.68 180.099 102.74C180.099 101.8 180.599 101.33 181.599 101.33H183.159V98.6C183.159 97.34 183.789 96.71 185.049 96.71C186.289 96.71 186.909 97.34 186.909 98.6V101.33H190.089C191.089 101.33 191.589 101.8 191.589 102.74C191.589 103.68 191.089 104.15 190.089 104.15H186.909V110.33C186.909 111.29 187.119 112.01 187.539 112.49C187.959 112.97 188.639 113.21 189.579 113.21C189.919 113.21 190.219 113.18 190.479 113.12C190.739 113.06 190.969 113.02 191.169 113C191.409 112.98 191.609 113.06 191.769 113.24C191.929 113.4 192.009 113.74 192.009 114.26C192.009 114.66 191.939 115.02 191.799 115.34C191.679 115.64 191.449 115.85 191.109 115.97C190.849 116.05 190.509 116.12 190.089 116.18C189.669 116.26 189.299 116.3 188.979 116.3ZM198.602 116.3C197.542 116.3 196.592 116.1 195.752 115.7C194.932 115.28 194.282 114.72 193.802 114.02C193.342 113.32 193.112 112.53 193.112 111.65C193.112 110.57 193.392 109.72 193.952 109.1C194.512 108.46 195.422 108 196.682 107.72C197.942 107.44 199.632 107.3 201.752 107.3H202.802V106.67C202.802 105.67 202.582 104.95 202.142 104.51C201.702 104.07 200.962 103.85 199.922 103.85C199.342 103.85 198.712 103.92 198.032 104.06C197.372 104.2 196.672 104.44 195.932 104.78C195.452 105 195.052 105.03 194.732 104.87C194.412 104.69 194.192 104.42 194.072 104.06C193.972 103.68 193.992 103.3 194.132 102.92C194.292 102.54 194.602 102.26 195.062 102.08C195.982 101.7 196.862 101.43 197.702 101.27C198.562 101.11 199.342 101.03 200.042 101.03C202.182 101.03 203.772 101.53 204.812 102.53C205.852 103.51 206.372 105.04 206.372 107.12V114.32C206.372 115.6 205.792 116.24 204.632 116.24C203.452 116.24 202.862 115.6 202.862 114.32V113.66C202.522 114.48 201.982 115.13 201.242 115.61C200.502 116.07 199.622 116.3 198.602 116.3ZM199.382 113.72C200.362 113.72 201.172 113.38 201.812 112.7C202.472 112.02 202.802 111.16 202.802 110.12V109.46H201.782C199.902 109.46 198.592 109.61 197.852 109.91C197.132 110.19 196.772 110.71 196.772 111.47C196.772 112.13 197.002 112.67 197.462 113.09C197.922 113.51 198.562 113.72 199.382 113.72ZM216.899 116.3C213.019 116.3 211.079 114.38 211.079 110.54V104.15H209.519C208.519 104.15 208.019 103.68 208.019 102.74C208.019 101.8 208.519 101.33 209.519 101.33H211.079V98.6C211.079 97.34 211.709 96.71 212.969 96.71C214.209 96.71 214.829 97.34 214.829 98.6V101.33H218.009C219.009 101.33 219.509 101.8 219.509 102.74C219.509 103.68 219.009 104.15 218.009 104.15H214.829V110.33C214.829 111.29 215.039 112.01 215.459 112.49C215.879 112.97 216.559 113.21 217.499 113.21C217.839 113.21 218.139 113.18 218.399 113.12C218.659 113.06 218.889 113.02 219.089 113C219.329 112.98 219.529 113.06 219.689 113.24C219.849 113.4 219.929 113.74 219.929 114.26C219.929 114.66 219.859 115.02 219.719 115.34C219.599 115.64 219.369 115.85 219.029 115.97C218.769 116.05 218.429 116.12 218.009 116.18C217.589 116.26 217.219 116.3 216.899 116.3ZM223.933 98.33C223.233 98.33 222.683 98.16 222.283 97.82C221.903 97.46 221.713 96.97 221.713 96.35C221.713 95.71 221.903 95.22 222.283 94.88C222.683 94.54 223.233 94.37 223.933 94.37C225.413 94.37 226.153 95.03 226.153 96.35C226.153 97.67 225.413 98.33 223.933 98.33ZM223.933 116.21C223.333 116.21 222.873 116.03 222.553 115.67C222.233 115.31 222.073 114.81 222.073 114.17V103.16C222.073 101.8 222.693 101.12 223.933 101.12C225.193 101.12 225.823 101.8 225.823 103.16V114.17C225.823 114.81 225.663 115.31 225.343 115.67C225.023 116.03 224.553 116.21 223.933 116.21ZM236.41 116.3C234.89 116.3 233.57 115.99 232.45 115.37C231.33 114.75 230.46 113.87 229.84 112.73C229.22 111.57 228.91 110.21 228.91 108.65C228.91 107.09 229.22 105.74 229.84 104.6C230.46 103.46 231.33 102.58 232.45 101.96C233.57 101.34 234.89 101.03 236.41 101.03C237.93 101.03 239.25 101.34 240.37 101.96C241.49 102.58 242.36 103.46 242.98 104.6C243.6 105.74 243.91 107.09 243.91 108.65C243.91 110.21 243.6 111.57 242.98 112.73C242.36 113.87 241.49 114.75 240.37 115.37C239.25 115.99 237.93 116.3 236.41 116.3ZM236.41 113.45C237.53 113.45 238.43 113.05 239.11 112.25C239.79 111.43 240.13 110.23 240.13 108.65C240.13 107.05 239.79 105.86 239.11 105.08C238.43 104.28 237.53 103.88 236.41 103.88C235.29 103.88 234.39 104.28 233.71 105.08C233.03 105.86 232.69 107.05 232.69 108.65C232.69 110.23 233.03 111.43 233.71 112.25C234.39 113.05 235.29 113.45 236.41 113.45ZM248.865 116.24C247.625 116.24 247.005 115.6 247.005 114.32V102.98C247.005 101.72 247.615 101.09 248.835 101.09C250.055 101.09 250.665 101.72 250.665 102.98V103.61C251.165 102.77 251.835 102.13 252.675 101.69C253.535 101.25 254.495 101.03 255.555 101.03C259.015 101.03 260.745 103.04 260.745 107.06V114.32C260.745 115.6 260.125 116.24 258.885 116.24C257.625 116.24 256.995 115.6 256.995 114.32V107.24C256.995 106.1 256.775 105.27 256.335 104.75C255.915 104.23 255.255 103.97 254.355 103.97C253.255 103.97 252.375 104.32 251.715 105.02C251.075 105.7 250.755 106.61 250.755 107.75V114.32C250.755 115.6 250.125 116.24 248.865 116.24ZM269.924 116.3C269.064 116.3 268.154 116.21 267.194 116.03C266.234 115.85 265.374 115.54 264.614 115.1C264.194 114.86 263.934 114.57 263.834 114.23C263.734 113.87 263.744 113.54 263.864 113.24C264.004 112.92 264.224 112.69 264.524 112.55C264.844 112.41 265.214 112.44 265.634 112.64C266.434 113.02 267.184 113.29 267.884 113.45C268.584 113.59 269.274 113.66 269.954 113.66C270.914 113.66 271.624 113.5 272.084 113.18C272.564 112.84 272.804 112.4 272.804 111.86C272.804 111.02 272.184 110.48 270.944 110.24L267.944 109.67C265.404 109.19 264.134 107.87 264.134 105.71C264.134 104.75 264.394 103.92 264.914 103.22C265.454 102.52 266.194 101.98 267.134 101.6C268.074 101.22 269.154 101.03 270.374 101.03C272.134 101.03 273.704 101.42 275.084 102.2C275.464 102.4 275.684 102.68 275.744 103.04C275.824 103.38 275.784 103.71 275.624 104.03C275.484 104.33 275.254 104.55 274.934 104.69C274.614 104.81 274.244 104.77 273.824 104.57C273.204 104.25 272.604 104.02 272.024 103.88C271.464 103.74 270.924 103.67 270.404 103.67C269.424 103.67 268.694 103.84 268.214 104.18C267.754 104.52 267.524 104.97 267.524 105.53C267.524 106.41 268.094 106.95 269.234 107.15L272.234 107.72C273.534 107.96 274.514 108.4 275.174 109.04C275.854 109.68 276.194 110.54 276.194 111.62C276.194 113.08 275.624 114.23 274.484 115.07C273.344 115.89 271.824 116.3 269.924 116.3Z" fill="#00218A"/>
</svg>
