<svg width="289" height="260" viewBox="0 0 289 260" fill="none" xmlns="http://www.w3.org/2000/svg">
<mask id="path-1-inside-1" fill="white">
<path fill-rule="evenodd" clip-rule="evenodd" d="M179.692 59.0243C231.417 97.1988 269.584 150.91 288.619 212.314L137.806 259.065C119.374 203.692 66.5563 163.709 4.27557 163.709C2.98642 163.709 1.70132 163.727 0.420492 163.761L0.101562 0C64.3887 0.0884427 127.966 20.8499 179.692 59.0243Z"/>
</mask>
<path fill-rule="evenodd" clip-rule="evenodd" d="M179.692 59.0243C231.417 97.1988 269.584 150.91 288.619 212.314L137.806 259.065C119.374 203.692 66.5563 163.709 4.27557 163.709C2.98642 163.709 1.70132 163.727 0.420492 163.761L0.101562 0C64.3887 0.0884427 127.966 20.8499 179.692 59.0243Z" fill="#D5DAFE"/>
<path d="M288.619 212.314L289.804 216.135L293.624 214.951L292.44 211.13L288.619 212.314ZM179.692 59.0243L177.316 62.2427L177.316 62.2427L179.692 59.0243ZM137.806 259.065L134.011 260.328L135.249 264.046L138.991 262.886L137.806 259.065ZM0.420492 163.761L-3.5795 163.768L-3.57152 167.868L0.526768 167.759L0.420492 163.761ZM0.101562 0L0.107065 -4L-3.90625 -4.00552L-3.89843 0.00779012L0.101562 0ZM292.44 211.13C273.152 148.911 234.479 94.4869 182.067 55.8059L177.316 62.2427C228.356 99.9106 266.016 152.909 284.799 213.499L292.44 211.13ZM138.991 262.886L289.804 216.135L287.435 208.494L136.622 255.244L138.991 262.886ZM4.27557 167.709C64.8116 167.709 116.115 206.568 134.011 260.328L141.602 257.802C122.632 200.816 68.301 159.709 4.27557 159.709V167.709ZM0.526768 167.759C1.77219 167.726 3.02187 167.709 4.27557 167.709V159.709C2.95097 159.709 1.63044 159.727 0.314215 159.762L0.526768 167.759ZM-3.89843 0.00779012L-3.5795 163.768L4.42048 163.753L4.10155 -0.00779012L-3.89843 0.00779012ZM182.067 55.8059C129.648 17.1198 65.2386 -3.91039 0.107065 -4L0.0960595 4C63.5388 4.08728 126.284 24.58 177.316 62.2427L182.067 55.8059Z" fill="white" mask="url(#path-1-inside-1)"/>
<path d="M116.375 122.563C113.476 122.509 111.27 121.718 109.758 120.19C108.266 118.642 107.548 116.389 107.603 113.429L107.802 102.661C107.826 101.361 108.478 100.723 109.758 100.747C111.038 100.771 111.665 101.432 111.641 102.732L111.443 113.47C111.407 115.37 111.811 116.808 112.653 117.783C113.515 118.739 114.776 119.233 116.436 119.264C119.816 119.326 121.54 117.458 121.611 113.658L121.81 102.92C121.834 101.62 122.486 100.982 123.765 101.006C125.025 101.029 125.643 101.691 125.619 102.991L125.42 113.759C125.365 116.718 124.573 118.944 123.046 120.436C121.518 121.908 119.295 122.617 116.375 122.563ZM137.02 122.945C135.68 122.92 134.373 122.746 133.099 122.423C131.845 122.099 130.753 121.629 129.825 121.012C129.37 120.703 129.097 120.328 129.005 119.886C128.913 119.445 128.951 119.035 129.118 118.658C129.305 118.262 129.58 117.997 129.943 117.863C130.326 117.71 130.754 117.788 131.229 118.097C132.099 118.633 133.022 119.031 133.997 119.289C134.973 119.547 136 119.686 137.08 119.706C138.66 119.735 139.814 119.496 140.544 118.99C141.274 118.463 141.646 117.78 141.662 116.94C141.675 116.24 141.425 115.686 140.913 115.276C140.42 114.867 139.556 114.521 138.321 114.238L135.035 113.487C131.29 112.617 129.446 110.653 129.503 107.593C129.527 106.274 129.899 105.13 130.617 104.163C131.335 103.197 132.318 102.455 133.568 101.938C134.818 101.421 136.253 101.177 137.872 101.207C139.072 101.23 140.209 101.401 141.284 101.721C142.358 102.04 143.32 102.498 144.169 103.094C144.563 103.382 144.797 103.736 144.869 104.157C144.942 104.559 144.885 104.938 144.698 105.294C144.512 105.631 144.217 105.866 143.815 105.998C143.433 106.111 142.984 106.013 142.47 105.703C141.738 105.27 140.994 104.956 140.237 104.762C139.481 104.568 138.662 104.462 137.783 104.446C136.403 104.421 135.318 104.691 134.527 105.256C133.736 105.822 133.332 106.574 133.315 107.514C133.302 108.234 133.531 108.818 134.003 109.267C134.475 109.696 135.289 110.041 136.444 110.302L139.701 111.053C141.672 111.509 143.13 112.196 144.073 113.114C145.036 114.032 145.504 115.241 145.476 116.741C145.453 118 145.092 119.104 144.395 120.051C143.697 120.998 142.713 121.73 141.444 122.247C140.194 122.744 138.72 122.977 137.02 122.945ZM158.822 123.349C156.482 123.306 154.511 122.829 152.907 121.919C151.324 121.01 150.127 119.737 149.318 118.102C148.508 116.467 148.123 114.539 148.164 112.32C148.206 110.08 148.671 108.158 149.561 106.555C150.452 104.931 151.715 103.694 153.351 102.844C154.987 101.974 156.935 101.56 159.195 101.602C160.314 101.623 161.432 101.783 162.546 102.084C163.681 102.365 164.743 102.835 165.731 103.493C166.166 103.761 166.409 104.116 166.461 104.557C166.533 104.978 166.466 105.377 166.259 105.753C166.052 106.13 165.747 106.394 165.344 106.547C164.942 106.679 164.503 106.601 164.028 106.312C163.277 105.858 162.513 105.524 161.736 105.31C160.96 105.095 160.092 104.979 159.132 104.961C156.893 104.92 155.181 105.538 153.997 106.817C152.833 108.095 152.229 109.955 152.184 112.394C152.138 114.854 152.693 116.734 153.85 118.036C155.006 119.338 156.743 120.01 159.063 120.053C159.723 120.065 160.394 120.027 161.076 119.94C161.778 119.833 162.471 119.676 163.155 119.468L163.246 114.549L159.946 114.488C158.906 114.469 158.395 113.979 158.413 113.02C158.431 112.08 158.959 111.619 159.999 111.639L164.948 111.73C165.988 111.75 166.498 112.279 166.479 113.319L166.344 120.608C166.327 121.527 165.956 122.111 165.231 122.357C164.346 122.661 163.331 122.912 162.187 123.111C161.043 123.29 159.922 123.369 158.822 123.349ZM106.866 163.094C105.507 163.069 104.839 162.376 104.865 161.017L105.18 143.95C105.206 142.59 105.898 141.922 107.258 141.948L113.077 142.055C116.616 142.121 119.329 143.081 121.215 144.936C123.121 146.792 124.042 149.42 123.98 152.819C123.917 156.198 122.899 158.79 120.925 160.594C118.971 162.398 116.225 163.267 112.685 163.202L106.866 163.094ZM108.725 159.948L112.504 160.018C117.383 160.108 119.869 157.684 119.96 152.745C120.051 147.825 117.657 145.321 112.778 145.23L108.999 145.16L108.725 159.948ZM132.138 163.862C131.078 163.842 130.132 163.625 129.3 163.209C128.488 162.774 127.848 162.202 127.381 161.493C126.934 160.785 126.719 159.991 126.735 159.111C126.755 158.031 127.051 157.187 127.622 156.577C128.194 155.948 129.112 155.504 130.377 155.248C131.642 154.991 133.334 154.882 135.454 154.922L136.504 154.941L136.516 154.311C136.534 153.311 136.327 152.587 135.896 152.139C135.464 151.691 134.728 151.458 133.688 151.438C133.108 151.428 132.477 151.486 131.795 151.613C131.132 151.741 130.428 151.968 129.682 152.294C129.198 152.506 128.797 152.528 128.48 152.362C128.164 152.176 127.949 151.902 127.835 151.54C127.742 151.158 127.769 150.779 127.917 150.401C128.084 150.024 128.399 149.75 128.862 149.579C129.789 149.216 130.674 148.962 131.516 148.818C132.379 148.674 133.161 148.608 133.86 148.621C136 148.661 137.581 149.19 138.602 150.209C139.624 151.208 140.115 152.748 140.077 154.827L139.943 162.026C139.92 163.306 139.328 163.935 138.168 163.914C136.988 163.892 136.41 163.241 136.434 161.961L136.446 161.301C136.091 162.115 135.539 162.755 134.79 163.221C134.042 163.667 133.158 163.881 132.138 163.862ZM132.966 161.297C133.946 161.315 134.762 160.99 135.414 160.322C136.087 159.654 136.433 158.801 136.452 157.761L136.464 157.101L135.444 157.082C133.564 157.047 132.252 157.173 131.506 157.459C130.781 157.726 130.412 158.239 130.398 158.999C130.386 159.659 130.606 160.203 131.058 160.631C131.51 161.06 132.146 161.282 132.966 161.297ZM150.431 164.201C146.552 164.129 144.648 162.173 144.719 158.334L144.837 151.945L143.277 151.916C142.278 151.898 141.786 151.418 141.804 150.478C141.821 149.539 142.33 149.078 143.33 149.097L144.889 149.125L144.94 146.396C144.963 145.136 145.605 144.518 146.864 144.541C148.104 144.564 148.712 145.205 148.689 146.465L148.639 149.195L151.818 149.254C152.818 149.272 153.309 149.751 153.292 150.691C153.274 151.631 152.766 152.092 151.766 152.073L148.586 152.014L148.472 158.193C148.454 159.153 148.651 159.877 149.062 160.365C149.473 160.852 150.148 161.105 151.088 161.122C151.428 161.128 151.729 161.104 151.99 161.049C152.251 160.994 152.482 160.958 152.682 160.942C152.922 160.926 153.121 161.01 153.277 161.193C153.434 161.356 153.508 161.697 153.498 162.217C153.491 162.617 153.414 162.976 153.268 163.293C153.143 163.591 152.909 163.796 152.567 163.91C152.306 163.985 151.964 164.049 151.543 164.101C151.122 164.173 150.751 164.206 150.431 164.201ZM160.053 164.379C158.993 164.359 158.047 164.142 157.215 163.726C156.403 163.291 155.763 162.719 155.296 162.01C154.849 161.302 154.634 160.508 154.65 159.628C154.67 158.548 154.966 157.703 155.537 157.094C156.109 156.464 157.027 156.021 158.292 155.765C159.557 155.508 161.25 155.399 163.369 155.439L164.419 155.458L164.431 154.828C164.449 153.828 164.243 153.104 163.811 152.656C163.379 152.208 162.643 151.974 161.603 151.955C161.024 151.945 160.392 152.003 159.71 152.13C159.047 152.258 158.343 152.485 157.597 152.811C157.113 153.022 156.712 153.045 156.395 152.879C156.079 152.693 155.864 152.419 155.751 152.057C155.658 151.675 155.685 151.296 155.832 150.918C155.999 150.541 156.314 150.267 156.777 150.096C157.704 149.733 158.589 149.479 159.432 149.335C160.294 149.191 161.076 149.125 161.776 149.138C163.915 149.178 165.496 149.707 166.517 150.726C167.539 151.725 168.03 153.264 167.992 155.344L167.859 162.543C167.835 163.823 167.243 164.452 166.083 164.43C164.904 164.408 164.325 163.758 164.349 162.478L164.361 161.818C164.006 162.632 163.454 163.271 162.706 163.738C161.957 164.184 161.073 164.398 160.053 164.379ZM160.881 161.814C161.861 161.832 162.677 161.507 163.329 160.839C164.002 160.171 164.348 159.317 164.367 158.277L164.379 157.618L163.359 157.599C161.48 157.564 160.167 157.69 159.422 157.976C158.697 158.243 158.327 158.756 158.313 159.516C158.301 160.176 158.521 160.72 158.973 161.148C159.425 161.577 160.061 161.798 160.881 161.814Z" fill="#00218A"/>
</svg>
