<svg width="288" height="289" viewBox="0 0 288 289" fill="none" xmlns="http://www.w3.org/2000/svg">
<path d="M287.464 144.5C287.464 224.031 223.223 288.5 143.982 288.5C64.7408 288.5 0.5 224.031 0.5 144.5C0.5 64.9693 64.7408 0.5 143.982 0.5C223.223 0.5 287.464 64.9693 287.464 144.5Z" fill="#00218A" stroke="white"/>
<path d="M96.9348 124C95.2121 124 94.3508 123.139 94.3508 121.416V99.794C94.3508 98.0713 95.2121 97.21 96.9348 97.21H110.501C111.818 97.21 112.477 97.8433 112.477 99.11C112.477 100.427 111.818 101.086 110.501 101.086H99.0248V108.458H109.665C110.982 108.458 111.641 109.104 111.641 110.396C111.641 111.688 110.982 112.334 109.665 112.334H99.0248V120.124H110.501C111.818 120.124 112.477 120.77 112.477 122.062C112.477 123.354 111.818 124 110.501 124H96.9348ZM118.925 124.304C117.354 124.304 116.569 123.493 116.569 121.872V107.508C116.569 105.912 117.341 105.114 118.887 105.114C120.432 105.114 121.205 105.912 121.205 107.508V108.306C121.838 107.242 122.687 106.431 123.751 105.874C124.84 105.317 126.056 105.038 127.399 105.038C131.781 105.038 133.973 107.584 133.973 112.676V121.872C133.973 123.493 133.187 124.304 131.617 124.304C130.021 124.304 129.223 123.493 129.223 121.872V112.904C129.223 111.46 128.944 110.409 128.387 109.75C127.855 109.091 127.019 108.762 125.879 108.762C124.485 108.762 123.371 109.205 122.535 110.092C121.724 110.953 121.319 112.106 121.319 113.55V121.872C121.319 123.493 120.521 124.304 118.925 124.304ZM147.309 124.38C142.394 124.38 139.937 121.948 139.937 117.084V108.99H137.961C136.694 108.99 136.061 108.395 136.061 107.204C136.061 106.013 136.694 105.418 137.961 105.418H139.937V101.96C139.937 100.364 140.735 99.566 142.331 99.566C143.902 99.566 144.687 100.364 144.687 101.96V105.418H148.715C149.982 105.418 150.615 106.013 150.615 107.204C150.615 108.395 149.982 108.99 148.715 108.99H144.687V116.818C144.687 118.034 144.953 118.946 145.485 119.554C146.017 120.162 146.878 120.466 148.069 120.466C148.5 120.466 148.88 120.428 149.209 120.352C149.538 120.276 149.83 120.225 150.083 120.2C150.387 120.175 150.64 120.276 150.843 120.504C151.046 120.707 151.147 121.137 151.147 121.796C151.147 122.303 151.058 122.759 150.881 123.164C150.729 123.544 150.438 123.81 150.007 123.962C149.678 124.063 149.247 124.152 148.715 124.228C148.183 124.329 147.714 124.38 147.309 124.38ZM156.22 101.618C155.333 101.618 154.636 101.403 154.13 100.972C153.648 100.516 153.408 99.8953 153.408 99.11C153.408 98.2993 153.648 97.6787 154.13 97.248C154.636 96.8173 155.333 96.602 156.22 96.602C158.094 96.602 159.032 97.438 159.032 99.11C159.032 100.782 158.094 101.618 156.22 101.618ZM156.22 124.266C155.46 124.266 154.877 124.038 154.472 123.582C154.066 123.126 153.864 122.493 153.864 121.682V107.736C153.864 106.013 154.649 105.152 156.22 105.152C157.816 105.152 158.614 106.013 158.614 107.736V121.682C158.614 122.493 158.411 123.126 158.006 123.582C157.6 124.038 157.005 124.266 156.22 124.266ZM165.981 124.304C164.36 124.304 163.549 123.493 163.549 121.872V107.508C163.549 105.912 164.322 105.114 165.867 105.114C167.412 105.114 168.185 105.912 168.185 107.508V108.686C169.097 106.507 171.048 105.291 174.037 105.038C175.126 104.911 175.734 105.532 175.861 106.9C175.988 108.243 175.329 108.99 173.885 109.142L173.049 109.218C169.933 109.522 168.375 111.118 168.375 114.006V121.872C168.375 123.493 167.577 124.304 165.981 124.304ZM187.291 124.38C185.188 124.38 183.377 123.987 181.857 123.202C180.337 122.417 179.159 121.302 178.323 119.858C177.512 118.414 177.107 116.704 177.107 114.728C177.107 112.803 177.5 111.118 178.285 109.674C179.096 108.23 180.198 107.103 181.591 106.292C183.01 105.456 184.618 105.038 186.417 105.038C189.052 105.038 191.129 105.874 192.649 107.546C194.194 109.218 194.967 111.498 194.967 114.386C194.967 115.323 194.359 115.792 193.143 115.792H181.667C182.022 119.111 183.922 120.77 187.367 120.77C188.026 120.77 188.76 120.694 189.571 120.542C190.407 120.365 191.192 120.073 191.927 119.668C192.586 119.288 193.143 119.174 193.599 119.326C194.055 119.453 194.372 119.719 194.549 120.124C194.752 120.529 194.777 120.985 194.625 121.492C194.498 121.973 194.144 122.391 193.561 122.746C192.674 123.303 191.648 123.721 190.483 124C189.343 124.253 188.279 124.38 187.291 124.38ZM186.607 108.268C185.214 108.268 184.086 108.699 183.225 109.56C182.364 110.421 181.844 111.587 181.667 113.056H191.015C190.914 111.511 190.483 110.333 189.723 109.522C188.988 108.686 187.95 108.268 186.607 108.268ZM84.141 176.38C81.3543 176.38 78.9603 175.823 76.959 174.708C74.983 173.568 73.463 171.972 72.399 169.92C71.335 167.843 70.803 165.398 70.803 162.586C70.803 159.774 71.335 157.342 72.399 155.29C73.463 153.238 74.983 151.655 76.959 150.54C78.9603 149.4 81.3543 148.83 84.141 148.83C85.5343 148.83 86.9023 149.007 88.245 149.362C89.5876 149.717 90.7656 150.223 91.779 150.882C92.4376 151.313 92.8303 151.832 92.957 152.44C93.0836 153.023 93.0076 153.567 92.729 154.074C92.4503 154.555 92.0323 154.885 91.475 155.062C90.9176 155.214 90.297 155.062 89.613 154.606C88.8276 154.099 87.979 153.732 87.067 153.504C86.155 153.276 85.2303 153.162 84.293 153.162C81.5823 153.162 79.5176 153.985 78.099 155.632C76.6803 157.253 75.971 159.571 75.971 162.586C75.971 165.601 76.6803 167.931 78.099 169.578C79.5176 171.225 81.5823 172.048 84.293 172.048C85.2556 172.048 86.2056 171.934 87.143 171.706C88.0803 171.453 88.967 171.073 89.803 170.566C90.487 170.135 91.095 169.996 91.627 170.148C92.159 170.3 92.5516 170.617 92.805 171.098C93.0836 171.554 93.1723 172.061 93.071 172.618C92.9696 173.175 92.6276 173.669 92.045 174.1C91.0316 174.835 89.8156 175.405 88.397 175.81C87.0036 176.19 85.585 176.38 84.141 176.38ZM102.499 176.38C101.156 176.38 99.9531 176.127 98.8891 175.62C97.8505 175.088 97.0271 174.379 96.4191 173.492C95.8365 172.605 95.5451 171.605 95.5451 170.49C95.5451 169.122 95.8998 168.045 96.6091 167.26C97.3185 166.449 98.4711 165.867 100.067 165.512C101.663 165.157 103.804 164.98 106.489 164.98H107.819V164.182C107.819 162.915 107.54 162.003 106.983 161.446C106.426 160.889 105.488 160.61 104.171 160.61C103.436 160.61 102.638 160.699 101.777 160.876C100.941 161.053 100.054 161.357 99.1171 161.788C98.5091 162.067 98.0025 162.105 97.5971 161.902C97.1918 161.674 96.9131 161.332 96.7611 160.876C96.6345 160.395 96.6598 159.913 96.8371 159.432C97.0398 158.951 97.4325 158.596 98.0151 158.368C99.1805 157.887 100.295 157.545 101.359 157.342C102.448 157.139 103.436 157.038 104.323 157.038C107.034 157.038 109.048 157.671 110.365 158.938C111.682 160.179 112.341 162.117 112.341 164.752V173.872C112.341 175.493 111.606 176.304 110.137 176.304C108.642 176.304 107.895 175.493 107.895 173.872V173.036C107.464 174.075 106.78 174.898 105.843 175.506C104.906 176.089 103.791 176.38 102.499 176.38ZM103.487 173.112C104.728 173.112 105.754 172.681 106.565 171.82C107.401 170.959 107.819 169.869 107.819 168.552V167.716H106.527C104.146 167.716 102.486 167.906 101.549 168.286C100.637 168.641 100.181 169.299 100.181 170.262C100.181 171.098 100.472 171.782 101.055 172.314C101.638 172.846 102.448 173.112 103.487 173.112ZM123.964 176.38C122.875 176.38 121.722 176.266 120.506 176.038C119.29 175.81 118.201 175.417 117.238 174.86C116.706 174.556 116.377 174.189 116.25 173.758C116.124 173.302 116.136 172.884 116.288 172.504C116.466 172.099 116.744 171.807 117.124 171.63C117.53 171.453 117.998 171.491 118.53 171.744C119.544 172.225 120.494 172.567 121.38 172.77C122.267 172.947 123.141 173.036 124.002 173.036C125.218 173.036 126.118 172.833 126.7 172.428C127.308 171.997 127.612 171.44 127.612 170.756C127.612 169.692 126.827 169.008 125.256 168.704L121.456 167.982C118.239 167.374 116.63 165.702 116.63 162.966C116.63 161.75 116.96 160.699 117.618 159.812C118.302 158.925 119.24 158.241 120.43 157.76C121.621 157.279 122.989 157.038 124.534 157.038C126.764 157.038 128.752 157.532 130.5 158.52C130.982 158.773 131.26 159.128 131.336 159.584C131.438 160.015 131.387 160.433 131.184 160.838C131.007 161.218 130.716 161.497 130.31 161.674C129.905 161.826 129.436 161.775 128.904 161.522C128.119 161.117 127.359 160.825 126.624 160.648C125.915 160.471 125.231 160.382 124.572 160.382C123.331 160.382 122.406 160.597 121.798 161.028C121.216 161.459 120.924 162.029 120.924 162.738C120.924 163.853 121.646 164.537 123.09 164.79L126.89 165.512C128.537 165.816 129.778 166.373 130.614 167.184C131.476 167.995 131.906 169.084 131.906 170.452C131.906 172.301 131.184 173.758 129.74 174.822C128.296 175.861 126.371 176.38 123.964 176.38ZM144.875 176.38C142.772 176.38 140.961 175.987 139.441 175.202C137.921 174.417 136.743 173.302 135.907 171.858C135.096 170.414 134.691 168.704 134.691 166.728C134.691 164.803 135.084 163.118 135.869 161.674C136.68 160.23 137.782 159.103 139.175 158.292C140.594 157.456 142.202 157.038 144.001 157.038C146.636 157.038 148.713 157.874 150.233 159.546C151.778 161.218 152.551 163.498 152.551 166.386C152.551 167.323 151.943 167.792 150.727 167.792H139.251C139.606 171.111 141.506 172.77 144.951 172.77C145.61 172.77 146.344 172.694 147.155 172.542C147.991 172.365 148.776 172.073 149.511 171.668C150.17 171.288 150.727 171.174 151.183 171.326C151.639 171.453 151.956 171.719 152.133 172.124C152.336 172.529 152.361 172.985 152.209 173.492C152.082 173.973 151.728 174.391 151.145 174.746C150.258 175.303 149.232 175.721 148.067 176C146.927 176.253 145.863 176.38 144.875 176.38ZM144.191 160.268C142.798 160.268 141.67 160.699 140.809 161.56C139.948 162.421 139.428 163.587 139.251 165.056H148.599C148.498 163.511 148.067 162.333 147.307 161.522C146.572 160.686 145.534 160.268 144.191 160.268ZM169.593 176.304C167.921 176.304 167.085 175.443 167.085 173.72V151.794C167.085 150.071 167.947 149.21 169.669 149.21H182.931C184.249 149.21 184.907 149.843 184.907 151.11C184.907 152.427 184.249 153.086 182.931 153.086H171.949V160.648H182.133C183.451 160.648 184.109 161.281 184.109 162.548C184.109 163.865 183.451 164.524 182.133 164.524H171.949V173.72C171.949 175.443 171.164 176.304 169.593 176.304ZM191.845 153.618C190.958 153.618 190.261 153.403 189.755 152.972C189.273 152.516 189.033 151.895 189.033 151.11C189.033 150.299 189.273 149.679 189.755 149.248C190.261 148.817 190.958 148.602 191.845 148.602C193.719 148.602 194.657 149.438 194.657 151.11C194.657 152.782 193.719 153.618 191.845 153.618ZM191.845 176.266C191.085 176.266 190.502 176.038 190.097 175.582C189.691 175.126 189.489 174.493 189.489 173.682V159.736C189.489 158.013 190.274 157.152 191.845 157.152C193.441 157.152 194.239 158.013 194.239 159.736V173.682C194.239 174.493 194.036 175.126 193.631 175.582C193.225 176.038 192.63 176.266 191.845 176.266ZM205.52 176.38C201.289 176.38 199.174 174.011 199.174 169.274V151.3C199.174 149.704 199.959 148.906 201.53 148.906C203.126 148.906 203.924 149.704 203.924 151.3V169.046C203.924 171.326 204.874 172.466 206.774 172.466C206.977 172.466 207.167 172.466 207.344 172.466C207.521 172.441 207.699 172.415 207.876 172.39C208.231 172.339 208.471 172.441 208.598 172.694C208.725 172.922 208.788 173.403 208.788 174.138C208.788 174.771 208.661 175.265 208.408 175.62C208.155 175.975 207.737 176.19 207.154 176.266C206.622 176.342 206.077 176.38 205.52 176.38ZM220.281 176.38C218.179 176.38 216.367 175.987 214.847 175.202C213.327 174.417 212.149 173.302 211.313 171.858C210.503 170.414 210.097 168.704 210.097 166.728C210.097 164.803 210.49 163.118 211.275 161.674C212.086 160.23 213.188 159.103 214.581 158.292C216 157.456 217.609 157.038 219.407 157.038C222.042 157.038 224.119 157.874 225.639 159.546C227.185 161.218 227.957 163.498 227.957 166.386C227.957 167.323 227.349 167.792 226.133 167.792H214.657C215.012 171.111 216.912 172.77 220.357 172.77C221.016 172.77 221.751 172.694 222.561 172.542C223.397 172.365 224.183 172.073 224.917 171.668C225.576 171.288 226.133 171.174 226.589 171.326C227.045 171.453 227.362 171.719 227.539 172.124C227.742 172.529 227.767 172.985 227.615 173.492C227.489 173.973 227.134 174.391 226.551 174.746C225.665 175.303 224.639 175.721 223.473 176C222.333 176.253 221.269 176.38 220.281 176.38ZM219.597 160.268C218.204 160.268 217.077 160.699 216.215 161.56C215.354 162.421 214.835 163.587 214.657 165.056H224.005C223.904 163.511 223.473 162.333 222.713 161.522C221.979 160.686 220.94 160.268 219.597 160.268Z" fill="white"/>
</svg>
