<svg width="289" height="261" viewBox="0 0 289 261" fill="none" xmlns="http://www.w3.org/2000/svg">
<mask id="path-1-inside-1" fill="white">
<path fill-rule="evenodd" clip-rule="evenodd" d="M110.091 59.4549C161.443 22.1013 224.53 0.204176 288.03 0L287.87 163.153C227.564 165.196 176.975 205.552 159.676 260.648L157.607 259.953L0.722656 209.75C20.4705 149.399 58.7401 96.8086 110.091 59.4549Z"/>
</mask>
<path fill-rule="evenodd" clip-rule="evenodd" d="M110.091 59.4549C161.443 22.1013 224.53 0.204176 288.03 0L287.87 163.153C227.564 165.196 176.975 205.552 159.676 260.648L157.607 259.953L0.722656 209.75C20.4705 149.399 58.7401 96.8086 110.091 59.4549Z" fill="#D5DAFE"/>
<path d="M288.03 0L292.03 0.00391306L292.034 -4.01289L288.017 -3.99998L288.03 0ZM110.091 59.4549L107.738 56.2202L110.091 59.4549ZM287.87 163.153L288.006 167.151L291.867 167.02L291.87 163.157L287.87 163.153ZM159.676 260.648L158.402 264.439L162.27 265.739L163.492 261.846L159.676 260.648ZM157.607 259.953L158.88 256.161L158.853 256.152L158.826 256.143L157.607 259.953ZM0.722656 209.75L-3.079 208.506L-4.33111 212.333L-0.496432 213.56L0.722656 209.75ZM288.017 -3.99998C223.624 -3.79293 159.726 18.4034 107.738 56.2202L112.444 62.6897C163.159 25.7991 225.437 4.20128 288.043 3.99998L288.017 -3.99998ZM291.87 163.157L292.03 0.00391306L284.03 -0.00391306L283.87 163.149L291.87 163.157ZM163.492 261.846C180.296 208.329 229.439 169.135 288.006 167.151L287.735 159.155C225.689 161.258 173.654 202.776 155.859 259.449L163.492 261.846ZM156.333 263.744L158.402 264.439L160.949 256.856L158.88 256.161L156.333 263.744ZM-0.496432 213.56L156.388 263.762L158.826 256.143L1.94174 205.941L-0.496432 213.56ZM107.738 56.2202C55.707 94.0687 16.9304 147.356 -3.079 208.506L4.52431 210.994C24.0105 151.443 61.7733 99.5486 112.444 62.6897L107.738 56.2202Z" fill="white" mask="url(#path-1-inside-1)"/>
<path d="M106.826 121.3C104.786 121.3 102.996 120.85 101.456 119.95C99.936 119.05 98.756 117.79 97.916 116.17C97.076 114.53 96.656 112.61 96.656 110.41C96.656 108.19 97.076 106.27 97.916 104.65C98.756 103.03 99.936 101.78 101.456 100.9C102.976 100 104.766 99.55 106.826 99.55C108.886 99.55 110.676 100 112.196 100.9C113.716 101.78 114.896 103.03 115.736 104.65C116.576 106.27 116.996 108.18 116.996 110.38C116.996 112.6 116.576 114.53 115.736 116.17C114.896 117.79 113.716 119.05 112.196 119.95C110.676 120.85 108.886 121.3 106.826 121.3ZM106.826 118C108.766 118 110.276 117.33 111.356 115.99C112.436 114.65 112.976 112.79 112.976 110.41C112.976 108.01 112.436 106.15 111.356 104.83C110.296 103.51 108.786 102.85 106.826 102.85C104.886 102.85 103.376 103.51 102.296 104.83C101.216 106.15 100.676 108.01 100.676 110.41C100.676 112.79 101.216 114.65 102.296 115.99C103.376 117.33 104.886 118 106.826 118ZM122.401 126.64C121.161 126.64 120.541 126.01 120.541 124.75V107.98C120.541 106.72 121.151 106.09 122.371 106.09C123.611 106.09 124.231 106.72 124.231 107.98V108.61C124.651 107.83 125.281 107.21 126.121 106.75C126.961 106.27 127.921 106.03 129.001 106.03C130.281 106.03 131.401 106.34 132.361 106.96C133.341 107.58 134.101 108.46 134.641 109.6C135.181 110.72 135.451 112.07 135.451 113.65C135.451 115.21 135.181 116.57 134.641 117.73C134.101 118.87 133.351 119.75 132.391 120.37C131.431 120.99 130.301 121.3 129.001 121.3C127.961 121.3 127.021 121.08 126.181 120.64C125.361 120.18 124.731 119.57 124.291 118.81V124.75C124.291 126.01 123.661 126.64 122.401 126.64ZM127.951 118.45C129.071 118.45 129.971 118.05 130.651 117.25C131.331 116.43 131.671 115.23 131.671 113.65C131.671 112.05 131.331 110.86 130.651 110.08C129.971 109.28 129.071 108.88 127.951 108.88C126.831 108.88 125.931 109.28 125.251 110.08C124.571 110.86 124.231 112.05 124.231 113.65C124.231 115.23 124.571 116.43 125.251 117.25C125.931 118.05 126.831 118.45 127.951 118.45ZM145.759 121.3C144.099 121.3 142.669 120.99 141.469 120.37C140.269 119.75 139.339 118.87 138.679 117.73C138.039 116.59 137.719 115.24 137.719 113.68C137.719 112.16 138.029 110.83 138.649 109.69C139.289 108.55 140.159 107.66 141.259 107.02C142.379 106.36 143.649 106.03 145.069 106.03C147.149 106.03 148.789 106.69 149.989 108.01C151.209 109.33 151.819 111.13 151.819 113.41C151.819 114.15 151.339 114.52 150.379 114.52H141.319C141.599 117.14 143.099 118.45 145.819 118.45C146.339 118.45 146.919 118.39 147.559 118.27C148.219 118.13 148.839 117.9 149.419 117.58C149.939 117.28 150.379 117.19 150.739 117.31C151.099 117.41 151.349 117.62 151.489 117.94C151.649 118.26 151.669 118.62 151.549 119.02C151.449 119.4 151.169 119.73 150.709 120.01C150.009 120.45 149.199 120.78 148.279 121C147.379 121.2 146.539 121.3 145.759 121.3ZM145.219 108.58C144.119 108.58 143.229 108.92 142.549 109.6C141.869 110.28 141.459 111.2 141.319 112.36H148.699C148.619 111.14 148.279 110.21 147.679 109.57C147.099 108.91 146.279 108.58 145.219 108.58ZM156.709 121.24C155.429 121.24 154.789 120.6 154.789 119.32V107.98C154.789 106.72 155.399 106.09 156.619 106.09C157.839 106.09 158.449 106.72 158.449 107.98V108.91C159.169 107.19 160.709 106.23 163.069 106.03C163.929 105.93 164.409 106.42 164.509 107.5C164.609 108.56 164.089 109.15 162.949 109.27L162.289 109.33C159.829 109.57 158.599 110.83 158.599 113.11V119.32C158.599 120.6 157.969 121.24 156.709 121.24ZM171.22 121.3C170.16 121.3 169.21 121.1 168.37 120.7C167.55 120.28 166.9 119.72 166.42 119.02C165.96 118.32 165.73 117.53 165.73 116.65C165.73 115.57 166.01 114.72 166.57 114.1C167.13 113.46 168.04 113 169.3 112.72C170.56 112.44 172.25 112.3 174.37 112.3H175.42V111.67C175.42 110.67 175.2 109.95 174.76 109.51C174.32 109.07 173.58 108.85 172.54 108.85C171.96 108.85 171.33 108.92 170.65 109.06C169.99 109.2 169.29 109.44 168.55 109.78C168.07 110 167.67 110.03 167.35 109.87C167.03 109.69 166.81 109.42 166.69 109.06C166.59 108.68 166.61 108.3 166.75 107.92C166.91 107.54 167.22 107.26 167.68 107.08C168.6 106.7 169.48 106.43 170.32 106.27C171.18 106.11 171.96 106.03 172.66 106.03C174.8 106.03 176.39 106.53 177.43 107.53C178.47 108.51 178.99 110.04 178.99 112.12V119.32C178.99 120.6 178.41 121.24 177.25 121.24C176.07 121.24 175.48 120.6 175.48 119.32V118.66C175.14 119.48 174.6 120.13 173.86 120.61C173.12 121.07 172.24 121.3 171.22 121.3ZM172 118.72C172.98 118.72 173.79 118.38 174.43 117.7C175.09 117.02 175.42 116.16 175.42 115.12V114.46H174.4C172.52 114.46 171.21 114.61 170.47 114.91C169.75 115.19 169.39 115.71 169.39 116.47C169.39 117.13 169.62 117.67 170.08 118.09C170.54 118.51 171.18 118.72 172 118.72ZM189.517 121.3C185.637 121.3 183.697 119.38 183.697 115.54V109.15H182.137C181.137 109.15 180.637 108.68 180.637 107.74C180.637 106.8 181.137 106.33 182.137 106.33H183.697V103.6C183.697 102.34 184.327 101.71 185.587 101.71C186.827 101.71 187.447 102.34 187.447 103.6V106.33H190.627C191.627 106.33 192.127 106.8 192.127 107.74C192.127 108.68 191.627 109.15 190.627 109.15H187.447V115.33C187.447 116.29 187.657 117.01 188.077 117.49C188.497 117.97 189.177 118.21 190.117 118.21C190.457 118.21 190.757 118.18 191.017 118.12C191.277 118.06 191.507 118.02 191.707 118C191.947 117.98 192.147 118.06 192.307 118.24C192.467 118.4 192.547 118.74 192.547 119.26C192.547 119.66 192.477 120.02 192.337 120.34C192.217 120.64 191.987 120.85 191.647 120.97C191.387 121.05 191.047 121.12 190.627 121.18C190.207 121.26 189.837 121.3 189.517 121.3ZM196.551 103.33C195.851 103.33 195.301 103.16 194.901 102.82C194.521 102.46 194.331 101.97 194.331 101.35C194.331 100.71 194.521 100.22 194.901 99.88C195.301 99.54 195.851 99.37 196.551 99.37C198.031 99.37 198.771 100.03 198.771 101.35C198.771 102.67 198.031 103.33 196.551 103.33ZM196.551 121.21C195.951 121.21 195.491 121.03 195.171 120.67C194.851 120.31 194.691 119.81 194.691 119.17V108.16C194.691 106.8 195.311 106.12 196.551 106.12C197.811 106.12 198.441 106.8 198.441 108.16V119.17C198.441 119.81 198.281 120.31 197.961 120.67C197.641 121.03 197.171 121.21 196.551 121.21ZM208.278 121.24C207.278 121.24 206.538 120.71 206.058 119.65L201.288 108.58C201.008 107.92 200.998 107.34 201.258 106.84C201.538 106.34 202.088 106.09 202.908 106.09C203.368 106.09 203.738 106.2 204.018 106.42C204.298 106.62 204.548 107.01 204.768 107.59L208.368 116.59L212.088 107.56C212.308 107 212.558 106.62 212.838 106.42C213.138 106.2 213.538 106.09 214.038 106.09C214.678 106.09 215.128 106.34 215.388 106.84C215.648 107.34 215.638 107.91 215.358 108.55L210.498 119.65C210.058 120.71 209.318 121.24 208.278 121.24ZM225.095 121.3C223.435 121.3 222.005 120.99 220.805 120.37C219.605 119.75 218.675 118.87 218.015 117.73C217.375 116.59 217.055 115.24 217.055 113.68C217.055 112.16 217.365 110.83 217.985 109.69C218.625 108.55 219.495 107.66 220.595 107.02C221.715 106.36 222.985 106.03 224.405 106.03C226.485 106.03 228.125 106.69 229.325 108.01C230.545 109.33 231.155 111.13 231.155 113.41C231.155 114.15 230.675 114.52 229.715 114.52H220.655C220.935 117.14 222.435 118.45 225.155 118.45C225.675 118.45 226.255 118.39 226.895 118.27C227.555 118.13 228.175 117.9 228.755 117.58C229.275 117.28 229.715 117.19 230.075 117.31C230.435 117.41 230.685 117.62 230.825 117.94C230.985 118.26 231.005 118.62 230.885 119.02C230.785 119.4 230.505 119.73 230.045 120.01C229.345 120.45 228.535 120.78 227.615 121C226.715 121.2 225.875 121.3 225.095 121.3ZM224.555 108.58C223.455 108.58 222.565 108.92 221.885 109.6C221.205 110.28 220.795 111.2 220.655 112.36H228.035C227.955 111.14 227.615 110.21 227.015 109.57C226.435 108.91 225.615 108.58 224.555 108.58ZM133.285 162.24C132.265 162.24 131.535 161.74 131.095 160.74L123.265 143.16C122.945 142.4 122.955 141.79 123.295 141.33C123.655 140.85 124.175 140.61 124.855 140.61C125.435 140.61 125.865 140.74 126.145 141C126.445 141.24 126.695 141.61 126.895 142.11L133.345 157.08L139.795 142.08C140.015 141.6 140.275 141.24 140.575 141C140.875 140.74 141.295 140.61 141.835 140.61C142.475 140.61 142.955 140.85 143.275 141.33C143.615 141.81 143.615 142.42 143.275 143.16L135.445 160.74C135.225 161.24 134.945 161.62 134.605 161.88C134.285 162.12 133.845 162.24 133.285 162.24ZM149.266 144.33C148.566 144.33 148.016 144.16 147.616 143.82C147.236 143.46 147.046 142.97 147.046 142.35C147.046 141.71 147.236 141.22 147.616 140.88C148.016 140.54 148.566 140.37 149.266 140.37C150.746 140.37 151.486 141.03 151.486 142.35C151.486 143.67 150.746 144.33 149.266 144.33ZM149.266 162.21C148.666 162.21 148.206 162.03 147.886 161.67C147.566 161.31 147.406 160.81 147.406 160.17V149.16C147.406 147.8 148.026 147.12 149.266 147.12C150.526 147.12 151.156 147.8 151.156 149.16V160.17C151.156 160.81 150.996 161.31 150.676 161.67C150.356 162.03 149.886 162.21 149.266 162.21ZM160.692 162.3C159.412 162.3 158.282 161.99 157.302 161.37C156.342 160.75 155.592 159.87 155.052 158.73C154.512 157.57 154.242 156.21 154.242 154.65C154.242 153.07 154.512 151.72 155.052 150.6C155.592 149.46 156.342 148.58 157.302 147.96C158.282 147.34 159.412 147.03 160.692 147.03C161.732 147.03 162.672 147.26 163.512 147.72C164.352 148.18 164.982 148.79 165.402 149.55V142.5C165.402 141.24 166.022 140.61 167.262 140.61C168.522 140.61 169.152 141.24 169.152 142.5V160.32C169.152 161.6 168.532 162.24 167.292 162.24C166.052 162.24 165.432 161.6 165.432 160.32V159.69C165.012 160.49 164.382 161.13 163.542 161.61C162.702 162.07 161.752 162.3 160.692 162.3ZM161.742 159.45C162.862 159.45 163.762 159.05 164.442 158.25C165.122 157.43 165.462 156.23 165.462 154.65C165.462 153.05 165.122 151.86 164.442 151.08C163.762 150.28 162.862 149.88 161.742 149.88C160.622 149.88 159.722 150.28 159.042 151.08C158.362 151.86 158.022 153.05 158.022 154.65C158.022 156.23 158.362 157.43 159.042 158.25C159.722 159.05 160.622 159.45 161.742 159.45ZM180.271 162.3C178.611 162.3 177.181 161.99 175.981 161.37C174.781 160.75 173.851 159.87 173.191 158.73C172.551 157.59 172.231 156.24 172.231 154.68C172.231 153.16 172.541 151.83 173.161 150.69C173.801 149.55 174.671 148.66 175.771 148.02C176.891 147.36 178.161 147.03 179.581 147.03C181.661 147.03 183.301 147.69 184.501 149.01C185.721 150.33 186.331 152.13 186.331 154.41C186.331 155.15 185.851 155.52 184.891 155.52H175.831C176.111 158.14 177.611 159.45 180.331 159.45C180.851 159.45 181.431 159.39 182.071 159.27C182.731 159.13 183.351 158.9 183.931 158.58C184.451 158.28 184.891 158.19 185.251 158.31C185.611 158.41 185.861 158.62 186.001 158.94C186.161 159.26 186.181 159.62 186.061 160.02C185.961 160.4 185.681 160.73 185.221 161.01C184.521 161.45 183.711 161.78 182.791 162C181.891 162.2 181.051 162.3 180.271 162.3ZM179.731 149.58C178.631 149.58 177.741 149.92 177.061 150.6C176.381 151.28 175.971 152.2 175.831 153.36H183.211C183.131 152.14 182.791 151.21 182.191 150.57C181.611 149.91 180.791 149.58 179.731 149.58ZM195.99 162.3C194.47 162.3 193.15 161.99 192.03 161.37C190.91 160.75 190.04 159.87 189.42 158.73C188.8 157.57 188.49 156.21 188.49 154.65C188.49 153.09 188.8 151.74 189.42 150.6C190.04 149.46 190.91 148.58 192.03 147.96C193.15 147.34 194.47 147.03 195.99 147.03C197.51 147.03 198.83 147.34 199.95 147.96C201.07 148.58 201.94 149.46 202.56 150.6C203.18 151.74 203.49 153.09 203.49 154.65C203.49 156.21 203.18 157.57 202.56 158.73C201.94 159.87 201.07 160.75 199.95 161.37C198.83 161.99 197.51 162.3 195.99 162.3ZM195.99 159.45C197.11 159.45 198.01 159.05 198.69 158.25C199.37 157.43 199.71 156.23 199.71 154.65C199.71 153.05 199.37 151.86 198.69 151.08C198.01 150.28 197.11 149.88 195.99 149.88C194.87 149.88 193.97 150.28 193.29 151.08C192.61 151.86 192.27 153.05 192.27 154.65C192.27 156.23 192.61 157.43 193.29 158.25C193.97 159.05 194.87 159.45 195.99 159.45Z" fill="#00218A"/>
</svg>
