<svg width="90" height="90" viewBox="0 0 90 90" fill="none" xmlns="http://www.w3.org/2000/svg">
<circle cx="45" cy="45" r="45" fill="#72BED6" fill-opacity="0.75"/>
<path d="M60.7396 31.2044H44.0879L41.1084 28.0557C39.8377 26.6724 38.3856 26 36.6692 26H29.5132C27.0246 26 25 28.0246 25 30.5132V58.4868C25 60.9754 27.0246 63 29.5132 63H60.7396C63.2282 63 65.2527 60.9754 65.2527 58.4868V35.7176C65.2527 33.229 63.2282 31.2044 60.7396 31.2044ZM62.5 58.4868C62.5 60.3028 62.5556 61 60.7396 61H29.5132C27.6972 61 27.5 60.3028 27.5 58.4868V39.6209C27.5 37.8049 27.6972 37.5 29.5132 37.5H60.7396C62.5556 37.5 62.5 37.8049 62.5 39.6209V58.4868ZM60.7396 35.7176H45.5H29.5132C28.215 35.7176 28.3242 34.8372 27.5 35.7176V31.2044C27.5 29.3884 27.6972 28.5 29.5132 28.5H36.5C37.8759 28.5 38.4582 28.3646 39.5 29.5C38.7806 30.1092 38.787 30.116 39.5 29.5L42.5 32.5C42.6151 32.6217 43.9203 33 44.0879 33H60.7396C62.5556 33 63 33.684 63 35.5V35.7176C62.1758 34.8372 62.0377 35.7176 60.7396 35.7176Z" fill="white"/>
</svg>
