<svg width="602" height="602" viewBox="0 0 602 602" fill="none" xmlns="http://www.w3.org/2000/svg">
<g clip-path="url(#clip0)">
<path d="M444.5 302.5C444.5 379.269 382.49 441.5 306 441.5C229.51 441.5 167.5 379.269 167.5 302.5C167.5 225.731 229.51 163.5 306 163.5C382.49 163.5 444.5 225.731 444.5 302.5Z" fill="#D5DAFE" stroke="white"/>
<path d="M251.454 285C249.55 285 248.598 284.048 248.598 282.144V258.246C248.598 256.342 249.55 255.39 251.454 255.39H266.448C267.904 255.39 268.632 256.09 268.632 257.49C268.632 258.946 267.904 259.674 266.448 259.674H253.764V267.822H265.524C266.98 267.822 267.708 268.536 267.708 269.964C267.708 271.392 266.98 272.106 265.524 272.106H253.764V280.716H266.448C267.904 280.716 268.632 281.43 268.632 282.858C268.632 284.286 267.904 285 266.448 285H251.454ZM275.759 285.336C274.023 285.336 273.155 284.44 273.155 282.648V266.772C273.155 265.008 274.009 264.126 275.717 264.126C277.425 264.126 278.279 265.008 278.279 266.772V267.654C278.979 266.478 279.917 265.582 281.093 264.966C282.297 264.35 283.641 264.042 285.125 264.042C289.969 264.042 292.391 266.856 292.391 272.484V282.648C292.391 284.44 291.523 285.336 289.787 285.336C288.023 285.336 287.141 284.44 287.141 282.648V272.736C287.141 271.14 286.833 269.978 286.217 269.25C285.629 268.522 284.705 268.158 283.445 268.158C281.905 268.158 280.673 268.648 279.749 269.628C278.853 270.58 278.405 271.854 278.405 273.45V282.648C278.405 284.44 277.523 285.336 275.759 285.336ZM307.131 285.42C301.699 285.42 298.983 282.732 298.983 277.356V268.41H296.799C295.399 268.41 294.699 267.752 294.699 266.436C294.699 265.12 295.399 264.462 296.799 264.462H298.983V260.64C298.983 258.876 299.865 257.994 301.629 257.994C303.365 257.994 304.233 258.876 304.233 260.64V264.462H308.685C310.085 264.462 310.785 265.12 310.785 266.436C310.785 267.752 310.085 268.41 308.685 268.41H304.233V277.062C304.233 278.406 304.527 279.414 305.115 280.086C305.703 280.758 306.655 281.094 307.971 281.094C308.447 281.094 308.867 281.052 309.231 280.968C309.595 280.884 309.917 280.828 310.197 280.8C310.533 280.772 310.813 280.884 311.037 281.136C311.261 281.36 311.373 281.836 311.373 282.564C311.373 283.124 311.275 283.628 311.079 284.076C310.911 284.496 310.589 284.79 310.113 284.958C309.749 285.07 309.273 285.168 308.685 285.252C308.097 285.364 307.579 285.42 307.131 285.42ZM316.98 260.262C316 260.262 315.23 260.024 314.67 259.548C314.138 259.044 313.872 258.358 313.872 257.49C313.872 256.594 314.138 255.908 314.67 255.432C315.23 254.956 316 254.718 316.98 254.718C319.052 254.718 320.088 255.642 320.088 257.49C320.088 259.338 319.052 260.262 316.98 260.262ZM316.98 285.294C316.14 285.294 315.496 285.042 315.048 284.538C314.6 284.034 314.376 283.334 314.376 282.438V267.024C314.376 265.12 315.244 264.168 316.98 264.168C318.744 264.168 319.626 265.12 319.626 267.024V282.438C319.626 283.334 319.402 284.034 318.954 284.538C318.506 285.042 317.848 285.294 316.98 285.294ZM327.769 285.336C325.977 285.336 325.081 284.44 325.081 282.648V266.772C325.081 265.008 325.935 264.126 327.643 264.126C329.351 264.126 330.205 265.008 330.205 266.772V268.074C331.213 265.666 333.369 264.322 336.673 264.042C337.877 263.902 338.549 264.588 338.689 266.1C338.829 267.584 338.101 268.41 336.505 268.578L335.581 268.662C332.137 268.998 330.415 270.762 330.415 273.954V282.648C330.415 284.44 329.533 285.336 327.769 285.336ZM351.322 285.42C348.998 285.42 346.996 284.986 345.316 284.118C343.636 283.25 342.334 282.018 341.41 280.422C340.514 278.826 340.066 276.936 340.066 274.752C340.066 272.624 340.5 270.762 341.368 269.166C342.264 267.57 343.482 266.324 345.022 265.428C346.59 264.504 348.368 264.042 350.356 264.042C353.268 264.042 355.564 264.966 357.244 266.814C358.952 268.662 359.806 271.182 359.806 274.374C359.806 275.41 359.134 275.928 357.79 275.928H345.106C345.498 279.596 347.598 281.43 351.406 281.43C352.134 281.43 352.946 281.346 353.842 281.178C354.766 280.982 355.634 280.66 356.446 280.212C357.174 279.792 357.79 279.666 358.294 279.834C358.798 279.974 359.148 280.268 359.344 280.716C359.568 281.164 359.596 281.668 359.428 282.228C359.288 282.76 358.896 283.222 358.252 283.614C357.272 284.23 356.138 284.692 354.85 285C353.59 285.28 352.414 285.42 351.322 285.42ZM350.566 267.612C349.026 267.612 347.78 268.088 346.828 269.04C345.876 269.992 345.302 271.28 345.106 272.904H355.438C355.326 271.196 354.85 269.894 354.01 268.998C353.198 268.074 352.05 267.612 350.566 267.612ZM237.314 342.42C234.234 342.42 231.588 341.804 229.376 340.572C227.192 339.312 225.512 337.548 224.336 335.28C223.16 332.984 222.572 330.282 222.572 327.174C222.572 324.066 223.16 321.378 224.336 319.11C225.512 316.842 227.192 315.092 229.376 313.86C231.588 312.6 234.234 311.97 237.314 311.97C238.854 311.97 240.366 312.166 241.85 312.558C243.334 312.95 244.636 313.51 245.756 314.238C246.484 314.714 246.918 315.288 247.058 315.96C247.198 316.604 247.114 317.206 246.806 317.766C246.498 318.298 246.036 318.662 245.42 318.858C244.804 319.026 244.118 318.858 243.362 318.354C242.494 317.794 241.556 317.388 240.548 317.136C239.54 316.884 238.518 316.758 237.482 316.758C234.486 316.758 232.204 317.668 230.636 319.488C229.068 321.28 228.284 323.842 228.284 327.174C228.284 330.506 229.068 333.082 230.636 334.902C232.204 336.722 234.486 337.632 237.482 337.632C238.546 337.632 239.596 337.506 240.632 337.254C241.668 336.974 242.648 336.554 243.572 335.994C244.328 335.518 245 335.364 245.588 335.532C246.176 335.7 246.61 336.05 246.89 336.582C247.198 337.086 247.296 337.646 247.184 338.262C247.072 338.878 246.694 339.424 246.05 339.9C244.93 340.712 243.586 341.342 242.018 341.79C240.478 342.21 238.91 342.42 237.314 342.42ZM257.604 342.42C256.12 342.42 254.79 342.14 253.614 341.58C252.466 340.992 251.556 340.208 250.884 339.228C250.24 338.248 249.918 337.142 249.918 335.91C249.918 334.398 250.31 333.208 251.094 332.34C251.878 331.444 253.152 330.8 254.916 330.408C256.68 330.016 259.046 329.82 262.014 329.82H263.484V328.938C263.484 327.538 263.176 326.53 262.56 325.914C261.944 325.298 260.908 324.99 259.452 324.99C258.64 324.99 257.758 325.088 256.806 325.284C255.882 325.48 254.902 325.816 253.866 326.292C253.194 326.6 252.634 326.642 252.186 326.418C251.738 326.166 251.43 325.788 251.262 325.284C251.122 324.752 251.15 324.22 251.346 323.688C251.57 323.156 252.004 322.764 252.648 322.512C253.936 321.98 255.168 321.602 256.344 321.378C257.548 321.154 258.64 321.042 259.62 321.042C262.616 321.042 264.842 321.742 266.298 323.142C267.754 324.514 268.482 326.656 268.482 329.568V339.648C268.482 341.44 267.67 342.336 266.046 342.336C264.394 342.336 263.568 341.44 263.568 339.648V338.724C263.092 339.872 262.336 340.782 261.3 341.454C260.264 342.098 259.032 342.42 257.604 342.42ZM258.696 338.808C260.068 338.808 261.202 338.332 262.098 337.38C263.022 336.428 263.484 335.224 263.484 333.768V332.844H262.056C259.424 332.844 257.59 333.054 256.554 333.474C255.546 333.866 255.042 334.594 255.042 335.658C255.042 336.582 255.364 337.338 256.008 337.926C256.652 338.514 257.548 338.808 258.696 338.808ZM281.329 342.42C280.125 342.42 278.851 342.294 277.507 342.042C276.163 341.79 274.959 341.356 273.895 340.74C273.307 340.404 272.943 339.998 272.803 339.522C272.663 339.018 272.677 338.556 272.845 338.136C273.041 337.688 273.349 337.366 273.769 337.17C274.217 336.974 274.735 337.016 275.323 337.296C276.443 337.828 277.493 338.206 278.473 338.43C279.453 338.626 280.419 338.724 281.371 338.724C282.715 338.724 283.709 338.5 284.353 338.052C285.025 337.576 285.361 336.96 285.361 336.204C285.361 335.028 284.493 334.272 282.757 333.936L278.557 333.138C275.001 332.466 273.223 330.618 273.223 327.594C273.223 326.25 273.587 325.088 274.315 324.108C275.071 323.128 276.107 322.372 277.423 321.84C278.739 321.308 280.251 321.042 281.959 321.042C284.423 321.042 286.621 321.588 288.553 322.68C289.085 322.96 289.393 323.352 289.477 323.856C289.589 324.332 289.533 324.794 289.309 325.242C289.113 325.662 288.791 325.97 288.343 326.166C287.895 326.334 287.377 326.278 286.789 325.998C285.921 325.55 285.081 325.228 284.269 325.032C283.485 324.836 282.729 324.738 282.001 324.738C280.629 324.738 279.607 324.976 278.935 325.452C278.291 325.928 277.969 326.558 277.969 327.342C277.969 328.574 278.767 329.33 280.363 329.61L284.563 330.408C286.383 330.744 287.755 331.36 288.679 332.256C289.631 333.152 290.107 334.356 290.107 335.868C290.107 337.912 289.309 339.522 287.713 340.698C286.117 341.846 283.989 342.42 281.329 342.42ZM304.441 342.42C302.117 342.42 300.115 341.986 298.435 341.118C296.755 340.25 295.453 339.018 294.529 337.422C293.633 335.826 293.185 333.936 293.185 331.752C293.185 329.624 293.619 327.762 294.487 326.166C295.383 324.57 296.601 323.324 298.141 322.428C299.709 321.504 301.487 321.042 303.475 321.042C306.387 321.042 308.683 321.966 310.363 323.814C312.071 325.662 312.925 328.182 312.925 331.374C312.925 332.41 312.253 332.928 310.909 332.928H298.225C298.617 336.596 300.717 338.43 304.525 338.43C305.253 338.43 306.065 338.346 306.961 338.178C307.885 337.982 308.753 337.66 309.565 337.212C310.293 336.792 310.909 336.666 311.413 336.834C311.917 336.974 312.267 337.268 312.463 337.716C312.687 338.164 312.715 338.668 312.547 339.228C312.407 339.76 312.015 340.222 311.371 340.614C310.391 341.23 309.257 341.692 307.969 342C306.709 342.28 305.533 342.42 304.441 342.42ZM303.685 324.612C302.145 324.612 300.899 325.088 299.947 326.04C298.995 326.992 298.421 328.28 298.225 329.904H308.557C308.445 328.196 307.969 326.894 307.129 325.998C306.317 325.074 305.169 324.612 303.685 324.612ZM331.761 342.336C329.913 342.336 328.989 341.384 328.989 339.48V315.246C328.989 313.342 329.941 312.39 331.845 312.39H346.503C347.959 312.39 348.687 313.09 348.687 314.49C348.687 315.946 347.959 316.674 346.503 316.674H334.365V325.032H345.621C347.077 325.032 347.805 325.732 347.805 327.132C347.805 328.588 347.077 329.316 345.621 329.316H334.365V339.48C334.365 341.384 333.497 342.336 331.761 342.336ZM356.355 317.262C355.375 317.262 354.605 317.024 354.045 316.548C353.513 316.044 353.247 315.358 353.247 314.49C353.247 313.594 353.513 312.908 354.045 312.432C354.605 311.956 355.375 311.718 356.355 311.718C358.427 311.718 359.463 312.642 359.463 314.49C359.463 316.338 358.427 317.262 356.355 317.262ZM356.355 342.294C355.515 342.294 354.871 342.042 354.423 341.538C353.975 341.034 353.751 340.334 353.751 339.438V324.024C353.751 322.12 354.619 321.168 356.355 321.168C358.119 321.168 359.001 322.12 359.001 324.024V339.438C359.001 340.334 358.777 341.034 358.329 341.538C357.881 342.042 357.223 342.294 356.355 342.294ZM371.47 342.42C366.794 342.42 364.456 339.802 364.456 334.566V314.7C364.456 312.936 365.324 312.054 367.06 312.054C368.824 312.054 369.706 312.936 369.706 314.7V334.314C369.706 336.834 370.756 338.094 372.856 338.094C373.08 338.094 373.29 338.094 373.486 338.094C373.682 338.066 373.878 338.038 374.074 338.01C374.466 337.954 374.732 338.066 374.872 338.346C375.012 338.598 375.082 339.13 375.082 339.942C375.082 340.642 374.942 341.188 374.662 341.58C374.382 341.972 373.92 342.21 373.276 342.294C372.688 342.378 372.086 342.42 371.47 342.42ZM387.785 342.42C385.461 342.42 383.459 341.986 381.779 341.118C380.099 340.25 378.797 339.018 377.873 337.422C376.977 335.826 376.529 333.936 376.529 331.752C376.529 329.624 376.963 327.762 377.831 326.166C378.727 324.57 379.945 323.324 381.485 322.428C383.053 321.504 384.831 321.042 386.819 321.042C389.731 321.042 392.027 321.966 393.707 323.814C395.415 325.662 396.269 328.182 396.269 331.374C396.269 332.41 395.597 332.928 394.253 332.928H381.569C381.961 336.596 384.061 338.43 387.869 338.43C388.597 338.43 389.409 338.346 390.305 338.178C391.229 337.982 392.097 337.66 392.909 337.212C393.637 336.792 394.253 336.666 394.757 336.834C395.261 336.974 395.611 337.268 395.807 337.716C396.031 338.164 396.059 338.668 395.891 339.228C395.751 339.76 395.359 340.222 394.715 340.614C393.735 341.23 392.601 341.692 391.313 342C390.053 342.28 388.877 342.42 387.785 342.42ZM387.029 324.612C385.489 324.612 384.243 325.088 383.291 326.04C382.339 326.992 381.765 328.28 381.569 329.904H391.901C391.789 328.196 391.313 326.894 390.473 325.998C389.661 325.074 388.513 324.612 387.029 324.612Z" fill="#00218A"/>
<g filter="url(#filter0_d)">
<mask id="path-3-inside-1" fill="white">
<path fill-rule="evenodd" clip-rule="evenodd" d="M123.407 59.814C174.667 22.5268 237.642 0.668657 301.029 0.464844L300.869 163.328C240.67 165.367 190.171 205.651 172.903 260.649L170.837 259.955L14.2324 209.842C33.9451 149.598 72.1467 97.1013 123.407 59.814Z"/>
</mask>
<path fill-rule="evenodd" clip-rule="evenodd" d="M123.407 59.814C174.667 22.5268 237.642 0.668657 301.029 0.464844L300.869 163.328C240.67 165.367 190.171 205.651 172.903 260.649L170.837 259.955L14.2324 209.842C33.9451 149.598 72.1467 97.1013 123.407 59.814Z" fill="#D5DAFE"/>
<path d="M301.029 0.464844L305.029 0.468757L305.033 -3.54805L301.016 -3.53514L301.029 0.464844ZM123.407 59.814L125.76 63.0487L123.407 59.814ZM300.869 163.328L301.005 167.325L304.866 167.195L304.869 163.332L300.869 163.328ZM172.903 260.649L171.629 264.441L175.497 265.74L176.719 261.847L172.903 260.649ZM170.837 259.955L172.111 256.163L172.084 256.154L172.057 256.145L170.837 259.955ZM14.2324 209.842L10.4308 208.598L9.17866 212.425L13.0133 213.652L14.2324 209.842ZM301.016 -3.53514C236.736 -3.32845 172.95 18.8289 121.054 56.5793L125.76 63.0487C176.383 26.2246 238.548 4.66576 301.042 4.46482L301.016 -3.53514ZM304.869 163.332L305.029 0.468757L297.029 0.46093L296.869 163.324L304.869 163.332ZM176.719 261.847C193.492 208.428 242.545 169.306 301.005 167.325L300.734 159.33C238.795 161.429 186.85 202.875 169.086 259.451L176.719 261.847ZM169.564 263.747L171.629 264.441L174.176 256.857L172.111 256.163L169.564 263.747ZM13.0133 213.652L169.618 263.765L172.057 256.145L15.4515 206.032L13.0133 213.652ZM121.054 56.5793C69.1135 94.3613 30.405 147.555 10.4308 208.598L18.0341 211.086C37.4852 151.642 75.1799 99.8412 125.76 63.0487L121.054 56.5793Z" fill="white" mask="url(#path-3-inside-1)"/>
</g>
<path d="M106.875 161.51C104.959 163.034 102.941 163.948 100.823 164.252C98.7227 164.542 96.6733 164.239 94.6746 163.345C92.6609 162.432 90.8326 160.942 89.1899 158.875C87.5321 156.79 86.4929 154.672 86.0723 152.523C85.6517 150.374 85.8267 148.319 86.5974 146.357C87.3532 144.377 88.6987 142.618 90.6337 141.079C92.5688 139.541 94.5863 138.627 96.6862 138.338C98.7711 138.029 100.813 138.322 102.812 139.217C104.811 140.111 106.631 141.592 108.274 143.658C109.932 145.744 110.978 147.87 111.414 150.038C111.835 152.187 111.667 154.252 110.911 156.232C110.156 158.213 108.81 159.972 106.875 161.51ZM104.411 158.411C106.233 156.962 107.151 155.205 107.165 153.14C107.179 151.075 106.297 148.924 104.52 146.688C102.728 144.434 100.832 143.09 98.8318 142.657C96.8504 142.208 94.9391 142.716 93.0979 144.179C91.2756 145.628 90.35 147.375 90.3211 149.422C90.2923 151.468 91.174 153.619 92.9661 155.873C94.7433 158.109 96.6395 159.453 98.6546 159.905C100.67 160.357 102.588 159.859 104.411 158.411ZM125.493 154.897C124.328 155.823 123.275 155.694 122.334 154.51L109.812 138.757C108.871 137.573 108.973 136.526 110.119 135.615C111.284 134.689 112.337 134.818 113.278 136.002L113.748 136.593C113.56 135.547 113.689 134.494 114.135 133.435C114.565 132.357 115.288 131.414 116.303 130.608C117.505 129.652 118.789 129.107 120.153 128.973C121.537 128.823 122.908 129.082 124.266 129.75C125.61 130.399 126.872 131.465 128.052 132.95C129.216 134.415 129.978 135.894 130.337 137.387C130.681 138.861 130.634 140.248 130.195 141.547C129.756 142.846 128.926 143.981 127.705 144.952C126.728 145.729 125.681 146.224 124.563 146.438C123.449 146.618 122.402 146.516 121.421 146.13L125.857 151.71C126.798 152.894 126.676 153.956 125.493 154.897ZM124.591 143.059C125.643 142.223 126.189 141.175 126.231 139.916C126.257 138.638 125.681 137.256 124.501 135.772C123.306 134.269 122.098 133.405 120.877 133.18C119.641 132.937 118.497 133.233 117.444 134.069C116.392 134.906 115.846 135.953 115.804 137.213C115.748 138.453 116.317 139.825 117.512 141.328C118.692 142.812 119.907 143.685 121.158 143.948C122.394 144.192 123.538 143.895 124.591 143.059ZM143.447 132.438C141.888 133.678 140.313 134.454 138.723 134.768C137.133 135.082 135.602 134.95 134.131 134.372C132.678 133.779 131.37 132.749 130.205 131.284C129.07 129.856 128.368 128.375 128.099 126.841C127.849 125.293 128.001 123.807 128.557 122.384C129.116 120.928 130.063 119.67 131.397 118.609C133.35 117.056 135.384 116.452 137.497 116.795C139.628 117.124 141.546 118.36 143.248 120.502C143.801 121.197 143.626 121.903 142.724 122.62L134.214 129.385C136.433 131.637 138.82 131.747 141.375 129.716C141.864 129.328 142.364 128.839 142.875 128.248C143.391 127.624 143.802 126.945 144.107 126.211C144.372 125.541 144.718 125.128 145.146 124.972C145.559 124.797 145.95 124.807 146.321 125.003C146.71 125.184 146.998 125.508 147.184 125.973C147.373 126.405 147.357 126.924 147.134 127.53C146.805 128.466 146.29 129.381 145.59 130.275C144.894 131.135 144.18 131.856 143.447 132.438ZM133.442 120.893C132.408 121.714 131.826 122.698 131.695 123.845C131.564 124.991 131.866 126.162 132.601 127.356L139.533 121.845C138.547 120.759 137.533 120.139 136.492 119.986C135.454 119.799 134.437 120.101 133.442 120.893ZM153.688 124.205C152.486 125.161 151.407 125.038 150.451 123.836L141.983 113.183C141.042 112 141.145 110.952 142.291 110.041C143.437 109.13 144.48 109.267 145.421 110.45L146.116 111.324C145.508 109.17 146.237 107.119 148.305 105.169C149.038 104.432 149.855 104.534 150.755 105.474C151.641 106.395 151.593 107.338 150.611 108.302L150.036 108.851C147.905 110.913 147.69 113.015 149.393 115.157L154.03 120.991C154.986 122.193 154.872 123.265 153.688 124.205ZM167.365 113.426C166.369 114.217 165.327 114.739 164.239 114.99C163.155 115.208 162.127 115.167 161.153 114.868C160.198 114.554 159.392 113.984 158.735 113.157C157.929 112.143 157.557 111.135 157.62 110.135C157.668 109.115 158.18 108.004 159.154 106.8C160.129 105.596 161.612 104.202 163.603 102.619L164.589 101.835L164.119 101.243C163.372 100.304 162.628 99.7919 161.886 99.7072C161.144 99.6224 160.285 99.9683 159.308 100.745C158.763 101.178 158.223 101.714 157.689 102.353C157.174 102.978 156.695 103.726 156.254 104.598C155.968 105.163 155.614 105.49 155.194 105.579C154.759 105.648 154.351 105.559 153.969 105.311C153.592 105.028 153.327 104.656 153.174 104.195C153.041 103.718 153.123 103.224 153.421 102.711C154.001 101.667 154.626 100.757 155.296 99.9791C155.984 99.1866 156.657 98.529 157.315 98.0063C159.325 96.4083 161.192 95.6907 162.916 95.8535C164.624 95.9975 166.255 97.0464 167.809 99.0003L173.185 105.764C174.141 106.966 174.074 108 172.984 108.867C171.876 109.748 170.844 109.587 169.888 108.385L169.395 107.765C169.688 108.789 169.666 109.803 169.329 110.806C168.978 111.791 168.323 112.664 167.365 113.426ZM166.171 110.42C167.091 109.688 167.598 108.764 167.692 107.647C167.804 106.515 167.472 105.461 166.695 104.484L166.202 103.864L165.244 104.626C163.478 106.03 162.36 107.149 161.888 107.983C161.421 108.784 161.471 109.541 162.039 110.255C162.532 110.875 163.151 111.211 163.897 111.262C164.642 111.313 165.4 111.032 166.171 110.42ZM184.551 99.7634C180.907 102.661 177.651 102.306 174.783 98.6986L170.012 92.6961L168.546 93.861C167.607 94.6077 166.786 94.5396 166.084 93.6566C165.382 92.7736 165.501 91.9587 166.44 91.212L167.906 90.0471L165.867 87.4826C164.926 86.299 165.048 85.2368 166.231 84.2959C167.396 83.37 168.449 83.4988 169.39 84.6824L171.428 87.2469L174.416 84.8723C175.355 84.1255 176.176 84.1937 176.878 85.0767C177.579 85.9597 177.461 86.7745 176.521 87.5213L173.534 89.8959L178.149 95.7011C178.866 96.6029 179.601 97.1224 180.354 97.2597C181.107 97.397 181.925 97.1146 182.808 96.4127C183.127 96.1588 183.386 95.9066 183.586 95.6561C183.785 95.4056 183.971 95.1963 184.144 95.0282C184.355 94.8302 184.603 94.756 184.887 94.8056C185.157 94.8364 185.486 95.096 185.874 95.5845C186.173 95.9603 186.376 96.3507 186.484 96.7558C186.595 97.1273 186.536 97.4963 186.306 97.8629C186.121 98.1322 185.854 98.4518 185.504 98.8218C185.17 99.2106 184.852 99.5244 184.551 99.7634ZM177.741 77.6302C177.083 78.1529 176.44 78.4039 175.81 78.3832C175.184 78.3288 174.64 78.0104 174.177 77.428C173.699 76.8268 173.512 76.2246 173.615 75.6215C173.736 75.0034 174.126 74.433 174.784 73.9103C176.174 72.8052 177.362 72.8726 178.348 74.1125C179.333 75.3525 179.131 76.525 177.741 77.6302ZM191.092 94.426C190.529 94.874 189.962 95.0484 189.393 94.9492C188.823 94.85 188.3 94.4998 187.822 93.8986L179.6 83.5562C178.585 82.2787 178.659 81.1769 179.824 80.251C181.008 79.3101 182.107 79.4785 183.123 80.756L191.344 91.0984C191.822 91.6996 192.045 92.2887 192.013 92.8658C191.982 93.443 191.675 93.963 191.092 94.426ZM202.13 85.6977C201.191 86.4444 200.1 86.4991 198.857 85.8619L186.11 79.025C185.354 78.6141 184.912 78.0767 184.783 77.4129C184.672 76.7341 185.002 76.0886 185.773 75.4763C186.205 75.1328 186.635 74.9598 187.062 74.9574C187.474 74.9362 188 75.1159 188.64 75.4964L198.742 81.2625L195.494 70.0022C195.282 69.3119 195.233 68.7682 195.347 68.3713C195.465 67.9406 195.758 67.5386 196.228 67.1652C196.829 66.6873 197.438 66.5861 198.056 66.8617C198.674 67.1372 199.09 67.6801 199.305 68.4904L203.028 82.5464C203.406 83.8707 203.107 84.9211 202.13 85.6977ZM217.972 73.1961C216.413 74.4357 214.838 75.2123 213.248 75.526C211.658 75.8396 210.127 75.7075 208.656 75.1294C207.203 74.5365 205.895 73.5073 204.73 72.0419C203.595 70.614 202.893 69.1332 202.624 67.5994C202.374 66.0506 202.527 64.5649 203.082 63.1423C203.641 61.686 204.588 60.4277 205.922 59.3673C207.876 57.8141 209.909 57.2095 212.022 57.5534C214.154 57.8823 216.071 59.1177 217.773 61.2594C218.326 61.9545 218.151 62.6605 217.249 63.3774L208.739 70.1427C210.958 72.3948 213.346 72.5052 215.901 70.4742C216.389 70.0859 216.889 69.5964 217.401 69.0058C217.916 68.3814 218.327 67.7024 218.633 66.9687C218.897 66.2986 219.243 65.8855 219.671 65.7294C220.084 65.5545 220.475 65.5651 220.846 65.7611C221.235 65.9423 221.523 66.2655 221.709 66.7309C221.899 67.1625 221.882 67.6816 221.659 68.2881C221.33 69.2241 220.815 70.1389 220.116 71.0326C219.419 71.8925 218.705 72.6137 217.972 73.1961ZM207.967 61.6507C206.933 62.4721 206.351 63.456 206.22 64.6026C206.089 65.7491 206.391 66.9195 207.126 68.1137L214.058 62.6029C213.072 61.5166 212.058 60.8969 211.017 60.7437C209.979 60.5568 208.963 60.8592 207.967 61.6507ZM162.176 180.054C161.218 180.815 160.159 180.891 158.999 180.28L138.516 169.613C137.648 169.138 137.202 168.557 137.178 167.871C137.158 167.152 137.467 166.538 138.106 166.03C138.65 165.597 139.151 165.398 139.609 165.433C140.07 165.435 140.581 165.596 141.142 165.916L158.379 175.162L153.237 156.255C153.086 155.64 153.061 155.108 153.164 154.658C153.251 154.19 153.549 153.754 154.056 153.351C154.657 152.873 155.287 152.74 155.946 152.952C156.624 153.149 157.08 153.722 157.313 154.671L163.085 177.032C163.252 177.666 163.272 178.232 163.147 178.73C163.026 179.194 162.702 179.636 162.176 180.054ZM163.814 151.296C163.157 151.819 162.513 152.07 161.883 152.05C161.258 151.995 160.713 151.677 160.25 151.094C159.772 150.493 159.585 149.891 159.688 149.288C159.81 148.67 160.2 148.099 160.857 147.577C162.247 146.471 163.435 146.539 164.421 147.779C165.407 149.019 165.204 150.191 163.814 151.296ZM177.166 168.092C176.602 168.54 176.035 168.715 175.466 168.616C174.897 168.516 174.373 168.166 173.895 167.565L165.674 157.223C164.658 155.945 164.733 154.843 165.897 153.917C167.081 152.976 168.181 153.145 169.196 154.422L177.418 164.765C177.896 165.366 178.119 165.955 178.087 166.532C178.055 167.109 177.748 167.629 177.166 168.092ZM187.966 159.644C186.764 160.6 185.471 161.153 184.087 161.302C182.723 161.437 181.361 161.17 180.003 160.502C178.629 159.816 177.36 158.74 176.195 157.275C175.015 155.79 174.261 154.321 173.932 152.865C173.588 151.391 173.635 150.005 174.074 148.705C174.531 147.391 175.361 146.256 176.564 145.3C177.541 144.524 178.596 144.038 179.728 143.843C180.861 143.648 181.908 143.75 182.87 144.15L177.606 137.528C176.665 136.344 176.777 135.29 177.942 134.364C179.125 133.423 180.187 133.544 181.128 134.728L194.435 151.467C195.391 152.67 195.286 153.734 194.121 154.66C192.957 155.586 191.896 155.447 190.94 154.245L190.47 153.653C190.673 154.718 190.559 155.79 190.128 156.868C189.683 157.927 188.962 158.853 187.966 159.644ZM186.825 156.183C187.877 155.347 188.423 154.299 188.465 153.04C188.491 151.762 187.914 150.381 186.735 148.896C185.54 147.393 184.332 146.529 183.111 146.305C181.875 146.061 180.73 146.357 179.678 147.193C178.626 148.03 178.08 149.078 178.038 150.337C177.982 151.577 178.551 152.949 179.746 154.452C180.926 155.936 182.141 156.81 183.392 157.072C184.628 157.316 185.772 157.019 186.825 156.183ZM206.357 145.025C204.798 146.264 203.223 147.041 201.633 147.355C200.043 147.668 198.512 147.536 197.041 146.958C195.589 146.365 194.28 145.336 193.115 143.871C191.98 142.443 191.278 140.962 191.009 139.428C190.759 137.879 190.912 136.394 191.467 134.971C192.026 133.515 192.973 132.256 194.307 131.196C196.261 129.643 198.294 129.038 200.407 129.382C202.539 129.711 204.456 130.946 206.158 133.088C206.711 133.783 206.536 134.489 205.635 135.206L197.124 141.971C199.343 144.223 201.731 144.334 204.286 142.303C204.774 141.915 205.274 141.425 205.786 140.834C206.301 140.21 206.712 139.531 207.018 138.797C207.282 138.127 207.628 137.714 208.056 137.558C208.469 137.383 208.861 137.394 209.231 137.59C209.62 137.771 209.908 138.094 210.094 138.56C210.284 138.991 210.267 139.51 210.044 140.117C209.715 141.053 209.201 141.968 208.501 142.861C207.805 143.721 207.09 144.442 206.357 145.025ZM196.352 133.479C195.319 134.301 194.736 135.285 194.605 136.431C194.474 137.578 194.776 138.748 195.511 139.942L202.443 134.432C201.457 133.345 200.443 132.726 199.402 132.572C198.364 132.385 197.348 132.688 196.352 133.479ZM221.124 133.286C219.696 134.421 218.225 135.116 216.71 135.37C215.195 135.624 213.72 135.447 212.287 134.839C210.838 134.212 209.531 133.166 208.366 131.701C207.201 130.235 206.485 128.736 206.216 127.202C205.947 125.668 206.107 124.192 206.696 122.773C207.285 121.354 208.294 120.077 209.722 118.942C211.149 117.807 212.621 117.113 214.136 116.859C215.651 116.605 217.125 116.782 218.559 117.39C219.993 117.998 221.292 119.034 222.457 120.5C223.622 121.965 224.346 123.474 224.63 125.027C224.899 126.561 224.739 128.037 224.149 129.456C223.56 130.875 222.552 132.151 221.124 133.286ZM218.996 130.609C220.048 129.773 220.595 128.725 220.636 127.466C220.663 126.188 220.086 124.807 218.906 123.323C217.711 121.82 216.503 120.956 215.282 120.731C214.046 120.487 212.902 120.783 211.85 121.62C210.798 122.456 210.251 123.504 210.209 124.763C210.153 126.003 210.722 127.375 211.917 128.878C213.097 130.362 214.312 131.236 215.564 131.498C216.8 131.742 217.944 131.446 218.996 130.609Z" fill="#00218A"/>
<g filter="url(#filter1_d)">
<mask id="path-6-inside-2" fill="white">
<path fill-rule="evenodd" clip-rule="evenodd" d="M479.692 59.0243C531.417 97.1988 569.584 150.91 588.619 212.314L437.806 259.065C419.374 203.692 366.556 163.709 304.276 163.709C302.986 163.709 301.701 163.727 300.42 163.761L300.102 0C364.389 0.0884427 427.966 20.8499 479.692 59.0243Z"/>
</mask>
<path fill-rule="evenodd" clip-rule="evenodd" d="M479.692 59.0243C531.417 97.1988 569.584 150.91 588.619 212.314L437.806 259.065C419.374 203.692 366.556 163.709 304.276 163.709C302.986 163.709 301.701 163.727 300.42 163.761L300.102 0C364.389 0.0884427 427.966 20.8499 479.692 59.0243Z" fill="#D5DAFE"/>
<path d="M588.619 212.314L589.804 216.135L593.624 214.951L592.44 211.13L588.619 212.314ZM479.692 59.0243L477.316 62.2427L477.316 62.2427L479.692 59.0243ZM437.806 259.065L434.011 260.328L435.249 264.046L438.991 262.886L437.806 259.065ZM300.42 163.761L296.42 163.768L296.428 167.868L300.527 167.759L300.42 163.761ZM300.102 0L300.107 -4L296.094 -4.00552L296.102 0.00779012L300.102 0ZM592.44 211.13C573.152 148.911 534.479 94.4869 482.067 55.8059L477.316 62.2427C528.356 99.9106 566.016 152.909 584.799 213.499L592.44 211.13ZM438.991 262.886L589.804 216.135L587.435 208.494L436.622 255.244L438.991 262.886ZM304.276 167.709C364.812 167.709 416.115 206.568 434.011 260.328L441.602 257.802C422.632 200.816 368.301 159.709 304.276 159.709V167.709ZM300.527 167.759C301.772 167.726 303.022 167.709 304.276 167.709V159.709C302.951 159.709 301.63 159.727 300.314 159.762L300.527 167.759ZM296.102 0.00779012L296.42 163.768L304.42 163.753L304.102 -0.00779012L296.102 0.00779012ZM482.067 55.8059C429.648 17.1198 365.239 -3.91039 300.107 -4L300.096 4C363.539 4.08728 426.284 24.58 477.316 62.2427L482.067 55.8059Z" fill="white" mask="url(#path-6-inside-2)"/>
</g>
<path d="M418.021 98.3871C415.04 96.5915 413.223 94.4459 412.568 91.9505C411.947 89.4469 412.553 86.6738 414.386 83.6312L421.055 72.5606C421.86 71.2243 422.92 70.9525 424.236 71.7451C425.551 72.5376 425.807 73.6021 425.002 74.9384L418.352 85.9781C417.175 87.9311 416.732 89.6672 417.021 91.1865C417.344 92.6977 418.358 93.9672 420.064 94.995C423.539 97.0879 426.452 96.1814 428.805 92.2753L435.456 81.2356C436.261 79.8994 437.321 79.6275 438.637 80.4201C439.932 81.2003 440.177 82.2585 439.372 83.5948L432.703 94.6653C430.87 97.7079 428.712 99.546 426.229 100.18C423.759 100.793 421.023 100.195 418.021 98.3871ZM439.246 111.173C437.868 110.343 436.615 109.378 435.485 108.277C434.375 107.188 433.523 106.044 432.928 104.846C432.641 104.252 432.583 103.699 432.752 103.185C432.922 102.67 433.207 102.267 433.606 101.976C434.039 101.676 434.484 101.566 434.941 101.645C435.43 101.716 435.829 102.054 436.137 102.66C436.719 103.739 437.44 104.705 438.299 105.559C439.157 106.412 440.142 107.174 441.252 107.842C442.876 108.821 444.219 109.265 445.281 109.177C446.356 109.067 447.153 108.581 447.673 107.718C448.106 106.998 448.18 106.272 447.893 105.539C447.627 104.818 446.937 103.94 445.823 102.905L442.858 100.152C439.489 97.0018 438.751 93.8539 440.646 90.7085C441.463 89.3516 442.535 88.3863 443.862 87.8124C445.188 87.2384 446.656 87.0579 448.265 87.2706C449.874 87.4833 451.511 88.0913 453.176 89.0944C454.409 89.8374 455.488 90.6975 456.413 91.6746C457.337 92.6517 458.062 93.7046 458.587 94.8333C458.824 95.3688 458.854 95.8772 458.676 96.3584C458.511 96.8191 458.224 97.1788 457.816 97.4374C457.421 97.6754 456.974 97.7425 456.476 97.6388C456.011 97.5268 455.605 97.1557 455.256 96.5253C454.755 95.6354 454.17 94.8626 453.5 94.207C452.831 93.5514 452.043 92.9511 451.139 92.4062C449.72 91.5517 448.431 91.1811 447.27 91.2943C446.109 91.4075 445.237 91.9472 444.655 92.9134C444.209 93.6535 444.097 94.3983 444.318 95.1478C444.551 95.8768 445.19 96.7237 446.234 97.6887L449.168 100.423C450.943 102.08 452.045 103.669 452.475 105.189C452.925 106.721 452.685 108.257 451.757 109.799C450.976 111.095 449.94 112.025 448.646 112.591C447.353 113.156 445.891 113.327 444.262 113.102C442.665 112.868 440.993 112.225 439.246 111.173ZM461.66 124.675C459.255 123.226 457.492 121.548 456.372 119.64C455.272 117.745 454.792 115.704 454.931 113.519C455.071 111.334 455.828 109.1 457.203 106.818C458.59 104.516 460.227 102.798 462.114 101.665C464.014 100.512 466.068 99.9847 468.278 100.083C470.501 100.161 472.774 100.9 475.097 102.299C476.248 102.993 477.313 103.83 478.29 104.812C479.301 105.785 480.122 106.91 480.754 108.187C481.045 108.727 481.086 109.241 480.875 109.731C480.697 110.212 480.388 110.586 479.947 110.853C479.506 111.119 479.03 111.211 478.52 111.128C478.022 111.024 477.613 110.68 477.293 110.095C476.785 109.172 476.191 108.366 475.513 107.678C474.835 106.989 474.003 106.348 473.016 105.753C470.714 104.366 468.564 103.982 466.566 104.6C464.59 105.23 462.846 106.799 461.335 109.307C459.812 111.836 459.26 114.123 459.681 116.17C460.101 118.216 461.504 119.958 463.888 121.394C464.567 121.803 465.286 122.166 466.047 122.485C466.841 122.795 467.656 123.047 468.491 123.242L471.537 118.185L468.145 116.141C467.076 115.498 466.839 114.682 467.433 113.695C468.015 112.729 468.841 112.568 469.91 113.212L474.998 116.277C476.067 116.921 476.28 117.777 475.636 118.846L471.122 126.34C470.552 127.286 469.817 127.669 468.916 127.491C467.813 127.275 466.608 126.927 465.299 126.447C464.004 125.947 462.791 125.356 461.66 124.675ZM383.922 134.629C382.524 133.787 382.246 132.667 383.088 131.269L393.658 113.723C394.5 112.325 395.62 112.047 397.018 112.889L403 116.493C406.639 118.685 408.882 121.311 409.728 124.37C410.595 127.442 409.976 130.726 407.871 134.221C405.778 137.695 403.165 139.777 400.031 140.467C396.919 141.17 393.543 140.425 389.904 138.233L383.922 134.629ZM387.741 132.475L391.626 134.816C396.642 137.837 400.68 136.809 403.739 131.732C406.785 126.674 405.8 122.635 400.784 119.613L396.899 117.272L387.741 132.475ZM409.723 150.592C408.633 149.936 407.781 149.142 407.165 148.211C406.582 147.271 406.261 146.293 406.201 145.276C406.161 144.272 406.414 143.317 406.959 142.413C407.628 141.303 408.442 140.602 409.401 140.312C410.373 140.001 411.593 140.091 413.062 140.584C414.531 141.076 416.354 141.979 418.534 143.291L419.613 143.942L420.003 143.294C420.622 142.266 420.842 141.39 420.662 140.665C420.482 139.94 419.858 139.256 418.789 138.612C418.193 138.253 417.502 137.935 416.716 137.658C415.951 137.393 415.083 137.206 414.112 137.097C413.482 137.026 413.052 136.809 412.822 136.447C412.605 136.064 412.546 135.65 412.645 135.206C412.778 134.753 413.034 134.375 413.413 134.071C413.813 133.779 414.305 133.683 414.889 133.783C416.07 133.962 417.142 134.23 418.104 134.585C419.087 134.953 419.939 135.354 420.658 135.788C422.858 137.113 424.183 138.611 424.633 140.283C425.095 141.934 424.682 143.829 423.394 145.967L418.936 153.368C418.143 154.684 417.151 154.982 415.958 154.264C414.745 153.534 414.535 152.51 415.328 151.195L415.736 150.516C414.879 151.149 413.922 151.482 412.864 151.518C411.818 151.532 410.771 151.224 409.723 150.592ZM412.122 148.423C413.129 149.03 414.173 149.182 415.252 148.879C416.351 148.589 417.223 147.909 417.867 146.84L418.275 146.162L417.227 145.53C415.294 144.366 413.855 143.709 412.909 143.559C411.995 143.401 411.303 143.713 410.833 144.494C410.424 145.173 410.326 145.87 410.539 146.587C410.751 147.303 411.279 147.915 412.122 148.423ZM428.53 161.921C424.541 159.519 423.736 156.344 426.114 152.397L430.071 145.828L428.467 144.862C427.439 144.243 427.216 143.45 427.798 142.484C428.38 141.518 429.185 141.344 430.213 141.964L431.817 142.93L433.507 140.123C434.287 138.828 435.325 138.571 436.62 139.351C437.895 140.119 438.142 141.15 437.362 142.445L435.671 145.252L438.94 147.221C439.968 147.84 440.191 148.633 439.609 149.599C439.027 150.565 438.222 150.739 437.194 150.119L433.925 148.15L430.099 154.503C429.504 155.49 429.274 156.36 429.409 157.113C429.543 157.867 430.093 158.534 431.06 159.116C431.409 159.327 431.736 159.482 432.041 159.581C432.345 159.681 432.606 159.782 432.824 159.885C433.083 160.013 433.239 160.219 433.292 160.503C433.358 160.767 433.229 161.166 432.907 161.7C432.66 162.112 432.365 162.438 432.023 162.68C431.714 162.915 431.347 162.988 430.923 162.901C430.607 162.822 430.214 162.683 429.745 162.485C429.264 162.307 428.859 162.119 428.53 161.921ZM438.422 167.88C437.332 167.224 436.48 166.43 435.864 165.499C435.281 164.559 434.96 163.581 434.9 162.564C434.86 161.56 435.113 160.606 435.658 159.701C436.327 158.591 437.141 157.89 438.1 157.6C439.072 157.289 440.292 157.379 441.761 157.872C443.23 158.364 445.053 159.267 447.233 160.579L448.312 161.23L448.702 160.582C449.321 159.554 449.541 158.678 449.361 157.953C449.181 157.228 448.557 156.544 447.488 155.9C446.892 155.541 446.201 155.223 445.415 154.946C444.65 154.681 443.782 154.494 442.811 154.385C442.181 154.314 441.751 154.097 441.521 153.735C441.304 153.352 441.245 152.938 441.344 152.494C441.477 152.041 441.733 151.663 442.112 151.359C442.512 151.067 443.004 150.972 443.588 151.071C444.769 151.25 445.841 151.518 446.803 151.873C447.786 152.241 448.638 152.642 449.357 153.076C451.557 154.401 452.882 155.899 453.332 157.571C453.794 159.222 453.381 161.117 452.093 163.255L447.635 170.656C446.842 171.972 445.85 172.271 444.657 171.552C443.444 170.822 443.234 169.798 444.027 168.483L444.435 167.804C443.578 168.437 442.621 168.77 441.563 168.806C440.517 168.82 439.47 168.512 438.422 167.88ZM440.821 165.711C441.829 166.318 442.872 166.47 443.951 166.167C445.05 165.877 445.922 165.197 446.566 164.128L446.974 163.45L445.926 162.818C443.993 161.654 442.554 160.997 441.608 160.847C440.694 160.689 440.002 161.001 439.532 161.782C439.123 162.461 439.025 163.158 439.238 163.875C439.45 164.591 439.978 165.203 440.821 165.711Z" fill="#00218A"/>
<g filter="url(#filter2_d)">
<mask id="path-9-inside-3" fill="white">
<path fill-rule="evenodd" clip-rule="evenodd" d="M381.968 418.866C419.633 394.025 444.501 351.238 444.501 302.622C444.501 287.356 442.049 272.665 437.519 258.923L588.309 212.405C607.107 273.794 605.86 339.607 584.75 400.234C563.64 460.861 523.773 513.127 470.97 549.398L381.968 418.866Z"/>
</mask>
<path fill-rule="evenodd" clip-rule="evenodd" d="M381.968 418.866C419.633 394.025 444.501 351.238 444.501 302.622C444.501 287.356 442.049 272.665 437.519 258.923L588.309 212.405C607.107 273.794 605.86 339.607 584.75 400.234C563.64 460.861 523.773 513.127 470.97 549.398L381.968 418.866Z" fill="#D5DAFE"/>
<path d="M381.968 418.866L379.766 415.526L376.375 417.763L378.663 421.119L381.968 418.866ZM437.519 258.923L436.34 255.101L432.443 256.303L433.72 260.176L437.519 258.923ZM588.309 212.405L592.134 211.234L590.96 207.401L587.13 208.583L588.309 212.405ZM584.75 400.234L588.527 401.549L588.527 401.549L584.75 400.234ZM470.97 549.398L467.665 551.652L469.926 554.968L473.234 552.696L470.97 549.398ZM440.501 302.622C440.501 349.842 416.352 391.397 379.766 415.526L384.17 422.205C422.913 396.653 448.501 352.635 448.501 302.622H440.501ZM433.72 260.176C438.118 273.518 440.501 287.786 440.501 302.622H448.501C448.501 286.925 445.979 271.811 441.318 257.671L433.72 260.176ZM587.13 208.583L436.34 255.101L438.698 262.746L589.488 216.227L587.13 208.583ZM588.527 401.549C609.917 340.12 611.181 273.435 592.134 211.234L584.484 213.576C603.033 274.152 601.803 339.095 580.972 398.919L588.527 401.549ZM473.234 552.696C526.741 515.94 567.138 462.98 588.527 401.549L580.972 398.919C560.142 458.743 520.804 510.313 468.705 546.101L473.234 552.696ZM378.663 421.119L467.665 551.652L474.274 547.145L385.273 416.612L378.663 421.119Z" fill="white" mask="url(#path-9-inside-3)"/>
</g>
<path d="M543.235 252.479C543.698 251.014 544.685 250.521 546.195 250.998L566.173 257.312C567.66 257.782 568.169 258.761 567.699 260.249L565.084 268.521C564.245 271.176 562.934 273.014 561.151 274.036C559.368 275.059 557.287 275.194 554.907 274.441C552.527 273.689 550.89 272.379 549.995 270.51C549.124 268.649 549.107 266.391 549.946 263.737L551.878 257.627L544.806 255.392C543.296 254.914 542.772 253.943 543.235 252.479ZM555.345 258.723L553.63 264.146C552.632 267.304 553.506 269.317 556.252 270.185C558.976 271.046 560.836 269.897 561.834 266.739L563.549 261.315L555.345 258.723ZM534.77 279.024C535.319 277.285 536.152 275.887 537.266 274.829C538.38 273.772 539.702 273.095 541.231 272.798C542.782 272.508 544.45 272.645 546.235 273.209C548.02 273.773 549.453 274.616 550.533 275.738C551.613 276.86 552.305 278.173 552.61 279.679C552.914 281.185 552.792 282.807 552.242 284.546C551.692 286.286 550.86 287.684 549.746 288.741C548.631 289.798 547.31 290.476 545.781 290.773C544.252 291.07 542.596 290.936 540.811 290.372C539.026 289.808 537.582 288.962 536.479 287.833C535.398 286.711 534.706 285.397 534.402 283.892C534.097 282.386 534.22 280.763 534.77 279.024ZM538.031 280.055C537.626 281.336 537.758 282.511 538.427 283.578C539.12 284.653 540.37 285.476 542.178 286.047C544.008 286.626 545.493 286.667 546.631 286.171C547.793 285.682 548.576 284.797 548.981 283.516C549.386 282.234 549.254 281.06 548.584 279.992C547.938 278.932 546.699 278.113 544.868 277.534C543.06 276.963 541.564 276.918 540.38 277.399C539.219 277.888 538.436 278.773 538.031 280.055ZM528.996 297.292C529.307 296.308 529.739 295.299 530.292 294.266C530.845 293.232 531.511 292.36 532.289 291.65C532.716 291.256 533.142 291.063 533.567 291.072C534.015 291.088 534.389 291.219 534.689 291.464C535.004 291.74 535.188 292.075 535.24 292.469C535.284 292.886 535.116 293.298 534.735 293.707C534.011 294.484 533.431 295.245 532.995 295.988C532.582 296.738 532.252 297.503 532.006 298.281C531.659 299.379 531.585 300.249 531.785 300.891C532 301.564 532.417 301.997 533.035 302.193C533.996 302.496 534.838 301.982 535.561 300.65L537.298 297.424C538.766 294.691 540.736 293.715 543.207 294.496C544.306 294.844 545.161 295.441 545.774 296.289C546.38 297.16 546.73 298.202 546.825 299.415C546.92 300.628 546.747 301.933 546.305 303.329C545.669 305.343 544.655 306.998 543.263 308.295C542.897 308.657 542.497 308.808 542.064 308.746C541.646 308.715 541.282 308.55 540.974 308.251C540.682 307.982 540.513 307.64 540.469 307.223C540.447 306.813 540.627 306.404 541.007 305.996C541.598 305.402 542.078 304.799 542.448 304.186C542.81 303.596 543.086 303.003 543.274 302.408C543.628 301.287 543.698 300.39 543.482 299.718C543.26 299.069 542.828 298.643 542.187 298.44C541.18 298.122 540.356 298.579 539.715 299.811L537.978 303.038C537.233 304.438 536.375 305.4 535.404 305.924C534.426 306.471 533.319 306.549 532.084 306.158C530.413 305.63 529.303 304.562 528.754 302.954C528.228 301.353 528.309 299.466 528.996 297.292ZM523.263 315.43C524.667 310.99 527.565 309.465 531.959 310.853L539.27 313.164L539.834 311.379C540.196 310.235 540.915 309.833 541.99 310.173C543.066 310.513 543.423 311.255 543.061 312.399L542.497 314.184L545.621 315.171C547.062 315.627 547.555 316.576 547.1 318.017C546.651 319.436 545.706 319.918 544.264 319.462L541.141 318.475L539.991 322.113C539.629 323.258 538.911 323.66 537.835 323.32C536.759 322.98 536.402 322.238 536.764 321.094L537.914 317.455L530.843 315.22C529.744 314.873 528.845 314.853 528.144 315.16C527.442 315.467 526.922 316.158 526.582 317.234C526.459 317.623 526.385 317.977 526.359 318.296C526.334 318.615 526.297 318.893 526.247 319.129C526.183 319.411 526.019 319.611 525.756 319.729C525.515 319.854 525.097 319.822 524.502 319.634C524.044 319.49 523.658 319.279 523.342 319.003C523.042 318.758 522.885 318.418 522.871 317.986C522.873 317.66 522.916 317.245 522.999 316.743C523.06 316.234 523.148 315.796 523.263 315.43ZM528.91 324.8C529.069 324.296 529.363 323.923 529.792 323.681C530.237 323.469 530.699 323.439 531.18 323.591C531.683 323.75 532.044 324.041 532.264 324.463C532.475 324.907 532.502 325.381 532.343 325.884L530.032 333.196C529.88 333.677 529.593 334.026 529.172 334.245C528.743 334.487 528.277 334.529 527.773 334.37C527.292 334.218 526.935 333.916 526.7 333.464C526.481 333.043 526.447 332.592 526.599 332.111L528.91 324.8ZM513.32 346.89C514.058 344.555 515.22 342.67 516.807 341.233C518.386 339.82 520.255 338.925 522.412 338.55C524.592 338.182 526.941 338.396 529.458 339.191C531.999 339.994 534.044 341.169 535.593 342.716C537.143 344.263 538.147 346.065 538.604 348.123C539.084 350.187 538.952 352.398 538.207 354.755C537.462 357.112 536.299 358.998 534.72 360.411C533.163 361.832 531.306 362.731 529.149 363.106C526.992 363.481 524.654 363.271 522.137 362.475C519.597 361.672 517.54 360.494 515.968 358.94C514.418 357.393 513.403 355.587 512.923 353.522C512.443 351.458 512.575 349.247 513.32 346.89ZM517.096 348.083C516.394 350.303 516.615 352.273 517.758 353.993C518.9 355.714 520.833 357.004 523.556 357.865C526.302 358.733 528.626 358.787 530.527 358.029C532.421 357.294 533.722 355.805 534.431 353.562C535.132 351.342 534.923 349.376 533.803 347.663C532.684 345.949 530.751 344.659 528.005 343.791C525.281 342.93 522.958 342.875 521.034 343.627C519.11 344.378 517.798 345.863 517.096 348.083ZM501.578 362.779C502.026 361.36 502.971 360.879 504.413 361.334L523.601 367.399C525.043 367.855 525.543 368.781 525.102 370.177C524.653 371.595 523.708 372.077 522.267 371.621L521.546 371.393C522.286 372.156 522.768 373.101 522.991 374.229C523.236 375.363 523.163 376.549 522.773 377.784C522.31 379.249 521.55 380.418 520.494 381.293C519.43 382.19 518.148 382.741 516.648 382.947C515.172 383.159 513.529 382.98 511.721 382.409C509.936 381.845 508.478 381.044 507.346 380.006C506.237 378.976 505.501 377.8 505.139 376.477C504.777 375.155 504.831 373.75 505.301 372.262C505.677 371.072 506.269 370.076 507.076 369.274C507.899 368.502 508.824 368.002 509.853 367.773L503.057 365.625C501.615 365.17 501.122 364.221 501.578 362.779ZM508.941 372.091C508.536 373.373 508.669 374.547 509.338 375.615C510.03 376.689 511.281 377.512 513.088 378.084C514.919 378.662 516.404 378.704 517.542 378.208C518.703 377.719 519.487 376.834 519.892 375.552C520.297 374.271 520.164 373.096 519.495 372.029C518.848 370.969 517.61 370.149 515.779 369.571C513.971 368.999 512.475 368.954 511.291 369.436C510.13 369.925 509.347 370.81 508.941 372.091ZM499.24 391.437C499.841 389.538 500.712 388.014 501.856 386.865C502.999 385.716 504.342 384.97 505.886 384.627C507.421 384.307 509.082 384.429 510.867 384.993C512.606 385.543 514.016 386.379 515.096 387.5C516.169 388.645 516.872 389.962 517.207 391.452C517.557 392.973 517.475 394.545 516.962 396.17C516.21 398.55 514.861 400.188 512.917 401.083C510.966 402.002 508.685 402.049 506.077 401.224C505.23 400.957 504.98 400.274 505.327 399.175L508.604 388.809C505.505 388.182 503.463 389.424 502.48 392.536C502.292 393.131 502.15 393.817 502.056 394.592C501.978 395.398 502.017 396.191 502.173 396.97C502.328 397.674 502.272 398.21 502.005 398.578C501.76 398.954 501.429 399.164 501.013 399.209C500.589 399.276 500.169 399.169 499.755 398.887C499.357 398.635 499.08 398.195 498.926 397.567C498.676 396.607 498.591 395.561 498.672 394.429C498.769 393.327 498.958 392.33 499.24 391.437ZM513.99 395.419C514.388 394.161 514.321 393.019 513.788 391.995C513.256 390.971 512.352 390.17 511.075 389.59L508.406 398.034C509.831 398.384 511.018 398.331 511.968 397.876C512.932 397.451 513.607 396.632 513.99 395.419ZM495.349 403.988C495.812 402.523 496.776 402.022 498.24 402.485L511.216 406.586C512.657 407.042 513.158 407.968 512.716 409.363C512.275 410.759 511.334 411.23 509.892 410.774L508.828 410.438C510.536 411.883 511.077 413.993 510.452 416.765C510.256 417.786 509.522 418.158 508.25 417.881C507.001 417.612 506.514 416.804 506.789 415.456L506.959 414.679C507.574 411.778 506.577 409.915 503.968 409.09L496.862 406.844C495.398 406.382 494.893 405.429 495.349 403.988ZM490.032 420.57C490.416 419.357 490.988 418.343 491.75 417.526C492.527 416.74 493.403 416.199 494.377 415.902C495.344 415.629 496.331 415.652 497.338 415.97C498.574 416.361 499.445 416.988 499.952 417.853C500.482 418.726 500.679 419.933 500.544 421.476C500.409 423.019 499.958 425.003 499.191 427.429L498.811 428.631L499.532 428.858C500.676 429.22 501.58 429.229 502.242 428.884C502.905 428.54 503.424 427.773 503.8 426.583C504.01 425.919 504.158 425.173 504.244 424.344C504.322 423.539 504.301 422.651 504.179 421.681C504.101 421.052 504.211 420.584 504.51 420.276C504.832 419.975 505.22 419.82 505.676 419.813C506.147 419.836 506.574 419.997 506.958 420.294C507.335 420.615 507.544 421.071 507.583 421.662C507.685 422.852 507.676 423.957 507.555 424.976C507.427 426.018 507.237 426.939 506.984 427.74C506.21 430.189 505.063 431.827 503.542 432.656C502.045 433.491 500.106 433.533 497.726 432.781L489.488 430.177C488.023 429.714 487.501 428.819 487.92 427.491C488.347 426.141 489.293 425.698 490.757 426.161L491.513 426.399C490.697 425.714 490.149 424.861 489.867 423.84C489.608 422.827 489.664 421.737 490.032 420.57ZM492.702 422.396C492.348 423.517 492.444 424.567 492.991 425.545C493.53 426.546 494.395 427.235 495.585 427.611L496.34 427.849L496.709 426.682C497.389 424.531 497.691 422.978 497.615 422.023C497.555 421.098 497.09 420.498 496.221 420.223C495.466 419.984 494.765 420.052 494.118 420.427C493.471 420.801 492.999 421.457 492.702 422.396ZM483.416 441.505C484.819 437.065 487.717 435.54 492.111 436.929L499.423 439.24L499.987 437.455C500.348 436.31 501.067 435.908 502.143 436.248C503.218 436.588 503.575 437.33 503.213 438.474L502.649 440.259L505.773 441.247C507.215 441.702 507.708 442.651 507.252 444.093C506.804 445.512 505.859 445.993 504.417 445.537L501.293 444.55L500.143 448.189C499.781 449.333 499.063 449.735 497.987 449.395C496.912 449.055 496.555 448.313 496.916 447.169L498.066 443.53L490.995 441.295C489.897 440.948 488.997 440.928 488.296 441.235C487.595 441.542 487.074 442.233 486.734 443.309C486.611 443.698 486.537 444.052 486.512 444.371C486.486 444.69 486.449 444.968 486.4 445.204C486.336 445.486 486.172 445.686 485.908 445.804C485.667 445.929 485.249 445.898 484.654 445.71C484.196 445.565 483.81 445.355 483.494 445.079C483.194 444.833 483.037 444.494 483.023 444.061C483.026 443.735 483.068 443.321 483.152 442.818C483.212 442.309 483.3 441.871 483.416 441.505ZM501.433 456.053C501.686 455.252 502.08 454.684 502.613 454.349C503.163 454.044 503.792 454.004 504.502 454.228C505.234 454.46 505.726 454.855 505.977 455.412C506.222 455.993 506.217 456.684 505.964 457.485C505.429 459.178 504.406 459.786 502.896 459.309C501.386 458.831 500.898 457.746 501.433 456.053ZM480.975 449.586C481.192 448.9 481.564 448.439 482.092 448.203C482.619 447.967 483.249 447.964 483.982 448.196L496.579 452.178C498.135 452.669 498.689 453.625 498.241 455.044C497.785 456.485 496.779 456.96 495.223 456.468L482.625 452.487C481.893 452.255 481.379 451.891 481.083 451.395C480.786 450.899 480.751 450.296 480.975 449.586ZM476.7 462.993C477.061 461.849 477.935 461.194 479.322 461.028L493.713 459.573C494.57 459.492 495.237 459.69 495.715 460.168C496.186 460.67 496.273 461.389 495.976 462.328C495.81 462.854 495.55 463.238 495.197 463.478C494.867 463.726 494.331 463.871 493.587 463.913L481.988 464.778L490.975 472.3C491.536 472.754 491.88 473.178 492.008 473.57C492.151 473.993 492.132 474.491 491.951 475.063C491.72 475.795 491.271 476.219 490.605 476.336C489.939 476.453 489.29 476.235 488.659 475.683L477.716 466.108C476.662 465.221 476.324 464.183 476.7 462.993ZM470.549 482.214C471.149 480.315 472.021 478.791 473.165 477.642C474.308 476.493 475.651 475.747 477.194 475.404C478.73 475.084 480.391 475.206 482.176 475.77C483.915 476.32 485.324 477.156 486.405 478.277C487.478 479.422 488.181 480.739 488.516 482.229C488.866 483.749 488.784 485.322 488.271 486.947C487.519 489.327 486.17 490.965 484.226 491.86C482.274 492.779 479.994 492.826 477.385 492.001C476.539 491.734 476.289 491.051 476.636 489.952L479.913 479.586C476.813 478.959 474.772 480.201 473.788 483.313C473.6 483.908 473.459 484.594 473.365 485.369C473.287 486.175 473.326 486.968 473.482 487.747C473.637 488.451 473.581 488.987 473.314 489.355C473.069 489.731 472.738 489.941 472.321 489.985C471.897 490.053 471.478 489.945 471.064 489.664C470.665 489.412 470.389 488.972 470.235 488.344C469.985 487.384 469.9 486.338 469.981 485.206C470.078 484.104 470.267 483.106 470.549 482.214ZM485.299 486.196C485.697 484.938 485.629 483.796 485.097 482.772C484.565 481.748 483.661 480.946 482.384 480.367L479.715 488.811C481.14 489.161 482.327 489.108 483.276 488.653C484.241 488.228 484.915 487.409 485.299 486.196ZM470.538 320.852C471.03 319.296 472.054 318.764 473.61 319.256L493.141 325.429C494.698 325.921 495.23 326.945 494.738 328.501L492.633 335.16C491.353 339.211 489.324 342.005 486.548 343.544C483.764 345.105 480.426 345.271 476.536 344.042C472.669 342.819 470.033 340.766 468.629 337.881C467.218 335.018 467.153 331.562 468.433 327.511L470.538 320.852ZM473.526 324.062L472.159 328.387C470.394 333.97 472.338 337.656 477.99 339.442C483.619 341.221 487.317 339.319 489.081 333.735L490.448 329.41L473.526 324.062ZM461.052 349.671C461.435 348.458 462.008 347.443 462.769 346.627C463.546 345.841 464.422 345.299 465.396 345.003C466.364 344.73 467.351 344.753 468.358 345.071C469.594 345.461 470.465 346.089 470.972 346.954C471.501 347.826 471.699 349.034 471.563 350.577C471.428 352.12 470.977 354.104 470.21 356.53L469.831 357.731L470.552 357.959C471.696 358.321 472.599 358.33 473.262 357.985C473.924 357.641 474.444 356.874 474.82 355.684C475.03 355.02 475.177 354.274 475.263 353.445C475.342 352.639 475.32 351.752 475.199 350.782C475.121 350.153 475.231 349.685 475.53 349.376C475.851 349.075 476.24 348.921 476.695 348.914C477.166 348.937 477.594 349.097 477.978 349.395C478.355 349.716 478.563 350.172 478.603 350.763C478.705 351.953 478.695 353.058 478.575 354.077C478.447 355.119 478.256 356.04 478.003 356.841C477.229 359.289 476.082 360.928 474.562 361.756C473.064 362.592 471.126 362.634 468.746 361.881L460.507 359.278C459.043 358.815 458.52 357.92 458.94 356.592C459.366 355.242 460.312 354.798 461.777 355.261L462.532 355.5C461.717 354.814 461.168 353.961 460.887 352.941C460.628 351.928 460.683 350.838 461.052 349.671ZM463.722 351.496C463.367 352.618 463.463 353.668 464.01 354.646C464.549 355.647 465.414 356.335 466.604 356.712L467.359 356.95L467.728 355.783C468.408 353.632 468.71 352.079 468.635 351.124C468.575 350.199 468.11 349.599 467.24 349.324C466.485 349.085 465.784 349.153 465.137 349.527C464.49 349.902 464.018 350.558 463.722 351.496ZM454.435 370.606C455.838 366.166 458.737 364.641 463.13 366.029L470.442 368.34L471.006 366.555C471.368 365.411 472.086 365.009 473.162 365.349C474.238 365.689 474.594 366.431 474.233 367.575L473.669 369.36L476.792 370.347C478.234 370.803 478.727 371.752 478.271 373.193C477.823 374.612 476.878 375.094 475.436 374.638L472.313 373.651L471.162 377.29C470.801 378.434 470.082 378.836 469.007 378.496C467.931 378.156 467.574 377.414 467.936 376.27L469.086 372.631L462.015 370.396C460.916 370.049 460.016 370.029 459.315 370.336C458.614 370.643 458.094 371.334 457.754 372.41C457.631 372.799 457.557 373.153 457.531 373.472C457.506 373.791 457.468 374.069 457.419 374.305C457.355 374.587 457.191 374.787 456.927 374.905C456.686 375.03 456.269 374.998 455.674 374.81C455.216 374.666 454.829 374.455 454.514 374.18C454.214 373.934 454.057 373.595 454.042 373.162C454.045 372.836 454.088 372.421 454.171 371.919C454.231 371.41 454.319 370.972 454.435 370.606ZM450.955 381.617C451.338 380.404 451.911 379.39 452.672 378.573C453.449 377.787 454.325 377.246 455.299 376.95C456.267 376.676 457.254 376.699 458.261 377.017C459.497 377.408 460.368 378.035 460.875 378.9C461.404 379.773 461.602 380.98 461.466 382.523C461.331 384.066 460.88 386.05 460.113 388.476L459.734 389.678L460.455 389.905C461.599 390.267 462.502 390.276 463.165 389.931C463.827 389.587 464.347 388.82 464.723 387.63C464.933 386.966 465.08 386.22 465.166 385.391C465.245 384.586 465.223 383.698 465.102 382.728C465.024 382.099 465.134 381.631 465.433 381.323C465.754 381.022 466.143 380.868 466.598 380.86C467.069 380.883 467.497 381.044 467.881 381.341C468.258 381.662 468.466 382.118 468.506 382.709C468.608 383.899 468.598 385.004 468.478 386.023C468.35 387.065 468.159 387.986 467.906 388.787C467.132 391.236 465.985 392.874 464.465 393.703C462.967 394.538 461.029 394.58 458.649 393.828L450.41 391.224C448.946 390.761 448.423 389.866 448.843 388.538C449.269 387.188 450.215 386.745 451.68 387.208L452.435 387.446C451.62 386.761 451.071 385.908 450.79 384.887C450.531 383.874 450.586 382.784 450.955 381.617ZM453.625 383.443C453.27 384.564 453.366 385.614 453.913 386.592C454.452 387.593 455.317 388.282 456.507 388.658L457.262 388.896L457.631 387.729C458.311 385.578 458.613 384.025 458.538 383.07C458.478 382.145 458.013 381.545 457.143 381.27C456.388 381.031 455.687 381.099 455.04 381.474C454.393 381.848 453.921 382.504 453.625 383.443Z" fill="#00218A"/>
<g filter="url(#filter3_d)">
<mask id="path-12-inside-4" fill="white">
<path fill-rule="evenodd" clip-rule="evenodd" d="M382.581 418.606C360.695 432.659 334.579 440.823 306.535 440.823C272.627 440.823 241.54 428.89 217.338 409.041L114.767 538.008C165.54 577.448 227.741 599.814 292.288 601.84C356.835 603.865 420.347 585.444 473.549 549.266L382.581 418.606Z"/>
</mask>
<path fill-rule="evenodd" clip-rule="evenodd" d="M382.581 418.606C360.695 432.659 334.579 440.823 306.535 440.823C272.627 440.823 241.54 428.89 217.338 409.041L114.767 538.008C165.54 577.448 227.741 599.814 292.288 601.84C356.835 603.865 420.347 585.444 473.549 549.266L382.581 418.606Z" fill="#D5DAFE"/>
<path d="M382.581 418.606L385.863 416.321L383.662 413.158L380.419 415.24L382.581 418.606ZM217.338 409.041L219.875 405.948L216.735 403.373L214.208 406.551L217.338 409.041ZM114.767 538.008L111.636 535.518L109.118 538.685L112.313 541.167L114.767 538.008ZM473.549 549.266L475.799 552.574L479.143 550.3L476.832 546.981L473.549 549.266ZM380.419 415.24C359.161 428.891 333.793 436.823 306.535 436.823V444.823C335.366 444.823 362.228 436.428 384.742 421.972L380.419 415.24ZM306.535 436.823C273.581 436.823 243.384 425.229 219.875 405.948L214.802 412.134C239.696 432.55 271.673 444.823 306.535 444.823V436.823ZM214.208 406.551L111.636 535.518L117.898 540.498L220.469 411.531L214.208 406.551ZM112.313 541.167C163.757 581.129 226.775 603.786 292.163 605.838L292.414 597.842C228.708 595.843 167.323 573.768 117.221 534.849L112.313 541.167ZM292.163 605.838C357.551 607.89 421.895 589.229 475.799 552.574L471.3 545.959C418.799 581.659 356.12 599.841 292.414 597.842L292.163 605.838ZM476.832 546.981L385.863 416.321L379.298 420.892L470.267 551.552L476.832 546.981Z" fill="white" mask="url(#path-12-inside-4)"/>
</g>
<path d="M205.622 531.288C204.782 531.288 204.182 531 203.822 530.424C203.462 529.848 203.474 529.152 203.858 528.336L213.362 507.276C213.674 506.58 214.046 506.088 214.478 505.8C214.934 505.488 215.45 505.332 216.026 505.332C216.578 505.332 217.07 505.488 217.502 505.8C217.958 506.088 218.342 506.58 218.654 507.276L228.194 528.336C228.578 529.176 228.602 529.884 228.266 530.46C227.93 531.012 227.354 531.288 226.538 531.288C225.866 531.288 225.338 531.132 224.954 530.82C224.594 530.484 224.27 529.98 223.982 529.308L222.182 525.132H209.798L208.034 529.308C207.722 530.004 207.398 530.508 207.062 530.82C206.726 531.132 206.246 531.288 205.622 531.288ZM215.954 510.624L211.382 521.46H220.598L216.026 510.624H215.954ZM233.959 531.288C232.471 531.288 231.727 530.52 231.727 528.984V515.376C231.727 513.864 232.459 513.108 233.923 513.108C235.387 513.108 236.119 513.864 236.119 515.376V516.132C236.719 515.124 237.523 514.356 238.531 513.828C239.563 513.3 240.715 513.036 241.987 513.036C246.139 513.036 248.215 515.448 248.215 520.272V528.984C248.215 530.52 247.471 531.288 245.983 531.288C244.471 531.288 243.715 530.52 243.715 528.984V520.488C243.715 519.12 243.451 518.124 242.923 517.5C242.419 516.876 241.627 516.564 240.547 516.564C239.227 516.564 238.171 516.984 237.379 517.824C236.611 518.64 236.227 519.732 236.227 521.1V528.984C236.227 530.52 235.471 531.288 233.959 531.288ZM255.017 531.288C253.529 531.288 252.785 530.52 252.785 528.984V515.376C252.785 513.864 253.517 513.108 254.981 513.108C256.445 513.108 257.177 513.864 257.177 515.376V516.132C257.777 515.124 258.581 514.356 259.589 513.828C260.621 513.3 261.773 513.036 263.045 513.036C267.197 513.036 269.273 515.448 269.273 520.272V528.984C269.273 530.52 268.529 531.288 267.041 531.288C265.529 531.288 264.773 530.52 264.773 528.984V520.488C264.773 519.12 264.509 518.124 263.981 517.5C263.477 516.876 262.685 516.564 261.605 516.564C260.285 516.564 259.229 516.984 258.437 517.824C257.669 518.64 257.285 519.732 257.285 521.1V528.984C257.285 530.52 256.529 531.288 255.017 531.288ZM281.872 531.36C280.048 531.36 278.464 530.988 277.12 530.244C275.776 529.5 274.732 528.444 273.988 527.076C273.244 525.684 272.872 524.052 272.872 522.18C272.872 520.308 273.244 518.688 273.988 517.32C274.732 515.952 275.776 514.896 277.12 514.152C278.464 513.408 280.048 513.036 281.872 513.036C283.696 513.036 285.28 513.408 286.624 514.152C287.968 514.896 289.012 515.952 289.756 517.32C290.5 518.688 290.872 520.308 290.872 522.18C290.872 524.052 290.5 525.684 289.756 527.076C289.012 528.444 287.968 529.5 286.624 530.244C285.28 530.988 283.696 531.36 281.872 531.36ZM281.872 527.94C283.216 527.94 284.296 527.46 285.112 526.5C285.928 525.516 286.336 524.076 286.336 522.18C286.336 520.26 285.928 518.832 285.112 517.896C284.296 516.936 283.216 516.456 281.872 516.456C280.528 516.456 279.448 516.936 278.632 517.896C277.816 518.832 277.408 520.26 277.408 522.18C277.408 524.076 277.816 525.516 278.632 526.5C279.448 527.46 280.528 527.94 281.872 527.94ZM302.474 531.36C297.818 531.36 295.49 529.056 295.49 524.448V516.78H293.618C292.418 516.78 291.818 516.216 291.818 515.088C291.818 513.96 292.418 513.396 293.618 513.396H295.49V510.12C295.49 508.608 296.246 507.852 297.758 507.852C299.246 507.852 299.99 508.608 299.99 510.12V513.396H303.806C305.006 513.396 305.606 513.96 305.606 515.088C305.606 516.216 305.006 516.78 303.806 516.78H299.99V524.196C299.99 525.348 300.242 526.212 300.746 526.788C301.25 527.364 302.066 527.652 303.194 527.652C303.602 527.652 303.962 527.616 304.274 527.544C304.586 527.472 304.862 527.424 305.102 527.4C305.39 527.376 305.63 527.472 305.822 527.688C306.014 527.88 306.11 528.288 306.11 528.912C306.11 529.392 306.026 529.824 305.858 530.208C305.714 530.568 305.438 530.82 305.03 530.964C304.718 531.06 304.31 531.144 303.806 531.216C303.302 531.312 302.858 531.36 302.474 531.36ZM314.023 531.36C312.751 531.36 311.611 531.12 310.603 530.64C309.619 530.136 308.839 529.464 308.263 528.624C307.711 527.784 307.435 526.836 307.435 525.78C307.435 524.484 307.771 523.464 308.443 522.72C309.115 521.952 310.207 521.4 311.719 521.064C313.231 520.728 315.259 520.56 317.803 520.56H319.063V519.804C319.063 518.604 318.799 517.74 318.271 517.212C317.743 516.684 316.855 516.42 315.607 516.42C314.911 516.42 314.155 516.504 313.339 516.672C312.547 516.84 311.707 517.128 310.819 517.536C310.243 517.8 309.763 517.836 309.379 517.644C308.995 517.428 308.731 517.104 308.587 516.672C308.467 516.216 308.491 515.76 308.659 515.304C308.851 514.848 309.223 514.512 309.775 514.296C310.879 513.84 311.935 513.516 312.943 513.324C313.975 513.132 314.911 513.036 315.751 513.036C318.319 513.036 320.227 513.636 321.475 514.836C322.723 516.012 323.347 517.848 323.347 520.344V528.984C323.347 530.52 322.651 531.288 321.259 531.288C319.843 531.288 319.135 530.52 319.135 528.984V528.192C318.727 529.176 318.079 529.956 317.191 530.532C316.303 531.084 315.247 531.36 314.023 531.36ZM314.959 528.264C316.135 528.264 317.107 527.856 317.875 527.04C318.667 526.224 319.063 525.192 319.063 523.944V523.152H317.839C315.583 523.152 314.011 523.332 313.123 523.692C312.259 524.028 311.827 524.652 311.827 525.564C311.827 526.356 312.103 527.004 312.655 527.508C313.207 528.012 313.975 528.264 314.959 528.264ZM335.978 531.36C331.322 531.36 328.994 529.056 328.994 524.448V516.78H327.122C325.922 516.78 325.322 516.216 325.322 515.088C325.322 513.96 325.922 513.396 327.122 513.396H328.994V510.12C328.994 508.608 329.75 507.852 331.262 507.852C332.75 507.852 333.494 508.608 333.494 510.12V513.396H337.31C338.51 513.396 339.11 513.96 339.11 515.088C339.11 516.216 338.51 516.78 337.31 516.78H333.494V524.196C333.494 525.348 333.746 526.212 334.25 526.788C334.754 527.364 335.57 527.652 336.698 527.652C337.106 527.652 337.466 527.616 337.778 527.544C338.09 527.472 338.366 527.424 338.606 527.4C338.894 527.376 339.134 527.472 339.326 527.688C339.518 527.88 339.614 528.288 339.614 528.912C339.614 529.392 339.53 529.824 339.362 530.208C339.218 530.568 338.942 530.82 338.534 530.964C338.222 531.06 337.814 531.144 337.31 531.216C336.806 531.312 336.362 531.36 335.978 531.36ZM344.42 509.796C343.58 509.796 342.92 509.592 342.44 509.184C341.984 508.752 341.756 508.164 341.756 507.42C341.756 506.652 341.984 506.064 342.44 505.656C342.92 505.248 343.58 505.044 344.42 505.044C346.196 505.044 347.084 505.836 347.084 507.42C347.084 509.004 346.196 509.796 344.42 509.796ZM344.42 531.252C343.7 531.252 343.148 531.036 342.764 530.604C342.38 530.172 342.188 529.572 342.188 528.804V515.592C342.188 513.96 342.932 513.144 344.42 513.144C345.932 513.144 346.688 513.96 346.688 515.592V528.804C346.688 529.572 346.496 530.172 346.112 530.604C345.728 531.036 345.164 531.252 344.42 531.252ZM359.391 531.36C357.567 531.36 355.983 530.988 354.639 530.244C353.295 529.5 352.251 528.444 351.507 527.076C350.763 525.684 350.391 524.052 350.391 522.18C350.391 520.308 350.763 518.688 351.507 517.32C352.251 515.952 353.295 514.896 354.639 514.152C355.983 513.408 357.567 513.036 359.391 513.036C361.215 513.036 362.799 513.408 364.143 514.152C365.487 514.896 366.531 515.952 367.275 517.32C368.019 518.688 368.391 520.308 368.391 522.18C368.391 524.052 368.019 525.684 367.275 527.076C366.531 528.444 365.487 529.5 364.143 530.244C362.799 530.988 361.215 531.36 359.391 531.36ZM359.391 527.94C360.735 527.94 361.815 527.46 362.631 526.5C363.447 525.516 363.855 524.076 363.855 522.18C363.855 520.26 363.447 518.832 362.631 517.896C361.815 516.936 360.735 516.456 359.391 516.456C358.047 516.456 356.967 516.936 356.151 517.896C355.335 518.832 354.927 520.26 354.927 522.18C354.927 524.076 355.335 525.516 356.151 526.5C356.967 527.46 358.047 527.94 359.391 527.94ZM374.338 531.288C372.85 531.288 372.106 530.52 372.106 528.984V515.376C372.106 513.864 372.838 513.108 374.302 513.108C375.766 513.108 376.498 513.864 376.498 515.376V516.132C377.098 515.124 377.902 514.356 378.91 513.828C379.942 513.3 381.094 513.036 382.366 513.036C386.518 513.036 388.594 515.448 388.594 520.272V528.984C388.594 530.52 387.85 531.288 386.362 531.288C384.85 531.288 384.094 530.52 384.094 528.984V520.488C384.094 519.12 383.83 518.124 383.302 517.5C382.798 516.876 382.006 516.564 380.926 516.564C379.606 516.564 378.55 516.984 377.758 517.824C376.99 518.64 376.606 519.732 376.606 521.1V528.984C376.606 530.52 375.85 531.288 374.338 531.288ZM399.608 531.36C398.576 531.36 397.484 531.252 396.332 531.036C395.18 530.82 394.148 530.448 393.236 529.92C392.732 529.632 392.42 529.284 392.3 528.876C392.18 528.444 392.192 528.048 392.336 527.688C392.504 527.304 392.768 527.028 393.128 526.86C393.512 526.692 393.956 526.728 394.46 526.968C395.42 527.424 396.32 527.748 397.16 527.94C398 528.108 398.828 528.192 399.644 528.192C400.796 528.192 401.648 528 402.2 527.616C402.776 527.208 403.064 526.68 403.064 526.032C403.064 525.024 402.32 524.376 400.832 524.088L397.232 523.404C394.184 522.828 392.66 521.244 392.66 518.652C392.66 517.5 392.972 516.504 393.596 515.664C394.244 514.824 395.132 514.176 396.26 513.72C397.388 513.264 398.684 513.036 400.148 513.036C402.26 513.036 404.144 513.504 405.8 514.44C406.256 514.68 406.52 515.016 406.592 515.448C406.688 515.856 406.64 516.252 406.448 516.636C406.28 516.996 406.004 517.26 405.62 517.428C405.236 517.572 404.792 517.524 404.288 517.284C403.544 516.9 402.824 516.624 402.128 516.456C401.456 516.288 400.808 516.204 400.184 516.204C399.008 516.204 398.132 516.408 397.556 516.816C397.004 517.224 396.728 517.764 396.728 518.436C396.728 519.492 397.412 520.14 398.78 520.38L402.38 521.064C403.94 521.352 405.116 521.88 405.908 522.648C406.724 523.416 407.132 524.448 407.132 525.744C407.132 527.496 406.448 528.876 405.08 529.884C403.712 530.868 401.888 531.36 399.608 531.36Z" fill="#00218A"/>
<g filter="url(#filter4_d)">
<mask id="path-15-inside-5" fill="white">
<path fill-rule="evenodd" clip-rule="evenodd" d="M172.541 259.964L14.1633 209.623C-4.58422 268.604 -4.72329 331.927 13.765 390.99C32.2533 450.053 68.473 501.994 117.505 539.759L218.341 408.838C186.746 383.334 166.537 344.287 166.537 300.52C166.537 286.413 168.637 272.795 172.541 259.964Z"/>
</mask>
<path fill-rule="evenodd" clip-rule="evenodd" d="M172.541 259.964L14.1633 209.623C-4.58422 268.604 -4.72329 331.927 13.765 390.99C32.2533 450.053 68.473 501.994 117.505 539.759L218.341 408.838C186.746 383.334 166.537 344.287 166.537 300.52C166.537 286.413 168.637 272.795 172.541 259.964Z" fill="#D5DAFE"/>
<path d="M172.541 259.964L176.367 261.128L177.517 257.349L173.752 256.152L172.541 259.964ZM14.1633 209.623L15.375 205.811L11.563 204.599L10.3513 208.411L14.1633 209.623ZM13.765 390.99L9.94767 392.185L13.765 390.99ZM117.505 539.759L115.064 542.928L118.233 545.369L120.674 542.2L117.505 539.759ZM218.341 408.838L221.51 411.279L223.896 408.181L220.854 405.726L218.341 408.838ZM173.752 256.152L15.375 205.811L12.9517 213.435L171.329 263.776L173.752 256.152ZM10.3513 208.411C-8.64505 268.175 -8.78597 332.338 9.94767 392.185L17.5824 389.795C-0.660618 331.516 -0.523394 269.033 17.9754 210.835L10.3513 208.411ZM9.94767 392.185C28.6813 452.032 65.3815 504.662 115.064 542.928L119.945 536.59C71.5644 499.327 35.8254 448.075 17.5824 389.795L9.94767 392.185ZM120.674 542.2L221.51 411.279L215.173 406.397L114.336 537.318L120.674 542.2ZM220.854 405.726C190.159 380.948 170.537 343.027 170.537 300.52H162.537C162.537 345.547 183.333 385.72 215.829 411.951L220.854 405.726ZM170.537 300.52C170.537 286.812 172.577 273.587 176.367 261.128L168.714 258.8C164.696 272.004 162.537 286.014 162.537 300.52H170.537Z" fill="white" mask="url(#path-15-inside-5)"/>
</g>
<path d="M112.989 480.789C113.342 482.284 112.748 483.214 111.207 483.578L90.8171 488.4C89.299 488.759 88.3604 488.179 88.0014 486.661L86.0049 478.218C85.3642 475.509 85.5472 473.258 86.5539 471.466C87.5606 469.675 89.2785 468.492 91.7075 467.917C94.1365 467.343 96.214 467.628 97.9399 468.774C99.6425 469.925 100.814 471.855 101.455 474.565L102.929 480.801L110.146 479.094C111.688 478.73 112.635 479.295 112.989 480.789ZM99.391 481.637L98.0821 476.102C97.3199 472.879 95.5374 471.599 92.7347 472.261C89.9554 472.919 88.9468 474.859 89.709 478.082L91.0179 483.617L99.391 481.637ZM107.765 458.698C108.118 460.193 107.548 461.117 106.053 461.47L92.8101 464.602C91.3387 464.95 90.4345 464.411 90.0976 462.987C89.7607 461.562 90.328 460.676 91.7994 460.328L92.8854 460.071C90.678 459.705 89.1316 458.172 88.2464 455.471C87.8921 454.494 88.3318 453.798 89.5654 453.383C90.7756 452.974 91.6082 453.418 92.0632 454.716L92.3155 455.47C93.2751 458.277 95.0862 459.365 97.7487 458.736L105.001 457.021C106.496 456.667 107.417 457.226 107.765 458.698ZM103.189 439.035C103.647 440.973 103.68 442.729 103.288 444.301C102.895 445.874 102.124 447.203 100.975 448.289C99.8206 449.351 98.3325 450.097 96.5107 450.528C94.7357 450.948 93.0969 450.953 91.5944 450.544C90.0864 450.111 88.8068 449.341 87.7556 448.233C86.6756 447.108 85.9395 445.716 85.5474 444.057C84.973 441.628 85.2909 439.531 86.501 437.765C87.7056 435.976 89.6392 434.766 92.3017 434.137C93.1659 433.932 93.7305 434.391 93.9956 435.512L96.4975 446.092C99.4798 445.042 100.595 442.928 99.8443 439.752C99.7007 439.144 99.4705 438.484 99.1536 437.769C98.8078 437.037 98.368 436.377 97.8342 435.788C97.3402 435.263 97.1136 434.774 97.1544 434.321C97.1717 433.873 97.3479 433.523 97.683 433.271C98.0125 432.996 98.4273 432.873 98.9276 432.903C99.399 432.915 99.8617 433.15 100.316 433.61C101.023 434.306 101.632 435.161 102.143 436.175C102.625 437.17 102.974 438.124 103.189 439.035ZM88.4839 443.178C88.7876 444.462 89.4304 445.408 90.4123 446.014C91.3942 446.621 92.5818 446.845 93.9751 446.688L91.9371 438.07C90.5345 438.5 89.5423 439.154 88.9606 440.032C88.3501 440.891 88.1911 441.94 88.4839 443.178ZM92.2216 428.322C92.3431 428.836 92.2817 429.307 92.0376 429.735C91.7646 430.144 91.3828 430.407 90.8924 430.523C90.3785 430.645 89.9195 430.581 89.5152 430.331C89.1053 430.058 88.8397 429.665 88.7182 429.151L86.9536 421.689C86.8376 421.198 86.9044 420.751 87.1541 420.346C87.3982 419.919 87.7772 419.644 88.2911 419.523C88.7815 419.407 89.2434 419.482 89.6765 419.75C90.0808 420 90.341 420.37 90.457 420.86L92.2216 428.322ZM94.281 401.364C94.8443 403.746 94.8131 405.96 94.1874 408.007C93.5561 410.031 92.4105 411.757 90.7507 413.185C89.0674 414.619 86.9413 415.64 84.3721 416.247C81.7796 416.86 79.4215 416.9 77.2977 416.366C75.1739 415.833 73.3883 414.8 71.9409 413.268C70.4701 411.741 69.4503 409.775 68.8815 407.37C68.3126 404.964 68.3438 402.749 68.9751 400.726C69.583 398.708 70.7169 396.985 72.3767 395.556C74.0366 394.128 76.1511 393.11 78.7202 392.503C81.3127 391.89 83.6826 391.847 85.8297 392.375C87.9535 392.909 89.7508 393.939 91.2215 395.465C92.6923 396.992 93.7121 398.958 94.281 401.364ZM90.4273 402.275C89.8915 400.009 88.6921 398.431 86.829 397.54C84.966 396.649 82.6447 396.532 79.8654 397.189C77.0627 397.852 75.0397 398.996 73.7965 400.622C72.5477 402.224 72.1939 404.17 72.7352 406.458C73.2709 408.724 74.4586 410.305 76.2984 411.202C78.1381 412.098 80.4593 412.215 83.262 411.553C86.0414 410.895 88.0643 409.751 89.3309 408.12C90.5975 406.489 90.963 404.54 90.4273 402.275ZM96.2161 381.701C96.5585 383.149 95.994 384.047 94.5226 384.395L74.9387 389.026C73.4673 389.374 72.5631 388.835 72.2262 387.411C71.8838 385.963 72.4483 385.065 73.9197 384.717L74.6554 384.543C73.6285 384.268 72.7305 383.703 71.9614 382.849C71.1689 382.001 70.6235 380.946 70.3253 379.685C69.9718 378.19 70.0245 376.797 70.4835 375.504C70.9369 374.189 71.7547 373.058 72.9368 372.113C74.0956 371.173 75.5976 370.485 77.4427 370.048C79.2645 369.618 80.9272 369.557 82.431 369.868C83.9114 370.183 85.1462 370.816 86.1353 371.766C87.1244 372.716 87.7985 373.95 88.1575 375.468C88.4447 376.683 88.4473 377.841 88.1655 378.943C87.8547 380.028 87.3163 380.932 86.5503 381.656L93.487 380.016C94.9584 379.668 95.8681 380.229 96.2161 381.701ZM85.1192 377.481C84.8099 376.173 84.0943 375.233 82.9723 374.66C81.8269 374.092 80.3317 374.026 78.4865 374.463C76.6181 374.904 75.3223 375.63 74.5992 376.64C73.8527 377.655 73.6341 378.816 73.9434 380.124C74.2527 381.432 74.9684 382.372 76.0904 382.946C77.189 383.524 78.6726 383.593 80.5411 383.151C82.3862 382.715 83.6937 381.986 84.4635 380.966C85.2099 379.951 85.4285 378.789 85.1192 377.481ZM83.5297 355.898C83.9881 357.836 84.021 359.592 83.6283 361.164C83.2357 362.737 82.4648 364.066 81.3158 365.152C80.1613 366.214 78.6731 366.96 76.8514 367.391C75.0763 367.811 73.4375 367.816 71.935 367.407C70.427 366.974 69.1474 366.204 68.0963 365.096C67.0163 363.971 66.2802 362.579 65.888 360.92C65.3137 358.491 65.6315 356.394 66.8416 354.628C68.0462 352.839 69.9798 351.629 72.6424 351C73.5065 350.795 74.0712 351.254 74.3363 352.375L76.8382 362.955C79.8205 361.905 80.9361 359.791 80.1849 356.615C80.0413 356.008 79.8111 355.347 79.4942 354.633C79.1485 353.9 78.7087 353.24 78.1748 352.651C77.6809 352.127 77.4543 351.638 77.495 351.184C77.5124 350.736 77.6886 350.386 78.0236 350.134C78.3531 349.859 78.768 349.736 79.2682 349.766C79.7396 349.778 80.2023 350.014 80.6563 350.473C81.3635 351.169 81.9725 352.024 82.4835 353.038C82.9656 354.034 83.3143 354.987 83.5297 355.898ZM68.8245 360.041C69.1283 361.326 69.7711 362.271 70.753 362.877C71.7348 363.484 72.9224 363.708 74.3157 363.552L72.2778 354.933C70.8751 355.364 69.883 356.017 69.3013 356.895C68.6907 357.754 68.5318 358.803 68.8245 360.041ZM80.4359 343.127C80.7894 344.622 80.2187 345.546 78.7239 345.9L65.4811 349.031C64.0097 349.379 63.1056 348.841 62.7687 347.416C62.4318 345.991 62.999 345.105 64.4704 344.757L65.5565 344.5C63.3491 344.134 61.8027 342.601 60.9174 339.9C60.5632 338.924 61.0028 338.228 62.2364 337.813C63.4467 337.403 64.2793 337.848 64.7342 339.146L64.9866 339.9C65.9462 342.706 67.7572 343.795 70.4198 343.165L77.6718 341.45C79.1666 341.097 80.0879 341.656 80.4359 343.127ZM76.4986 326.164C76.7913 327.402 76.8201 328.567 76.585 329.658C76.3209 330.732 75.8465 331.645 75.1616 332.399C74.4711 333.13 73.6121 333.617 72.5844 333.86C71.3232 334.158 70.2533 334.066 69.3746 333.583C68.4726 333.106 67.6841 332.17 67.0092 330.776C66.3342 329.382 65.704 327.447 65.1186 324.971L64.8287 323.745L64.0929 323.919C62.9252 324.195 62.1451 324.651 61.7528 325.286C61.3604 325.921 61.3079 326.846 61.5951 328.061C61.7552 328.738 62.011 329.454 62.3622 330.21C62.708 330.942 63.1816 331.693 63.783 332.463C64.1724 332.963 64.3179 333.422 64.2194 333.84C64.0976 334.263 63.843 334.595 63.4558 334.834C63.0396 335.056 62.5903 335.138 62.1079 335.079C61.62 334.997 61.2074 334.713 60.8702 334.225C60.1723 333.256 59.614 332.303 59.1952 331.366C58.7709 330.406 58.4621 329.517 58.2688 328.699C57.6778 326.2 57.8226 324.205 58.7032 322.715C59.5605 321.23 61.2036 320.2 63.6326 319.626L72.0407 317.637C73.5355 317.284 74.443 317.784 74.7634 319.139C75.0892 320.517 74.5048 321.383 73.01 321.736L72.2393 321.918C73.2907 322.089 74.1989 322.54 74.9638 323.272C75.7053 324.009 76.217 324.973 76.4986 326.164ZM73.2703 325.966C72.9997 324.821 72.379 323.969 71.4081 323.41C70.4318 322.827 69.3363 322.679 68.1218 322.966L67.3511 323.148L67.6328 324.34C68.1519 326.535 68.6888 328.023 69.2435 328.805C69.7693 329.568 70.476 329.845 71.3635 329.635C72.1343 329.453 72.7014 329.035 73.0648 328.382C73.4283 327.729 73.4968 326.923 73.2703 325.966ZM71.4461 304.798C72.5176 309.329 70.8112 312.125 66.3268 313.185L58.8646 314.95L59.2954 316.772C59.5716 317.939 59.1608 318.653 58.0631 318.913C56.9653 319.172 56.2784 318.718 56.0022 317.55L55.5715 315.728L52.3834 316.482C50.912 316.83 50.0023 316.269 49.6543 314.797C49.3119 313.349 49.8764 312.451 51.3478 312.103L54.5359 311.349L53.6578 307.636C53.3816 306.468 53.7924 305.754 54.8901 305.495C55.9878 305.235 56.6748 305.689 56.9509 306.857L57.8291 310.571L65.046 308.864C66.1671 308.599 66.9499 308.155 67.3945 307.532C67.8391 306.909 67.9316 306.048 67.672 304.951C67.5781 304.554 67.4602 304.212 67.3183 303.924C67.1765 303.637 67.0663 303.38 66.9877 303.152C66.898 302.877 66.9362 302.621 67.1022 302.385C67.2449 302.154 67.6199 301.967 68.2271 301.823C68.6942 301.712 69.134 301.695 69.5463 301.77C69.9298 301.827 70.2386 302.038 70.4726 302.402C70.6378 302.683 70.8134 303.061 70.9995 303.535C71.2089 304.003 71.3578 304.424 71.4461 304.798ZM48.5183 301.545C48.7116 302.363 48.665 303.052 48.3784 303.613C48.0629 304.156 47.5432 304.514 46.8191 304.685C46.0718 304.861 45.4471 304.775 44.9451 304.425C44.4376 304.052 44.0872 303.456 43.8939 302.639C43.4852 300.911 44.0516 299.864 45.593 299.5C47.1345 299.135 48.1096 299.817 48.5183 301.545ZM69.3985 296.608C69.5642 297.309 69.481 297.896 69.149 298.369C68.8169 298.842 68.2772 299.167 67.5298 299.343L54.6724 302.384C53.0842 302.759 52.1189 302.223 51.7765 300.775C51.4285 299.304 52.0486 298.38 53.6368 298.005L66.4943 294.964C67.2416 294.787 67.8697 294.836 68.3785 295.11C68.8873 295.385 69.2273 295.884 69.3985 296.608ZM66.1953 282.906C66.4714 284.073 66.0568 285.084 64.9515 285.937L53.3413 294.564C52.6478 295.074 51.9733 295.246 51.3176 295.08C50.6564 294.891 50.2125 294.318 49.9861 293.36C49.8591 292.823 49.8854 292.361 50.065 291.973C50.2212 291.591 50.6076 291.191 51.2242 290.774L60.7402 284.085L49.1677 282.234C48.453 282.132 47.9402 281.945 47.6293 281.673C47.2896 281.383 47.0507 280.947 46.9126 280.363C46.7358 279.615 46.9035 279.021 47.4156 278.579C47.9277 278.137 48.5961 277.992 49.4208 278.142L63.7254 280.752C65.0848 280.973 65.9081 281.691 66.1953 282.906ZM61.6213 263.25C62.0797 265.188 62.1125 266.944 61.7199 268.516C61.3272 270.089 60.5564 271.418 59.4074 272.504C58.2528 273.566 56.7647 274.312 54.9429 274.743C53.1679 275.163 51.5291 275.168 50.0266 274.759C48.5186 274.326 47.239 273.556 46.1878 272.448C45.1078 271.323 44.3717 269.931 43.9796 268.272C43.4052 265.843 43.7231 263.746 44.9332 261.98C46.1378 260.191 48.0713 258.981 50.7339 258.352C51.5981 258.147 52.1627 258.606 52.4278 259.727L54.9297 270.307C57.912 269.257 59.0276 267.143 58.2765 263.967C58.1329 263.36 57.9026 262.699 57.5858 261.985C57.24 261.252 56.8002 260.592 56.2664 260.003C55.7724 259.479 55.5458 258.99 55.5865 258.536C55.6039 258.088 55.7801 257.738 56.1151 257.486C56.4447 257.211 56.8595 257.088 57.3598 257.118C57.8312 257.13 58.2939 257.366 58.7479 257.825C59.455 258.521 60.0641 259.376 60.575 260.39C61.0571 261.386 61.4059 262.339 61.6213 263.25ZM46.916 267.393C47.2198 268.678 47.8626 269.623 48.8445 270.229C49.8264 270.836 51.014 271.06 52.4073 270.904L50.3693 262.285C48.9667 262.716 47.9745 263.369 47.3928 264.247C46.7823 265.106 46.6233 266.155 46.916 267.393ZM142.355 393.299C142.731 394.887 142.125 395.869 140.536 396.245L120.602 400.959C119.014 401.334 118.032 400.728 117.657 399.14L116.049 392.343C115.072 388.209 115.381 384.77 116.976 382.025C118.565 379.257 121.346 377.403 125.316 376.464C129.263 375.531 132.579 375.943 135.263 377.701C137.942 379.435 139.771 382.369 140.748 386.503L142.355 393.299ZM138.145 392.075L137.101 387.661C135.753 381.962 132.195 379.795 126.426 381.159C120.681 382.518 118.482 386.046 119.829 391.745L120.873 396.159L138.145 392.075ZM135.724 363.693C136.017 364.93 136.046 366.095 135.811 367.187C135.547 368.26 135.072 369.174 134.387 369.928C133.697 370.658 132.838 371.145 131.81 371.388C130.549 371.686 129.479 371.594 128.6 371.111C127.698 370.634 126.91 369.698 126.235 368.304C125.56 366.91 124.93 364.975 124.344 362.499L124.054 361.273L123.319 361.447C122.151 361.723 121.371 362.179 120.978 362.814C120.586 363.45 120.534 364.375 120.821 365.589C120.981 366.267 121.237 366.983 121.588 367.738C121.934 368.47 122.407 369.222 123.009 369.992C123.398 370.492 123.544 370.95 123.445 371.368C123.323 371.792 123.069 372.123 122.681 372.363C122.265 372.585 121.816 372.666 121.334 372.608C120.846 372.526 120.433 372.241 120.096 371.753C119.398 370.784 118.84 369.831 118.421 368.894C117.997 367.934 117.688 367.045 117.494 366.228C116.903 363.729 117.048 361.734 117.929 360.243C118.786 358.758 120.429 357.728 122.858 357.154L131.266 355.166C132.761 354.812 133.669 355.313 133.989 356.667C134.315 358.045 133.73 358.911 132.236 359.265L131.465 359.447C132.516 359.617 133.425 360.069 134.189 360.8C134.931 361.537 135.443 362.501 135.724 363.693ZM132.496 363.494C132.225 362.35 131.605 361.498 130.634 360.938C129.657 360.355 128.562 360.207 127.348 360.494L126.577 360.677L126.858 361.868C127.378 364.063 127.915 365.552 128.469 366.333C128.995 367.097 129.702 367.373 130.589 367.163C131.36 366.981 131.927 366.564 132.29 365.91C132.654 365.257 132.722 364.452 132.496 363.494ZM130.672 342.326C131.743 346.857 130.037 349.653 125.553 350.714L118.09 352.478L118.521 354.3C118.797 355.468 118.386 356.181 117.289 356.441C116.191 356.701 115.504 356.246 115.228 355.079L114.797 353.257L111.609 354.011C110.138 354.359 109.228 353.797 108.88 352.326C108.538 350.877 109.102 349.979 110.574 349.632L113.762 348.878L112.883 345.164C112.607 343.996 113.018 343.283 114.116 343.023C115.214 342.763 115.9 343.218 116.177 344.385L117.055 348.099L124.272 346.392C125.393 346.127 126.176 345.683 126.62 345.06C127.065 344.437 127.157 343.577 126.898 342.479C126.804 342.082 126.686 341.74 126.544 341.453C126.402 341.166 126.292 340.908 126.213 340.68C126.124 340.405 126.162 340.15 126.328 339.913C126.471 339.682 126.846 339.495 127.453 339.351C127.92 339.241 128.36 339.223 128.772 339.298C129.155 339.356 129.464 339.566 129.698 339.93C129.863 340.212 130.039 340.589 130.225 341.063C130.435 341.532 130.583 341.953 130.672 342.326ZM128.014 331.088C128.307 332.326 128.336 333.49 128.101 334.582C127.837 335.655 127.362 336.569 126.677 337.323C125.987 338.053 125.128 338.54 124.1 338.783C122.839 339.081 121.769 338.989 120.89 338.506C119.988 338.029 119.2 337.094 118.525 335.699C117.85 334.305 117.22 332.37 116.634 329.895L116.344 328.669L115.609 328.842C114.441 329.119 113.661 329.574 113.268 330.21C112.876 330.845 112.824 331.77 113.111 332.984C113.271 333.662 113.527 334.378 113.878 335.134C114.224 335.866 114.697 336.617 115.299 337.387C115.688 337.887 115.834 338.346 115.735 338.764C115.613 339.187 115.359 339.519 114.971 339.758C114.555 339.98 114.106 340.061 113.624 340.003C113.136 339.921 112.723 339.636 112.386 339.149C111.688 338.179 111.13 337.226 110.711 336.289C110.287 335.329 109.978 334.441 109.784 333.623C109.193 331.124 109.338 329.129 110.219 327.638C111.076 326.153 112.719 325.124 115.148 324.549L123.556 322.561C125.051 322.207 125.959 322.708 126.279 324.063C126.605 325.441 126.02 326.306 124.526 326.66L123.755 326.842C124.806 327.013 125.715 327.464 126.479 328.195C127.221 328.933 127.733 329.897 128.014 331.088ZM124.786 330.89C124.515 329.745 123.895 328.893 122.924 328.333C121.947 327.75 120.852 327.603 119.637 327.89L118.867 328.072L119.148 329.263C119.668 331.459 120.204 332.947 120.759 333.728C121.285 334.492 121.992 334.769 122.879 334.559C123.65 334.377 124.217 333.959 124.58 333.306C124.944 332.652 125.012 331.847 124.786 330.89Z" fill="#00218A"/>
</g>
<defs>
<filter id="filter0_d" x="10.2324" y="0.464844" width="294.796" height="268.184" filterUnits="userSpaceOnUse" color-interpolation-filters="sRGB">
<feFlood flood-opacity="0" result="BackgroundImageFix"/>
<feColorMatrix in="SourceAlpha" type="matrix" values="0 0 0 0 0 0 0 0 0 0 0 0 0 0 0 0 0 0 127 0"/>
<feOffset dy="4"/>
<feGaussianBlur stdDeviation="2"/>
<feColorMatrix type="matrix" values="0 0 0 0 0.83401 0 0 0 0 0.85569 0 0 0 0 0.995833 0 0 0 0.46 0"/>
<feBlend mode="normal" in2="BackgroundImageFix" result="effect1_dropShadow"/>
<feBlend mode="normal" in="SourceGraphic" in2="effect1_dropShadow" result="shape"/>
</filter>
<filter id="filter1_d" x="296.102" y="0" width="296.518" height="267.065" filterUnits="userSpaceOnUse" color-interpolation-filters="sRGB">
<feFlood flood-opacity="0" result="BackgroundImageFix"/>
<feColorMatrix in="SourceAlpha" type="matrix" values="0 0 0 0 0 0 0 0 0 0 0 0 0 0 0 0 0 0 127 0"/>
<feOffset dy="4"/>
<feGaussianBlur stdDeviation="2"/>
<feColorMatrix type="matrix" values="0 0 0 0 0.83401 0 0 0 0 0.85569 0 0 0 0 0.995833 0 0 0 0.46 0"/>
<feBlend mode="normal" in2="BackgroundImageFix" result="effect1_dropShadow"/>
<feBlend mode="normal" in="SourceGraphic" in2="effect1_dropShadow" result="shape"/>
</filter>
<filter id="filter2_d" x="377.968" y="212.405" width="227.581" height="344.994" filterUnits="userSpaceOnUse" color-interpolation-filters="sRGB">
<feFlood flood-opacity="0" result="BackgroundImageFix"/>
<feColorMatrix in="SourceAlpha" type="matrix" values="0 0 0 0 0 0 0 0 0 0 0 0 0 0 0 0 0 0 127 0"/>
<feOffset dy="4"/>
<feGaussianBlur stdDeviation="2"/>
<feColorMatrix type="matrix" values="0 0 0 0 0.83401 0 0 0 0 0.85569 0 0 0 0 0.995833 0 0 0 0.46 0"/>
<feBlend mode="normal" in2="BackgroundImageFix" result="effect1_dropShadow"/>
<feBlend mode="normal" in="SourceGraphic" in2="effect1_dropShadow" result="shape"/>
</filter>
<filter id="filter3_d" x="110.767" y="409.041" width="366.782" height="200.949" filterUnits="userSpaceOnUse" color-interpolation-filters="sRGB">
<feFlood flood-opacity="0" result="BackgroundImageFix"/>
<feColorMatrix in="SourceAlpha" type="matrix" values="0 0 0 0 0 0 0 0 0 0 0 0 0 0 0 0 0 0 127 0"/>
<feOffset dy="4"/>
<feGaussianBlur stdDeviation="2"/>
<feColorMatrix type="matrix" values="0 0 0 0 0.83401 0 0 0 0 0.85569 0 0 0 0 0.995833 0 0 0 0.46 0"/>
<feBlend mode="normal" in2="BackgroundImageFix" result="effect1_dropShadow"/>
<feBlend mode="normal" in="SourceGraphic" in2="effect1_dropShadow" result="shape"/>
</filter>
<filter id="filter4_d" x="-4" y="209.623" width="226.341" height="338.136" filterUnits="userSpaceOnUse" color-interpolation-filters="sRGB">
<feFlood flood-opacity="0" result="BackgroundImageFix"/>
<feColorMatrix in="SourceAlpha" type="matrix" values="0 0 0 0 0 0 0 0 0 0 0 0 0 0 0 0 0 0 127 0"/>
<feOffset dy="4"/>
<feGaussianBlur stdDeviation="2"/>
<feColorMatrix type="matrix" values="0 0 0 0 0.83401 0 0 0 0 0.85569 0 0 0 0 0.995833 0 0 0 0.46 0"/>
<feBlend mode="normal" in2="BackgroundImageFix" result="effect1_dropShadow"/>
<feBlend mode="normal" in="SourceGraphic" in2="effect1_dropShadow" result="shape"/>
</filter>
<clipPath id="clip0">
<rect width="601.549" height="601.99" fill="white"/>
</clipPath>
</defs>
</svg>
