<svg width="80" height="80" viewBox="0 0 80 80" fill="none" xmlns="http://www.w3.org/2000/svg">
<path d="M65.0627 22.3398C64.2073 17.2565 61.6903 12.6174 57.8408 9.09694C53.5636 5.18166 48.0033 3.02661 42.2126 3.02661C37.738 3.02661 33.3786 4.30977 29.6443 6.72803C26.5351 8.73502 23.9523 11.4494 22.1263 14.6408C21.3366 14.4928 20.5141 14.4105 19.6915 14.4105C12.7 14.4105 7.00802 20.1025 7.00802 27.0941C7.00802 27.9989 7.10672 28.8707 7.27123 29.7262C2.74728 33.0163 0 38.3135 0 43.9561C0 48.5129 1.69443 52.9382 4.78717 56.4422C7.96216 60.0285 12.1571 62.1506 16.6317 62.3974C16.6811 62.3974 16.714 62.3974 16.7633 62.3974H30.911C32.1448 62.3974 33.1318 61.4103 33.1318 60.1765C33.1318 58.9427 32.1448 57.9557 30.911 57.9557H16.8291C10.1008 57.5444 4.4417 51.1451 4.4417 43.9396C4.4417 39.2841 6.94222 34.9411 10.9727 32.5886C11.9103 32.0457 12.3052 30.9106 11.9432 29.8907C11.6142 29.0023 11.4497 28.0647 11.4497 27.0612C11.4497 22.5208 15.1511 18.8193 19.6915 18.8193C20.6621 18.8193 21.6163 18.9838 22.5046 19.3129C23.5904 19.7077 24.7913 19.2141 25.2848 18.1778C28.3611 11.6468 35.0072 7.43541 42.2291 7.43541C51.935 7.43541 59.9465 14.7066 60.8678 24.3468C60.9665 25.3503 61.7232 26.1564 62.7103 26.3209C70.0308 27.5711 75.5583 34.3324 75.5583 42.0478C75.5583 50.2238 69.1261 57.3305 61.1968 57.9392H49.0726C47.8388 57.9392 46.8517 58.9263 46.8517 60.1601C46.8517 61.3939 47.8388 62.3809 49.0726 62.3809H61.279C61.3284 62.3809 61.3778 62.3809 61.4436 62.3809C66.461 62.019 71.1495 59.7159 74.6371 55.8664C78.1082 52.0499 80 47.1475 80 42.0478C79.9836 32.8189 73.6829 24.61 65.0627 22.3398Z" fill="#BDBBBB"/>
<path d="M53.3334 46.0617C54.2053 45.1898 54.2053 43.7915 53.3334 42.9196L41.5711 31.1573C41.1599 30.746 40.5841 30.4993 40.0083 30.4993C39.4325 30.4993 38.8568 30.7296 38.4455 31.1573L26.6832 42.9196C25.8113 43.7915 25.8113 45.1898 26.6832 46.0617C27.1109 46.4894 27.6867 46.7197 28.246 46.7197C28.8054 46.7197 29.3811 46.5058 29.8089 46.0617L37.7875 38.0831V74.7518C37.7875 75.9856 38.7745 76.9726 40.0083 76.9726C41.2421 76.9726 42.2292 75.9856 42.2292 74.7518V38.0831L50.2078 46.0617C51.0632 46.9336 52.4615 46.9336 53.3334 46.0617Z" fill="#BDBBBB"/>
</svg>
