<svg width="305" height="276" viewBox="0 0 305 276" fill="none" xmlns="http://www.w3.org/2000/svg">
<mask id="path-1-inside-1" fill="white">
<path fill-rule="evenodd" clip-rule="evenodd" d="M115.85 62.8761C170.157 23.3727 236.875 0.215438 304.029 -0.000488281L303.861 172.542C240.083 174.703 186.583 217.381 168.288 275.647L166.1 274.912L0.1875 221.821C21.0718 157.997 61.5439 102.379 115.85 62.8761Z"/>
</mask>
<path fill-rule="evenodd" clip-rule="evenodd" d="M115.85 62.8761C170.157 23.3727 236.875 0.215438 304.029 -0.000488281L303.861 172.542C240.083 174.703 186.583 217.381 168.288 275.647L166.1 274.912L0.1875 221.821C21.0718 157.997 61.5439 102.379 115.85 62.8761Z" fill="#00218A"/>
<path d="M304.029 -0.000488281L308.029 0.0034255L308.033 -4.01338L304.016 -4.00047L304.029 -0.000488281ZM303.861 172.542L303.996 176.54L307.857 176.409L307.861 172.546L303.861 172.542ZM168.288 275.647L167.014 279.439L170.882 280.738L172.104 276.846L168.288 275.647ZM166.1 274.912L167.374 271.121L167.347 271.111L167.319 271.103L166.1 274.912ZM0.1875 221.821L-3.61415 220.577L-4.86626 224.404L-1.03159 225.631L0.1875 221.821ZM304.016 -4.00047C235.969 -3.78167 168.441 19.6748 113.497 59.6413L118.203 66.1108C171.873 27.0705 237.781 4.21255 304.042 3.99949L304.016 -4.00047ZM307.861 172.546L308.029 0.0034255L300.029 -0.00440206L299.861 172.538L307.861 172.546ZM172.104 276.846C189.904 220.158 241.958 178.642 303.996 176.54L303.725 168.544C238.208 170.764 183.262 214.605 164.472 274.449L172.104 276.846ZM164.827 278.704L167.014 279.439L169.562 271.856L167.374 271.121L164.827 278.704ZM-1.03159 225.631L164.881 278.722L167.319 271.103L1.40659 218.011L-1.03159 225.631ZM113.497 59.6413C58.5107 99.6395 17.5317 155.953 -3.61415 220.577L3.98915 223.065C24.6119 160.04 64.5771 105.119 118.203 66.1108L113.497 59.6413Z" fill="white" mask="url(#path-1-inside-1)"/>
<path d="M106.826 138.3C104.786 138.3 102.996 137.85 101.456 136.95C99.936 136.05 98.756 134.79 97.916 133.17C97.076 131.53 96.656 129.61 96.656 127.41C96.656 125.19 97.076 123.27 97.916 121.65C98.756 120.03 99.936 118.78 101.456 117.9C102.976 117 104.766 116.55 106.826 116.55C108.886 116.55 110.676 117 112.196 117.9C113.716 118.78 114.896 120.03 115.736 121.65C116.576 123.27 116.996 125.18 116.996 127.38C116.996 129.6 116.576 131.53 115.736 133.17C114.896 134.79 113.716 136.05 112.196 136.95C110.676 137.85 108.886 138.3 106.826 138.3ZM106.826 135C108.766 135 110.276 134.33 111.356 132.99C112.436 131.65 112.976 129.79 112.976 127.41C112.976 125.01 112.436 123.15 111.356 121.83C110.296 120.51 108.786 119.85 106.826 119.85C104.886 119.85 103.376 120.51 102.296 121.83C101.216 123.15 100.676 125.01 100.676 127.41C100.676 129.79 101.216 131.65 102.296 132.99C103.376 134.33 104.886 135 106.826 135ZM122.401 143.64C121.161 143.64 120.541 143.01 120.541 141.75V124.98C120.541 123.72 121.151 123.09 122.371 123.09C123.611 123.09 124.231 123.72 124.231 124.98V125.61C124.651 124.83 125.281 124.21 126.121 123.75C126.961 123.27 127.921 123.03 129.001 123.03C130.281 123.03 131.401 123.34 132.361 123.96C133.341 124.58 134.101 125.46 134.641 126.6C135.181 127.72 135.451 129.07 135.451 130.65C135.451 132.21 135.181 133.57 134.641 134.73C134.101 135.87 133.351 136.75 132.391 137.37C131.431 137.99 130.301 138.3 129.001 138.3C127.961 138.3 127.021 138.08 126.181 137.64C125.361 137.18 124.731 136.57 124.291 135.81V141.75C124.291 143.01 123.661 143.64 122.401 143.64ZM127.951 135.45C129.071 135.45 129.971 135.05 130.651 134.25C131.331 133.43 131.671 132.23 131.671 130.65C131.671 129.05 131.331 127.86 130.651 127.08C129.971 126.28 129.071 125.88 127.951 125.88C126.831 125.88 125.931 126.28 125.251 127.08C124.571 127.86 124.231 129.05 124.231 130.65C124.231 132.23 124.571 133.43 125.251 134.25C125.931 135.05 126.831 135.45 127.951 135.45ZM145.759 138.3C144.099 138.3 142.669 137.99 141.469 137.37C140.269 136.75 139.339 135.87 138.679 134.73C138.039 133.59 137.719 132.24 137.719 130.68C137.719 129.16 138.029 127.83 138.649 126.69C139.289 125.55 140.159 124.66 141.259 124.02C142.379 123.36 143.649 123.03 145.069 123.03C147.149 123.03 148.789 123.69 149.989 125.01C151.209 126.33 151.819 128.13 151.819 130.41C151.819 131.15 151.339 131.52 150.379 131.52H141.319C141.599 134.14 143.099 135.45 145.819 135.45C146.339 135.45 146.919 135.39 147.559 135.27C148.219 135.13 148.839 134.9 149.419 134.58C149.939 134.28 150.379 134.19 150.739 134.31C151.099 134.41 151.349 134.62 151.489 134.94C151.649 135.26 151.669 135.62 151.549 136.02C151.449 136.4 151.169 136.73 150.709 137.01C150.009 137.45 149.199 137.78 148.279 138C147.379 138.2 146.539 138.3 145.759 138.3ZM145.219 125.58C144.119 125.58 143.229 125.92 142.549 126.6C141.869 127.28 141.459 128.2 141.319 129.36H148.699C148.619 128.14 148.279 127.21 147.679 126.57C147.099 125.91 146.279 125.58 145.219 125.58ZM156.709 138.24C155.429 138.24 154.789 137.6 154.789 136.32V124.98C154.789 123.72 155.399 123.09 156.619 123.09C157.839 123.09 158.449 123.72 158.449 124.98V125.91C159.169 124.19 160.709 123.23 163.069 123.03C163.929 122.93 164.409 123.42 164.509 124.5C164.609 125.56 164.089 126.15 162.949 126.27L162.289 126.33C159.829 126.57 158.599 127.83 158.599 130.11V136.32C158.599 137.6 157.969 138.24 156.709 138.24ZM171.22 138.3C170.16 138.3 169.21 138.1 168.37 137.7C167.55 137.28 166.9 136.72 166.42 136.02C165.96 135.32 165.73 134.53 165.73 133.65C165.73 132.57 166.01 131.72 166.57 131.1C167.13 130.46 168.04 130 169.3 129.72C170.56 129.44 172.25 129.3 174.37 129.3H175.42V128.67C175.42 127.67 175.2 126.95 174.76 126.51C174.32 126.07 173.58 125.85 172.54 125.85C171.96 125.85 171.33 125.92 170.65 126.06C169.99 126.2 169.29 126.44 168.55 126.78C168.07 127 167.67 127.03 167.35 126.87C167.03 126.69 166.81 126.42 166.69 126.06C166.59 125.68 166.61 125.3 166.75 124.92C166.91 124.54 167.22 124.26 167.68 124.08C168.6 123.7 169.48 123.43 170.32 123.27C171.18 123.11 171.96 123.03 172.66 123.03C174.8 123.03 176.39 123.53 177.43 124.53C178.47 125.51 178.99 127.04 178.99 129.12V136.32C178.99 137.6 178.41 138.24 177.25 138.24C176.07 138.24 175.48 137.6 175.48 136.32V135.66C175.14 136.48 174.6 137.13 173.86 137.61C173.12 138.07 172.24 138.3 171.22 138.3ZM172 135.72C172.98 135.72 173.79 135.38 174.43 134.7C175.09 134.02 175.42 133.16 175.42 132.12V131.46H174.4C172.52 131.46 171.21 131.61 170.47 131.91C169.75 132.19 169.39 132.71 169.39 133.47C169.39 134.13 169.62 134.67 170.08 135.09C170.54 135.51 171.18 135.72 172 135.72ZM189.517 138.3C185.637 138.3 183.697 136.38 183.697 132.54V126.15H182.137C181.137 126.15 180.637 125.68 180.637 124.74C180.637 123.8 181.137 123.33 182.137 123.33H183.697V120.6C183.697 119.34 184.327 118.71 185.587 118.71C186.827 118.71 187.447 119.34 187.447 120.6V123.33H190.627C191.627 123.33 192.127 123.8 192.127 124.74C192.127 125.68 191.627 126.15 190.627 126.15H187.447V132.33C187.447 133.29 187.657 134.01 188.077 134.49C188.497 134.97 189.177 135.21 190.117 135.21C190.457 135.21 190.757 135.18 191.017 135.12C191.277 135.06 191.507 135.02 191.707 135C191.947 134.98 192.147 135.06 192.307 135.24C192.467 135.4 192.547 135.74 192.547 136.26C192.547 136.66 192.477 137.02 192.337 137.34C192.217 137.64 191.987 137.85 191.647 137.97C191.387 138.05 191.047 138.12 190.627 138.18C190.207 138.26 189.837 138.3 189.517 138.3ZM196.551 120.33C195.851 120.33 195.301 120.16 194.901 119.82C194.521 119.46 194.331 118.97 194.331 118.35C194.331 117.71 194.521 117.22 194.901 116.88C195.301 116.54 195.851 116.37 196.551 116.37C198.031 116.37 198.771 117.03 198.771 118.35C198.771 119.67 198.031 120.33 196.551 120.33ZM196.551 138.21C195.951 138.21 195.491 138.03 195.171 137.67C194.851 137.31 194.691 136.81 194.691 136.17V125.16C194.691 123.8 195.311 123.12 196.551 123.12C197.811 123.12 198.441 123.8 198.441 125.16V136.17C198.441 136.81 198.281 137.31 197.961 137.67C197.641 138.03 197.171 138.21 196.551 138.21ZM208.278 138.24C207.278 138.24 206.538 137.71 206.058 136.65L201.288 125.58C201.008 124.92 200.998 124.34 201.258 123.84C201.538 123.34 202.088 123.09 202.908 123.09C203.368 123.09 203.738 123.2 204.018 123.42C204.298 123.62 204.548 124.01 204.768 124.59L208.368 133.59L212.088 124.56C212.308 124 212.558 123.62 212.838 123.42C213.138 123.2 213.538 123.09 214.038 123.09C214.678 123.09 215.128 123.34 215.388 123.84C215.648 124.34 215.638 124.91 215.358 125.55L210.498 136.65C210.058 137.71 209.318 138.24 208.278 138.24ZM225.095 138.3C223.435 138.3 222.005 137.99 220.805 137.37C219.605 136.75 218.675 135.87 218.015 134.73C217.375 133.59 217.055 132.24 217.055 130.68C217.055 129.16 217.365 127.83 217.985 126.69C218.625 125.55 219.495 124.66 220.595 124.02C221.715 123.36 222.985 123.03 224.405 123.03C226.485 123.03 228.125 123.69 229.325 125.01C230.545 126.33 231.155 128.13 231.155 130.41C231.155 131.15 230.675 131.52 229.715 131.52H220.655C220.935 134.14 222.435 135.45 225.155 135.45C225.675 135.45 226.255 135.39 226.895 135.27C227.555 135.13 228.175 134.9 228.755 134.58C229.275 134.28 229.715 134.19 230.075 134.31C230.435 134.41 230.685 134.62 230.825 134.94C230.985 135.26 231.005 135.62 230.885 136.02C230.785 136.4 230.505 136.73 230.045 137.01C229.345 137.45 228.535 137.78 227.615 138C226.715 138.2 225.875 138.3 225.095 138.3ZM224.555 125.58C223.455 125.58 222.565 125.92 221.885 126.6C221.205 127.28 220.795 128.2 220.655 129.36H228.035C227.955 128.14 227.615 127.21 227.015 126.57C226.435 125.91 225.615 125.58 224.555 125.58ZM133.285 179.24C132.265 179.24 131.535 178.74 131.095 177.74L123.265 160.16C122.945 159.4 122.955 158.79 123.295 158.33C123.655 157.85 124.175 157.61 124.855 157.61C125.435 157.61 125.865 157.74 126.145 158C126.445 158.24 126.695 158.61 126.895 159.11L133.345 174.08L139.795 159.08C140.015 158.6 140.275 158.24 140.575 158C140.875 157.74 141.295 157.61 141.835 157.61C142.475 157.61 142.955 157.85 143.275 158.33C143.615 158.81 143.615 159.42 143.275 160.16L135.445 177.74C135.225 178.24 134.945 178.62 134.605 178.88C134.285 179.12 133.845 179.24 133.285 179.24ZM149.266 161.33C148.566 161.33 148.016 161.16 147.616 160.82C147.236 160.46 147.046 159.97 147.046 159.35C147.046 158.71 147.236 158.22 147.616 157.88C148.016 157.54 148.566 157.37 149.266 157.37C150.746 157.37 151.486 158.03 151.486 159.35C151.486 160.67 150.746 161.33 149.266 161.33ZM149.266 179.21C148.666 179.21 148.206 179.03 147.886 178.67C147.566 178.31 147.406 177.81 147.406 177.17V166.16C147.406 164.8 148.026 164.12 149.266 164.12C150.526 164.12 151.156 164.8 151.156 166.16V177.17C151.156 177.81 150.996 178.31 150.676 178.67C150.356 179.03 149.886 179.21 149.266 179.21ZM160.692 179.3C159.412 179.3 158.282 178.99 157.302 178.37C156.342 177.75 155.592 176.87 155.052 175.73C154.512 174.57 154.242 173.21 154.242 171.65C154.242 170.07 154.512 168.72 155.052 167.6C155.592 166.46 156.342 165.58 157.302 164.96C158.282 164.34 159.412 164.03 160.692 164.03C161.732 164.03 162.672 164.26 163.512 164.72C164.352 165.18 164.982 165.79 165.402 166.55V159.5C165.402 158.24 166.022 157.61 167.262 157.61C168.522 157.61 169.152 158.24 169.152 159.5V177.32C169.152 178.6 168.532 179.24 167.292 179.24C166.052 179.24 165.432 178.6 165.432 177.32V176.69C165.012 177.49 164.382 178.13 163.542 178.61C162.702 179.07 161.752 179.3 160.692 179.3ZM161.742 176.45C162.862 176.45 163.762 176.05 164.442 175.25C165.122 174.43 165.462 173.23 165.462 171.65C165.462 170.05 165.122 168.86 164.442 168.08C163.762 167.28 162.862 166.88 161.742 166.88C160.622 166.88 159.722 167.28 159.042 168.08C158.362 168.86 158.022 170.05 158.022 171.65C158.022 173.23 158.362 174.43 159.042 175.25C159.722 176.05 160.622 176.45 161.742 176.45ZM180.271 179.3C178.611 179.3 177.181 178.99 175.981 178.37C174.781 177.75 173.851 176.87 173.191 175.73C172.551 174.59 172.231 173.24 172.231 171.68C172.231 170.16 172.541 168.83 173.161 167.69C173.801 166.55 174.671 165.66 175.771 165.02C176.891 164.36 178.161 164.03 179.581 164.03C181.661 164.03 183.301 164.69 184.501 166.01C185.721 167.33 186.331 169.13 186.331 171.41C186.331 172.15 185.851 172.52 184.891 172.52H175.831C176.111 175.14 177.611 176.45 180.331 176.45C180.851 176.45 181.431 176.39 182.071 176.27C182.731 176.13 183.351 175.9 183.931 175.58C184.451 175.28 184.891 175.19 185.251 175.31C185.611 175.41 185.861 175.62 186.001 175.94C186.161 176.26 186.181 176.62 186.061 177.02C185.961 177.4 185.681 177.73 185.221 178.01C184.521 178.45 183.711 178.78 182.791 179C181.891 179.2 181.051 179.3 180.271 179.3ZM179.731 166.58C178.631 166.58 177.741 166.92 177.061 167.6C176.381 168.28 175.971 169.2 175.831 170.36H183.211C183.131 169.14 182.791 168.21 182.191 167.57C181.611 166.91 180.791 166.58 179.731 166.58ZM195.99 179.3C194.47 179.3 193.15 178.99 192.03 178.37C190.91 177.75 190.04 176.87 189.42 175.73C188.8 174.57 188.49 173.21 188.49 171.65C188.49 170.09 188.8 168.74 189.42 167.6C190.04 166.46 190.91 165.58 192.03 164.96C193.15 164.34 194.47 164.03 195.99 164.03C197.51 164.03 198.83 164.34 199.95 164.96C201.07 165.58 201.94 166.46 202.56 167.6C203.18 168.74 203.49 170.09 203.49 171.65C203.49 173.21 203.18 174.57 202.56 175.73C201.94 176.87 201.07 177.75 199.95 178.37C198.83 178.99 197.51 179.3 195.99 179.3ZM195.99 176.45C197.11 176.45 198.01 176.05 198.69 175.25C199.37 174.43 199.71 173.23 199.71 171.65C199.71 170.05 199.37 168.86 198.69 168.08C198.01 167.28 197.11 166.88 195.99 166.88C194.87 166.88 193.97 167.28 193.29 168.08C192.61 168.86 192.27 170.05 192.27 171.65C192.27 173.23 192.61 174.43 193.29 175.25C193.97 176.05 194.87 176.45 195.99 176.45Z" fill="white"/>
</svg>
