<svg width="314" height="440" viewBox="0 0 314 440" fill="none" xmlns="http://www.w3.org/2000/svg">
<mask id="path-1-inside-1" fill="white">
<path fill-rule="evenodd" clip-rule="evenodd" d="M275.994 287.695C254.479 268.691 237.943 243.421 229.494 213.643C219.279 177.641 222.584 141.038 236.368 109.361L68.5307 39.3051C41.9495 105.097 36.9408 177.88 54.2361 247.026C71.5313 316.171 110.225 378.058 164.666 423.649L275.994 287.695Z"/>
</mask>
<path fill-rule="evenodd" clip-rule="evenodd" d="M275.994 287.695C254.479 268.691 237.943 243.421 229.494 213.643C219.279 177.641 222.584 141.038 236.368 109.361L68.5307 39.3051C41.9495 105.097 36.9408 177.88 54.2361 247.026C71.5313 316.171 110.225 378.058 164.666 423.649L275.994 287.695Z" fill="#00218A"/>
<path d="M275.994 287.695L279.089 290.229L281.53 287.248L278.642 284.697L275.994 287.695ZM236.368 109.361L240.036 110.957L241.656 107.234L237.909 105.67L236.368 109.361ZM68.5307 39.3051L70.0714 35.6137L66.3376 34.0552L64.8219 37.8067L68.5307 39.3051ZM54.2361 247.026L50.3556 247.996L54.2361 247.026ZM164.666 423.649L162.098 426.715L165.198 429.312L167.76 426.183L164.666 423.649ZM278.642 284.697C257.686 266.187 241.577 241.573 233.342 212.552L225.646 214.735C234.31 245.269 251.271 271.195 273.346 290.693L278.642 284.697ZM233.342 212.552C223.388 177.467 226.609 141.813 240.036 110.957L232.7 107.765C218.559 140.263 215.171 177.815 225.646 214.735L233.342 212.552ZM237.909 105.67L70.0714 35.6137L66.9899 42.9964L234.827 113.052L237.909 105.67ZM64.8219 37.8067C37.9224 104.387 32.8561 178.034 50.3556 247.996L58.1165 246.055C41.0255 177.726 45.9766 105.808 72.2394 40.8035L64.8219 37.8067ZM50.3556 247.996C67.8551 317.958 107.006 380.58 162.098 426.715L167.234 420.582C113.443 375.536 75.2076 314.384 58.1165 246.055L50.3556 247.996ZM167.76 426.183L279.089 290.229L272.899 285.161L161.571 421.114L167.76 426.183Z" fill="white" mask="url(#path-1-inside-1)"/>
<path d="M127.152 199.582C125.873 199.597 125.225 198.945 125.208 197.625L124.996 180.166C124.98 178.866 125.622 178.209 126.922 178.193L134.152 178.105C136.471 178.076 138.268 178.635 139.542 179.779C140.816 180.924 141.466 182.536 141.491 184.616C141.517 186.696 140.907 188.333 139.661 189.529C138.415 190.704 136.632 191.306 134.313 191.334L128.973 191.399L129.048 197.578C129.064 198.898 128.432 199.566 127.152 199.582ZM128.936 188.369L133.676 188.311C136.436 188.278 137.801 187.061 137.772 184.661C137.743 182.281 136.348 181.108 133.588 181.142L128.849 181.2L128.936 188.369ZM146.068 199.351C144.788 199.367 144.141 198.735 144.125 197.455L143.987 186.116C143.972 184.856 144.574 184.218 145.794 184.203C147.014 184.189 147.632 184.811 147.647 186.071L147.658 187.001C148.357 185.272 149.885 184.294 152.243 184.065C153.101 183.954 153.587 184.439 153.701 185.517C153.813 186.576 153.301 187.172 152.162 187.306L151.503 187.374C149.046 187.644 147.832 188.919 147.859 191.199L147.935 197.408C147.95 198.688 147.328 199.336 146.068 199.351ZM162.892 199.206C161.232 199.227 159.798 198.934 158.591 198.329C157.383 197.723 156.442 196.855 155.769 195.723C155.115 194.591 154.778 193.245 154.759 191.685C154.741 190.165 155.035 188.831 155.641 187.684C156.267 186.536 157.126 185.636 158.218 184.982C159.33 184.309 160.596 183.963 162.016 183.946C164.096 183.921 165.743 184.561 166.959 185.866C168.195 187.171 168.827 188.963 168.855 191.243C168.864 191.983 168.389 192.359 167.429 192.371L158.369 192.481C158.681 195.097 160.197 196.389 162.917 196.356C163.437 196.35 164.016 196.282 164.655 196.155C165.313 196.007 165.93 195.769 166.506 195.442C167.022 195.136 167.461 195.04 167.823 195.156C168.184 195.252 168.436 195.459 168.58 195.777C168.744 196.095 168.768 196.455 168.653 196.856C168.558 197.237 168.282 197.571 167.825 197.856C167.131 198.305 166.325 198.645 165.408 198.876C164.51 199.087 163.672 199.197 162.892 199.206ZM162.197 186.494C161.097 186.507 160.211 186.858 159.539 187.546C158.868 188.235 158.469 189.16 158.343 190.321L165.723 190.231C165.628 189.012 165.276 188.087 164.669 187.454C164.081 186.801 163.257 186.481 162.197 186.494ZM90.1712 241.095C88.1313 241.12 86.336 240.691 84.7851 239.81C83.2543 238.929 82.059 237.683 81.1994 236.074C80.3395 234.444 79.8961 232.529 79.8693 230.329C79.8423 228.11 80.2389 226.185 81.0591 224.555C81.8793 222.924 83.044 221.66 84.5532 220.762C86.0621 219.843 87.8465 219.372 89.9064 219.346C91.9662 219.321 93.7616 219.75 95.2924 220.631C96.823 221.492 98.0182 222.728 98.8778 224.338C99.7375 225.947 100.181 227.852 100.207 230.052C100.235 232.272 99.838 234.207 99.0181 235.857C98.1978 237.487 97.0333 238.761 95.5243 239.68C94.0154 240.598 92.231 241.07 90.1712 241.095ZM90.131 237.795C92.0709 237.771 93.5726 237.083 94.6362 235.73C95.6998 234.377 96.2171 232.511 96.1881 230.131C96.1589 227.731 95.5963 225.878 94.5003 224.571C93.4243 223.264 91.9064 222.622 89.9466 222.646C88.0067 222.67 86.5048 223.348 85.441 224.681C84.3771 226.014 83.8598 227.881 83.8891 230.281C83.918 232.66 84.4806 234.514 85.5769 235.84C86.6731 237.167 88.1911 237.819 90.131 237.795ZM105.81 246.245C104.57 246.26 103.942 245.638 103.927 244.378L103.723 227.609C103.707 226.349 104.31 225.712 105.53 225.697C106.769 225.682 107.397 226.304 107.412 227.564L107.42 228.194C107.831 227.409 108.453 226.781 109.287 226.311C110.121 225.821 111.078 225.569 112.158 225.556C113.438 225.54 114.562 225.837 115.529 226.445C116.517 227.053 117.288 227.924 117.841 229.057C118.395 230.17 118.681 231.517 118.701 233.097C118.72 234.657 118.466 236.02 117.94 237.186C117.414 238.333 116.675 239.222 115.723 239.854C114.77 240.485 113.644 240.809 112.344 240.825C111.304 240.838 110.362 240.629 109.516 240.199C108.691 239.749 108.053 239.147 107.604 238.392L107.677 244.332C107.692 245.592 107.07 246.229 105.81 246.245ZM111.26 237.988C112.38 237.974 113.275 237.563 113.945 236.755C114.615 235.927 114.94 234.723 114.921 233.143C114.901 231.543 114.547 230.357 113.858 229.586C113.168 228.794 112.263 228.405 111.143 228.419C110.023 228.432 109.128 228.843 108.458 229.651C107.787 230.44 107.462 231.634 107.481 233.234C107.501 234.813 107.855 236.009 108.545 236.821C109.235 237.612 110.14 238.002 111.26 237.988ZM129.101 240.621C127.441 240.641 126.008 240.348 124.8 239.743C123.593 239.138 122.652 238.269 121.978 237.137C121.324 236.005 120.988 234.659 120.969 233.099C120.951 231.579 121.244 230.246 121.85 229.098C122.477 227.951 123.336 227.05 124.428 226.397C125.54 225.723 126.806 225.378 128.225 225.36C130.305 225.335 131.953 225.975 133.169 227.28C134.405 228.585 135.037 230.378 135.065 232.658C135.074 233.398 134.598 233.773 133.638 233.785L124.579 233.895C124.891 236.512 126.407 237.803 129.127 237.77C129.647 237.764 130.226 237.697 130.864 237.569C131.522 237.421 132.14 237.184 132.716 236.857C133.232 236.55 133.671 236.455 134.032 236.571C134.394 236.666 134.646 236.873 134.79 237.191C134.954 237.509 134.978 237.869 134.863 238.271C134.768 238.652 134.492 238.985 134.035 239.271C133.341 239.719 132.535 240.059 131.617 240.29C130.72 240.501 129.881 240.611 129.101 240.621ZM128.406 227.908C127.307 227.922 126.421 228.273 125.749 228.961C125.077 229.649 124.679 230.574 124.553 231.736L131.932 231.646C131.837 230.427 131.486 229.501 130.878 228.868C130.29 228.215 129.466 227.895 128.406 227.908ZM140.049 240.428C138.77 240.443 138.122 239.811 138.106 238.531L137.968 227.192C137.953 225.932 138.555 225.295 139.775 225.28C140.995 225.265 141.613 225.887 141.628 227.147L141.639 228.077C142.338 226.349 143.866 225.37 146.224 225.141C147.083 225.031 147.568 225.515 147.682 226.594C147.795 227.652 147.282 228.249 146.143 228.382L145.484 228.45C143.027 228.72 141.813 229.995 141.84 232.275L141.916 238.485C141.932 239.765 141.309 240.412 140.049 240.428ZM154.561 240.311C153.501 240.324 152.548 240.135 151.704 239.746C150.879 239.336 150.222 238.784 149.733 238.089C149.265 237.395 149.025 236.608 149.014 235.728C149.001 234.648 149.271 233.795 149.823 233.168C150.376 232.521 151.28 232.05 152.536 231.755C153.793 231.46 155.481 231.299 157.601 231.273L158.651 231.26L158.643 230.63C158.631 229.631 158.402 228.913 157.957 228.479C157.512 228.044 156.769 227.833 155.729 227.846C155.149 227.853 154.52 227.93 153.842 228.079C153.183 228.227 152.486 228.475 151.751 228.824C151.273 229.05 150.874 229.085 150.552 228.929C150.23 228.753 150.006 228.485 149.882 228.127C149.777 227.748 149.793 227.368 149.928 226.986C150.083 226.604 150.39 226.321 150.848 226.135C151.763 225.744 152.64 225.463 153.478 225.293C154.336 225.122 155.115 225.033 155.815 225.024C157.955 224.998 159.551 225.479 160.603 226.466C161.654 227.434 162.193 228.957 162.218 231.037L162.306 238.236C162.322 239.516 161.749 240.163 160.59 240.177C159.41 240.192 158.812 239.559 158.796 238.279L158.788 237.619C158.458 238.443 157.926 239.1 157.192 239.589C156.458 240.058 155.581 240.298 154.561 240.311ZM155.309 237.722C156.289 237.71 157.095 237.36 157.727 236.672C158.378 235.984 158.698 235.12 158.685 234.08L158.677 233.42L157.657 233.433C155.777 233.456 154.469 233.621 153.733 233.93C153.016 234.219 152.663 234.744 152.672 235.504C152.68 236.163 152.917 236.701 153.382 237.115C153.847 237.529 154.489 237.732 155.309 237.722ZM172.856 240.088C168.976 240.135 167.013 238.239 166.966 234.399L166.888 228.01L165.328 228.029C164.328 228.041 163.823 227.577 163.811 226.637C163.8 225.697 164.294 225.221 165.294 225.209L166.854 225.19L166.821 222.46C166.805 221.2 167.427 220.563 168.687 220.547C169.927 220.532 170.555 221.155 170.57 222.415L170.603 225.144L173.783 225.106C174.783 225.094 175.289 225.557 175.3 226.497C175.312 227.437 174.818 227.913 173.818 227.926L170.638 227.964L170.713 234.144C170.725 235.104 170.944 235.821 171.369 236.296C171.795 236.771 172.478 237.002 173.418 236.991C173.758 236.987 174.058 236.953 174.317 236.89C174.576 236.827 174.806 236.784 175.005 236.762C175.245 236.739 175.446 236.816 175.608 236.994C175.77 237.152 175.854 237.491 175.861 238.011C175.865 238.411 175.8 238.772 175.664 239.094C175.547 239.395 175.32 239.608 174.981 239.732C174.722 239.815 174.383 239.89 173.964 239.955C173.545 240.04 173.176 240.084 172.856 240.088ZM179.671 222.034C178.971 222.042 178.419 221.879 178.015 221.544C177.63 221.189 177.434 220.701 177.427 220.081C177.419 219.441 177.603 218.949 177.979 218.604C178.375 218.259 178.923 218.083 179.623 218.074C181.103 218.056 181.85 218.707 181.867 220.027C181.883 221.347 181.151 222.016 179.671 222.034ZM179.889 239.912C179.289 239.92 178.826 239.745 178.502 239.389C178.178 239.033 178.012 238.535 178.004 237.895L177.87 226.886C177.853 225.526 178.465 224.839 179.705 224.824C180.965 224.808 181.603 225.481 181.619 226.84L181.754 237.85C181.761 238.49 181.607 238.991 181.292 239.355C180.976 239.719 180.508 239.905 179.889 239.912ZM191.614 239.8C190.615 239.812 189.868 239.291 189.375 238.237L184.471 227.226C184.183 226.569 184.166 225.989 184.42 225.486C184.694 224.983 185.241 224.726 186.06 224.716C186.52 224.711 186.892 224.816 187.174 225.033C187.457 225.229 187.712 225.616 187.939 226.193L191.648 235.149L195.258 226.074C195.471 225.512 195.716 225.129 195.994 224.925C196.291 224.702 196.69 224.587 197.19 224.581C197.83 224.573 198.283 224.817 198.549 225.314C198.815 225.811 198.812 226.381 198.539 227.024L193.815 238.183C193.388 239.248 192.654 239.787 191.614 239.8ZM208.431 239.655C206.771 239.675 205.338 239.383 204.13 238.777C202.923 238.172 201.982 237.303 201.308 236.171C200.655 235.039 200.318 233.693 200.299 232.133C200.281 230.614 200.574 229.28 201.181 228.132C201.807 226.985 202.666 226.084 203.758 225.431C204.87 224.757 206.136 224.412 207.555 224.395C209.635 224.369 211.283 225.009 212.499 226.314C213.735 227.62 214.367 229.412 214.395 231.692C214.404 232.432 213.928 232.808 212.968 232.819L203.909 232.93C204.221 235.546 205.737 236.838 208.457 236.804C208.977 236.798 209.556 236.731 210.194 236.603C210.853 236.455 211.47 236.218 212.046 235.891C212.562 235.584 213.001 235.489 213.362 235.605C213.724 235.7 213.976 235.907 214.12 236.225C214.284 236.543 214.308 236.903 214.193 237.305C214.098 237.686 213.822 238.019 213.365 238.305C212.671 238.753 211.865 239.093 210.947 239.324C210.05 239.535 209.211 239.645 208.431 239.655ZM207.737 226.942C206.637 226.956 205.751 227.307 205.079 227.995C204.407 228.683 204.009 229.608 203.883 230.77L211.262 230.68C211.167 229.461 210.816 228.535 210.208 227.902C209.62 227.25 208.796 226.93 207.737 226.942ZM118.205 281.457C116.845 281.473 116.157 280.801 116.14 279.442L115.933 262.373C115.916 261.013 116.588 260.325 117.948 260.308L123.767 260.237C127.307 260.194 130.048 261.071 131.99 262.867C133.952 264.664 134.954 267.262 134.995 270.661C135.036 274.041 134.098 276.663 132.18 278.526C130.283 280.389 127.564 281.343 124.025 281.386L118.205 281.457ZM119.966 278.255L123.746 278.209C128.626 278.149 131.035 275.65 130.975 270.71C130.915 265.791 128.446 263.361 123.566 263.42L119.786 263.466L119.966 278.255ZM143.488 281.449C142.429 281.462 141.476 281.273 140.631 280.883C139.806 280.473 139.15 279.921 138.661 279.227C138.193 278.533 137.953 277.746 137.942 276.866C137.929 275.786 138.199 274.933 138.751 274.306C139.303 273.659 140.208 273.188 141.464 272.893C142.721 272.597 144.409 272.437 146.529 272.411L147.579 272.398L147.571 271.768C147.559 270.768 147.33 270.051 146.885 269.616C146.439 269.182 145.697 268.971 144.657 268.984C144.077 268.991 143.448 269.068 142.769 269.217C142.111 269.365 141.414 269.613 140.678 269.962C140.201 270.188 139.802 270.223 139.48 270.067C139.157 269.891 138.934 269.623 138.81 269.265C138.705 268.886 138.721 268.506 138.856 268.124C139.011 267.742 139.318 267.458 139.776 267.273C140.691 266.882 141.568 266.601 142.406 266.431C143.264 266.26 144.042 266.171 144.742 266.162C146.882 266.136 148.478 266.617 149.53 267.604C150.582 268.571 151.121 270.095 151.146 272.175L151.234 279.374C151.249 280.654 150.677 281.301 149.517 281.315C148.337 281.33 147.74 280.697 147.724 279.417L147.716 278.757C147.386 279.581 146.854 280.238 146.12 280.727C145.386 281.196 144.508 281.436 143.488 281.449ZM144.237 278.859C145.217 278.847 146.023 278.498 146.654 277.81C147.306 277.122 147.626 276.258 147.613 275.218L147.605 274.558L146.585 274.571C144.705 274.593 143.397 274.759 142.661 275.068C141.944 275.357 141.591 275.881 141.6 276.641C141.608 277.301 141.844 277.838 142.309 278.253C142.775 278.667 143.417 278.869 144.237 278.859ZM161.783 281.226C157.904 281.273 155.94 279.377 155.894 275.537L155.816 269.148L154.256 269.167C153.256 269.179 152.75 268.715 152.739 267.775C152.727 266.835 153.222 266.359 154.222 266.347L155.782 266.328L155.748 263.598C155.733 262.338 156.355 261.701 157.615 261.685C158.855 261.67 159.483 262.293 159.498 263.552L159.531 266.282L162.711 266.244C163.711 266.231 164.217 266.695 164.228 267.635C164.24 268.575 163.745 269.051 162.745 269.063L159.566 269.102L159.641 275.282C159.652 276.242 159.871 276.959 160.297 277.434C160.723 277.909 161.406 278.14 162.346 278.129C162.686 278.125 162.985 278.091 163.245 278.028C163.504 277.965 163.733 277.922 163.933 277.9C164.173 277.877 164.374 277.954 164.536 278.132C164.698 278.29 164.782 278.629 164.788 279.149C164.793 279.549 164.728 279.91 164.591 280.232C164.475 280.533 164.248 280.746 163.909 280.87C163.65 280.953 163.311 281.027 162.892 281.092C162.473 281.178 162.103 281.222 161.783 281.226ZM171.406 281.109C170.346 281.122 169.394 280.933 168.549 280.544C167.724 280.134 167.067 279.582 166.579 278.887C166.11 278.193 165.871 277.406 165.86 276.526C165.847 275.446 166.117 274.593 166.669 273.966C167.221 273.319 168.125 272.848 169.382 272.553C170.638 272.258 172.327 272.097 174.446 272.071L175.496 272.058L175.489 271.428C175.477 270.428 175.248 269.711 174.802 269.277C174.357 268.842 173.615 268.631 172.575 268.644C171.995 268.651 171.366 268.728 170.687 268.877C170.029 269.025 169.332 269.273 168.596 269.622C168.119 269.848 167.719 269.883 167.397 269.727C167.075 269.551 166.852 269.283 166.728 268.925C166.623 268.546 166.638 268.166 166.774 267.784C166.929 267.402 167.236 267.119 167.693 266.933C168.609 266.542 169.485 266.261 170.323 266.091C171.181 265.92 171.96 265.831 172.66 265.822C174.8 265.796 176.396 266.277 177.448 267.264C178.5 268.231 179.039 269.755 179.064 271.835L179.152 279.034C179.167 280.314 178.595 280.961 177.435 280.975C176.255 280.99 175.657 280.357 175.642 279.077L175.634 278.417C175.304 279.241 174.772 279.898 174.038 280.387C173.303 280.856 172.426 281.096 171.406 281.109ZM172.155 278.52C173.135 278.508 173.941 278.158 174.572 277.47C175.224 276.782 175.543 275.918 175.531 274.878L175.523 274.218L174.503 274.231C172.623 274.253 171.315 274.419 170.579 274.728C169.862 275.017 169.508 275.542 169.518 276.301C169.526 276.961 169.762 277.499 170.227 277.913C170.692 278.327 171.335 278.529 172.155 278.52Z" fill="white"/>
</svg>
