<svg width="403" height="805" viewBox="0 0 403 805" fill="none" xmlns="http://www.w3.org/2000/svg">
<mask id="path-1-inside-1" fill="white">
<path fill-rule="evenodd" clip-rule="evenodd" d="M402.5 0C295.75 0 193.373 42.4061 117.89 117.89C42.4061 193.373 8.05938e-06 295.75 0 402.5C-8.05937e-06 509.25 42.4061 611.627 117.889 687.11C193.373 762.594 295.75 805 402.5 805L402.5 701.987C399.765 701.975 397.028 701.926 394.289 701.84C329.742 699.814 267.54 677.448 216.768 638.008L216.954 637.773C169.217 600.183 133.931 549.025 115.765 490.99C97.2937 431.981 97.4155 368.721 116.112 309.786L116 309.75C135.728 249.399 173.96 196.809 225.261 159.456C276.313 122.284 338.976 100.419 402.102 100.007V100L402.5 100.001V0ZM268.537 400.52C268.537 386.612 270.578 373.179 274.377 360.507L274.798 360.649C290.093 311.887 331.438 274.671 382.508 265.341C317.915 277.356 269 334.195 269 402.5C269 412.638 270.078 422.523 272.124 432.046C269.777 421.917 268.537 411.363 268.537 400.52Z"/>
</mask>
<path fill-rule="evenodd" clip-rule="evenodd" d="M402.5 0C295.75 0 193.373 42.4061 117.89 117.89C42.4061 193.373 8.05938e-06 295.75 0 402.5C-8.05937e-06 509.25 42.4061 611.627 117.889 687.11C193.373 762.594 295.75 805 402.5 805L402.5 701.987C399.765 701.975 397.028 701.926 394.289 701.84C329.742 699.814 267.54 677.448 216.768 638.008L216.954 637.773C169.217 600.183 133.931 549.025 115.765 490.99C97.2937 431.981 97.4155 368.721 116.112 309.786L116 309.75C135.728 249.399 173.96 196.809 225.261 159.456C276.313 122.284 338.976 100.419 402.102 100.007V100L402.5 100.001V0ZM268.537 400.52C268.537 386.612 270.578 373.179 274.377 360.507L274.798 360.649C290.093 311.887 331.438 274.671 382.508 265.341C317.915 277.356 269 334.195 269 402.5C269 412.638 270.078 422.523 272.124 432.046C269.777 421.917 268.537 411.363 268.537 400.52Z" fill="#48BFE3"/>
<path d="M117.89 117.89L120.718 120.718L117.89 117.89ZM402.5 0H406.5V-4H402.5V0ZM0 402.5H-4H0ZM117.889 687.11L120.718 684.282L117.889 687.11ZM402.5 805V809H406.5V805H402.5ZM402.5 701.987H406.5V698.005L402.518 697.987L402.5 701.987ZM394.289 701.84L394.163 705.838H394.163L394.289 701.84ZM216.768 638.008L213.637 635.518L211.119 638.685L214.314 641.167L216.768 638.008ZM216.954 637.773L220.085 640.263L222.587 637.117L219.429 634.63L216.954 637.773ZM115.765 490.99L119.582 489.795L115.765 490.99ZM116.112 309.786L119.924 310.996L121.131 307.193L117.332 305.977L116.112 309.786ZM116 309.75L112.198 308.507L110.948 312.332L114.78 313.56L116 309.75ZM225.261 159.456L222.906 156.222L225.261 159.456ZM402.102 100.007L402.128 104.007L406.102 103.981V100.007H402.102ZM402.102 100L402.11 96L398.102 95.9918V100H402.102ZM402.5 100.001L402.492 104.001L406.5 104.009V100.001H402.5ZM274.377 360.507L275.652 356.716L271.732 355.398L270.545 359.359L274.377 360.507ZM274.798 360.649L273.523 364.44L277.393 365.742L278.615 361.846L274.798 360.649ZM382.508 265.341L383.239 269.273L381.789 261.406L382.508 265.341ZM272.124 432.046L268.227 432.949L276.035 431.206L272.124 432.046ZM120.718 120.718C195.451 45.9847 296.811 4 402.5 4V-4C294.69 -4 191.295 38.8276 115.061 115.061L120.718 120.718ZM4 402.5C4.00001 296.811 45.9847 195.451 120.718 120.718L115.061 115.061C38.8276 191.295 -3.99999 294.689 -4 402.5H4ZM120.718 684.282C45.9847 609.549 3.99999 508.189 4 402.5H-4C-4.00001 510.31 38.8275 613.705 115.061 689.939L120.718 684.282ZM402.5 801C296.811 801 195.451 759.015 120.718 684.282L115.061 689.939C191.295 766.172 294.689 809 402.5 809V801ZM398.5 701.987L398.5 805H406.5L406.5 701.987H398.5ZM394.163 705.838C396.938 705.925 399.711 705.975 402.482 705.987L402.518 697.987C399.819 697.975 397.118 697.926 394.414 697.842L394.163 705.838ZM214.314 641.167C265.758 681.129 328.775 703.786 394.163 705.838L394.414 697.842C330.708 695.843 269.323 673.768 219.221 634.849L214.314 641.167ZM213.824 635.283L213.637 635.518L219.898 640.498L220.085 640.263L213.824 635.283ZM111.948 492.185C130.355 550.99 166.109 602.827 214.48 640.916L219.429 634.63C172.325 597.539 137.508 547.06 119.582 489.795L111.948 492.185ZM112.299 308.577C93.3547 368.294 93.2313 432.393 111.948 492.185L119.582 489.795C101.356 431.569 101.476 369.149 119.924 310.996L112.299 308.577ZM114.78 313.56L114.892 313.595L117.332 305.977L117.22 305.941L114.78 313.56ZM222.906 156.222C170.925 194.071 132.187 247.358 112.198 308.507L119.802 310.993C139.269 251.441 176.995 199.547 227.615 162.69L222.906 156.222ZM402.075 96.0075C338.061 96.4254 274.592 118.589 222.906 156.222L227.615 162.69C278.033 125.979 339.891 104.414 402.128 104.007L402.075 96.0075ZM398.102 100V100.007H406.102V100H398.102ZM402.508 96.0008L402.11 96L402.093 104L402.492 104.001L402.508 96.0008ZM398.5 0V100.001H406.5V0H398.5ZM270.545 359.359C266.636 372.399 264.537 386.218 264.537 400.52H272.537C272.537 387.005 274.52 373.959 278.208 361.656L270.545 359.359ZM276.073 356.858L275.652 356.716L273.102 364.299L273.523 364.44L276.073 356.858ZM381.789 261.406C329.24 271.006 286.715 309.291 270.982 359.452L278.615 361.846C293.471 314.484 333.635 278.336 383.226 269.276L381.789 261.406ZM273 402.5C273 336.147 320.517 280.941 383.239 269.273L381.776 261.408C315.314 273.772 265 332.243 265 402.5H273ZM276.035 431.206C274.047 421.957 273 412.353 273 402.5H265C265 412.922 266.108 423.089 268.213 432.887L276.035 431.206ZM264.537 400.52C264.537 411.669 265.812 422.526 268.227 432.949L276.021 431.143C273.742 421.308 272.537 411.057 272.537 400.52H264.537Z" fill="white" mask="url(#path-1-inside-1)"/>
<path d="M68.8606 500.278C68.8658 504.144 67.8697 507.106 65.8725 509.162C63.8485 511.191 60.8632 512.208 56.9165 512.214L42.5566 512.233C40.8232 512.235 39.9554 511.383 39.9531 509.676C39.9509 507.97 40.8164 507.115 42.5497 507.113L56.8697 507.094C59.403 507.09 61.3089 506.514 62.5874 505.366C63.8392 504.191 64.4636 502.497 64.4606 500.284C64.4546 495.777 61.9183 493.527 56.8516 493.534L42.5316 493.553C40.7983 493.555 39.9305 492.703 39.9282 490.996C39.926 489.316 40.7915 488.475 42.5248 488.473L56.8848 488.454C60.8315 488.448 63.8195 489.444 65.8488 491.442C67.8515 493.439 68.8554 496.384 68.8606 500.278ZM68.8239 472.746C68.8263 474.533 68.6286 476.28 68.2309 477.987C67.8331 479.668 67.2351 481.135 66.4367 482.39C66.0376 483.003 65.5447 483.377 64.9582 483.512C64.3718 483.646 63.825 483.606 63.3181 483.394C62.7844 483.154 62.4239 482.795 62.2366 482.315C62.0226 481.809 62.1152 481.235 62.5143 480.595C63.2061 479.421 63.7111 478.18 64.0294 476.873C64.3476 475.566 64.5058 474.192 64.5039 472.752C64.5011 470.646 64.1524 469.113 63.4577 468.154C62.7365 467.195 61.8158 466.716 60.6958 466.717C59.7625 466.719 59.0296 467.066 58.4972 467.76C57.9648 468.428 57.5263 469.588 57.1819 471.242L56.2677 475.643C55.2078 480.658 52.6378 483.168 48.5578 483.173C46.7978 483.176 45.2638 482.711 43.9559 481.78C42.648 480.848 41.6329 479.556 40.9107 477.904C40.1885 476.251 39.826 474.345 39.8231 472.185C39.821 470.585 40.0189 469.065 40.417 467.624C40.8151 466.184 41.4 464.89 42.1718 463.742C42.5445 463.208 43.0107 462.888 43.5705 462.78C44.1037 462.673 44.6105 462.739 45.0908 462.978C45.5445 463.217 45.865 463.604 46.0524 464.137C46.213 464.643 46.0938 465.243 45.6948 465.937C45.1361 466.925 44.7374 467.925 44.4988 468.939C44.2601 469.953 44.1416 471.046 44.1431 472.219C44.1456 474.059 44.5342 475.499 45.3089 476.538C46.0836 477.577 47.0977 478.095 48.351 478.094C49.311 478.092 50.0839 477.771 50.6697 477.131C51.2289 476.49 51.6674 475.396 51.9853 473.849L52.8995 469.488C53.456 466.847 54.3334 464.886 55.5317 463.604C56.7299 462.296 58.329 461.64 60.329 461.638C62.009 461.636 63.4896 462.087 64.7709 462.992C66.0521 463.897 67.0538 465.189 67.776 466.868C68.4716 468.52 68.8209 470.48 68.8239 472.746ZM68.7851 443.672C68.7892 446.792 68.2061 449.433 67.0356 451.594C65.8652 453.729 64.2007 455.358 62.0422 456.481C59.8837 457.604 57.3244 458.167 54.3644 458.171C51.3777 458.175 48.8036 457.605 46.6421 456.462C44.4539 455.318 42.7717 453.667 41.5955 451.508C40.3926 449.35 39.7892 446.764 39.7851 443.751C39.7832 442.257 39.9678 440.764 40.3392 439.27C40.6838 437.75 41.2819 436.322 42.1335 434.988C42.4793 434.401 42.9456 434.067 43.5321 433.986C44.092 433.878 44.6254 433.958 45.1324 434.224C45.6395 434.49 46 434.889 46.214 435.422C46.4014 435.955 46.3089 436.542 45.9364 437.183C45.3511 438.197 44.9258 439.224 44.6605 440.264C44.3952 441.305 44.2634 442.465 44.2651 443.745C44.2691 446.731 45.1388 448.997 46.8742 450.541C48.6096 452.059 51.1039 452.816 54.3573 452.811C57.6373 452.807 60.1295 452.017 61.8341 450.441C63.5387 448.866 64.3889 446.531 64.3848 443.438C64.3836 442.558 64.3157 441.665 64.1812 440.758C64.0199 439.825 63.792 438.905 63.4975 437.999L56.9375 438.008L56.9434 442.408C56.9452 443.795 56.3061 444.489 55.0261 444.49C53.7728 444.492 53.1452 443.8 53.1434 442.413L53.1346 435.813C53.1327 434.426 53.8251 433.732 55.2118 433.73L64.9318 433.717C66.1584 433.716 66.9458 434.195 67.2937 435.154C67.7219 436.327 68.0837 437.673 68.3791 439.193C68.6478 440.712 68.7831 442.205 68.7851 443.672ZM68.6659 414.36C68.6682 416.066 67.7894 416.921 66.0294 416.923L42.7494 416.954C41.0161 416.957 40.1482 416.091 40.1459 414.358L40.133 404.718C40.1289 401.624 40.8724 399.237 42.3635 397.555C43.8279 395.873 45.8935 395.03 48.5601 395.027C50.6668 395.024 52.4142 395.568 53.8023 396.66C55.1638 397.751 56.0859 399.323 56.5686 401.376C56.9935 400.015 58.0186 398.894 59.6441 398.012L65.2001 395.004C66.0528 394.55 66.8394 394.469 67.5598 394.761C68.2801 395.027 68.641 395.706 68.6425 396.8C68.6435 397.52 68.4976 398.107 68.2049 398.56C67.8855 399.014 67.406 399.415 66.7665 399.762L59.3319 403.812C58.4258 404.293 57.8266 404.867 57.5342 405.535C57.215 406.175 57.0561 407.002 57.0575 408.015L57.0625 411.815L66.0225 411.803C67.7825 411.801 68.6637 412.653 68.6659 414.36ZM53.2625 411.82L53.2542 405.58C53.2492 401.847 51.7267 399.982 48.6867 399.986C45.6734 399.99 44.1692 401.859 44.1742 405.592L44.1825 411.832L53.2625 411.82ZM68.7012 380.846C68.7042 383.059 68.2934 384.966 67.4688 386.567C66.6443 388.168 65.4726 389.41 63.9538 390.292C62.435 391.147 60.6355 391.576 58.5555 391.579C56.5289 391.582 54.755 391.171 53.2339 390.346C51.7127 389.495 50.5245 388.336 49.6692 386.871C48.7872 385.379 48.345 383.686 48.3425 381.793C48.3388 379.019 49.2158 376.832 50.9737 375.229C52.7315 373.6 55.1304 372.784 58.1704 372.78C59.1571 372.778 59.6513 373.418 59.653 374.698L59.6691 386.778C63.162 386.4 64.9059 384.397 64.9011 380.771C64.9002 380.077 64.8192 379.304 64.658 378.451C64.4702 377.571 64.1624 376.745 63.7347 375.972C63.3338 375.279 63.213 374.693 63.3724 374.213C63.505 373.732 63.7846 373.399 64.211 373.212C64.6374 372.998 65.1174 372.97 65.6509 373.13C66.1578 373.262 66.5983 373.635 66.9724 374.248C67.5603 375.18 68.0018 376.26 68.2967 377.486C68.565 378.686 68.6998 379.806 68.7012 380.846ZM51.7422 381.588C51.7441 383.055 52.1991 384.241 53.1069 385.146C54.0148 386.052 55.2422 386.597 56.7891 386.781L56.776 376.941C55.1495 377.05 53.9101 377.505 53.0578 378.306C52.1788 379.081 51.7403 380.175 51.7422 381.588ZM75.8018 366.316C75.804 367.97 74.9651 368.797 73.2851 368.8L50.9252 368.83C49.2452 368.832 48.4041 368.02 48.4019 366.393C48.3997 364.74 49.2386 363.912 50.9186 363.91L51.7586 363.908C50.7178 363.35 49.8901 362.511 49.2752 361.392C48.6337 360.273 48.312 358.993 48.3101 357.553C48.3078 355.846 48.7192 354.353 49.5441 353.071C50.369 351.764 51.541 350.749 53.0601 350.027C54.5524 349.305 56.352 348.942 58.4586 348.94C60.5386 348.937 62.3524 349.294 63.9001 350.012C65.421 350.73 66.5957 351.729 67.4241 353.008C68.2524 354.286 68.6678 355.793 68.6701 357.526C68.6719 358.913 68.3803 360.166 67.7951 361.287C67.1832 362.381 66.371 363.222 65.3585 363.81L73.2785 363.8C74.9585 363.797 75.7996 364.636 75.8018 366.316ZM64.872 358.931C64.87 357.438 64.335 356.238 63.2672 355.333C62.1726 354.428 60.572 353.977 58.4653 353.979C56.332 353.982 54.746 354.438 53.7072 355.346C52.6417 356.254 52.11 357.455 52.112 358.948C52.114 360.441 52.6489 361.641 53.7168 362.546C54.758 363.451 56.3453 363.902 58.4786 363.899C60.5852 363.897 62.1846 363.441 63.2768 362.533C64.3422 361.625 64.874 360.424 64.872 358.931ZM68.6412 335.902C68.6439 337.928 68.2329 339.689 67.4083 341.183C66.5836 342.678 65.4118 343.839 63.8929 344.668C62.3474 345.497 60.5346 345.912 58.4546 345.915C56.3746 345.918 54.574 345.507 53.0529 344.682C51.5318 343.858 50.3569 342.699 49.5283 341.207C48.6996 339.715 48.2839 337.955 48.2812 335.929C48.2785 333.902 48.6895 332.141 49.5142 330.647C50.3389 329.153 51.5106 327.991 53.0295 327.162C54.5484 326.334 56.3479 325.918 58.4279 325.915C60.5079 325.912 62.3218 326.323 63.8695 327.148C65.3906 327.973 66.5655 329.131 67.3942 330.623C68.2228 332.115 68.6385 333.875 68.6412 335.902ZM64.8412 335.907C64.8392 334.413 64.3043 333.214 63.2364 332.309C62.1419 331.404 60.5413 330.952 58.4346 330.955C56.3013 330.958 54.7152 331.413 53.6764 332.321C52.611 333.23 52.0792 334.43 52.0812 335.924C52.0832 337.417 52.6182 338.616 53.686 339.521C54.7272 340.427 56.3145 340.878 58.4479 340.875C60.5545 340.872 62.1539 340.417 63.246 339.509C64.3115 338.601 64.8432 337.4 64.8412 335.907ZM68.539 319.215C68.5412 320.921 67.689 321.776 65.9824 321.778L50.8624 321.798C49.1824 321.801 48.3413 320.988 48.3391 319.362C48.337 317.735 49.1759 316.921 50.8559 316.918L52.0959 316.917C49.8013 315.96 48.5185 313.908 48.2476 310.762C48.1128 309.615 48.7653 308.974 50.2051 308.839C51.6182 308.704 52.4058 309.396 52.5679 310.916L52.649 311.796C52.9734 315.076 54.6556 316.713 57.6956 316.709L65.9756 316.698C67.6823 316.696 68.5367 317.535 68.539 319.215ZM68.588 296.018C68.5949 301.191 66.0383 303.781 60.9184 303.788L52.3984 303.799L52.4011 305.879C52.4029 307.213 51.7771 307.88 50.5238 307.882C49.2705 307.884 48.6429 307.218 48.6411 305.884L48.6384 303.804L44.9984 303.809C43.3184 303.812 42.4772 302.973 42.475 301.293C42.4728 299.639 43.3117 298.812 44.9917 298.809L48.6317 298.804L48.626 294.564C48.6243 293.231 49.25 292.564 50.5034 292.562C51.7567 292.56 52.3842 293.226 52.386 294.559L52.3917 298.799L60.6317 298.788C61.9117 298.787 62.8713 298.505 63.5106 297.945C64.1498 297.384 64.4686 296.477 64.4669 295.223C64.4663 294.77 64.4258 294.37 64.3453 294.023C64.2649 293.677 64.2111 293.37 64.1841 293.104C64.157 292.784 64.2633 292.517 64.503 292.303C64.7161 292.09 65.1693 291.982 65.8626 291.981C66.3959 291.981 66.8761 292.073 67.303 292.26C67.7032 292.419 67.9836 292.725 68.1442 293.178C68.2513 293.525 68.3453 293.978 68.426 294.538C68.5334 295.098 68.5874 295.591 68.588 296.018Z" fill="#00218A"/>
</svg>
