<svg width="219" height="331" viewBox="0 0 219 331" fill="none" xmlns="http://www.w3.org/2000/svg">
<mask id="path-1-inside-1" fill="white">
<path fill-rule="evenodd" clip-rule="evenodd" d="M172.541 50.9641L14.1633 0.623047C-4.58422 59.6044 -4.72329 122.927 13.765 181.99C32.2533 241.053 68.473 292.994 117.505 330.759L218.341 199.838C186.746 174.334 166.537 135.287 166.537 91.5203C166.537 77.4127 168.637 63.7955 172.541 50.9641Z"/>
</mask>
<path fill-rule="evenodd" clip-rule="evenodd" d="M172.541 50.9641L14.1633 0.623047C-4.58422 59.6044 -4.72329 122.927 13.765 181.99C32.2533 241.053 68.473 292.994 117.505 330.759L218.341 199.838C186.746 174.334 166.537 135.287 166.537 91.5203C166.537 77.4127 168.637 63.7955 172.541 50.9641Z" fill="#D5DAFE"/>
<path d="M172.541 50.9641L176.367 52.1285L177.517 48.3488L173.752 47.1521L172.541 50.9641ZM14.1633 0.623047L15.375 -3.18902L11.563 -4.4007L10.3513 -0.588639L14.1633 0.623047ZM13.765 181.99L9.94767 183.185L13.765 181.99ZM117.505 330.759L115.064 333.928L118.233 336.369L120.674 333.2L117.505 330.759ZM218.341 199.838L221.51 202.279L223.896 199.181L220.854 196.726L218.341 199.838ZM173.752 47.1521L15.375 -3.18902L12.9517 4.43511L171.329 54.7762L173.752 47.1521ZM10.3513 -0.588639C-8.64505 59.1754 -8.78597 123.338 9.94767 183.185L17.5824 180.795C-0.660618 122.516 -0.523394 60.0335 17.9754 1.83473L10.3513 -0.588639ZM9.94767 183.185C28.6813 243.032 65.3815 295.662 115.064 333.928L119.945 327.59C71.5644 290.327 35.8254 239.075 17.5824 180.795L9.94767 183.185ZM120.674 333.2L221.51 202.279L215.173 197.397L114.336 328.318L120.674 333.2ZM220.854 196.726C190.159 171.948 170.537 134.027 170.537 91.5203H162.537C162.537 136.547 183.333 176.72 215.829 202.951L220.854 196.726ZM170.537 91.5203C170.537 77.8115 172.577 64.5865 176.367 52.1285L168.714 49.7998C164.696 63.0044 162.537 77.0138 162.537 91.5203H170.537Z" fill="white" mask="url(#path-1-inside-1)"/>
<path d="M72.1525 125.582C70.8726 125.597 70.2246 124.945 70.2085 123.625L69.9959 106.166C69.9801 104.866 70.6221 104.209 71.922 104.193L79.1515 104.105C81.4713 104.076 83.2683 104.635 84.5423 105.779C85.8163 106.924 86.466 108.536 86.4913 110.616C86.5166 112.696 85.9065 114.333 84.661 115.529C83.4152 116.704 81.6324 117.306 79.3126 117.334L73.973 117.399L74.0482 123.578C74.0643 124.898 73.4324 125.566 72.1525 125.582ZM73.9361 114.369L78.6757 114.311C81.4355 114.278 82.8008 113.061 82.7716 110.661C82.7426 108.281 81.3482 107.108 78.5884 107.142L73.8488 107.2L73.9361 114.369ZM91.0684 125.351C89.7885 125.367 89.1408 124.735 89.1252 123.455L88.9871 112.116C88.9718 110.856 89.5741 110.218 90.794 110.203C92.0139 110.189 92.6315 110.811 92.6468 112.071L92.6582 113.001C93.3572 111.272 94.8854 110.294 97.2428 110.065C98.1015 109.954 98.5874 110.439 98.7005 111.517C98.8134 112.576 98.3007 113.172 97.1622 113.306L96.503 113.374C94.0461 113.644 92.8315 114.919 92.8593 117.199L92.9349 123.408C92.9505 124.688 92.3283 125.336 91.0684 125.351ZM107.892 125.206C106.232 125.227 104.798 124.934 103.591 124.329C102.383 123.723 101.442 122.855 100.769 121.723C100.115 120.591 99.7784 119.245 99.7594 117.685C99.7409 116.165 100.035 114.831 100.641 113.684C101.267 112.536 102.126 111.636 103.218 110.982C104.33 110.309 105.596 109.963 107.016 109.946C109.096 109.921 110.743 110.561 111.959 111.866C113.195 113.171 113.827 114.963 113.855 117.243C113.864 117.983 113.389 118.359 112.429 118.371L103.369 118.481C103.681 121.097 105.197 122.389 107.917 122.356C108.437 122.35 109.016 122.282 109.655 122.155C110.313 122.007 110.93 121.769 111.506 121.442C112.022 121.136 112.461 121.04 112.823 121.156C113.184 121.252 113.436 121.459 113.58 121.777C113.744 122.095 113.768 122.455 113.653 122.856C113.558 123.237 113.282 123.571 112.825 123.856C112.131 124.305 111.325 124.645 110.408 124.876C109.51 125.087 108.672 125.197 107.892 125.206ZM107.197 112.494C106.097 112.507 105.211 112.858 104.539 113.546C103.868 114.235 103.469 115.16 103.343 116.321L110.723 116.231C110.628 115.012 110.276 114.087 109.669 113.454C109.081 112.801 108.257 112.481 107.197 112.494ZM35.1712 167.095C33.1313 167.12 31.336 166.691 29.7851 165.81C28.2543 164.929 27.059 163.683 26.1994 162.074C25.3395 160.444 24.8961 158.529 24.8693 156.329C24.8423 154.11 25.2389 152.185 26.0591 150.555C26.8793 148.924 28.044 147.66 29.5532 146.762C31.0621 145.843 32.8465 145.372 34.9064 145.346C36.9662 145.321 38.7616 145.75 40.2924 146.631C41.823 147.492 43.0182 148.728 43.8778 150.338C44.7375 151.947 45.1807 153.852 45.2075 156.052C45.2345 158.272 44.838 160.207 44.0181 161.857C43.1978 163.487 42.0333 164.761 40.5243 165.68C39.0154 166.598 37.231 167.07 35.1712 167.095ZM35.131 163.795C37.0709 163.771 38.5726 163.083 39.6362 161.73C40.6998 160.377 41.2171 158.511 41.1881 156.131C41.1589 153.731 40.5963 151.878 39.5003 150.571C38.4243 149.264 36.9064 148.622 34.9466 148.646C33.0067 148.67 31.5048 149.348 30.441 150.681C29.3771 152.014 28.8598 153.881 28.8891 156.281C28.918 158.66 29.4806 160.514 30.5769 161.84C31.6731 163.167 33.1911 163.819 35.131 163.795ZM50.8097 172.245C49.5698 172.26 48.9422 171.638 48.9268 170.378L48.7227 153.609C48.7073 152.349 49.3096 151.712 50.5295 151.697C51.7694 151.682 52.3971 152.304 52.4124 153.564L52.4201 154.194C52.8306 153.409 53.453 152.781 54.2873 152.311C55.1214 151.821 56.0784 151.569 57.1583 151.556C58.4382 151.54 59.5619 151.837 60.5294 152.445C61.5169 153.053 62.2875 153.924 62.8414 155.057C63.395 156.17 63.6814 157.517 63.7006 159.097C63.7196 160.657 63.4662 162.02 62.9403 163.186C62.4143 164.333 61.675 165.222 60.7226 165.854C59.7703 166.485 58.6441 166.809 57.3442 166.825C56.3043 166.838 55.3617 166.629 54.5164 166.199C53.6909 165.749 53.0535 165.147 52.6043 164.392L52.6766 170.332C52.6919 171.592 52.0696 172.229 50.8097 172.245ZM56.2596 163.988C57.3795 163.974 58.2746 163.563 58.9448 162.755C59.6148 161.927 59.9401 160.723 59.9209 159.143C59.9014 157.543 59.5469 156.357 58.8575 155.586C58.1678 154.794 57.263 154.405 56.1431 154.419C55.0232 154.432 54.1281 154.843 53.4579 155.651C52.7874 156.44 52.462 157.634 52.4814 159.234C52.5007 160.813 52.8553 162.009 53.5452 162.821C54.2349 163.612 55.1397 164.002 56.2596 163.988ZM74.1013 166.621C72.4414 166.641 71.0077 166.348 69.8003 165.743C68.5928 165.138 67.6522 164.269 66.9783 163.137C66.3245 162.005 65.9881 160.659 65.9691 159.099C65.9506 157.579 66.2444 156.246 66.8504 155.098C67.4765 153.951 68.3356 153.05 69.4277 152.397C70.5396 151.723 71.8055 151.378 73.2254 151.36C75.3053 151.335 76.9532 151.975 78.1691 153.28C79.4051 154.585 80.037 156.378 80.0648 158.658C80.0738 159.398 79.5983 159.773 78.6384 159.785L69.579 159.895C69.8909 162.512 71.4068 163.803 74.1266 163.77C74.6465 163.764 75.2257 163.697 75.8642 163.569C76.5225 163.421 77.1396 163.184 77.7157 162.857C78.232 162.55 78.6709 162.455 79.0323 162.571C79.3935 162.666 79.646 162.873 79.7899 163.191C79.9538 163.509 79.9782 163.869 79.8631 164.271C79.7677 164.652 79.4917 164.985 79.0352 165.271C78.3406 165.719 77.5347 166.059 76.6174 166.29C75.7199 166.501 74.8812 166.611 74.1013 166.621ZM73.4064 153.908C72.3065 153.922 71.4207 154.273 70.7491 154.961C70.0774 155.649 69.6786 156.574 69.5527 157.736L76.9322 157.646C76.8374 156.427 76.4861 155.501 75.8783 154.868C75.2903 154.215 74.4664 153.895 73.4064 153.908ZM85.0495 166.428C83.7696 166.443 83.1218 165.811 83.1063 164.531L82.9682 153.192C82.9529 151.932 83.5551 151.295 84.775 151.28C85.995 151.265 86.6126 151.887 86.6279 153.147L86.6392 154.077C87.3382 152.349 88.8664 151.37 91.2238 151.141C92.0826 151.031 92.5685 151.515 92.6816 152.594C92.7945 153.652 92.2817 154.249 91.1433 154.382L90.4841 154.45C88.0272 154.72 86.8126 155.995 86.8404 158.275L86.916 164.485C86.9316 165.765 86.3094 166.412 85.0495 166.428ZM99.5607 166.311C98.5008 166.324 97.5484 166.135 96.7036 165.746C95.8786 165.336 95.2218 164.784 94.7333 164.089C94.2648 163.395 94.0252 162.608 94.0145 161.728C94.0013 160.648 94.271 159.795 94.8234 159.168C95.3756 158.521 96.2799 158.05 97.5364 157.755C98.7929 157.46 100.481 157.299 102.601 157.273L103.651 157.26L103.643 156.63C103.631 155.631 103.402 154.913 102.957 154.479C102.512 154.044 101.769 153.833 100.729 153.846C100.149 153.853 99.52 153.93 98.8417 154.079C98.1835 154.227 97.4865 154.475 96.7506 154.824C96.2734 155.05 95.8738 155.085 95.5518 154.929C95.2297 154.753 95.0064 154.485 94.882 154.127C94.7774 153.748 94.7928 153.368 94.9281 152.986C95.0835 152.604 95.3901 152.321 95.8478 152.135C96.7631 151.744 97.6398 151.463 98.4778 151.293C99.3358 151.122 100.115 151.033 100.815 151.024C102.955 150.998 104.551 151.479 105.603 152.466C106.654 153.434 107.193 154.957 107.218 157.037L107.306 164.236C107.322 165.516 106.749 166.163 105.59 166.177C104.41 166.192 103.812 165.559 103.796 164.279L103.788 163.619C103.458 164.443 102.926 165.1 102.192 165.589C101.458 166.058 100.581 166.298 99.5607 166.311ZM100.309 163.722C101.289 163.71 102.095 163.36 102.727 162.672C103.378 161.984 103.698 161.12 103.685 160.08L103.677 159.42L102.657 159.433C100.777 159.456 99.4693 159.621 98.733 159.93C98.0164 160.219 97.6628 160.744 97.672 161.504C97.6801 162.163 97.9166 162.701 98.3817 163.115C98.8468 163.529 99.4893 163.732 100.309 163.722ZM117.856 166.088C113.976 166.135 112.013 164.239 111.966 160.399L111.888 154.01L110.328 154.029C109.328 154.041 108.823 153.577 108.811 152.637C108.8 151.697 109.294 151.221 110.294 151.209L111.854 151.19L111.821 148.46C111.805 147.2 112.427 146.563 113.687 146.547C114.927 146.532 115.555 147.155 115.57 148.415L115.603 151.144L118.783 151.106C119.783 151.094 120.289 151.557 120.3 152.497C120.312 153.437 119.818 153.913 118.818 153.926L115.638 153.964L115.713 160.144C115.725 161.104 115.944 161.821 116.369 162.296C116.795 162.771 117.478 163.002 118.418 162.991C118.758 162.987 119.058 162.953 119.317 162.89C119.576 162.827 119.806 162.784 120.005 162.762C120.245 162.739 120.446 162.816 120.608 162.994C120.77 163.152 120.854 163.491 120.861 164.011C120.865 164.411 120.8 164.772 120.664 165.094C120.547 165.395 120.32 165.608 119.981 165.732C119.722 165.815 119.383 165.89 118.964 165.955C118.545 166.04 118.176 166.084 117.856 166.088ZM124.671 148.034C123.971 148.042 123.419 147.879 123.015 147.544C122.63 147.189 122.434 146.701 122.427 146.081C122.419 145.441 122.603 144.949 122.979 144.604C123.375 144.259 123.923 144.083 124.623 144.074C126.103 144.056 126.85 144.707 126.867 146.027C126.883 147.347 126.151 148.016 124.671 148.034ZM124.889 165.912C124.289 165.92 123.826 165.745 123.502 165.389C123.178 165.033 123.012 164.535 123.004 163.895L122.87 152.886C122.853 151.526 123.465 150.839 124.705 150.824C125.965 150.808 126.603 151.481 126.619 152.84L126.754 163.85C126.761 164.49 126.607 164.991 126.292 165.355C125.976 165.719 125.508 165.905 124.889 165.912ZM136.614 165.8C135.615 165.812 134.868 165.291 134.375 164.237L129.471 153.226C129.183 152.569 129.166 151.989 129.42 151.486C129.694 150.983 130.241 150.726 131.06 150.716C131.52 150.711 131.892 150.816 132.174 151.033C132.457 151.229 132.712 151.616 132.939 152.193L136.648 161.149L140.258 152.074C140.471 151.512 140.716 151.129 140.994 150.925C141.291 150.702 141.69 150.587 142.19 150.581C142.83 150.573 143.283 150.817 143.549 151.314C143.815 151.811 143.812 152.381 143.539 153.024L138.815 164.183C138.388 165.248 137.654 165.787 136.614 165.8ZM153.431 165.655C151.771 165.675 150.338 165.383 149.13 164.777C147.923 164.172 146.982 163.303 146.308 162.171C145.655 161.039 145.318 159.693 145.299 158.133C145.281 156.614 145.574 155.28 146.181 154.132C146.807 152.985 147.666 152.084 148.758 151.431C149.87 150.757 151.136 150.412 152.555 150.395C154.635 150.369 156.283 151.009 157.499 152.314C158.735 153.62 159.367 155.412 159.395 157.692C159.404 158.432 158.928 158.808 157.968 158.819L148.909 158.93C149.221 161.546 150.737 162.838 153.457 162.804C153.977 162.798 154.556 162.731 155.194 162.603C155.853 162.455 156.47 162.218 157.046 161.891C157.562 161.584 158.001 161.489 158.362 161.605C158.724 161.7 158.976 161.907 159.12 162.225C159.284 162.543 159.308 162.903 159.193 163.305C159.098 163.686 158.822 164.019 158.365 164.305C157.671 164.753 156.865 165.093 155.947 165.324C155.05 165.535 154.211 165.645 153.431 165.655ZM152.737 152.942C151.637 152.956 150.751 153.307 150.079 153.995C149.407 154.683 149.009 155.608 148.883 156.77L156.262 156.68C156.167 155.461 155.816 154.535 155.208 153.902C154.62 153.25 153.796 152.93 152.737 152.942ZM63.2051 207.457C61.8452 207.473 61.157 206.801 61.1404 205.442L60.9326 188.373C60.916 187.013 61.5877 186.325 62.9476 186.308L68.7672 186.237C72.3069 186.194 75.0478 187.071 76.9898 188.867C78.9518 190.664 79.9535 193.262 79.9949 196.661C80.0361 200.041 79.0979 202.663 77.1805 204.526C75.283 206.389 72.5644 207.343 69.0247 207.386L63.2051 207.457ZM64.9663 204.255L68.746 204.209C73.6256 204.149 76.0354 201.65 75.9752 196.71C75.9153 191.791 73.4456 189.361 68.5659 189.42L64.7862 189.466L64.9663 204.255ZM88.4884 207.449C87.4285 207.462 86.4762 207.273 85.6314 206.883C84.8063 206.473 84.1495 205.921 83.661 205.227C83.1926 204.533 82.953 203.746 82.9422 202.866C82.9291 201.786 83.1987 200.933 83.7511 200.306C84.3033 199.659 85.2076 199.188 86.4641 198.893C87.7206 198.597 89.4088 198.437 91.5286 198.411L92.5786 198.398L92.5709 197.768C92.5587 196.768 92.33 196.051 91.8846 195.616C91.4393 195.182 90.6967 194.971 89.6568 194.984C89.0768 194.991 88.4477 195.068 87.7695 195.217C87.1112 195.365 86.4142 195.613 85.6784 195.962C85.2011 196.188 84.8015 196.223 84.4796 196.067C84.1574 195.891 83.9341 195.623 83.8098 195.265C83.7051 194.886 83.7205 194.506 83.8559 194.124C84.0112 193.742 84.3178 193.458 84.7756 193.273C85.6909 192.882 86.5675 192.601 87.4055 192.431C88.2635 192.26 89.0425 192.171 89.7424 192.162C91.8823 192.136 93.4782 192.617 94.5303 193.604C95.5822 194.571 96.1208 196.095 96.1461 198.175L96.2338 205.374C96.2493 206.654 95.6772 207.301 94.5173 207.315C93.3374 207.33 92.7396 206.697 92.724 205.417L92.716 204.757C92.386 205.581 91.854 206.238 91.1198 206.727C90.3855 207.196 89.5084 207.436 88.4884 207.449ZM89.237 204.859C90.2169 204.847 91.0227 204.498 91.6544 203.81C92.3061 203.122 92.6256 202.258 92.6129 201.218L92.6049 200.558L91.5849 200.571C89.7051 200.593 88.397 200.759 87.6607 201.068C86.9442 201.357 86.5905 201.881 86.5998 202.641C86.6078 203.301 86.8444 203.838 87.3094 204.253C87.7745 204.667 88.417 204.869 89.237 204.859ZM106.783 207.226C102.904 207.273 100.94 205.377 100.894 201.537L100.816 195.148L99.256 195.167C98.256 195.179 97.7504 194.715 97.7389 193.775C97.7275 192.835 98.2217 192.359 99.2216 192.347L100.782 192.328L100.748 189.598C100.733 188.338 101.355 187.701 102.615 187.685C103.855 187.67 104.483 188.293 104.498 189.552L104.531 192.282L107.711 192.244C108.711 192.231 109.217 192.695 109.228 193.635C109.24 194.575 108.745 195.051 107.745 195.063L104.566 195.102L104.641 201.282C104.652 202.242 104.871 202.959 105.297 203.434C105.723 203.909 106.406 204.14 107.346 204.129C107.686 204.125 107.985 204.091 108.245 204.028C108.504 203.965 108.733 203.922 108.933 203.9C109.173 203.877 109.374 203.954 109.536 204.132C109.698 204.29 109.782 204.629 109.788 205.149C109.793 205.549 109.728 205.91 109.591 206.232C109.475 206.533 109.248 206.746 108.909 206.87C108.65 206.953 108.311 207.027 107.892 207.092C107.473 207.178 107.103 207.222 106.783 207.226ZM116.406 207.109C115.346 207.122 114.394 206.933 113.549 206.544C112.724 206.134 112.067 205.582 111.579 204.887C111.11 204.193 110.871 203.406 110.86 202.526C110.847 201.446 111.117 200.593 111.669 199.966C112.221 199.319 113.125 198.848 114.382 198.553C115.638 198.258 117.327 198.097 119.446 198.071L120.496 198.058L120.489 197.428C120.477 196.428 120.248 195.711 119.802 195.277C119.357 194.842 118.615 194.631 117.575 194.644C116.995 194.651 116.366 194.728 115.687 194.877C115.029 195.025 114.332 195.273 113.596 195.622C113.119 195.848 112.719 195.883 112.397 195.727C112.075 195.551 111.852 195.283 111.728 194.925C111.623 194.546 111.638 194.166 111.774 193.784C111.929 193.402 112.236 193.119 112.693 192.933C113.609 192.542 114.485 192.261 115.323 192.091C116.181 191.92 116.96 191.831 117.66 191.822C119.8 191.796 121.396 192.277 122.448 193.264C123.5 194.231 124.039 195.755 124.064 197.835L124.152 205.034C124.167 206.314 123.595 206.961 122.435 206.975C121.255 206.99 120.657 206.357 120.642 205.077L120.634 204.417C120.304 205.241 119.772 205.898 119.038 206.387C118.303 206.856 117.426 207.096 116.406 207.109ZM117.155 204.52C118.135 204.508 118.941 204.158 119.572 203.47C120.224 202.782 120.543 201.918 120.531 200.878L120.523 200.218L119.503 200.231C117.623 200.253 116.315 200.419 115.579 200.728C114.862 201.017 114.508 201.542 114.518 202.301C114.526 202.961 114.762 203.499 115.227 203.913C115.692 204.327 116.335 204.529 117.155 204.52Z" fill="#00218A"/>
</svg>
