<svg width="24" height="22" viewBox="0 0 24 22" fill="none" xmlns="http://www.w3.org/2000/svg">
<path d="M21.587 10.0332H2.10028C1.04488 10.0332 0.189697 10.4735 0.189697 11.0168C0.189697 11.5602 1.04488 12.0004 2.10028 12.0004H21.587C22.6424 12.0004 23.4976 11.5602 23.4976 11.0168C23.4976 10.4735 22.6424 10.0332 21.587 10.0332Z" fill="#F1EEEE" fill-opacity="0.76"/>
<path d="M10.6745 1.80338L10.6745 20.1966C10.6745 21.1928 11.1615 22 11.7626 22C12.3637 22 12.8508 21.1928 12.8508 20.1966L12.8508 1.80338C12.8508 0.807192 12.3637 0 11.7626 0C11.1615 0 10.6745 0.807192 10.6745 1.80338Z" fill="#F1EEEE" fill-opacity="0.76"/>
</svg>
