<svg width="416" height="337" viewBox="0 0 416 337" fill="none" xmlns="http://www.w3.org/2000/svg">
<mask id="path-1-inside-1" fill="white">
<path fill-rule="evenodd" clip-rule="evenodd" d="M109.811 64.3009L4.72911 211.718C59.6288 250.852 125.243 272.139 192.661 272.689C260.078 273.239 326.031 253.025 381.562 214.792L279.476 66.5173C242.48 90.7639 195.243 98.6816 149.86 84.068C135.232 79.3575 121.813 72.6334 109.811 64.3009Z"/>
</mask>
<path fill-rule="evenodd" clip-rule="evenodd" d="M109.811 64.3009L4.72911 211.718C59.6288 250.852 125.243 272.139 192.661 272.689C260.078 273.239 326.031 253.025 381.562 214.792L279.476 66.5173C242.48 90.7639 195.243 98.6816 149.86 84.068C135.232 79.3575 121.813 72.6334 109.811 64.3009Z" fill="#00218A"/>
<path d="M109.811 64.3009L112.092 61.0152L108.847 58.7621L106.554 61.9791L109.811 64.3009ZM4.72911 211.718L1.47193 209.396L-0.849867 212.653L2.40732 214.975L4.72911 211.718ZM192.661 272.689L192.628 276.689L192.661 272.689ZM381.562 214.792L383.83 218.087L387.125 215.819L384.857 212.524L381.562 214.792ZM279.476 66.5173L282.77 64.249L280.553 61.0286L277.283 63.1718L279.476 66.5173ZM106.554 61.9791L1.47193 209.396L7.9863 214.04L113.068 66.6227L106.554 61.9791ZM2.40732 214.975C57.9757 254.585 124.389 276.132 192.628 276.689L192.693 268.689C126.097 268.146 61.2819 247.118 7.05091 208.461L2.40732 214.975ZM192.628 276.689C260.867 277.246 327.623 256.785 383.83 218.087L379.294 211.498C324.439 249.265 259.29 269.233 192.693 268.689L192.628 276.689ZM384.857 212.524L282.77 64.249L276.181 68.7856L378.267 217.061L384.857 212.524ZM277.283 63.1718C241.255 86.7842 195.27 94.4879 151.086 80.2605L148.634 87.8754C195.217 102.875 243.705 94.7437 281.668 69.8628L277.283 63.1718ZM151.086 80.2605C136.837 75.6722 123.773 69.1252 112.092 61.0152L107.53 67.5866C119.852 76.1417 133.626 83.0427 148.634 87.8754L151.086 80.2605Z" fill="white" mask="url(#path-1-inside-1)"/>
<path d="M121.268 177.24C120.568 177.24 120.068 177 119.768 176.52C119.468 176.04 119.478 175.46 119.798 174.78L127.718 157.23C127.978 156.65 128.288 156.24 128.648 156C129.028 155.74 129.458 155.61 129.938 155.61C130.398 155.61 130.808 155.74 131.168 156C131.548 156.24 131.868 156.65 132.128 157.23L140.078 174.78C140.398 175.48 140.418 176.07 140.138 176.55C139.858 177.01 139.378 177.24 138.698 177.24C138.138 177.24 137.698 177.11 137.378 176.85C137.078 176.57 136.808 176.15 136.568 175.59L135.068 172.11H124.748L123.278 175.59C123.018 176.17 122.748 176.59 122.468 176.85C122.188 177.11 121.788 177.24 121.268 177.24ZM129.878 160.02L126.068 169.05H133.748L129.938 160.02H129.878ZM144.882 177.24C143.642 177.24 143.022 176.6 143.022 175.32V163.98C143.022 162.72 143.632 162.09 144.852 162.09C146.072 162.09 146.682 162.72 146.682 163.98V164.61C147.182 163.77 147.852 163.13 148.692 162.69C149.552 162.25 150.512 162.03 151.572 162.03C155.032 162.03 156.762 164.04 156.762 168.06V175.32C156.762 176.6 156.142 177.24 154.902 177.24C153.642 177.24 153.012 176.6 153.012 175.32V168.24C153.012 167.1 152.792 166.27 152.352 165.75C151.932 165.23 151.272 164.97 150.372 164.97C149.272 164.97 148.392 165.32 147.732 166.02C147.092 166.7 146.772 167.61 146.772 168.75V175.32C146.772 176.6 146.142 177.24 144.882 177.24ZM162.431 177.24C161.191 177.24 160.571 176.6 160.571 175.32V163.98C160.571 162.72 161.181 162.09 162.401 162.09C163.621 162.09 164.231 162.72 164.231 163.98V164.61C164.731 163.77 165.401 163.13 166.241 162.69C167.101 162.25 168.061 162.03 169.121 162.03C172.581 162.03 174.311 164.04 174.311 168.06V175.32C174.311 176.6 173.691 177.24 172.451 177.24C171.191 177.24 170.561 176.6 170.561 175.32V168.24C170.561 167.1 170.341 166.27 169.901 165.75C169.481 165.23 168.821 164.97 167.921 164.97C166.821 164.97 165.941 165.32 165.281 166.02C164.641 166.7 164.321 167.61 164.321 168.75V175.32C164.321 176.6 163.691 177.24 162.431 177.24ZM184.81 177.3C183.29 177.3 181.97 176.99 180.85 176.37C179.73 175.75 178.86 174.87 178.24 173.73C177.62 172.57 177.31 171.21 177.31 169.65C177.31 168.09 177.62 166.74 178.24 165.6C178.86 164.46 179.73 163.58 180.85 162.96C181.97 162.34 183.29 162.03 184.81 162.03C186.33 162.03 187.65 162.34 188.77 162.96C189.89 163.58 190.76 164.46 191.38 165.6C192 166.74 192.31 168.09 192.31 169.65C192.31 171.21 192 172.57 191.38 173.73C190.76 174.87 189.89 175.75 188.77 176.37C187.65 176.99 186.33 177.3 184.81 177.3ZM184.81 174.45C185.93 174.45 186.83 174.05 187.51 173.25C188.19 172.43 188.53 171.23 188.53 169.65C188.53 168.05 188.19 166.86 187.51 166.08C186.83 165.28 185.93 164.88 184.81 164.88C183.69 164.88 182.79 165.28 182.11 166.08C181.43 166.86 181.09 168.05 181.09 169.65C181.09 171.23 181.43 172.43 182.11 173.25C182.79 174.05 183.69 174.45 184.81 174.45ZM201.979 177.3C198.099 177.3 196.159 175.38 196.159 171.54V165.15H194.599C193.599 165.15 193.099 164.68 193.099 163.74C193.099 162.8 193.599 162.33 194.599 162.33H196.159V159.6C196.159 158.34 196.789 157.71 198.049 157.71C199.289 157.71 199.909 158.34 199.909 159.6V162.33H203.089C204.089 162.33 204.589 162.8 204.589 163.74C204.589 164.68 204.089 165.15 203.089 165.15H199.909V171.33C199.909 172.29 200.119 173.01 200.539 173.49C200.959 173.97 201.639 174.21 202.579 174.21C202.919 174.21 203.219 174.18 203.479 174.12C203.739 174.06 203.969 174.02 204.169 174C204.409 173.98 204.609 174.06 204.769 174.24C204.929 174.4 205.009 174.74 205.009 175.26C205.009 175.66 204.939 176.02 204.799 176.34C204.679 176.64 204.449 176.85 204.109 176.97C203.849 177.05 203.509 177.12 203.089 177.18C202.669 177.26 202.299 177.3 201.979 177.3ZM211.602 177.3C210.542 177.3 209.592 177.1 208.752 176.7C207.932 176.28 207.282 175.72 206.802 175.02C206.342 174.32 206.112 173.53 206.112 172.65C206.112 171.57 206.392 170.72 206.952 170.1C207.512 169.46 208.422 169 209.682 168.72C210.942 168.44 212.632 168.3 214.752 168.3H215.802V167.67C215.802 166.67 215.582 165.95 215.142 165.51C214.702 165.07 213.962 164.85 212.922 164.85C212.342 164.85 211.712 164.92 211.032 165.06C210.372 165.2 209.672 165.44 208.932 165.78C208.452 166 208.052 166.03 207.732 165.87C207.412 165.69 207.192 165.42 207.072 165.06C206.972 164.68 206.992 164.3 207.132 163.92C207.292 163.54 207.602 163.26 208.062 163.08C208.982 162.7 209.862 162.43 210.702 162.27C211.562 162.11 212.342 162.03 213.042 162.03C215.182 162.03 216.772 162.53 217.812 163.53C218.852 164.51 219.372 166.04 219.372 168.12V175.32C219.372 176.6 218.792 177.24 217.632 177.24C216.452 177.24 215.862 176.6 215.862 175.32V174.66C215.522 175.48 214.982 176.13 214.242 176.61C213.502 177.07 212.622 177.3 211.602 177.3ZM212.382 174.72C213.362 174.72 214.172 174.38 214.812 173.7C215.472 173.02 215.802 172.16 215.802 171.12V170.46H214.782C212.902 170.46 211.592 170.61 210.852 170.91C210.132 171.19 209.772 171.71 209.772 172.47C209.772 173.13 210.002 173.67 210.462 174.09C210.922 174.51 211.562 174.72 212.382 174.72ZM229.899 177.3C226.019 177.3 224.079 175.38 224.079 171.54V165.15H222.519C221.519 165.15 221.019 164.68 221.019 163.74C221.019 162.8 221.519 162.33 222.519 162.33H224.079V159.6C224.079 158.34 224.709 157.71 225.969 157.71C227.209 157.71 227.829 158.34 227.829 159.6V162.33H231.009C232.009 162.33 232.509 162.8 232.509 163.74C232.509 164.68 232.009 165.15 231.009 165.15H227.829V171.33C227.829 172.29 228.039 173.01 228.459 173.49C228.879 173.97 229.559 174.21 230.499 174.21C230.839 174.21 231.139 174.18 231.399 174.12C231.659 174.06 231.889 174.02 232.089 174C232.329 173.98 232.529 174.06 232.689 174.24C232.849 174.4 232.929 174.74 232.929 175.26C232.929 175.66 232.859 176.02 232.719 176.34C232.599 176.64 232.369 176.85 232.029 176.97C231.769 177.05 231.429 177.12 231.009 177.18C230.589 177.26 230.219 177.3 229.899 177.3ZM236.933 159.33C236.233 159.33 235.683 159.16 235.283 158.82C234.903 158.46 234.713 157.97 234.713 157.35C234.713 156.71 234.903 156.22 235.283 155.88C235.683 155.54 236.233 155.37 236.933 155.37C238.413 155.37 239.153 156.03 239.153 157.35C239.153 158.67 238.413 159.33 236.933 159.33ZM236.933 177.21C236.333 177.21 235.873 177.03 235.553 176.67C235.233 176.31 235.073 175.81 235.073 175.17V164.16C235.073 162.8 235.693 162.12 236.933 162.12C238.193 162.12 238.823 162.8 238.823 164.16V175.17C238.823 175.81 238.663 176.31 238.343 176.67C238.023 177.03 237.553 177.21 236.933 177.21ZM249.41 177.3C247.89 177.3 246.57 176.99 245.45 176.37C244.33 175.75 243.46 174.87 242.84 173.73C242.22 172.57 241.91 171.21 241.91 169.65C241.91 168.09 242.22 166.74 242.84 165.6C243.46 164.46 244.33 163.58 245.45 162.96C246.57 162.34 247.89 162.03 249.41 162.03C250.93 162.03 252.25 162.34 253.37 162.96C254.49 163.58 255.36 164.46 255.98 165.6C256.6 166.74 256.91 168.09 256.91 169.65C256.91 171.21 256.6 172.57 255.98 173.73C255.36 174.87 254.49 175.75 253.37 176.37C252.25 176.99 250.93 177.3 249.41 177.3ZM249.41 174.45C250.53 174.45 251.43 174.05 252.11 173.25C252.79 172.43 253.13 171.23 253.13 169.65C253.13 168.05 252.79 166.86 252.11 166.08C251.43 165.28 250.53 164.88 249.41 164.88C248.29 164.88 247.39 165.28 246.71 166.08C246.03 166.86 245.69 168.05 245.69 169.65C245.69 171.23 246.03 172.43 246.71 173.25C247.39 174.05 248.29 174.45 249.41 174.45ZM261.865 177.24C260.625 177.24 260.005 176.6 260.005 175.32V163.98C260.005 162.72 260.615 162.09 261.835 162.09C263.055 162.09 263.665 162.72 263.665 163.98V164.61C264.165 163.77 264.835 163.13 265.675 162.69C266.535 162.25 267.495 162.03 268.555 162.03C272.015 162.03 273.745 164.04 273.745 168.06V175.32C273.745 176.6 273.125 177.24 271.885 177.24C270.625 177.24 269.995 176.6 269.995 175.32V168.24C269.995 167.1 269.775 166.27 269.335 165.75C268.915 165.23 268.255 164.97 267.355 164.97C266.255 164.97 265.375 165.32 264.715 166.02C264.075 166.7 263.755 167.61 263.755 168.75V175.32C263.755 176.6 263.125 177.24 261.865 177.24ZM282.924 177.3C282.064 177.3 281.154 177.21 280.194 177.03C279.234 176.85 278.374 176.54 277.614 176.1C277.194 175.86 276.934 175.57 276.834 175.23C276.734 174.87 276.744 174.54 276.864 174.24C277.004 173.92 277.224 173.69 277.524 173.55C277.844 173.41 278.214 173.44 278.634 173.64C279.434 174.02 280.184 174.29 280.884 174.45C281.584 174.59 282.274 174.66 282.954 174.66C283.914 174.66 284.624 174.5 285.084 174.18C285.564 173.84 285.804 173.4 285.804 172.86C285.804 172.02 285.184 171.48 283.944 171.24L280.944 170.67C278.404 170.19 277.134 168.87 277.134 166.71C277.134 165.75 277.394 164.92 277.914 164.22C278.454 163.52 279.194 162.98 280.134 162.6C281.074 162.22 282.154 162.03 283.374 162.03C285.134 162.03 286.704 162.42 288.084 163.2C288.464 163.4 288.684 163.68 288.744 164.04C288.824 164.38 288.784 164.71 288.624 165.03C288.484 165.33 288.254 165.55 287.934 165.69C287.614 165.81 287.244 165.77 286.824 165.57C286.204 165.25 285.604 165.02 285.024 164.88C284.464 164.74 283.924 164.67 283.404 164.67C282.424 164.67 281.694 164.84 281.214 165.18C280.754 165.52 280.524 165.97 280.524 166.53C280.524 167.41 281.094 167.95 282.234 168.15L285.234 168.72C286.534 168.96 287.514 169.4 288.174 170.04C288.854 170.68 289.194 171.54 289.194 172.62C289.194 174.08 288.624 175.23 287.484 176.07C286.344 176.89 284.824 177.3 282.924 177.3Z" fill="white"/>
</svg>
