<svg width="289" height="260" viewBox="0 0 289 260" fill="none" xmlns="http://www.w3.org/2000/svg">
<mask id="path-1-inside-1" fill="white">
<path fill-rule="evenodd" clip-rule="evenodd" d="M179.692 59.0243C231.417 97.1988 269.584 150.91 288.619 212.314L137.806 259.065C119.374 203.692 66.5563 163.709 4.27557 163.709C2.98642 163.709 1.70132 163.727 0.420492 163.761L0.101562 0C64.3887 0.0884427 127.966 20.8499 179.692 59.0243Z"/>
</mask>
<path fill-rule="evenodd" clip-rule="evenodd" d="M179.692 59.0243C231.417 97.1988 269.584 150.91 288.619 212.314L137.806 259.065C119.374 203.692 66.5563 163.709 4.27557 163.709C2.98642 163.709 1.70132 163.727 0.420492 163.761L0.101562 0C64.3887 0.0884427 127.966 20.8499 179.692 59.0243Z" fill="#8EC951"/>
<path d="M288.619 212.314L289.804 216.135L293.624 214.951L292.44 211.13L288.619 212.314ZM179.692 59.0243L177.316 62.2427L179.692 59.0243ZM137.806 259.065L134.011 260.328L135.249 264.046L138.991 262.886L137.806 259.065ZM0.420492 163.761L-3.5795 163.768L-3.57152 167.868L0.526768 167.759L0.420492 163.761ZM0.101562 0L0.107065 -4L-3.90625 -4.00552L-3.89843 0.00779012L0.101562 0ZM292.44 211.13C273.152 148.911 234.479 94.4869 182.067 55.8059L177.316 62.2427C228.356 99.9106 266.016 152.909 284.799 213.499L292.44 211.13ZM138.991 262.886L289.804 216.135L287.435 208.494L136.622 255.244L138.991 262.886ZM4.27557 167.709C64.8116 167.709 116.115 206.568 134.011 260.328L141.602 257.802C122.632 200.816 68.301 159.709 4.27557 159.709V167.709ZM0.526768 167.759C1.77219 167.726 3.02187 167.709 4.27557 167.709V159.709C2.95097 159.709 1.63044 159.727 0.314215 159.762L0.526768 167.759ZM-3.89843 0.00779012L-3.5795 163.768L4.42048 163.753L4.10155 -0.00779012L-3.89843 0.00779012ZM182.067 55.8059C129.648 17.1198 65.2386 -3.91039 0.107065 -4L0.0960595 4C63.5388 4.08728 126.284 24.58 177.316 62.2427L182.067 55.8059Z" fill="white" mask="url(#path-1-inside-1)"/>
<path d="M116.375 127.563C113.476 127.509 111.27 126.718 109.758 125.19C108.266 123.642 107.548 121.389 107.603 118.429L107.802 107.661C107.826 106.361 108.478 105.723 109.758 105.747C111.038 105.771 111.665 106.432 111.641 107.732L111.443 118.47C111.407 120.37 111.811 121.808 112.653 122.783C113.515 123.739 114.776 124.233 116.436 124.264C119.816 124.326 121.54 122.458 121.611 118.658L121.81 107.92C121.834 106.62 122.486 105.982 123.765 106.006C125.025 106.029 125.643 106.691 125.619 107.991L125.42 118.759C125.365 121.718 124.573 123.944 123.046 125.436C121.518 126.908 119.295 127.617 116.375 127.563ZM137.02 127.945C135.68 127.92 134.373 127.746 133.099 127.423C131.845 127.099 130.753 126.629 129.825 126.012C129.37 125.703 129.097 125.328 129.005 124.886C128.913 124.445 128.951 124.035 129.118 123.658C129.305 123.262 129.58 122.997 129.943 122.863C130.326 122.71 130.754 122.788 131.229 123.097C132.099 123.633 133.022 124.031 133.997 124.289C134.973 124.547 136 124.686 137.08 124.706C138.66 124.735 139.814 124.496 140.544 123.99C141.274 123.463 141.646 122.78 141.662 121.94C141.675 121.24 141.425 120.686 140.913 120.276C140.42 119.867 139.556 119.521 138.321 119.238L135.035 118.487C131.29 117.617 129.446 115.653 129.503 112.593C129.527 111.274 129.899 110.13 130.617 109.163C131.335 108.197 132.318 107.455 133.568 106.938C134.818 106.421 136.253 106.177 137.872 106.207C139.072 106.23 140.209 106.401 141.284 106.721C142.358 107.04 143.32 107.498 144.169 108.094C144.563 108.382 144.797 108.736 144.869 109.157C144.942 109.559 144.885 109.938 144.698 110.294C144.512 110.631 144.217 110.866 143.815 110.998C143.433 111.111 142.984 111.013 142.47 110.703C141.738 110.27 140.994 109.956 140.237 109.762C139.481 109.568 138.662 109.462 137.783 109.446C136.403 109.421 135.318 109.691 134.527 110.256C133.736 110.822 133.332 111.574 133.315 112.514C133.302 113.234 133.531 113.818 134.003 114.267C134.475 114.696 135.289 115.041 136.444 115.302L139.701 116.053C141.672 116.509 143.13 117.196 144.073 118.114C145.036 119.032 145.504 120.241 145.476 121.741C145.453 123 145.092 124.104 144.395 125.051C143.697 125.998 142.713 126.73 141.444 127.247C140.194 127.744 138.72 127.977 137.02 127.945ZM158.822 128.349C156.482 128.306 154.511 127.829 152.907 126.919C151.324 126.01 150.127 124.737 149.318 123.102C148.508 121.467 148.123 119.539 148.164 117.32C148.206 115.08 148.671 113.158 149.561 111.555C150.452 109.931 151.715 108.694 153.351 107.844C154.987 106.974 156.935 106.56 159.195 106.602C160.314 106.623 161.432 106.783 162.546 107.084C163.681 107.365 164.743 107.835 165.731 108.493C166.166 108.761 166.409 109.116 166.461 109.557C166.533 109.978 166.466 110.377 166.259 110.753C166.052 111.13 165.747 111.394 165.344 111.547C164.942 111.679 164.503 111.601 164.028 111.312C163.277 110.858 162.513 110.524 161.736 110.31C160.96 110.095 160.092 109.979 159.132 109.961C156.893 109.92 155.181 110.538 153.997 111.817C152.833 113.095 152.229 114.955 152.184 117.394C152.138 119.854 152.693 121.734 153.85 123.036C155.006 124.338 156.743 125.01 159.063 125.053C159.723 125.065 160.394 125.027 161.076 124.94C161.778 124.833 162.471 124.676 163.155 124.468L163.246 119.549L159.946 119.488C158.906 119.469 158.395 118.979 158.413 118.02C158.431 117.08 158.959 116.619 159.999 116.639L164.948 116.73C165.988 116.75 166.498 117.279 166.479 118.319L166.344 125.608C166.327 126.527 165.956 127.111 165.231 127.357C164.346 127.661 163.331 127.912 162.187 128.111C161.043 128.29 159.922 128.369 158.822 128.349ZM106.866 168.094C105.507 168.069 104.839 167.376 104.865 166.017L105.18 148.95C105.206 147.59 105.898 146.922 107.258 146.948L113.077 147.055C116.616 147.121 119.329 148.081 121.215 149.936C123.121 151.792 124.042 154.42 123.98 157.819C123.917 161.198 122.899 163.79 120.925 165.594C118.971 167.398 116.225 168.267 112.685 168.202L106.866 168.094ZM108.725 164.948L112.504 165.018C117.383 165.108 119.869 162.684 119.96 157.745C120.051 152.825 117.657 150.321 112.778 150.23L108.999 150.16L108.725 164.948ZM132.138 168.862C131.078 168.842 130.132 168.625 129.3 168.209C128.488 167.774 127.848 167.202 127.381 166.493C126.934 165.785 126.719 164.991 126.735 164.111C126.755 163.031 127.051 162.187 127.622 161.577C128.194 160.948 129.112 160.504 130.377 160.248C131.642 159.991 133.334 159.882 135.454 159.922L136.504 159.941L136.516 159.311C136.534 158.311 136.327 157.587 135.896 157.139C135.464 156.691 134.728 156.458 133.688 156.438C133.108 156.428 132.477 156.486 131.795 156.613C131.132 156.741 130.428 156.968 129.682 157.294C129.198 157.506 128.797 157.528 128.48 157.362C128.164 157.176 127.949 156.902 127.835 156.54C127.742 156.158 127.769 155.779 127.917 155.401C128.084 155.024 128.399 154.75 128.862 154.579C129.789 154.216 130.674 153.962 131.516 153.818C132.379 153.674 133.161 153.608 133.86 153.621C136 153.661 137.581 154.19 138.602 155.209C139.624 156.208 140.115 157.748 140.077 159.827L139.943 167.026C139.92 168.306 139.328 168.935 138.168 168.914C136.988 168.892 136.41 168.241 136.434 166.961L136.446 166.301C136.091 167.115 135.539 167.755 134.79 168.221C134.042 168.667 133.158 168.881 132.138 168.862ZM132.966 166.297C133.946 166.315 134.762 165.99 135.414 165.322C136.087 164.654 136.433 163.801 136.452 162.761L136.464 162.101L135.444 162.082C133.564 162.047 132.252 162.173 131.506 162.459C130.781 162.726 130.412 163.239 130.398 163.999C130.386 164.659 130.606 165.203 131.058 165.631C131.51 166.06 132.146 166.282 132.966 166.297ZM150.431 169.201C146.552 169.129 144.648 167.173 144.719 163.334L144.837 156.945L143.277 156.916C142.278 156.898 141.786 156.418 141.804 155.478C141.821 154.539 142.33 154.078 143.33 154.097L144.889 154.125L144.94 151.396C144.963 150.136 145.605 149.518 146.864 149.541C148.104 149.564 148.712 150.205 148.689 151.465L148.639 154.195L151.818 154.254C152.818 154.272 153.309 154.751 153.292 155.691C153.274 156.631 152.766 157.092 151.766 157.073L148.586 157.014L148.472 163.193C148.454 164.153 148.651 164.877 149.062 165.365C149.473 165.852 150.148 166.105 151.088 166.122C151.428 166.128 151.729 166.104 151.99 166.049C152.251 165.994 152.482 165.958 152.682 165.942C152.922 165.926 153.121 166.01 153.277 166.193C153.434 166.356 153.508 166.697 153.498 167.217C153.491 167.617 153.414 167.976 153.268 168.293C153.143 168.591 152.909 168.796 152.567 168.91C152.306 168.985 151.964 169.049 151.543 169.101C151.122 169.173 150.751 169.206 150.431 169.201ZM160.053 169.379C158.993 169.359 158.047 169.142 157.215 168.726C156.403 168.291 155.763 167.719 155.296 167.01C154.849 166.302 154.634 165.508 154.65 164.628C154.67 163.548 154.966 162.703 155.537 162.094C156.109 161.464 157.027 161.021 158.292 160.765C159.557 160.508 161.25 160.399 163.369 160.439L164.419 160.458L164.431 159.828C164.449 158.828 164.243 158.104 163.811 157.656C163.379 157.208 162.643 156.974 161.603 156.955C161.024 156.945 160.392 157.003 159.71 157.13C159.047 157.258 158.343 157.485 157.597 157.811C157.113 158.022 156.712 158.045 156.395 157.879C156.079 157.693 155.864 157.419 155.751 157.057C155.658 156.675 155.685 156.296 155.832 155.918C155.999 155.541 156.314 155.267 156.777 155.096C157.704 154.733 158.589 154.479 159.432 154.335C160.294 154.191 161.076 154.125 161.776 154.138C163.915 154.178 165.496 154.707 166.517 155.726C167.539 156.725 168.03 158.264 167.992 160.344L167.859 167.543C167.835 168.823 167.243 169.452 166.083 169.43C164.904 169.408 164.325 168.758 164.349 167.478L164.361 166.818C164.006 167.632 163.454 168.271 162.706 168.738C161.957 169.184 161.073 169.398 160.053 169.379ZM160.881 166.814C161.861 166.832 162.677 166.507 163.329 165.839C164.002 165.171 164.348 164.317 164.367 163.277L164.379 162.618L163.359 162.599C161.48 162.564 160.167 162.69 159.422 162.976C158.697 163.243 158.327 163.756 158.313 164.516C158.301 165.176 158.521 165.72 158.973 166.148C159.425 166.577 160.061 166.798 160.881 166.814Z" fill="#00218A" fill-opacity="0.7"/>
</svg>
