<svg width="288" height="261" viewBox="0 0 288 261" fill="none" xmlns="http://www.w3.org/2000/svg">
<mask id="path-1-inside-1" fill="white">
<path fill-rule="evenodd" clip-rule="evenodd" d="M109.261 59.4559C160.562 22.1028 223.588 0.206397 287.026 0.00292969L286.868 163.152C226.62 165.196 176.08 205.553 158.798 260.649L156.732 259.954L0 209.75C19.7279 149.399 57.9599 96.8091 109.261 59.4559Z"/>
</mask>
<path fill-rule="evenodd" clip-rule="evenodd" d="M109.261 59.4559C160.562 22.1028 223.588 0.206397 287.026 0.00292969L286.868 163.152C226.62 165.196 176.08 205.553 158.798 260.649L156.732 259.954L0 209.75C19.7279 149.399 57.9599 96.8091 109.261 59.4559Z" fill="#8EC951"/>
<path d="M287.026 0.00292969L291.026 0.0067942L291.03 -4.00993L287.013 -3.99705L287.026 0.00292969ZM109.261 59.4559L111.615 62.6896L109.261 59.4559ZM286.868 163.152L287.004 167.15L290.865 167.019L290.868 163.156L286.868 163.152ZM158.798 260.649L157.523 264.44L161.393 265.742L162.615 261.846L158.798 260.649ZM156.732 259.954L158.007 256.163L157.98 256.154L157.953 256.145L156.732 259.954ZM0 209.75L-3.80202 208.507L-5.05226 212.332L-1.2202 213.56L0 209.75ZM287.013 -3.99705C222.681 -3.79071 158.844 18.4056 106.906 56.2223L111.615 62.6896C162.28 25.8 224.495 4.20351 287.039 4.00291L287.013 -3.99705ZM290.868 163.156L291.026 0.0067942L283.026 -0.000934826L282.868 163.148L290.868 163.156ZM162.615 261.846C179.402 208.326 228.498 169.135 287.004 167.15L286.733 159.155C224.742 161.257 172.758 202.779 154.982 259.452L162.615 261.846ZM155.457 263.746L157.523 264.44L160.073 256.858L158.007 256.163L155.457 263.746ZM-1.2202 213.56L155.512 263.764L157.953 256.145L1.2202 205.941L-1.2202 213.56ZM106.906 56.2223C54.9252 94.0707 16.187 147.358 -3.80202 208.507L3.80202 210.993C23.2689 151.441 60.9945 99.5475 111.615 62.6896L106.906 56.2223Z" fill="white" mask="url(#path-1-inside-1)"/>
<path d="M105.826 126.3C103.786 126.3 101.996 125.85 100.456 124.95C98.936 124.05 97.756 122.79 96.916 121.17C96.076 119.53 95.656 117.61 95.656 115.41C95.656 113.19 96.076 111.27 96.916 109.65C97.756 108.03 98.936 106.78 100.456 105.9C101.976 105 103.766 104.55 105.826 104.55C107.886 104.55 109.676 105 111.196 105.9C112.716 106.78 113.896 108.03 114.736 109.65C115.576 111.27 115.996 113.18 115.996 115.38C115.996 117.6 115.576 119.53 114.736 121.17C113.896 122.79 112.716 124.05 111.196 124.95C109.676 125.85 107.886 126.3 105.826 126.3ZM105.826 123C107.766 123 109.276 122.33 110.356 120.99C111.436 119.65 111.976 117.79 111.976 115.41C111.976 113.01 111.436 111.15 110.356 109.83C109.296 108.51 107.786 107.85 105.826 107.85C103.886 107.85 102.376 108.51 101.296 109.83C100.216 111.15 99.676 113.01 99.676 115.41C99.676 117.79 100.216 119.65 101.296 120.99C102.376 122.33 103.886 123 105.826 123ZM121.401 131.64C120.161 131.64 119.541 131.01 119.541 129.75V112.98C119.541 111.72 120.151 111.09 121.371 111.09C122.611 111.09 123.231 111.72 123.231 112.98V113.61C123.651 112.83 124.281 112.21 125.121 111.75C125.961 111.27 126.921 111.03 128.001 111.03C129.281 111.03 130.401 111.34 131.361 111.96C132.341 112.58 133.101 113.46 133.641 114.6C134.181 115.72 134.451 117.07 134.451 118.65C134.451 120.21 134.181 121.57 133.641 122.73C133.101 123.87 132.351 124.75 131.391 125.37C130.431 125.99 129.301 126.3 128.001 126.3C126.961 126.3 126.021 126.08 125.181 125.64C124.361 125.18 123.731 124.57 123.291 123.81V129.75C123.291 131.01 122.661 131.64 121.401 131.64ZM126.951 123.45C128.071 123.45 128.971 123.05 129.651 122.25C130.331 121.43 130.671 120.23 130.671 118.65C130.671 117.05 130.331 115.86 129.651 115.08C128.971 114.28 128.071 113.88 126.951 113.88C125.831 113.88 124.931 114.28 124.251 115.08C123.571 115.86 123.231 117.05 123.231 118.65C123.231 120.23 123.571 121.43 124.251 122.25C124.931 123.05 125.831 123.45 126.951 123.45ZM144.759 126.3C143.099 126.3 141.669 125.99 140.469 125.37C139.269 124.75 138.339 123.87 137.679 122.73C137.039 121.59 136.719 120.24 136.719 118.68C136.719 117.16 137.029 115.83 137.649 114.69C138.289 113.55 139.159 112.66 140.259 112.02C141.379 111.36 142.649 111.03 144.069 111.03C146.149 111.03 147.789 111.69 148.989 113.01C150.209 114.33 150.819 116.13 150.819 118.41C150.819 119.15 150.339 119.52 149.379 119.52H140.319C140.599 122.14 142.099 123.45 144.819 123.45C145.339 123.45 145.919 123.39 146.559 123.27C147.219 123.13 147.839 122.9 148.419 122.58C148.939 122.28 149.379 122.19 149.739 122.31C150.099 122.41 150.349 122.62 150.489 122.94C150.649 123.26 150.669 123.62 150.549 124.02C150.449 124.4 150.169 124.73 149.709 125.01C149.009 125.45 148.199 125.78 147.279 126C146.379 126.2 145.539 126.3 144.759 126.3ZM144.219 113.58C143.119 113.58 142.229 113.92 141.549 114.6C140.869 115.28 140.459 116.2 140.319 117.36H147.699C147.619 116.14 147.279 115.21 146.679 114.57C146.099 113.91 145.279 113.58 144.219 113.58ZM155.709 126.24C154.429 126.24 153.789 125.6 153.789 124.32V112.98C153.789 111.72 154.399 111.09 155.619 111.09C156.839 111.09 157.449 111.72 157.449 112.98V113.91C158.169 112.19 159.709 111.23 162.069 111.03C162.929 110.93 163.409 111.42 163.509 112.5C163.609 113.56 163.089 114.15 161.949 114.27L161.289 114.33C158.829 114.57 157.599 115.83 157.599 118.11V124.32C157.599 125.6 156.969 126.24 155.709 126.24ZM170.22 126.3C169.16 126.3 168.21 126.1 167.37 125.7C166.55 125.28 165.9 124.72 165.42 124.02C164.96 123.32 164.73 122.53 164.73 121.65C164.73 120.57 165.01 119.72 165.57 119.1C166.13 118.46 167.04 118 168.3 117.72C169.56 117.44 171.25 117.3 173.37 117.3H174.42V116.67C174.42 115.67 174.2 114.95 173.76 114.51C173.32 114.07 172.58 113.85 171.54 113.85C170.96 113.85 170.33 113.92 169.65 114.06C168.99 114.2 168.29 114.44 167.55 114.78C167.07 115 166.67 115.03 166.35 114.87C166.03 114.69 165.81 114.42 165.69 114.06C165.59 113.68 165.61 113.3 165.75 112.92C165.91 112.54 166.22 112.26 166.68 112.08C167.6 111.7 168.48 111.43 169.32 111.27C170.18 111.11 170.96 111.03 171.66 111.03C173.8 111.03 175.39 111.53 176.43 112.53C177.47 113.51 177.99 115.04 177.99 117.12V124.32C177.99 125.6 177.41 126.24 176.25 126.24C175.07 126.24 174.48 125.6 174.48 124.32V123.66C174.14 124.48 173.6 125.13 172.86 125.61C172.12 126.07 171.24 126.3 170.22 126.3ZM171 123.72C171.98 123.72 172.79 123.38 173.43 122.7C174.09 122.02 174.42 121.16 174.42 120.12V119.46H173.4C171.52 119.46 170.21 119.61 169.47 119.91C168.75 120.19 168.39 120.71 168.39 121.47C168.39 122.13 168.62 122.67 169.08 123.09C169.54 123.51 170.18 123.72 171 123.72ZM188.517 126.3C184.637 126.3 182.697 124.38 182.697 120.54V114.15H181.137C180.137 114.15 179.637 113.68 179.637 112.74C179.637 111.8 180.137 111.33 181.137 111.33H182.697V108.6C182.697 107.34 183.327 106.71 184.587 106.71C185.827 106.71 186.447 107.34 186.447 108.6V111.33H189.627C190.627 111.33 191.127 111.8 191.127 112.74C191.127 113.68 190.627 114.15 189.627 114.15H186.447V120.33C186.447 121.29 186.657 122.01 187.077 122.49C187.497 122.97 188.177 123.21 189.117 123.21C189.457 123.21 189.757 123.18 190.017 123.12C190.277 123.06 190.507 123.02 190.707 123C190.947 122.98 191.147 123.06 191.307 123.24C191.467 123.4 191.547 123.74 191.547 124.26C191.547 124.66 191.477 125.02 191.337 125.34C191.217 125.64 190.987 125.85 190.647 125.97C190.387 126.05 190.047 126.12 189.627 126.18C189.207 126.26 188.837 126.3 188.517 126.3ZM195.551 108.33C194.851 108.33 194.301 108.16 193.901 107.82C193.521 107.46 193.331 106.97 193.331 106.35C193.331 105.71 193.521 105.22 193.901 104.88C194.301 104.54 194.851 104.37 195.551 104.37C197.031 104.37 197.771 105.03 197.771 106.35C197.771 107.67 197.031 108.33 195.551 108.33ZM195.551 126.21C194.951 126.21 194.491 126.03 194.171 125.67C193.851 125.31 193.691 124.81 193.691 124.17V113.16C193.691 111.8 194.311 111.12 195.551 111.12C196.811 111.12 197.441 111.8 197.441 113.16V124.17C197.441 124.81 197.281 125.31 196.961 125.67C196.641 126.03 196.171 126.21 195.551 126.21ZM207.278 126.24C206.278 126.24 205.538 125.71 205.058 124.65L200.288 113.58C200.008 112.92 199.998 112.34 200.258 111.84C200.538 111.34 201.088 111.09 201.908 111.09C202.368 111.09 202.738 111.2 203.018 111.42C203.298 111.62 203.548 112.01 203.768 112.59L207.368 121.59L211.088 112.56C211.308 112 211.558 111.62 211.838 111.42C212.138 111.2 212.538 111.09 213.038 111.09C213.678 111.09 214.128 111.34 214.388 111.84C214.648 112.34 214.638 112.91 214.358 113.55L209.498 124.65C209.058 125.71 208.318 126.24 207.278 126.24ZM224.095 126.3C222.435 126.3 221.005 125.99 219.805 125.37C218.605 124.75 217.675 123.87 217.015 122.73C216.375 121.59 216.055 120.24 216.055 118.68C216.055 117.16 216.365 115.83 216.985 114.69C217.625 113.55 218.495 112.66 219.595 112.02C220.715 111.36 221.985 111.03 223.405 111.03C225.485 111.03 227.125 111.69 228.325 113.01C229.545 114.33 230.155 116.13 230.155 118.41C230.155 119.15 229.675 119.52 228.715 119.52H219.655C219.935 122.14 221.435 123.45 224.155 123.45C224.675 123.45 225.255 123.39 225.895 123.27C226.555 123.13 227.175 122.9 227.755 122.58C228.275 122.28 228.715 122.19 229.075 122.31C229.435 122.41 229.685 122.62 229.825 122.94C229.985 123.26 230.005 123.62 229.885 124.02C229.785 124.4 229.505 124.73 229.045 125.01C228.345 125.45 227.535 125.78 226.615 126C225.715 126.2 224.875 126.3 224.095 126.3ZM223.555 113.58C222.455 113.58 221.565 113.92 220.885 114.6C220.205 115.28 219.795 116.2 219.655 117.36H227.035C226.955 116.14 226.615 115.21 226.015 114.57C225.435 113.91 224.615 113.58 223.555 113.58ZM132.285 167.24C131.265 167.24 130.535 166.74 130.095 165.74L122.265 148.16C121.945 147.4 121.955 146.79 122.295 146.33C122.655 145.85 123.175 145.61 123.855 145.61C124.435 145.61 124.865 145.74 125.145 146C125.445 146.24 125.695 146.61 125.895 147.11L132.345 162.08L138.795 147.08C139.015 146.6 139.275 146.24 139.575 146C139.875 145.74 140.295 145.61 140.835 145.61C141.475 145.61 141.955 145.85 142.275 146.33C142.615 146.81 142.615 147.42 142.275 148.16L134.445 165.74C134.225 166.24 133.945 166.62 133.605 166.88C133.285 167.12 132.845 167.24 132.285 167.24ZM148.266 149.33C147.566 149.33 147.016 149.16 146.616 148.82C146.236 148.46 146.046 147.97 146.046 147.35C146.046 146.71 146.236 146.22 146.616 145.88C147.016 145.54 147.566 145.37 148.266 145.37C149.746 145.37 150.486 146.03 150.486 147.35C150.486 148.67 149.746 149.33 148.266 149.33ZM148.266 167.21C147.666 167.21 147.206 167.03 146.886 166.67C146.566 166.31 146.406 165.81 146.406 165.17V154.16C146.406 152.8 147.026 152.12 148.266 152.12C149.526 152.12 150.156 152.8 150.156 154.16V165.17C150.156 165.81 149.996 166.31 149.676 166.67C149.356 167.03 148.886 167.21 148.266 167.21ZM159.692 167.3C158.412 167.3 157.282 166.99 156.302 166.37C155.342 165.75 154.592 164.87 154.052 163.73C153.512 162.57 153.242 161.21 153.242 159.65C153.242 158.07 153.512 156.72 154.052 155.6C154.592 154.46 155.342 153.58 156.302 152.96C157.282 152.34 158.412 152.03 159.692 152.03C160.732 152.03 161.672 152.26 162.512 152.72C163.352 153.18 163.982 153.79 164.402 154.55V147.5C164.402 146.24 165.022 145.61 166.262 145.61C167.522 145.61 168.152 146.24 168.152 147.5V165.32C168.152 166.6 167.532 167.24 166.292 167.24C165.052 167.24 164.432 166.6 164.432 165.32V164.69C164.012 165.49 163.382 166.13 162.542 166.61C161.702 167.07 160.752 167.3 159.692 167.3ZM160.742 164.45C161.862 164.45 162.762 164.05 163.442 163.25C164.122 162.43 164.462 161.23 164.462 159.65C164.462 158.05 164.122 156.86 163.442 156.08C162.762 155.28 161.862 154.88 160.742 154.88C159.622 154.88 158.722 155.28 158.042 156.08C157.362 156.86 157.022 158.05 157.022 159.65C157.022 161.23 157.362 162.43 158.042 163.25C158.722 164.05 159.622 164.45 160.742 164.45ZM179.271 167.3C177.611 167.3 176.181 166.99 174.981 166.37C173.781 165.75 172.851 164.87 172.191 163.73C171.551 162.59 171.231 161.24 171.231 159.68C171.231 158.16 171.541 156.83 172.161 155.69C172.801 154.55 173.671 153.66 174.771 153.02C175.891 152.36 177.161 152.03 178.581 152.03C180.661 152.03 182.301 152.69 183.501 154.01C184.721 155.33 185.331 157.13 185.331 159.41C185.331 160.15 184.851 160.52 183.891 160.52H174.831C175.111 163.14 176.611 164.45 179.331 164.45C179.851 164.45 180.431 164.39 181.071 164.27C181.731 164.13 182.351 163.9 182.931 163.58C183.451 163.28 183.891 163.19 184.251 163.31C184.611 163.41 184.861 163.62 185.001 163.94C185.161 164.26 185.181 164.62 185.061 165.02C184.961 165.4 184.681 165.73 184.221 166.01C183.521 166.45 182.711 166.78 181.791 167C180.891 167.2 180.051 167.3 179.271 167.3ZM178.731 154.58C177.631 154.58 176.741 154.92 176.061 155.6C175.381 156.28 174.971 157.2 174.831 158.36H182.211C182.131 157.14 181.791 156.21 181.191 155.57C180.611 154.91 179.791 154.58 178.731 154.58ZM194.99 167.3C193.47 167.3 192.15 166.99 191.03 166.37C189.91 165.75 189.04 164.87 188.42 163.73C187.8 162.57 187.49 161.21 187.49 159.65C187.49 158.09 187.8 156.74 188.42 155.6C189.04 154.46 189.91 153.58 191.03 152.96C192.15 152.34 193.47 152.03 194.99 152.03C196.51 152.03 197.83 152.34 198.95 152.96C200.07 153.58 200.94 154.46 201.56 155.6C202.18 156.74 202.49 158.09 202.49 159.65C202.49 161.21 202.18 162.57 201.56 163.73C200.94 164.87 200.07 165.75 198.95 166.37C197.83 166.99 196.51 167.3 194.99 167.3ZM194.99 164.45C196.11 164.45 197.01 164.05 197.69 163.25C198.37 162.43 198.71 161.23 198.71 159.65C198.71 158.05 198.37 156.86 197.69 156.08C197.01 155.28 196.11 154.88 194.99 154.88C193.87 154.88 192.97 155.28 192.29 156.08C191.61 156.86 191.27 158.05 191.27 159.65C191.27 161.23 191.61 162.43 192.29 163.25C192.97 164.05 193.87 164.45 194.99 164.45Z" fill="#00218A" fill-opacity="0.7"/>
</svg>
