<svg width="263" height="258" viewBox="0 0 263 258" fill="none" xmlns="http://www.w3.org/2000/svg">
<path fill-rule="evenodd" clip-rule="evenodd" d="M131.297 257.01C203.81 257.01 262.593 199.476 262.593 128.505C262.593 57.5336 203.81 0 131.297 0C58.7835 0 0 57.5336 0 128.505C0 199.476 58.7835 257.01 131.297 257.01Z" fill="#52CC70" fill-opacity="0.8"/>
<path d="M39.8556 101.32C36.7623 101.32 34.3943 100.52 32.7516 98.92C31.1303 97.2987 30.3196 94.9093 30.3196 91.752V80.264C30.3196 78.8773 31.0023 78.184 32.3676 78.184C33.733 78.184 34.4156 78.8773 34.4156 80.264V91.72C34.4156 93.7467 34.8743 95.272 35.7916 96.296C36.7303 97.2987 38.085 97.8 39.8556 97.8C43.461 97.8 45.2636 95.7733 45.2636 91.72V80.264C45.2636 78.8773 45.9463 78.184 47.3116 78.184C48.6556 78.184 49.3276 78.8773 49.3276 80.264V91.752C49.3276 94.9093 48.5276 97.2987 46.9276 98.92C45.3276 100.52 42.9703 101.32 39.8556 101.32ZM55.7046 107.016C54.382 107.016 53.7206 106.344 53.7206 105V87.112C53.7206 85.768 54.3713 85.096 55.6726 85.096C56.9953 85.096 57.6566 85.768 57.6566 87.112V87.784C58.1046 86.952 58.7766 86.2907 59.6726 85.8C60.5686 85.288 61.5926 85.032 62.7446 85.032C64.11 85.032 65.3046 85.3627 66.3286 86.024C67.374 86.6853 68.1846 87.624 68.7606 88.84C69.3366 90.0347 69.6246 91.4747 69.6246 93.16C69.6246 94.824 69.3366 96.2747 68.7606 97.512C68.1846 98.728 67.3846 99.6667 66.3606 100.328C65.3366 100.989 64.1313 101.32 62.7446 101.32C61.6353 101.32 60.6326 101.085 59.7366 100.616C58.862 100.125 58.19 99.4747 57.7206 98.664V105C57.7206 106.344 57.0486 107.016 55.7046 107.016ZM61.6246 98.28C62.8193 98.28 63.7793 97.8533 64.5046 97C65.23 96.1253 65.5926 94.8453 65.5926 93.16C65.5926 91.4533 65.23 90.184 64.5046 89.352C63.7793 88.4987 62.8193 88.072 61.6246 88.072C60.43 88.072 59.47 88.4987 58.7446 89.352C58.0193 90.184 57.6566 91.4533 57.6566 93.16C57.6566 94.8453 58.0193 96.1253 58.7446 97C59.47 97.8533 60.43 98.28 61.6246 98.28ZM78.2521 101.32C74.6895 101.32 72.9081 99.3253 72.9081 95.336V80.2C72.9081 78.856 73.5695 78.184 74.8921 78.184C76.2361 78.184 76.9081 78.856 76.9081 80.2V95.144C76.9081 97.064 77.7081 98.024 79.3081 98.024C79.4788 98.024 79.6388 98.024 79.7881 98.024C79.9375 98.0027 80.0868 97.9813 80.2361 97.96C80.5348 97.9173 80.7375 98.0027 80.8441 98.216C80.9508 98.408 81.0041 98.8133 81.0041 99.432C81.0041 99.9653 80.8975 100.381 80.6841 100.68C80.4708 100.979 80.1188 101.16 79.6281 101.224C79.1801 101.288 78.7215 101.32 78.2521 101.32ZM90.1066 101.32C88.4853 101.32 87.0773 100.989 85.8826 100.328C84.688 99.6667 83.76 98.728 83.0986 97.512C82.4373 96.2747 82.1066 94.824 82.1066 93.16C82.1066 91.496 82.4373 90.056 83.0986 88.84C83.76 87.624 84.688 86.6853 85.8826 86.024C87.0773 85.3627 88.4853 85.032 90.1066 85.032C91.728 85.032 93.136 85.3627 94.3306 86.024C95.5253 86.6853 96.4533 87.624 97.1146 88.84C97.776 90.056 98.1066 91.496 98.1066 93.16C98.1066 94.824 97.776 96.2747 97.1146 97.512C96.4533 98.728 95.5253 99.6667 94.3306 100.328C93.136 100.989 91.728 101.32 90.1066 101.32ZM90.1066 98.28C91.3013 98.28 92.2613 97.8533 92.9866 97C93.712 96.1253 94.0746 94.8453 94.0746 93.16C94.0746 91.4533 93.712 90.184 92.9866 89.352C92.2613 88.4987 91.3013 88.072 90.1066 88.072C88.912 88.072 87.952 88.4987 87.2266 89.352C86.5013 90.184 86.1386 91.4533 86.1386 93.16C86.1386 94.8453 86.5013 96.1253 87.2266 97C87.952 97.8533 88.912 98.28 90.1066 98.28ZM106.56 101.32C105.429 101.32 104.416 101.107 103.52 100.68C102.645 100.232 101.952 99.6347 101.44 98.888C100.949 98.1413 100.704 97.2987 100.704 96.36C100.704 95.208 101.003 94.3013 101.6 93.64C102.197 92.9573 103.168 92.4667 104.512 92.168C105.856 91.8693 107.659 91.72 109.92 91.72H111.04V91.048C111.04 89.9813 110.805 89.2133 110.336 88.744C109.867 88.2747 109.077 88.04 107.968 88.04C107.349 88.04 106.677 88.1147 105.952 88.264C105.248 88.4133 104.501 88.6693 103.712 89.032C103.2 89.2667 102.773 89.2987 102.432 89.128C102.091 88.936 101.856 88.648 101.728 88.264C101.621 87.8587 101.643 87.4533 101.792 87.048C101.963 86.6427 102.293 86.344 102.784 86.152C103.765 85.7467 104.704 85.4587 105.6 85.288C106.517 85.1173 107.349 85.032 108.096 85.032C110.379 85.032 112.075 85.5653 113.184 86.632C114.293 87.6773 114.848 89.3093 114.848 91.528V99.208C114.848 100.573 114.229 101.256 112.992 101.256C111.733 101.256 111.104 100.573 111.104 99.208V98.504C110.741 99.3787 110.165 100.072 109.376 100.584C108.587 101.075 107.648 101.32 106.56 101.32ZM107.392 98.568C108.437 98.568 109.301 98.2053 109.984 97.48C110.688 96.7547 111.04 95.8373 111.04 94.728V94.024H109.952C107.947 94.024 106.549 94.184 105.76 94.504C104.992 94.8027 104.608 95.3573 104.608 96.168C104.608 96.872 104.853 97.448 105.344 97.896C105.835 98.344 106.517 98.568 107.392 98.568ZM124.924 101.32C123.559 101.32 122.353 100.989 121.308 100.328C120.284 99.6667 119.484 98.728 118.908 97.512C118.332 96.2747 118.044 94.824 118.044 93.16C118.044 91.4747 118.332 90.0347 118.908 88.84C119.484 87.624 120.284 86.6853 121.308 86.024C122.353 85.3627 123.559 85.032 124.924 85.032C126.033 85.032 127.036 85.2773 127.932 85.768C128.828 86.2587 129.5 86.9093 129.948 87.72V80.2C129.948 78.856 130.609 78.184 131.932 78.184C133.276 78.184 133.948 78.856 133.948 80.2V99.208C133.948 100.573 133.287 101.256 131.964 101.256C130.641 101.256 129.98 100.573 129.98 99.208V98.536C129.532 99.3893 128.86 100.072 127.964 100.584C127.068 101.075 126.055 101.32 124.924 101.32ZM126.044 98.28C127.239 98.28 128.199 97.8533 128.924 97C129.649 96.1253 130.012 94.8453 130.012 93.16C130.012 91.4533 129.649 90.184 128.924 89.352C128.199 88.4987 127.239 88.072 126.044 88.072C124.849 88.072 123.889 88.4987 123.164 89.352C122.439 90.184 122.076 91.4533 122.076 93.16C122.076 94.8453 122.439 96.1253 123.164 97C123.889 97.8533 124.849 98.28 126.044 98.28ZM149.343 101C147.892 101 147.167 100.275 147.167 98.824V80.616C147.167 79.1653 147.892 78.44 149.343 78.44H160.767C161.876 78.44 162.431 78.9733 162.431 80.04C162.431 81.1493 161.876 81.704 160.767 81.704H151.103V87.912H160.063C161.172 87.912 161.727 88.456 161.727 89.544C161.727 90.632 161.172 91.176 160.063 91.176H151.103V97.736H160.767C161.876 97.736 162.431 98.28 162.431 99.368C162.431 100.456 161.876 101 160.767 101H149.343ZM167.861 101.256C166.538 101.256 165.877 100.573 165.877 99.208V87.112C165.877 85.768 166.528 85.096 167.829 85.096C169.13 85.096 169.781 85.768 169.781 87.112V87.784C170.314 86.888 171.029 86.2053 171.925 85.736C172.842 85.2667 173.866 85.032 174.997 85.032C178.688 85.032 180.533 87.176 180.533 91.464V99.208C180.533 100.573 179.872 101.256 178.549 101.256C177.205 101.256 176.533 100.573 176.533 99.208V91.656C176.533 90.44 176.298 89.5547 175.829 89C175.381 88.4453 174.677 88.168 173.717 88.168C172.544 88.168 171.605 88.5413 170.901 89.288C170.218 90.0133 169.877 90.984 169.877 92.2V99.208C169.877 100.573 169.205 101.256 167.861 101.256ZM191.764 101.32C187.625 101.32 185.556 99.272 185.556 95.176V88.36H183.892C182.825 88.36 182.292 87.8587 182.292 86.856C182.292 85.8533 182.825 85.352 183.892 85.352H185.556V82.44C185.556 81.096 186.228 80.424 187.572 80.424C188.894 80.424 189.556 81.096 189.556 82.44V85.352H192.948C194.014 85.352 194.548 85.8533 194.548 86.856C194.548 87.8587 194.014 88.36 192.948 88.36H189.556V94.952C189.556 95.976 189.78 96.744 190.228 97.256C190.676 97.768 191.401 98.024 192.404 98.024C192.766 98.024 193.086 97.992 193.364 97.928C193.641 97.864 193.886 97.8213 194.1 97.8C194.356 97.7787 194.569 97.864 194.74 98.056C194.91 98.2267 194.996 98.5893 194.996 99.144C194.996 99.5707 194.921 99.9547 194.772 100.296C194.644 100.616 194.398 100.84 194.036 100.968C193.758 101.053 193.396 101.128 192.948 101.192C192.5 101.277 192.105 101.32 191.764 101.32ZM199.267 82.152C198.52 82.152 197.934 81.9707 197.507 81.608C197.102 81.224 196.899 80.7013 196.899 80.04C196.899 79.3573 197.102 78.8347 197.507 78.472C197.934 78.1093 198.52 77.928 199.267 77.928C200.846 77.928 201.635 78.632 201.635 80.04C201.635 81.448 200.846 82.152 199.267 82.152ZM199.267 101.224C198.627 101.224 198.136 101.032 197.795 100.648C197.454 100.264 197.283 99.7307 197.283 99.048V87.304C197.283 85.8533 197.944 85.128 199.267 85.128C200.611 85.128 201.283 85.8533 201.283 87.304V99.048C201.283 99.7307 201.112 100.264 200.771 100.648C200.43 101.032 199.928 101.224 199.267 101.224ZM207.487 101.256C206.122 101.256 205.439 100.573 205.439 99.208V87.112C205.439 85.768 206.09 85.096 207.391 85.096C208.693 85.096 209.343 85.768 209.343 87.112V88.104C210.111 86.2693 211.754 85.2453 214.271 85.032C215.189 84.9253 215.701 85.448 215.807 86.6C215.914 87.7307 215.359 88.36 214.143 88.488L213.439 88.552C210.815 88.808 209.503 90.152 209.503 92.584V99.208C209.503 100.573 208.831 101.256 207.487 101.256ZM225.433 101.32C223.662 101.32 222.137 100.989 220.857 100.328C219.577 99.6667 218.585 98.728 217.881 97.512C217.198 96.296 216.857 94.856 216.857 93.192C216.857 91.5707 217.187 90.152 217.849 88.936C218.531 87.72 219.459 86.7707 220.633 86.088C221.827 85.384 223.182 85.032 224.697 85.032C226.915 85.032 228.665 85.736 229.945 87.144C231.246 88.552 231.897 90.472 231.897 92.904C231.897 93.6933 231.385 94.088 230.361 94.088H220.697C220.995 96.8827 222.595 98.28 225.497 98.28C226.051 98.28 226.67 98.216 227.353 98.088C228.057 97.9387 228.718 97.6933 229.337 97.352C229.891 97.032 230.361 96.936 230.745 97.064C231.129 97.1707 231.395 97.3947 231.545 97.736C231.715 98.0773 231.737 98.4613 231.609 98.888C231.502 99.2933 231.203 99.6453 230.713 99.944C229.966 100.413 229.102 100.765 228.121 101C227.161 101.213 226.265 101.32 225.433 101.32ZM224.857 87.752C223.683 87.752 222.734 88.1147 222.009 88.84C221.283 89.5653 220.846 90.5467 220.697 91.784H228.569C228.483 90.4827 228.121 89.4907 227.481 88.808C226.862 88.104 225.987 87.752 224.857 87.752ZM53.6319 145.32C51.2852 145.32 49.2692 144.851 47.5839 143.912C45.9199 142.952 44.6399 141.608 43.7439 139.88C42.8479 138.131 42.3999 136.072 42.3999 133.704C42.3999 131.336 42.8479 129.288 43.7439 127.56C44.6399 125.832 45.9199 124.499 47.5839 123.56C49.2692 122.6 51.2852 122.12 53.6319 122.12C54.8052 122.12 55.9572 122.269 57.0879 122.568C58.2185 122.867 59.2105 123.293 60.0639 123.848C60.6185 124.211 60.9492 124.648 61.0559 125.16C61.1625 125.651 61.0985 126.109 60.8639 126.536C60.6292 126.941 60.2772 127.219 59.8079 127.368C59.3385 127.496 58.8159 127.368 58.2399 126.984C57.5785 126.557 56.8639 126.248 56.0959 126.056C55.3279 125.864 54.5492 125.768 53.7599 125.768C51.4772 125.768 49.7385 126.461 48.5439 127.848C47.3492 129.213 46.7519 131.165 46.7519 133.704C46.7519 136.243 47.3492 138.205 48.5439 139.592C49.7385 140.979 51.4772 141.672 53.7599 141.672C54.5705 141.672 55.3705 141.576 56.1599 141.384C56.9492 141.171 57.6959 140.851 58.3999 140.424C58.9759 140.061 59.4879 139.944 59.9359 140.072C60.3839 140.2 60.7145 140.467 60.9279 140.872C61.1625 141.256 61.2372 141.683 61.1519 142.152C61.0665 142.621 60.7785 143.037 60.2879 143.4C59.4345 144.019 58.4105 144.499 57.2159 144.84C56.0425 145.16 54.8479 145.32 53.6319 145.32ZM69.0914 145.32C67.9607 145.32 66.9474 145.107 66.0514 144.68C65.1767 144.232 64.4834 143.635 63.9714 142.888C63.4807 142.141 63.2354 141.299 63.2354 140.36C63.2354 139.208 63.534 138.301 64.1314 137.64C64.7287 136.957 65.6994 136.467 67.0434 136.168C68.3874 135.869 70.19 135.72 72.4514 135.72H73.5714V135.048C73.5714 133.981 73.3367 133.213 72.8674 132.744C72.398 132.275 71.6087 132.04 70.4994 132.04C69.8807 132.04 69.2087 132.115 68.4834 132.264C67.7794 132.413 67.0327 132.669 66.2434 133.032C65.7314 133.267 65.3047 133.299 64.9634 133.128C64.622 132.936 64.3874 132.648 64.2594 132.264C64.1527 131.859 64.174 131.453 64.3234 131.048C64.494 130.643 64.8247 130.344 65.3154 130.152C66.2967 129.747 67.2354 129.459 68.1314 129.288C69.0487 129.117 69.8807 129.032 70.6274 129.032C72.91 129.032 74.606 129.565 75.7154 130.632C76.8247 131.677 77.3794 133.309 77.3794 135.528V143.208C77.3794 144.573 76.7607 145.256 75.5234 145.256C74.2647 145.256 73.6354 144.573 73.6354 143.208V142.504C73.2727 143.379 72.6967 144.072 71.9074 144.584C71.118 145.075 70.1794 145.32 69.0914 145.32ZM69.9234 142.568C70.9687 142.568 71.8327 142.205 72.5154 141.48C73.2194 140.755 73.5714 139.837 73.5714 138.728V138.024H72.4834C70.478 138.024 69.0807 138.184 68.2914 138.504C67.5234 138.803 67.1394 139.357 67.1394 140.168C67.1394 140.872 67.3847 141.448 67.8754 141.896C68.366 142.344 69.0487 142.568 69.9234 142.568ZM87.1674 145.32C86.25 145.32 85.2794 145.224 84.2554 145.032C83.2314 144.84 82.314 144.509 81.5034 144.04C81.0554 143.784 80.778 143.475 80.6714 143.112C80.5647 142.728 80.5754 142.376 80.7034 142.056C80.8527 141.715 81.0874 141.469 81.4074 141.32C81.7487 141.171 82.1434 141.203 82.5914 141.416C83.4447 141.821 84.2447 142.109 84.9914 142.28C85.738 142.429 86.474 142.504 87.1994 142.504C88.2234 142.504 88.9807 142.333 89.4714 141.992C89.9834 141.629 90.2394 141.16 90.2394 140.584C90.2394 139.688 89.578 139.112 88.2554 138.856L85.0554 138.248C82.346 137.736 80.9914 136.328 80.9914 134.024C80.9914 133 81.2687 132.115 81.8234 131.368C82.3994 130.621 83.1887 130.045 84.1914 129.64C85.194 129.235 86.346 129.032 87.6474 129.032C89.5247 129.032 91.1994 129.448 92.6714 130.28C93.0767 130.493 93.3114 130.792 93.3754 131.176C93.4607 131.539 93.418 131.891 93.2474 132.232C93.098 132.552 92.8527 132.787 92.5114 132.936C92.17 133.064 91.7754 133.021 91.3274 132.808C90.666 132.467 90.026 132.221 89.4074 132.072C88.81 131.923 88.234 131.848 87.6794 131.848C86.634 131.848 85.8554 132.029 85.3434 132.392C84.8527 132.755 84.6074 133.235 84.6074 133.832C84.6074 134.771 85.2154 135.347 86.4314 135.56L89.6314 136.168C91.018 136.424 92.0634 136.893 92.7674 137.576C93.4927 138.259 93.8554 139.176 93.8554 140.328C93.8554 141.885 93.2474 143.112 92.0314 144.008C90.8154 144.883 89.194 145.32 87.1674 145.32ZM104.776 145.32C103.006 145.32 101.48 144.989 100.2 144.328C98.9204 143.667 97.9284 142.728 97.2244 141.512C96.5417 140.296 96.2004 138.856 96.2004 137.192C96.2004 135.571 96.531 134.152 97.1924 132.936C97.875 131.72 98.803 130.771 99.9764 130.088C101.171 129.384 102.526 129.032 104.04 129.032C106.259 129.032 108.008 129.736 109.288 131.144C110.59 132.552 111.24 134.472 111.24 136.904C111.24 137.693 110.728 138.088 109.704 138.088H100.04C100.339 140.883 101.939 142.28 104.84 142.28C105.395 142.28 106.014 142.216 106.696 142.088C107.4 141.939 108.062 141.693 108.68 141.352C109.235 141.032 109.704 140.936 110.088 141.064C110.472 141.171 110.739 141.395 110.888 141.736C111.059 142.077 111.08 142.461 110.952 142.888C110.846 143.293 110.547 143.645 110.056 143.944C109.31 144.413 108.446 144.765 107.464 145C106.504 145.213 105.608 145.32 104.776 145.32ZM104.2 131.752C103.027 131.752 102.078 132.115 101.352 132.84C100.627 133.565 100.19 134.547 100.04 135.784H107.912C107.827 134.483 107.464 133.491 106.824 132.808C106.206 132.104 105.331 131.752 104.2 131.752ZM125.592 145.256C124.184 145.256 123.48 144.531 123.48 143.08V124.616C123.48 123.165 124.205 122.44 125.656 122.44H136.824C137.933 122.44 138.488 122.973 138.488 124.04C138.488 125.149 137.933 125.704 136.824 125.704H127.576V132.072H136.152C137.261 132.072 137.816 132.605 137.816 133.672C137.816 134.781 137.261 135.336 136.152 135.336H127.576V143.08C127.576 144.531 126.914 145.256 125.592 145.256ZM144.33 126.152C143.583 126.152 142.996 125.971 142.57 125.608C142.164 125.224 141.962 124.701 141.962 124.04C141.962 123.357 142.164 122.835 142.57 122.472C142.996 122.109 143.583 121.928 144.33 121.928C145.908 121.928 146.698 122.632 146.698 124.04C146.698 125.448 145.908 126.152 144.33 126.152ZM144.33 145.224C143.69 145.224 143.199 145.032 142.858 144.648C142.516 144.264 142.346 143.731 142.346 143.048V131.304C142.346 129.853 143.007 129.128 144.33 129.128C145.674 129.128 146.346 129.853 146.346 131.304V143.048C146.346 143.731 146.175 144.264 145.834 144.648C145.492 145.032 144.991 145.224 144.33 145.224ZM155.846 145.32C152.283 145.32 150.502 143.325 150.502 139.336V124.2C150.502 122.856 151.163 122.184 152.486 122.184C153.83 122.184 154.502 122.856 154.502 124.2V139.144C154.502 141.064 155.302 142.024 156.902 142.024C157.073 142.024 157.233 142.024 157.382 142.024C157.531 142.003 157.681 141.981 157.83 141.96C158.129 141.917 158.331 142.003 158.438 142.216C158.545 142.408 158.598 142.813 158.598 143.432C158.598 143.965 158.491 144.381 158.278 144.68C158.065 144.979 157.713 145.16 157.222 145.224C156.774 145.288 156.315 145.32 155.846 145.32ZM168.276 145.32C166.506 145.32 164.98 144.989 163.7 144.328C162.42 143.667 161.428 142.728 160.724 141.512C160.042 140.296 159.7 138.856 159.7 137.192C159.7 135.571 160.031 134.152 160.692 132.936C161.375 131.72 162.303 130.771 163.476 130.088C164.671 129.384 166.026 129.032 167.54 129.032C169.759 129.032 171.508 129.736 172.788 131.144C174.09 132.552 174.74 134.472 174.74 136.904C174.74 137.693 174.228 138.088 173.204 138.088H163.54C163.839 140.883 165.439 142.28 168.34 142.28C168.895 142.28 169.514 142.216 170.196 142.088C170.9 141.939 171.562 141.693 172.18 141.352C172.735 141.032 173.204 140.936 173.588 141.064C173.972 141.171 174.239 141.395 174.388 141.736C174.559 142.077 174.58 142.461 174.452 142.888C174.346 143.293 174.047 143.645 173.556 143.944C172.81 144.413 171.946 144.765 170.964 145C170.004 145.213 169.108 145.32 168.276 145.32ZM167.7 131.752C166.527 131.752 165.578 132.115 164.852 132.84C164.127 133.565 163.69 134.547 163.54 135.784H171.412C171.327 134.483 170.964 133.491 170.324 132.808C169.706 132.104 168.831 131.752 167.7 131.752ZM194.468 145.256C193.102 145.256 192.42 144.552 192.42 143.144V125.864H186.18C185.006 125.864 184.42 125.288 184.42 124.136C184.42 123.005 185.006 122.44 186.18 122.44H202.756C203.929 122.44 204.516 123.005 204.516 124.136C204.516 125.288 203.929 125.864 202.756 125.864H196.516V143.144C196.516 144.552 195.833 145.256 194.468 145.256ZM211.107 145.32C209.485 145.32 208.077 144.989 206.883 144.328C205.688 143.667 204.76 142.728 204.099 141.512C203.437 140.275 203.107 138.824 203.107 137.16C203.107 135.496 203.437 134.056 204.099 132.84C204.76 131.624 205.688 130.685 206.883 130.024C208.077 129.363 209.485 129.032 211.107 129.032C212.728 129.032 214.136 129.363 215.331 130.024C216.525 130.685 217.453 131.624 218.115 132.84C218.776 134.056 219.107 135.496 219.107 137.16C219.107 138.824 218.776 140.275 218.115 141.512C217.453 142.728 216.525 143.667 215.331 144.328C214.136 144.989 212.728 145.32 211.107 145.32ZM211.107 142.28C212.301 142.28 213.261 141.853 213.987 141C214.712 140.125 215.075 138.845 215.075 137.16C215.075 135.453 214.712 134.184 213.987 133.352C213.261 132.499 212.301 132.072 211.107 132.072C209.912 132.072 208.952 132.499 208.227 133.352C207.501 134.184 207.139 135.453 207.139 137.16C207.139 138.845 207.501 140.125 208.227 141C208.952 141.853 209.912 142.28 211.107 142.28ZM64.4838 189C63.0331 189 62.3078 188.275 62.3078 186.824V168.616C62.3078 167.165 63.0331 166.44 64.4838 166.44H70.6918C74.4678 166.44 77.3798 167.411 79.4278 169.352C81.4971 171.293 82.5318 174.077 82.5318 177.704C82.5318 181.309 81.4971 184.093 79.4278 186.056C77.3798 188.019 74.4678 189 70.6918 189H64.4838ZM66.4038 185.608H70.4358C75.6411 185.608 78.2438 182.973 78.2438 177.704C78.2438 172.456 75.6411 169.832 70.4358 169.832H66.4038V185.608ZM91.4508 189.32C90.3201 189.32 89.3068 189.107 88.4108 188.68C87.5361 188.232 86.8428 187.635 86.3307 186.888C85.8401 186.141 85.5948 185.299 85.5948 184.36C85.5948 183.208 85.8934 182.301 86.4908 181.64C87.0881 180.957 88.0588 180.467 89.4028 180.168C90.7468 179.869 92.5494 179.72 94.8108 179.72H95.9308V179.048C95.9308 177.981 95.6961 177.213 95.2268 176.744C94.7574 176.275 93.9681 176.04 92.8588 176.04C92.2401 176.04 91.5681 176.115 90.8428 176.264C90.1388 176.413 89.3921 176.669 88.6028 177.032C88.0908 177.267 87.6641 177.299 87.3228 177.128C86.9814 176.936 86.7468 176.648 86.6188 176.264C86.5121 175.859 86.5334 175.453 86.6828 175.048C86.8534 174.643 87.1841 174.344 87.6748 174.152C88.6561 173.747 89.5948 173.459 90.4908 173.288C91.4081 173.117 92.2401 173.032 92.9868 173.032C95.2694 173.032 96.9654 173.565 98.0748 174.632C99.1841 175.677 99.7388 177.309 99.7388 179.528V187.208C99.7388 188.573 99.1201 189.256 97.8828 189.256C96.6241 189.256 95.9948 188.573 95.9948 187.208V186.504C95.6321 187.379 95.0561 188.072 94.2668 188.584C93.4774 189.075 92.5388 189.32 91.4508 189.32ZM92.2828 186.568C93.3281 186.568 94.1921 186.205 94.8748 185.48C95.5788 184.755 95.9308 183.837 95.9308 182.728V182.024H94.8428C92.8374 182.024 91.4401 182.184 90.6508 182.504C89.8828 182.803 89.4988 183.357 89.4988 184.168C89.4988 184.872 89.7441 185.448 90.2348 185.896C90.7254 186.344 91.4081 186.568 92.2828 186.568ZM110.967 189.32C106.828 189.32 104.759 187.272 104.759 183.176V176.36H103.095C102.028 176.36 101.495 175.859 101.495 174.856C101.495 173.853 102.028 173.352 103.095 173.352H104.759V170.44C104.759 169.096 105.431 168.424 106.775 168.424C108.097 168.424 108.759 169.096 108.759 170.44V173.352H112.151C113.217 173.352 113.751 173.853 113.751 174.856C113.751 175.859 113.217 176.36 112.151 176.36H108.759V182.952C108.759 183.976 108.983 184.744 109.431 185.256C109.879 185.768 110.604 186.024 111.607 186.024C111.969 186.024 112.289 185.992 112.567 185.928C112.844 185.864 113.089 185.821 113.303 185.8C113.559 185.779 113.772 185.864 113.943 186.056C114.113 186.227 114.199 186.589 114.199 187.144C114.199 187.571 114.124 187.955 113.975 188.296C113.847 188.616 113.601 188.84 113.239 188.968C112.961 189.053 112.599 189.128 112.151 189.192C111.703 189.277 111.308 189.32 110.967 189.32ZM121.232 189.32C120.101 189.32 119.088 189.107 118.192 188.68C117.317 188.232 116.624 187.635 116.112 186.888C115.621 186.141 115.376 185.299 115.376 184.36C115.376 183.208 115.675 182.301 116.272 181.64C116.869 180.957 117.84 180.467 119.184 180.168C120.528 179.869 122.331 179.72 124.592 179.72H125.712V179.048C125.712 177.981 125.477 177.213 125.008 176.744C124.539 176.275 123.749 176.04 122.64 176.04C122.021 176.04 121.349 176.115 120.624 176.264C119.92 176.413 119.173 176.669 118.384 177.032C117.872 177.267 117.445 177.299 117.104 177.128C116.763 176.936 116.528 176.648 116.4 176.264C116.293 175.859 116.315 175.453 116.464 175.048C116.635 174.643 116.965 174.344 117.456 174.152C118.437 173.747 119.376 173.459 120.272 173.288C121.189 173.117 122.021 173.032 122.768 173.032C125.051 173.032 126.747 173.565 127.856 174.632C128.965 175.677 129.52 177.309 129.52 179.528V187.208C129.52 188.573 128.901 189.256 127.664 189.256C126.405 189.256 125.776 188.573 125.776 187.208V186.504C125.413 187.379 124.837 188.072 124.048 188.584C123.259 189.075 122.32 189.32 121.232 189.32ZM122.064 186.568C123.109 186.568 123.973 186.205 124.656 185.48C125.36 184.755 125.712 183.837 125.712 182.728V182.024H124.624C122.619 182.024 121.221 182.184 120.432 182.504C119.664 182.803 119.28 183.357 119.28 184.168C119.28 184.872 119.525 185.448 120.016 185.896C120.507 186.344 121.189 186.568 122.064 186.568ZM142.604 189.32C141.452 189.32 140.428 189.075 139.532 188.584C138.636 188.072 137.964 187.389 137.516 186.536V187.208C137.516 188.573 136.865 189.256 135.564 189.256C134.241 189.256 133.58 188.573 133.58 187.208V168.2C133.58 166.856 134.241 166.184 135.564 166.184C136.908 166.184 137.58 166.856 137.58 168.2V175.656C138.049 174.867 138.721 174.237 139.596 173.768C140.492 173.277 141.495 173.032 142.604 173.032C143.991 173.032 145.196 173.363 146.22 174.024C147.244 174.685 148.044 175.624 148.62 176.84C149.196 178.035 149.484 179.475 149.484 181.16C149.484 182.824 149.196 184.275 148.62 185.512C148.044 186.728 147.233 187.667 146.188 188.328C145.164 188.989 143.969 189.32 142.604 189.32ZM141.484 186.28C142.679 186.28 143.639 185.853 144.364 185C145.089 184.125 145.452 182.845 145.452 181.16C145.452 179.453 145.089 178.184 144.364 177.352C143.639 176.499 142.679 176.072 141.484 176.072C140.289 176.072 139.329 176.499 138.604 177.352C137.879 178.184 137.516 179.453 137.516 181.16C137.516 182.845 137.879 184.125 138.604 185C139.329 185.853 140.289 186.28 141.484 186.28ZM157.92 189.32C156.789 189.32 155.776 189.107 154.88 188.68C154.005 188.232 153.312 187.635 152.799 186.888C152.309 186.141 152.064 185.299 152.064 184.36C152.064 183.208 152.362 182.301 152.96 181.64C153.557 180.957 154.528 180.467 155.872 180.168C157.216 179.869 159.018 179.72 161.28 179.72H162.4V179.048C162.4 177.981 162.165 177.213 161.696 176.744C161.226 176.275 160.437 176.04 159.328 176.04C158.709 176.04 158.037 176.115 157.312 176.264C156.608 176.413 155.861 176.669 155.072 177.032C154.56 177.267 154.133 177.299 153.792 177.128C153.45 176.936 153.216 176.648 153.088 176.264C152.981 175.859 153.002 175.453 153.152 175.048C153.322 174.643 153.653 174.344 154.144 174.152C155.125 173.747 156.064 173.459 156.96 173.288C157.877 173.117 158.709 173.032 159.456 173.032C161.738 173.032 163.434 173.565 164.544 174.632C165.653 175.677 166.208 177.309 166.208 179.528V187.208C166.208 188.573 165.589 189.256 164.352 189.256C163.093 189.256 162.464 188.573 162.464 187.208V186.504C162.101 187.379 161.525 188.072 160.736 188.584C159.946 189.075 159.008 189.32 157.92 189.32ZM158.752 186.568C159.797 186.568 160.661 186.205 161.344 185.48C162.048 184.755 162.4 183.837 162.4 182.728V182.024H161.312C159.306 182.024 157.909 182.184 157.12 182.504C156.352 182.803 155.968 183.357 155.968 184.168C155.968 184.872 156.213 185.448 156.704 185.896C157.194 186.344 157.877 186.568 158.752 186.568ZM175.996 189.32C175.078 189.32 174.108 189.224 173.084 189.032C172.06 188.84 171.142 188.509 170.332 188.04C169.884 187.784 169.606 187.475 169.5 187.112C169.393 186.728 169.404 186.376 169.532 186.056C169.681 185.715 169.916 185.469 170.236 185.32C170.577 185.171 170.972 185.203 171.42 185.416C172.273 185.821 173.073 186.109 173.82 186.28C174.566 186.429 175.302 186.504 176.028 186.504C177.052 186.504 177.809 186.333 178.3 185.992C178.812 185.629 179.068 185.16 179.068 184.584C179.068 183.688 178.406 183.112 177.084 182.856L173.884 182.248C171.174 181.736 169.82 180.328 169.82 178.024C169.82 177 170.097 176.115 170.652 175.368C171.228 174.621 172.017 174.045 173.02 173.64C174.022 173.235 175.174 173.032 176.476 173.032C178.353 173.032 180.028 173.448 181.5 174.28C181.905 174.493 182.14 174.792 182.204 175.176C182.289 175.539 182.246 175.891 182.076 176.232C181.926 176.552 181.681 176.787 181.34 176.936C180.998 177.064 180.604 177.021 180.156 176.808C179.494 176.467 178.854 176.221 178.236 176.072C177.638 175.923 177.062 175.848 176.508 175.848C175.462 175.848 174.684 176.029 174.172 176.392C173.681 176.755 173.436 177.235 173.436 177.832C173.436 178.771 174.044 179.347 175.26 179.56L178.46 180.168C179.846 180.424 180.892 180.893 181.596 181.576C182.321 182.259 182.684 183.176 182.684 184.328C182.684 185.885 182.076 187.112 180.86 188.008C179.644 188.883 178.022 189.32 175.996 189.32ZM193.605 189.32C191.834 189.32 190.309 188.989 189.029 188.328C187.749 187.667 186.757 186.728 186.053 185.512C185.37 184.296 185.029 182.856 185.029 181.192C185.029 179.571 185.359 178.152 186.021 176.936C186.703 175.72 187.631 174.771 188.805 174.088C189.999 173.384 191.354 173.032 192.869 173.032C195.087 173.032 196.837 173.736 198.117 175.144C199.418 176.552 200.069 178.472 200.069 180.904C200.069 181.693 199.557 182.088 198.533 182.088H188.869C189.167 184.883 190.767 186.28 193.669 186.28C194.223 186.28 194.842 186.216 195.525 186.088C196.229 185.939 196.89 185.693 197.509 185.352C198.063 185.032 198.533 184.936 198.917 185.064C199.301 185.171 199.567 185.395 199.717 185.736C199.887 186.077 199.909 186.461 199.781 186.888C199.674 187.293 199.375 187.645 198.885 187.944C198.138 188.413 197.274 188.765 196.293 189C195.333 189.213 194.437 189.32 193.605 189.32ZM193.029 175.752C191.855 175.752 190.906 176.115 190.181 176.84C189.455 177.565 189.018 178.547 188.869 179.784H196.741C196.655 178.483 196.293 177.491 195.653 176.808C195.034 176.104 194.159 175.752 193.029 175.752Z" fill="black"/>
</svg>
