<svg width="360" height="193" viewBox="0 0 360 193" fill="none" xmlns="http://www.w3.org/2000/svg">
<mask id="path-1-inside-1" fill="white">
<path fill-rule="evenodd" clip-rule="evenodd" d="M268.581 9.6061C246.695 23.6594 220.58 31.8227 192.535 31.8227C158.628 31.8227 127.541 19.8896 103.339 0.0410156L0.767578 129.008C51.5404 168.448 113.742 190.814 178.289 192.84C242.836 194.865 306.348 176.444 359.55 140.266L268.581 9.6061Z"/>
</mask>
<path fill-rule="evenodd" clip-rule="evenodd" d="M268.581 9.6061C246.695 23.6594 220.58 31.8227 192.535 31.8227C158.628 31.8227 127.541 19.8896 103.339 0.0410156L0.767578 129.008C51.5404 168.448 113.742 190.814 178.289 192.84C242.836 194.865 306.348 176.444 359.55 140.266L268.581 9.6061Z" fill="#8EC951"/>
<path d="M268.581 9.6061L271.864 7.32057L269.662 4.15828L266.42 6.24025L268.581 9.6061ZM103.339 0.0410156L105.876 -3.05186L102.736 -5.62678L100.208 -2.44884L103.339 0.0410156ZM0.767578 129.008L-2.36302 126.518L-4.88155 129.685L-1.68626 132.167L0.767578 129.008ZM359.55 140.266L361.799 143.574L365.143 141.3L362.833 137.981L359.55 140.266ZM266.42 6.24025C245.161 19.8905 219.793 27.8227 192.535 27.8227V35.8227C221.366 35.8227 248.229 27.4283 270.742 12.9719L266.42 6.24025ZM192.535 27.8227C159.582 27.8227 129.385 16.2288 105.876 -3.05186L100.802 3.13389C125.697 23.5504 157.674 35.8227 192.535 35.8227V27.8227ZM100.208 -2.44884L-2.36302 126.518L3.89817 131.498L106.47 2.53087L100.208 -2.44884ZM-1.68626 132.167C49.7576 172.129 112.775 194.786 178.163 196.838L178.414 188.842C114.708 186.843 53.3231 164.768 3.22141 125.849L-1.68626 132.167ZM178.163 196.838C243.552 198.89 307.895 180.229 361.799 143.574L357.301 136.959C304.8 172.659 242.12 190.841 178.414 188.842L178.163 196.838ZM362.833 137.981L271.864 7.32057L265.298 11.8916L356.267 142.552L362.833 137.981Z" fill="white" mask="url(#path-1-inside-1)"/>
<path d="M102.268 113.24C101.568 113.24 101.068 113 100.768 112.52C100.468 112.04 100.478 111.46 100.798 110.78L108.718 93.23C108.978 92.65 109.288 92.24 109.648 92C110.028 91.74 110.458 91.61 110.938 91.61C111.398 91.61 111.808 91.74 112.168 92C112.548 92.24 112.868 92.65 113.128 93.23L121.078 110.78C121.398 111.48 121.418 112.07 121.138 112.55C120.858 113.01 120.378 113.24 119.698 113.24C119.138 113.24 118.698 113.11 118.378 112.85C118.078 112.57 117.808 112.15 117.568 111.59L116.068 108.11H105.748L104.278 111.59C104.018 112.17 103.748 112.59 103.468 112.85C103.188 113.11 102.788 113.24 102.268 113.24ZM110.878 96.02L107.068 105.05H114.748L110.938 96.02H110.878ZM125.882 113.24C124.642 113.24 124.022 112.6 124.022 111.32V99.98C124.022 98.72 124.632 98.09 125.852 98.09C127.072 98.09 127.682 98.72 127.682 99.98V100.61C128.182 99.77 128.852 99.13 129.692 98.69C130.552 98.25 131.512 98.03 132.572 98.03C136.032 98.03 137.762 100.04 137.762 104.06V111.32C137.762 112.6 137.142 113.24 135.902 113.24C134.642 113.24 134.012 112.6 134.012 111.32V104.24C134.012 103.1 133.792 102.27 133.352 101.75C132.932 101.23 132.272 100.97 131.372 100.97C130.272 100.97 129.392 101.32 128.732 102.02C128.092 102.7 127.772 103.61 127.772 104.75V111.32C127.772 112.6 127.142 113.24 125.882 113.24ZM143.431 113.24C142.191 113.24 141.571 112.6 141.571 111.32V99.98C141.571 98.72 142.181 98.09 143.401 98.09C144.621 98.09 145.231 98.72 145.231 99.98V100.61C145.731 99.77 146.401 99.13 147.241 98.69C148.101 98.25 149.061 98.03 150.121 98.03C153.581 98.03 155.311 100.04 155.311 104.06V111.32C155.311 112.6 154.691 113.24 153.451 113.24C152.191 113.24 151.561 112.6 151.561 111.32V104.24C151.561 103.1 151.341 102.27 150.901 101.75C150.481 101.23 149.821 100.97 148.921 100.97C147.821 100.97 146.941 101.32 146.281 102.02C145.641 102.7 145.321 103.61 145.321 104.75V111.32C145.321 112.6 144.691 113.24 143.431 113.24ZM165.81 113.3C164.29 113.3 162.97 112.99 161.85 112.37C160.73 111.75 159.86 110.87 159.24 109.73C158.62 108.57 158.31 107.21 158.31 105.65C158.31 104.09 158.62 102.74 159.24 101.6C159.86 100.46 160.73 99.58 161.85 98.96C162.97 98.34 164.29 98.03 165.81 98.03C167.33 98.03 168.65 98.34 169.77 98.96C170.89 99.58 171.76 100.46 172.38 101.6C173 102.74 173.31 104.09 173.31 105.65C173.31 107.21 173 108.57 172.38 109.73C171.76 110.87 170.89 111.75 169.77 112.37C168.65 112.99 167.33 113.3 165.81 113.3ZM165.81 110.45C166.93 110.45 167.83 110.05 168.51 109.25C169.19 108.43 169.53 107.23 169.53 105.65C169.53 104.05 169.19 102.86 168.51 102.08C167.83 101.28 166.93 100.88 165.81 100.88C164.69 100.88 163.79 101.28 163.11 102.08C162.43 102.86 162.09 104.05 162.09 105.65C162.09 107.23 162.43 108.43 163.11 109.25C163.79 110.05 164.69 110.45 165.81 110.45ZM182.979 113.3C179.099 113.3 177.159 111.38 177.159 107.54V101.15H175.599C174.599 101.15 174.099 100.68 174.099 99.74C174.099 98.8 174.599 98.33 175.599 98.33H177.159V95.6C177.159 94.34 177.789 93.71 179.049 93.71C180.289 93.71 180.909 94.34 180.909 95.6V98.33H184.089C185.089 98.33 185.589 98.8 185.589 99.74C185.589 100.68 185.089 101.15 184.089 101.15H180.909V107.33C180.909 108.29 181.119 109.01 181.539 109.49C181.959 109.97 182.639 110.21 183.579 110.21C183.919 110.21 184.219 110.18 184.479 110.12C184.739 110.06 184.969 110.02 185.169 110C185.409 109.98 185.609 110.06 185.769 110.24C185.929 110.4 186.009 110.74 186.009 111.26C186.009 111.66 185.939 112.02 185.799 112.34C185.679 112.64 185.449 112.85 185.109 112.97C184.849 113.05 184.509 113.12 184.089 113.18C183.669 113.26 183.299 113.3 182.979 113.3ZM192.602 113.3C191.542 113.3 190.592 113.1 189.752 112.7C188.932 112.28 188.282 111.72 187.802 111.02C187.342 110.32 187.112 109.53 187.112 108.65C187.112 107.57 187.392 106.72 187.952 106.1C188.512 105.46 189.422 105 190.682 104.72C191.942 104.44 193.632 104.3 195.752 104.3H196.802V103.67C196.802 102.67 196.582 101.95 196.142 101.51C195.702 101.07 194.962 100.85 193.922 100.85C193.342 100.85 192.712 100.92 192.032 101.06C191.372 101.2 190.672 101.44 189.932 101.78C189.452 102 189.052 102.03 188.732 101.87C188.412 101.69 188.192 101.42 188.072 101.06C187.972 100.68 187.992 100.3 188.132 99.92C188.292 99.54 188.602 99.26 189.062 99.08C189.982 98.7 190.862 98.43 191.702 98.27C192.562 98.11 193.342 98.03 194.042 98.03C196.182 98.03 197.772 98.53 198.812 99.53C199.852 100.51 200.372 102.04 200.372 104.12V111.32C200.372 112.6 199.792 113.24 198.632 113.24C197.452 113.24 196.862 112.6 196.862 111.32V110.66C196.522 111.48 195.982 112.13 195.242 112.61C194.502 113.07 193.622 113.3 192.602 113.3ZM193.382 110.72C194.362 110.72 195.172 110.38 195.812 109.7C196.472 109.02 196.802 108.16 196.802 107.12V106.46H195.782C193.902 106.46 192.592 106.61 191.852 106.91C191.132 107.19 190.772 107.71 190.772 108.47C190.772 109.13 191.002 109.67 191.462 110.09C191.922 110.51 192.562 110.72 193.382 110.72ZM210.899 113.3C207.019 113.3 205.079 111.38 205.079 107.54V101.15H203.519C202.519 101.15 202.019 100.68 202.019 99.74C202.019 98.8 202.519 98.33 203.519 98.33H205.079V95.6C205.079 94.34 205.709 93.71 206.969 93.71C208.209 93.71 208.829 94.34 208.829 95.6V98.33H212.009C213.009 98.33 213.509 98.8 213.509 99.74C213.509 100.68 213.009 101.15 212.009 101.15H208.829V107.33C208.829 108.29 209.039 109.01 209.459 109.49C209.879 109.97 210.559 110.21 211.499 110.21C211.839 110.21 212.139 110.18 212.399 110.12C212.659 110.06 212.889 110.02 213.089 110C213.329 109.98 213.529 110.06 213.689 110.24C213.849 110.4 213.929 110.74 213.929 111.26C213.929 111.66 213.859 112.02 213.719 112.34C213.599 112.64 213.369 112.85 213.029 112.97C212.769 113.05 212.429 113.12 212.009 113.18C211.589 113.26 211.219 113.3 210.899 113.3ZM217.933 95.33C217.233 95.33 216.683 95.16 216.283 94.82C215.903 94.46 215.713 93.97 215.713 93.35C215.713 92.71 215.903 92.22 216.283 91.88C216.683 91.54 217.233 91.37 217.933 91.37C219.413 91.37 220.153 92.03 220.153 93.35C220.153 94.67 219.413 95.33 217.933 95.33ZM217.933 113.21C217.333 113.21 216.873 113.03 216.553 112.67C216.233 112.31 216.073 111.81 216.073 111.17V100.16C216.073 98.8 216.693 98.12 217.933 98.12C219.193 98.12 219.823 98.8 219.823 100.16V111.17C219.823 111.81 219.663 112.31 219.343 112.67C219.023 113.03 218.553 113.21 217.933 113.21ZM230.41 113.3C228.89 113.3 227.57 112.99 226.45 112.37C225.33 111.75 224.46 110.87 223.84 109.73C223.22 108.57 222.91 107.21 222.91 105.65C222.91 104.09 223.22 102.74 223.84 101.6C224.46 100.46 225.33 99.58 226.45 98.96C227.57 98.34 228.89 98.03 230.41 98.03C231.93 98.03 233.25 98.34 234.37 98.96C235.49 99.58 236.36 100.46 236.98 101.6C237.6 102.74 237.91 104.09 237.91 105.65C237.91 107.21 237.6 108.57 236.98 109.73C236.36 110.87 235.49 111.75 234.37 112.37C233.25 112.99 231.93 113.3 230.41 113.3ZM230.41 110.45C231.53 110.45 232.43 110.05 233.11 109.25C233.79 108.43 234.13 107.23 234.13 105.65C234.13 104.05 233.79 102.86 233.11 102.08C232.43 101.28 231.53 100.88 230.41 100.88C229.29 100.88 228.39 101.28 227.71 102.08C227.03 102.86 226.69 104.05 226.69 105.65C226.69 107.23 227.03 108.43 227.71 109.25C228.39 110.05 229.29 110.45 230.41 110.45ZM242.865 113.24C241.625 113.24 241.005 112.6 241.005 111.32V99.98C241.005 98.72 241.615 98.09 242.835 98.09C244.055 98.09 244.665 98.72 244.665 99.98V100.61C245.165 99.77 245.835 99.13 246.675 98.69C247.535 98.25 248.495 98.03 249.555 98.03C253.015 98.03 254.745 100.04 254.745 104.06V111.32C254.745 112.6 254.125 113.24 252.885 113.24C251.625 113.24 250.995 112.6 250.995 111.32V104.24C250.995 103.1 250.775 102.27 250.335 101.75C249.915 101.23 249.255 100.97 248.355 100.97C247.255 100.97 246.375 101.32 245.715 102.02C245.075 102.7 244.755 103.61 244.755 104.75V111.32C244.755 112.6 244.125 113.24 242.865 113.24ZM263.924 113.3C263.064 113.3 262.154 113.21 261.194 113.03C260.234 112.85 259.374 112.54 258.614 112.1C258.194 111.86 257.934 111.57 257.834 111.23C257.734 110.87 257.744 110.54 257.864 110.24C258.004 109.92 258.224 109.69 258.524 109.55C258.844 109.41 259.214 109.44 259.634 109.64C260.434 110.02 261.184 110.29 261.884 110.45C262.584 110.59 263.274 110.66 263.954 110.66C264.914 110.66 265.624 110.5 266.084 110.18C266.564 109.84 266.804 109.4 266.804 108.86C266.804 108.02 266.184 107.48 264.944 107.24L261.944 106.67C259.404 106.19 258.134 104.87 258.134 102.71C258.134 101.75 258.394 100.92 258.914 100.22C259.454 99.52 260.194 98.98 261.134 98.6C262.074 98.22 263.154 98.03 264.374 98.03C266.134 98.03 267.704 98.42 269.084 99.2C269.464 99.4 269.684 99.68 269.744 100.04C269.824 100.38 269.784 100.71 269.624 101.03C269.484 101.33 269.254 101.55 268.934 101.69C268.614 101.81 268.244 101.77 267.824 101.57C267.204 101.25 266.604 101.02 266.024 100.88C265.464 100.74 264.924 100.67 264.404 100.67C263.424 100.67 262.694 100.84 262.214 101.18C261.754 101.52 261.524 101.97 261.524 102.53C261.524 103.41 262.094 103.95 263.234 104.15L266.234 104.72C267.534 104.96 268.514 105.4 269.174 106.04C269.854 106.68 270.194 107.54 270.194 108.62C270.194 110.08 269.624 111.23 268.484 112.07C267.344 112.89 265.824 113.3 263.924 113.3Z" fill="#00218A" fill-opacity="0.7"/>
</svg>
