<svg width="278" height="279" viewBox="0 0 278 279" fill="none" xmlns="http://www.w3.org/2000/svg">
<path d="M277.5 139.5C277.5 216.269 215.49 278.5 139 278.5C62.5103 278.5 0.5 216.269 0.5 139.5C0.5 62.7307 62.5103 0.5 139 0.5C215.49 0.5 277.5 62.7307 277.5 139.5Z" fill="white" stroke="white"/>
<path fill-rule="evenodd" clip-rule="evenodd" d="M256 212.262C234.061 250.744 190.177 277 139.619 277C71.6374 277 15.723 229.529 9 168.696C21.5673 161.886 42.0559 156.452 75.3872 156.016C120.844 155.423 148.302 171.208 174.398 186.21C198.425 200.023 221.298 213.172 256 212.262Z" fill="#52CC70" fill-opacity="0.8"/>
<path fill-rule="evenodd" clip-rule="evenodd" d="M269.208 168.238C248.303 150.358 226.022 135.115 190.328 139.885C159.338 144.026 136.854 160.433 114.221 176.95C92.8638 192.535 71.3735 208.218 42.4763 213.784C37.1509 214.81 31.9975 215.47 26.996 215.804C48.4453 252.177 91.399 277 140.89 277C209.883 277 266.172 228.76 269.208 168.238Z" fill="#CAF4C0" fill-opacity="0.8"/>
<path d="M37.1838 111.32C34.0904 111.32 31.7224 110.52 30.0798 108.92C28.4584 107.299 27.6478 104.909 27.6478 101.752V90.264C27.6478 88.8773 28.3304 88.184 29.6958 88.184C31.0611 88.184 31.7438 88.8773 31.7438 90.264V101.72C31.7438 103.747 32.2024 105.272 33.1198 106.296C34.0584 107.299 35.4131 107.8 37.1838 107.8C40.7891 107.8 42.5918 105.773 42.5918 101.72V90.264C42.5918 88.8773 43.2744 88.184 44.6398 88.184C45.9838 88.184 46.6558 88.8773 46.6558 90.264V101.752C46.6558 104.909 45.8558 107.299 44.2558 108.92C42.6558 110.52 40.2984 111.32 37.1838 111.32ZM53.0328 117.016C51.7101 117.016 51.0488 116.344 51.0488 115V97.112C51.0488 95.768 51.6994 95.096 53.0008 95.096C54.3234 95.096 54.9848 95.768 54.9848 97.112V97.784C55.4328 96.952 56.1048 96.2907 57.0008 95.8C57.8968 95.288 58.9208 95.032 60.0728 95.032C61.4381 95.032 62.6328 95.3627 63.6568 96.024C64.7021 96.6853 65.5128 97.624 66.0888 98.84C66.6648 100.035 66.9528 101.475 66.9528 103.16C66.9528 104.824 66.6648 106.275 66.0888 107.512C65.5128 108.728 64.7128 109.667 63.6888 110.328C62.6648 110.989 61.4594 111.32 60.0728 111.32C58.9634 111.32 57.9608 111.085 57.0648 110.616C56.1901 110.125 55.5181 109.475 55.0488 108.664V115C55.0488 116.344 54.3768 117.016 53.0328 117.016ZM58.9528 108.28C60.1474 108.28 61.1074 107.853 61.8328 107C62.5581 106.125 62.9208 104.845 62.9208 103.16C62.9208 101.453 62.5581 100.184 61.8328 99.352C61.1074 98.4987 60.1474 98.072 58.9528 98.072C57.7581 98.072 56.7981 98.4987 56.0728 99.352C55.3474 100.184 54.9848 101.453 54.9848 103.16C54.9848 104.845 55.3474 106.125 56.0728 107C56.7981 107.853 57.7581 108.28 58.9528 108.28ZM75.5803 111.32C72.0176 111.32 70.2363 109.325 70.2363 105.336V90.2C70.2363 88.856 70.8976 88.184 72.2203 88.184C73.5643 88.184 74.2363 88.856 74.2363 90.2V105.144C74.2363 107.064 75.0363 108.024 76.6363 108.024C76.8069 108.024 76.9669 108.024 77.1163 108.024C77.2656 108.003 77.4149 107.981 77.5642 107.96C77.8629 107.917 78.0656 108.003 78.1723 108.216C78.2789 108.408 78.3323 108.813 78.3323 109.432C78.3323 109.965 78.2256 110.381 78.0123 110.68C77.7989 110.979 77.4469 111.16 76.9563 111.224C76.5083 111.288 76.0496 111.32 75.5803 111.32ZM87.4348 111.32C85.8134 111.32 84.4054 110.989 83.2108 110.328C82.0161 109.667 81.0881 108.728 80.4268 107.512C79.7654 106.275 79.4348 104.824 79.4348 103.16C79.4348 101.496 79.7654 100.056 80.4268 98.84C81.0881 97.624 82.0161 96.6853 83.2108 96.024C84.4054 95.3627 85.8134 95.032 87.4348 95.032C89.0561 95.032 90.4641 95.3627 91.6588 96.024C92.8534 96.6853 93.7814 97.624 94.4428 98.84C95.1041 100.056 95.4348 101.496 95.4348 103.16C95.4348 104.824 95.1041 106.275 94.4428 107.512C93.7814 108.728 92.8534 109.667 91.6588 110.328C90.4641 110.989 89.0561 111.32 87.4348 111.32ZM87.4348 108.28C88.6294 108.28 89.5894 107.853 90.3148 107C91.0401 106.125 91.4028 104.845 91.4028 103.16C91.4028 101.453 91.0401 100.184 90.3148 99.352C89.5894 98.4987 88.6294 98.072 87.4348 98.072C86.2401 98.072 85.2801 98.4987 84.5548 99.352C83.8294 100.184 83.4668 101.453 83.4668 103.16C83.4668 104.845 83.8294 106.125 84.5548 107C85.2801 107.853 86.2401 108.28 87.4348 108.28ZM103.888 111.32C102.758 111.32 101.744 111.107 100.848 110.68C99.9736 110.232 99.2803 109.635 98.7682 108.888C98.2776 108.141 98.0323 107.299 98.0323 106.36C98.0323 105.208 98.3309 104.301 98.9283 103.64C99.5256 102.957 100.496 102.467 101.84 102.168C103.184 101.869 104.987 101.72 107.248 101.72H108.368V101.048C108.368 99.9813 108.134 99.2133 107.664 98.744C107.195 98.2747 106.406 98.04 105.296 98.04C104.678 98.04 104.006 98.1147 103.28 98.264C102.576 98.4133 101.83 98.6693 101.04 99.032C100.528 99.2667 100.102 99.2987 99.7603 99.128C99.4189 98.936 99.1843 98.648 99.0563 98.264C98.9496 97.8587 98.9709 97.4533 99.1203 97.048C99.2909 96.6427 99.6216 96.344 100.112 96.152C101.094 95.7467 102.032 95.4587 102.928 95.288C103.846 95.1173 104.678 95.032 105.424 95.032C107.707 95.032 109.403 95.5653 110.512 96.632C111.622 97.6773 112.176 99.3093 112.176 101.528V109.208C112.176 110.573 111.558 111.256 110.32 111.256C109.062 111.256 108.432 110.573 108.432 109.208V108.504C108.07 109.379 107.494 110.072 106.704 110.584C105.915 111.075 104.976 111.32 103.888 111.32ZM104.72 108.568C105.766 108.568 106.63 108.205 107.312 107.48C108.016 106.755 108.368 105.837 108.368 104.728V104.024H107.28C105.275 104.024 103.878 104.184 103.088 104.504C102.32 104.803 101.936 105.357 101.936 106.168C101.936 106.872 102.182 107.448 102.672 107.896C103.163 108.344 103.846 108.568 104.72 108.568ZM122.252 111.32C120.887 111.32 119.682 110.989 118.636 110.328C117.612 109.667 116.812 108.728 116.236 107.512C115.66 106.275 115.372 104.824 115.372 103.16C115.372 101.475 115.66 100.035 116.236 98.84C116.812 97.624 117.612 96.6853 118.636 96.024C119.682 95.3627 120.887 95.032 122.252 95.032C123.362 95.032 124.364 95.2773 125.26 95.768C126.156 96.2587 126.828 96.9093 127.276 97.72V90.2C127.276 88.856 127.938 88.184 129.26 88.184C130.604 88.184 131.276 88.856 131.276 90.2V109.208C131.276 110.573 130.615 111.256 129.292 111.256C127.97 111.256 127.308 110.573 127.308 109.208V108.536C126.86 109.389 126.188 110.072 125.292 110.584C124.396 111.075 123.383 111.32 122.252 111.32ZM123.372 108.28C124.567 108.28 125.527 107.853 126.252 107C126.978 106.125 127.34 104.845 127.34 103.16C127.34 101.453 126.978 100.184 126.252 99.352C125.527 98.4987 124.567 98.072 123.372 98.072C122.178 98.072 121.218 98.4987 120.492 99.352C119.767 100.184 119.404 101.453 119.404 103.16C119.404 104.845 119.767 106.125 120.492 107C121.218 107.853 122.178 108.28 123.372 108.28ZM146.543 111.256C145.178 111.256 144.495 110.552 144.495 109.144V90.52C144.495 89.1333 145.189 88.44 146.575 88.44H154.287C156.762 88.44 158.671 89.0587 160.015 90.296C161.359 91.5333 162.031 93.2613 162.031 95.48C162.031 97.6987 161.359 99.4373 160.015 100.696C158.671 101.933 156.762 102.552 154.287 102.552H148.591V109.144C148.591 110.552 147.909 111.256 146.543 111.256ZM148.591 99.32H153.647C156.591 99.32 158.063 98.04 158.063 95.48C158.063 92.9413 156.591 91.672 153.647 91.672H148.591V99.32ZM169.388 111.32C168.258 111.32 167.244 111.107 166.348 110.68C165.474 110.232 164.78 109.635 164.268 108.888C163.778 108.141 163.532 107.299 163.532 106.36C163.532 105.208 163.831 104.301 164.428 103.64C165.026 102.957 165.996 102.467 167.34 102.168C168.684 101.869 170.487 101.72 172.748 101.72H173.868V101.048C173.868 99.9813 173.634 99.2133 173.164 98.744C172.695 98.2747 171.906 98.04 170.796 98.04C170.178 98.04 169.506 98.1147 168.78 98.264C168.076 98.4133 167.33 98.6693 166.54 99.032C166.028 99.2667 165.602 99.2987 165.26 99.128C164.919 98.936 164.684 98.648 164.556 98.264C164.45 97.8587 164.471 97.4533 164.62 97.048C164.791 96.6427 165.122 96.344 165.612 96.152C166.594 95.7467 167.532 95.4587 168.428 95.288C169.346 95.1173 170.178 95.032 170.924 95.032C173.207 95.032 174.903 95.5653 176.012 96.632C177.122 97.6773 177.676 99.3093 177.676 101.528V109.208C177.676 110.573 177.058 111.256 175.82 111.256C174.562 111.256 173.932 110.573 173.932 109.208V108.504C173.57 109.379 172.994 110.072 172.204 110.584C171.415 111.075 170.476 111.32 169.388 111.32ZM170.22 108.568C171.266 108.568 172.13 108.205 172.812 107.48C173.516 106.755 173.868 105.837 173.868 104.728V104.024H172.78C170.775 104.024 169.378 104.184 168.588 104.504C167.82 104.803 167.436 105.357 167.436 106.168C167.436 106.872 167.682 107.448 168.172 107.896C168.663 108.344 169.346 108.568 170.22 108.568ZM183.784 111.256C182.419 111.256 181.736 110.573 181.736 109.208V97.112C181.736 95.768 182.387 95.096 183.688 95.096C184.99 95.096 185.64 95.768 185.64 97.112V98.104C186.408 96.2693 188.051 95.2453 190.568 95.032C191.486 94.9253 191.998 95.448 192.104 96.6C192.211 97.7307 191.656 98.36 190.44 98.488L189.736 98.552C187.112 98.808 185.8 100.152 185.8 102.584V109.208C185.8 110.573 185.128 111.256 183.784 111.256ZM202.342 111.32C198.203 111.32 196.134 109.272 196.134 105.176V98.36H194.47C193.403 98.36 192.87 97.8587 192.87 96.856C192.87 95.8533 193.403 95.352 194.47 95.352H196.134V92.44C196.134 91.096 196.806 90.424 198.15 90.424C199.472 90.424 200.134 91.096 200.134 92.44V95.352H203.526C204.592 95.352 205.126 95.8533 205.126 96.856C205.126 97.8587 204.592 98.36 203.526 98.36H200.134V104.952C200.134 105.976 200.358 106.744 200.806 107.256C201.254 107.768 201.979 108.024 202.982 108.024C203.344 108.024 203.664 107.992 203.942 107.928C204.219 107.864 204.464 107.821 204.678 107.8C204.934 107.779 205.147 107.864 205.318 108.056C205.488 108.227 205.574 108.589 205.574 109.144C205.574 109.571 205.499 109.955 205.35 110.296C205.222 110.616 204.976 110.84 204.614 110.968C204.336 111.053 203.974 111.128 203.526 111.192C203.078 111.277 202.683 111.32 202.342 111.32ZM209.845 92.152C209.099 92.152 208.512 91.9707 208.085 91.608C207.68 91.224 207.477 90.7013 207.477 90.04C207.477 89.3573 207.68 88.8347 208.085 88.472C208.512 88.1093 209.099 87.928 209.845 87.928C211.424 87.928 212.213 88.632 212.213 90.04C212.213 91.448 211.424 92.152 209.845 92.152ZM209.845 111.224C209.205 111.224 208.715 111.032 208.373 110.648C208.032 110.264 207.861 109.731 207.861 109.048V97.304C207.861 95.8533 208.523 95.128 209.845 95.128C211.189 95.128 211.861 95.8533 211.861 97.304V109.048C211.861 109.731 211.691 110.264 211.349 110.648C211.008 111.032 210.507 111.224 209.845 111.224ZM221.17 111.32C220.039 111.32 219.026 111.107 218.13 110.68C217.255 110.232 216.562 109.635 216.049 108.888C215.559 108.141 215.314 107.299 215.314 106.36C215.314 105.208 215.612 104.301 216.21 103.64C216.807 102.957 217.778 102.467 219.122 102.168C220.466 101.869 222.268 101.72 224.53 101.72H225.65V101.048C225.65 99.9813 225.415 99.2133 224.946 98.744C224.476 98.2747 223.687 98.04 222.578 98.04C221.959 98.04 221.287 98.1147 220.562 98.264C219.858 98.4133 219.111 98.6693 218.322 99.032C217.81 99.2667 217.383 99.2987 217.042 99.128C216.7 98.936 216.466 98.648 216.338 98.264C216.231 97.8587 216.252 97.4533 216.402 97.048C216.572 96.6427 216.903 96.344 217.394 96.152C218.375 95.7467 219.314 95.4587 220.21 95.288C221.127 95.1173 221.959 95.032 222.706 95.032C224.988 95.032 226.684 95.5653 227.794 96.632C228.903 97.6773 229.458 99.3093 229.458 101.528V109.208C229.458 110.573 228.839 111.256 227.602 111.256C226.343 111.256 225.714 110.573 225.714 109.208V108.504C225.351 109.379 224.775 110.072 223.986 110.584C223.196 111.075 222.258 111.32 221.17 111.32ZM222.002 108.568C223.047 108.568 223.911 108.205 224.594 107.48C225.298 106.755 225.65 105.837 225.65 104.728V104.024H224.562C222.556 104.024 221.159 104.184 220.37 104.504C219.602 104.803 219.218 105.357 219.218 106.168C219.218 106.872 219.463 107.448 219.954 107.896C220.444 108.344 221.127 108.568 222.002 108.568ZM238.862 111.32C235.299 111.32 233.518 109.325 233.518 105.336V90.2C233.518 88.856 234.179 88.184 235.502 88.184C236.846 88.184 237.518 88.856 237.518 90.2V105.144C237.518 107.064 238.318 108.024 239.918 108.024C240.088 108.024 240.248 108.024 240.398 108.024C240.547 108.003 240.696 107.981 240.845 107.96C241.144 107.917 241.347 108.003 241.454 108.216C241.56 108.408 241.614 108.813 241.614 109.432C241.614 109.965 241.507 110.381 241.294 110.68C241.08 110.979 240.728 111.16 240.238 111.224C239.79 111.288 239.331 111.32 238.862 111.32ZM48.21 155.32C45.8633 155.32 43.8473 154.851 42.162 153.912C40.498 152.952 39.218 151.608 38.322 149.88C37.426 148.131 36.978 146.072 36.978 143.704C36.978 141.336 37.426 139.288 38.322 137.56C39.218 135.832 40.498 134.499 42.162 133.56C43.8473 132.6 45.8633 132.12 48.21 132.12C49.3833 132.12 50.5353 132.269 51.666 132.568C52.7967 132.867 53.7887 133.293 54.642 133.848C55.1967 134.211 55.5273 134.648 55.634 135.16C55.7407 135.651 55.6767 136.109 55.442 136.536C55.2073 136.941 54.8553 137.219 54.386 137.368C53.9167 137.496 53.394 137.368 52.818 136.984C52.1567 136.557 51.442 136.248 50.674 136.056C49.906 135.864 49.1273 135.768 48.338 135.768C46.0553 135.768 44.3167 136.461 43.122 137.848C41.9273 139.213 41.33 141.165 41.33 143.704C41.33 146.243 41.9273 148.205 43.122 149.592C44.3167 150.979 46.0553 151.672 48.338 151.672C49.1487 151.672 49.9487 151.576 50.738 151.384C51.5273 151.171 52.274 150.851 52.978 150.424C53.554 150.061 54.066 149.944 54.514 150.072C54.962 150.2 55.2927 150.467 55.506 150.872C55.7407 151.256 55.8153 151.683 55.73 152.152C55.6447 152.621 55.3567 153.037 54.866 153.4C54.0127 154.019 52.9887 154.499 51.794 154.84C50.6207 155.16 49.426 155.32 48.21 155.32ZM63.6695 155.32C62.5388 155.32 61.5255 155.107 60.6295 154.68C59.7548 154.232 59.0615 153.635 58.5495 152.888C58.0588 152.141 57.8135 151.299 57.8135 150.36C57.8135 149.208 58.1122 148.301 58.7095 147.64C59.3068 146.957 60.2775 146.467 61.6215 146.168C62.9655 145.869 64.7682 145.72 67.0295 145.72H68.1495V145.048C68.1495 143.981 67.9148 143.213 67.4455 142.744C66.9762 142.275 66.1868 142.04 65.0775 142.04C64.4588 142.04 63.7868 142.115 63.0615 142.264C62.3575 142.413 61.6108 142.669 60.8215 143.032C60.3095 143.267 59.8828 143.299 59.5415 143.128C59.2002 142.936 58.9655 142.648 58.8375 142.264C58.7308 141.859 58.7522 141.453 58.9015 141.048C59.0722 140.643 59.4028 140.344 59.8935 140.152C60.8748 139.747 61.8135 139.459 62.7095 139.288C63.6268 139.117 64.4588 139.032 65.2055 139.032C67.4882 139.032 69.1842 139.565 70.2935 140.632C71.4028 141.677 71.9575 143.309 71.9575 145.528V153.208C71.9575 154.573 71.3388 155.256 70.1015 155.256C68.8428 155.256 68.2135 154.573 68.2135 153.208V152.504C67.8508 153.379 67.2748 154.072 66.4855 154.584C65.6962 155.075 64.7575 155.32 63.6695 155.32ZM64.5015 152.568C65.5468 152.568 66.4108 152.205 67.0935 151.48C67.7975 150.755 68.1495 149.837 68.1495 148.728V148.024H67.0615C65.0562 148.024 63.6588 148.184 62.8695 148.504C62.1015 148.803 61.7175 149.357 61.7175 150.168C61.7175 150.872 61.9628 151.448 62.4535 151.896C62.9442 152.344 63.6268 152.568 64.5015 152.568ZM81.7455 155.32C80.8282 155.32 79.8575 155.224 78.8335 155.032C77.8095 154.84 76.8922 154.509 76.0815 154.04C75.6335 153.784 75.3562 153.475 75.2495 153.112C75.1428 152.728 75.1535 152.376 75.2815 152.056C75.4308 151.715 75.6655 151.469 75.9855 151.32C76.3268 151.171 76.7215 151.203 77.1695 151.416C78.0228 151.821 78.8228 152.109 79.5695 152.28C80.3162 152.429 81.0522 152.504 81.7775 152.504C82.8015 152.504 83.5588 152.333 84.0495 151.992C84.5615 151.629 84.8175 151.16 84.8175 150.584C84.8175 149.688 84.1562 149.112 82.8335 148.856L79.6335 148.248C76.9242 147.736 75.5695 146.328 75.5695 144.024C75.5695 143 75.8468 142.115 76.4015 141.368C76.9775 140.621 77.7668 140.045 78.7695 139.64C79.7722 139.235 80.9242 139.032 82.2255 139.032C84.1028 139.032 85.7775 139.448 87.2495 140.28C87.6548 140.493 87.8895 140.792 87.9535 141.176C88.0388 141.539 87.9962 141.891 87.8255 142.232C87.6762 142.552 87.4308 142.787 87.0895 142.936C86.7482 143.064 86.3535 143.021 85.9055 142.808C85.2442 142.467 84.6042 142.221 83.9855 142.072C83.3882 141.923 82.8122 141.848 82.2575 141.848C81.2122 141.848 80.4335 142.029 79.9215 142.392C79.4308 142.755 79.1855 143.235 79.1855 143.832C79.1855 144.771 79.7935 145.347 81.0095 145.56L84.2095 146.168C85.5962 146.424 86.6415 146.893 87.3455 147.576C88.0708 148.259 88.4335 149.176 88.4335 150.328C88.4335 151.885 87.8255 153.112 86.6095 154.008C85.3935 154.883 83.7722 155.32 81.7455 155.32ZM99.3545 155.32C97.5838 155.32 96.0585 154.989 94.7785 154.328C93.4985 153.667 92.5065 152.728 91.8025 151.512C91.1198 150.296 90.7785 148.856 90.7785 147.192C90.7785 145.571 91.1092 144.152 91.7705 142.936C92.4532 141.72 93.3812 140.771 94.5545 140.088C95.7492 139.384 97.1038 139.032 98.6185 139.032C100.837 139.032 102.587 139.736 103.867 141.144C105.168 142.552 105.819 144.472 105.819 146.904C105.819 147.693 105.307 148.088 104.283 148.088H94.6185C94.9172 150.883 96.5172 152.28 99.4185 152.28C99.9732 152.28 100.592 152.216 101.275 152.088C101.979 151.939 102.64 151.693 103.259 151.352C103.813 151.032 104.283 150.936 104.667 151.064C105.051 151.171 105.317 151.395 105.467 151.736C105.637 152.077 105.659 152.461 105.531 152.888C105.424 153.293 105.125 153.645 104.635 153.944C103.888 154.413 103.024 154.765 102.043 155C101.083 155.213 100.187 155.32 99.3545 155.32ZM98.7785 141.752C97.6052 141.752 96.6558 142.115 95.9305 142.84C95.2052 143.565 94.7678 144.547 94.6185 145.784H102.491C102.405 144.483 102.043 143.491 101.403 142.808C100.784 142.104 99.9092 141.752 98.7785 141.752ZM120.234 155C118.783 155 118.058 154.275 118.058 152.824V134.616C118.058 133.165 118.783 132.44 120.234 132.44H126.442C130.218 132.44 133.13 133.411 135.178 135.352C137.247 137.293 138.282 140.077 138.282 143.704C138.282 147.309 137.247 150.093 135.178 152.056C133.13 154.019 130.218 155 126.442 155H120.234ZM122.154 151.608H126.186C131.391 151.608 133.994 148.973 133.994 143.704C133.994 138.456 131.391 135.832 126.186 135.832H122.154V151.608ZM147.201 155.32C146.07 155.32 145.057 155.107 144.161 154.68C143.286 154.232 142.593 153.635 142.081 152.888C141.59 152.141 141.345 151.299 141.345 150.36C141.345 149.208 141.643 148.301 142.241 147.64C142.838 146.957 143.809 146.467 145.153 146.168C146.497 145.869 148.299 145.72 150.561 145.72H151.681V145.048C151.681 143.981 151.446 143.213 150.977 142.744C150.507 142.275 149.718 142.04 148.609 142.04C147.99 142.04 147.318 142.115 146.593 142.264C145.889 142.413 145.142 142.669 144.353 143.032C143.841 143.267 143.414 143.299 143.073 143.128C142.731 142.936 142.497 142.648 142.369 142.264C142.262 141.859 142.283 141.453 142.433 141.048C142.603 140.643 142.934 140.344 143.425 140.152C144.406 139.747 145.345 139.459 146.241 139.288C147.158 139.117 147.99 139.032 148.737 139.032C151.019 139.032 152.715 139.565 153.825 140.632C154.934 141.677 155.489 143.309 155.489 145.528V153.208C155.489 154.573 154.87 155.256 153.633 155.256C152.374 155.256 151.745 154.573 151.745 153.208V152.504C151.382 153.379 150.806 154.072 150.017 154.584C149.227 155.075 148.289 155.32 147.201 155.32ZM148.033 152.568C149.078 152.568 149.942 152.205 150.625 151.48C151.329 150.755 151.681 149.837 151.681 148.728V148.024H150.593C148.587 148.024 147.19 148.184 146.401 148.504C145.633 148.803 145.249 149.357 145.249 150.168C145.249 150.872 145.494 151.448 145.985 151.896C146.475 152.344 147.158 152.568 148.033 152.568ZM166.717 155.32C162.578 155.32 160.509 153.272 160.509 149.176V142.36H158.845C157.778 142.36 157.245 141.859 157.245 140.856C157.245 139.853 157.778 139.352 158.845 139.352H160.509V136.44C160.509 135.096 161.181 134.424 162.525 134.424C163.847 134.424 164.509 135.096 164.509 136.44V139.352H167.901C168.967 139.352 169.501 139.853 169.501 140.856C169.501 141.859 168.967 142.36 167.901 142.36H164.509V148.952C164.509 149.976 164.733 150.744 165.181 151.256C165.629 151.768 166.354 152.024 167.357 152.024C167.719 152.024 168.039 151.992 168.317 151.928C168.594 151.864 168.839 151.821 169.053 151.8C169.309 151.779 169.522 151.864 169.693 152.056C169.863 152.227 169.949 152.589 169.949 153.144C169.949 153.571 169.874 153.955 169.725 154.296C169.597 154.616 169.351 154.84 168.989 154.968C168.711 155.053 168.349 155.128 167.901 155.192C167.453 155.277 167.058 155.32 166.717 155.32ZM176.982 155.32C175.851 155.32 174.838 155.107 173.942 154.68C173.067 154.232 172.374 153.635 171.862 152.888C171.371 152.141 171.126 151.299 171.126 150.36C171.126 149.208 171.425 148.301 172.022 147.64C172.619 146.957 173.59 146.467 174.934 146.168C176.278 145.869 178.081 145.72 180.342 145.72H181.462V145.048C181.462 143.981 181.227 143.213 180.758 142.744C180.289 142.275 179.499 142.04 178.39 142.04C177.771 142.04 177.099 142.115 176.374 142.264C175.67 142.413 174.923 142.669 174.134 143.032C173.622 143.267 173.195 143.299 172.854 143.128C172.513 142.936 172.278 142.648 172.15 142.264C172.043 141.859 172.065 141.453 172.214 141.048C172.385 140.643 172.715 140.344 173.206 140.152C174.187 139.747 175.126 139.459 176.022 139.288C176.939 139.117 177.771 139.032 178.518 139.032C180.801 139.032 182.497 139.565 183.606 140.632C184.715 141.677 185.27 143.309 185.27 145.528V153.208C185.27 154.573 184.651 155.256 183.414 155.256C182.155 155.256 181.526 154.573 181.526 153.208V152.504C181.163 153.379 180.587 154.072 179.798 154.584C179.009 155.075 178.07 155.32 176.982 155.32ZM177.814 152.568C178.859 152.568 179.723 152.205 180.406 151.48C181.11 150.755 181.462 149.837 181.462 148.728V148.024H180.374C178.369 148.024 176.971 148.184 176.182 148.504C175.414 148.803 175.03 149.357 175.03 150.168C175.03 150.872 175.275 151.448 175.766 151.896C176.257 152.344 176.939 152.568 177.814 152.568ZM205.89 155.256C204.524 155.256 203.842 154.552 203.842 153.144V135.864H197.602C196.428 135.864 195.841 135.288 195.841 134.136C195.841 133.005 196.428 132.44 197.602 132.44H214.178C215.351 132.44 215.938 133.005 215.938 134.136C215.938 135.288 215.351 135.864 214.178 135.864H207.938V153.144C207.938 154.552 207.255 155.256 205.89 155.256ZM222.529 155.32C220.907 155.32 219.499 154.989 218.305 154.328C217.11 153.667 216.182 152.728 215.521 151.512C214.859 150.275 214.529 148.824 214.529 147.16C214.529 145.496 214.859 144.056 215.521 142.84C216.182 141.624 217.11 140.685 218.305 140.024C219.499 139.363 220.907 139.032 222.529 139.032C224.15 139.032 225.558 139.363 226.753 140.024C227.947 140.685 228.875 141.624 229.537 142.84C230.198 144.056 230.529 145.496 230.529 147.16C230.529 148.824 230.198 150.275 229.537 151.512C228.875 152.728 227.947 153.667 226.753 154.328C225.558 154.989 224.15 155.32 222.529 155.32ZM222.529 152.28C223.723 152.28 224.683 151.853 225.409 151C226.134 150.125 226.497 148.845 226.497 147.16C226.497 145.453 226.134 144.184 225.409 143.352C224.683 142.499 223.723 142.072 222.529 142.072C221.334 142.072 220.374 142.499 219.649 143.352C218.923 144.184 218.561 145.453 218.561 147.16C218.561 148.845 218.923 150.125 219.649 151C220.374 151.853 221.334 152.28 222.529 152.28ZM67.4838 199C66.0331 199 65.3078 198.275 65.3078 196.824V178.616C65.3078 177.165 66.0331 176.44 67.4838 176.44H73.6918C77.4678 176.44 80.3798 177.411 82.4278 179.352C84.4971 181.293 85.5318 184.077 85.5318 187.704C85.5318 191.309 84.4971 194.093 82.4278 196.056C80.3798 198.019 77.4678 199 73.6918 199H67.4838ZM69.4038 195.608H73.4358C78.6411 195.608 81.2438 192.973 81.2438 187.704C81.2438 182.456 78.6411 179.832 73.4358 179.832H69.4038V195.608ZM94.4508 199.32C93.3201 199.32 92.3068 199.107 91.4108 198.68C90.5361 198.232 89.8428 197.635 89.3307 196.888C88.8401 196.141 88.5948 195.299 88.5948 194.36C88.5948 193.208 88.8934 192.301 89.4908 191.64C90.0881 190.957 91.0588 190.467 92.4028 190.168C93.7468 189.869 95.5494 189.72 97.8108 189.72H98.9308V189.048C98.9308 187.981 98.6961 187.213 98.2268 186.744C97.7574 186.275 96.9681 186.04 95.8588 186.04C95.2401 186.04 94.5681 186.115 93.8428 186.264C93.1388 186.413 92.3921 186.669 91.6028 187.032C91.0908 187.267 90.6641 187.299 90.3228 187.128C89.9814 186.936 89.7468 186.648 89.6188 186.264C89.5121 185.859 89.5334 185.453 89.6828 185.048C89.8534 184.643 90.1841 184.344 90.6748 184.152C91.6561 183.747 92.5948 183.459 93.4908 183.288C94.4081 183.117 95.2401 183.032 95.9868 183.032C98.2694 183.032 99.9654 183.565 101.075 184.632C102.184 185.677 102.739 187.309 102.739 189.528V197.208C102.739 198.573 102.12 199.256 100.883 199.256C99.6241 199.256 98.9948 198.573 98.9948 197.208V196.504C98.6321 197.379 98.0561 198.072 97.2668 198.584C96.4774 199.075 95.5388 199.32 94.4508 199.32ZM95.2828 196.568C96.3281 196.568 97.1921 196.205 97.8748 195.48C98.5788 194.755 98.9308 193.837 98.9308 192.728V192.024H97.8428C95.8374 192.024 94.4401 192.184 93.6508 192.504C92.8828 192.803 92.4988 193.357 92.4988 194.168C92.4988 194.872 92.7441 195.448 93.2348 195.896C93.7254 196.344 94.4081 196.568 95.2828 196.568ZM113.967 199.32C109.828 199.32 107.759 197.272 107.759 193.176V186.36H106.095C105.028 186.36 104.495 185.859 104.495 184.856C104.495 183.853 105.028 183.352 106.095 183.352H107.759V180.44C107.759 179.096 108.431 178.424 109.775 178.424C111.097 178.424 111.759 179.096 111.759 180.44V183.352H115.151C116.217 183.352 116.751 183.853 116.751 184.856C116.751 185.859 116.217 186.36 115.151 186.36H111.759V192.952C111.759 193.976 111.983 194.744 112.431 195.256C112.879 195.768 113.604 196.024 114.607 196.024C114.969 196.024 115.289 195.992 115.567 195.928C115.844 195.864 116.089 195.821 116.303 195.8C116.559 195.779 116.772 195.864 116.943 196.056C117.113 196.227 117.199 196.589 117.199 197.144C117.199 197.571 117.124 197.955 116.975 198.296C116.847 198.616 116.601 198.84 116.239 198.968C115.961 199.053 115.599 199.128 115.151 199.192C114.703 199.277 114.308 199.32 113.967 199.32ZM124.232 199.32C123.101 199.32 122.088 199.107 121.192 198.68C120.317 198.232 119.624 197.635 119.112 196.888C118.621 196.141 118.376 195.299 118.376 194.36C118.376 193.208 118.675 192.301 119.272 191.64C119.869 190.957 120.84 190.467 122.184 190.168C123.528 189.869 125.331 189.72 127.592 189.72H128.712V189.048C128.712 187.981 128.477 187.213 128.008 186.744C127.539 186.275 126.749 186.04 125.64 186.04C125.021 186.04 124.349 186.115 123.624 186.264C122.92 186.413 122.173 186.669 121.384 187.032C120.872 187.267 120.445 187.299 120.104 187.128C119.763 186.936 119.528 186.648 119.4 186.264C119.293 185.859 119.315 185.453 119.464 185.048C119.635 184.643 119.965 184.344 120.456 184.152C121.437 183.747 122.376 183.459 123.272 183.288C124.189 183.117 125.021 183.032 125.768 183.032C128.051 183.032 129.747 183.565 130.856 184.632C131.965 185.677 132.52 187.309 132.52 189.528V197.208C132.52 198.573 131.901 199.256 130.664 199.256C129.405 199.256 128.776 198.573 128.776 197.208V196.504C128.413 197.379 127.837 198.072 127.048 198.584C126.259 199.075 125.32 199.32 124.232 199.32ZM125.064 196.568C126.109 196.568 126.973 196.205 127.656 195.48C128.36 194.755 128.712 193.837 128.712 192.728V192.024H127.624C125.619 192.024 124.221 192.184 123.432 192.504C122.664 192.803 122.28 193.357 122.28 194.168C122.28 194.872 122.525 195.448 123.016 195.896C123.507 196.344 124.189 196.568 125.064 196.568ZM145.604 199.32C144.452 199.32 143.428 199.075 142.532 198.584C141.636 198.072 140.964 197.389 140.516 196.536V197.208C140.516 198.573 139.865 199.256 138.564 199.256C137.241 199.256 136.58 198.573 136.58 197.208V178.2C136.58 176.856 137.241 176.184 138.564 176.184C139.908 176.184 140.58 176.856 140.58 178.2V185.656C141.049 184.867 141.721 184.237 142.596 183.768C143.492 183.277 144.495 183.032 145.604 183.032C146.991 183.032 148.196 183.363 149.22 184.024C150.244 184.685 151.044 185.624 151.62 186.84C152.196 188.035 152.484 189.475 152.484 191.16C152.484 192.824 152.196 194.275 151.62 195.512C151.044 196.728 150.233 197.667 149.188 198.328C148.164 198.989 146.969 199.32 145.604 199.32ZM144.484 196.28C145.679 196.28 146.639 195.853 147.364 195C148.089 194.125 148.452 192.845 148.452 191.16C148.452 189.453 148.089 188.184 147.364 187.352C146.639 186.499 145.679 186.072 144.484 186.072C143.289 186.072 142.329 186.499 141.604 187.352C140.879 188.184 140.516 189.453 140.516 191.16C140.516 192.845 140.879 194.125 141.604 195C142.329 195.853 143.289 196.28 144.484 196.28ZM160.92 199.32C159.789 199.32 158.776 199.107 157.88 198.68C157.005 198.232 156.312 197.635 155.799 196.888C155.309 196.141 155.064 195.299 155.064 194.36C155.064 193.208 155.362 192.301 155.96 191.64C156.557 190.957 157.528 190.467 158.872 190.168C160.216 189.869 162.018 189.72 164.28 189.72H165.4V189.048C165.4 187.981 165.165 187.213 164.696 186.744C164.226 186.275 163.437 186.04 162.328 186.04C161.709 186.04 161.037 186.115 160.312 186.264C159.608 186.413 158.861 186.669 158.072 187.032C157.56 187.267 157.133 187.299 156.792 187.128C156.45 186.936 156.216 186.648 156.088 186.264C155.981 185.859 156.002 185.453 156.152 185.048C156.322 184.643 156.653 184.344 157.144 184.152C158.125 183.747 159.064 183.459 159.96 183.288C160.877 183.117 161.709 183.032 162.456 183.032C164.738 183.032 166.434 183.565 167.544 184.632C168.653 185.677 169.208 187.309 169.208 189.528V197.208C169.208 198.573 168.589 199.256 167.352 199.256C166.093 199.256 165.464 198.573 165.464 197.208V196.504C165.101 197.379 164.525 198.072 163.736 198.584C162.946 199.075 162.008 199.32 160.92 199.32ZM161.752 196.568C162.797 196.568 163.661 196.205 164.344 195.48C165.048 194.755 165.4 193.837 165.4 192.728V192.024H164.312C162.306 192.024 160.909 192.184 160.12 192.504C159.352 192.803 158.968 193.357 158.968 194.168C158.968 194.872 159.213 195.448 159.704 195.896C160.194 196.344 160.877 196.568 161.752 196.568ZM178.996 199.32C178.078 199.32 177.108 199.224 176.084 199.032C175.06 198.84 174.142 198.509 173.332 198.04C172.884 197.784 172.606 197.475 172.5 197.112C172.393 196.728 172.404 196.376 172.532 196.056C172.681 195.715 172.916 195.469 173.236 195.32C173.577 195.171 173.972 195.203 174.42 195.416C175.273 195.821 176.073 196.109 176.82 196.28C177.566 196.429 178.302 196.504 179.028 196.504C180.052 196.504 180.809 196.333 181.3 195.992C181.812 195.629 182.068 195.16 182.068 194.584C182.068 193.688 181.406 193.112 180.084 192.856L176.884 192.248C174.174 191.736 172.82 190.328 172.82 188.024C172.82 187 173.097 186.115 173.652 185.368C174.228 184.621 175.017 184.045 176.02 183.64C177.022 183.235 178.174 183.032 179.476 183.032C181.353 183.032 183.028 183.448 184.5 184.28C184.905 184.493 185.14 184.792 185.204 185.176C185.289 185.539 185.246 185.891 185.076 186.232C184.926 186.552 184.681 186.787 184.34 186.936C183.998 187.064 183.604 187.021 183.156 186.808C182.494 186.467 181.854 186.221 181.236 186.072C180.638 185.923 180.062 185.848 179.508 185.848C178.462 185.848 177.684 186.029 177.172 186.392C176.681 186.755 176.436 187.235 176.436 187.832C176.436 188.771 177.044 189.347 178.26 189.56L181.46 190.168C182.846 190.424 183.892 190.893 184.596 191.576C185.321 192.259 185.684 193.176 185.684 194.328C185.684 195.885 185.076 197.112 183.86 198.008C182.644 198.883 181.022 199.32 178.996 199.32ZM196.605 199.32C194.834 199.32 193.309 198.989 192.029 198.328C190.749 197.667 189.757 196.728 189.053 195.512C188.37 194.296 188.029 192.856 188.029 191.192C188.029 189.571 188.359 188.152 189.021 186.936C189.703 185.72 190.631 184.771 191.805 184.088C192.999 183.384 194.354 183.032 195.869 183.032C198.087 183.032 199.837 183.736 201.117 185.144C202.418 186.552 203.069 188.472 203.069 190.904C203.069 191.693 202.557 192.088 201.533 192.088H191.869C192.167 194.883 193.767 196.28 196.669 196.28C197.223 196.28 197.842 196.216 198.525 196.088C199.229 195.939 199.89 195.693 200.509 195.352C201.063 195.032 201.533 194.936 201.917 195.064C202.301 195.171 202.567 195.395 202.717 195.736C202.887 196.077 202.909 196.461 202.781 196.888C202.674 197.293 202.375 197.645 201.885 197.944C201.138 198.413 200.274 198.765 199.293 199C198.333 199.213 197.437 199.32 196.605 199.32ZM196.029 185.752C194.855 185.752 193.906 186.115 193.181 186.84C192.455 187.565 192.018 188.547 191.869 189.784H199.741C199.655 188.483 199.293 187.491 198.653 186.808C198.034 186.104 197.159 185.752 196.029 185.752Z" fill="#0A0A0A"/>
</svg>
