<svg width="58" height="38" viewBox="0 0 58 38" fill="none" xmlns="http://www.w3.org/2000/svg">
<path d="M56.1878 4.7499H1.81256C0.812018 4.7499 0.000101006 3.68581 0.000101006 2.37495C0.000101006 1.06389 0.812168 0 1.81256 0L56.1878 0C57.1883 0 58.0002 1.06409 58.0002 2.37495C58.0002 3.68581 57.1882 4.7499 56.1878 4.7499Z" fill="black"/>
<path d="M1.81306 16.625H56.1883C57.1888 16.625 58.0007 17.6891 58.0007 18.9999C58.0007 20.3108 57.1887 21.3749 56.1883 21.3749H1.81306C0.812512 21.3749 0.000595023 20.3108 0.000595023 18.9999C0.000595023 17.6891 0.812512 16.625 1.81306 16.625Z" fill="black"/>
<path d="M1.81313 33.25H38.0633C39.0638 33.25 39.8757 34.3141 39.8757 35.6249C39.8757 36.936 39.0637 37.9999 38.0633 37.9999H1.81313C0.812588 37.9999 0.00067179 36.9358 0.00067179 35.6249C0.000521128 34.3139 0.812588 33.25 1.81313 33.25Z" fill="black"/>
</svg>
