<svg width="58" height="38" viewBox="0 0 58 38" fill="none" xmlns="http://www.w3.org/2000/svg">
<path d="M56.1877 4.7499H1.81244C0.811896 4.7499 -2.10647e-05 3.68581 -2.10647e-05 2.37495C-2.10647e-05 1.06389 0.812046 0 1.81244 0L56.1877 0C57.1882 0 58.0001 1.06409 58.0001 2.37495C58.0001 3.68581 57.1881 4.7499 56.1877 4.7499Z" fill="white"/>
<path d="M1.81293 16.6251H56.1881C57.1887 16.6251 58.0006 17.6891 58.0006 19C58.0006 20.3109 57.1885 21.375 56.1881 21.375H1.81293C0.812389 21.375 0.000472953 20.3109 0.000472953 19C0.000472953 17.6891 0.812389 16.6251 1.81293 16.6251Z" fill="white"/>
<path d="M1.81289 33.25H38.063C39.0636 33.25 39.8755 34.3141 39.8755 35.6249C39.8755 36.936 39.0634 37.9999 38.063 37.9999H1.81289C0.812344 37.9999 0.000427649 36.9358 0.000427649 35.6249C0.000276988 34.3139 0.812344 33.25 1.81289 33.25Z" fill="white"/>
</svg>
