<svg width="42" height="48" viewBox="0 0 42 48" fill="none" xmlns="http://www.w3.org/2000/svg">
<path d="M21 0C14.0524 0 8.40002 5.65236 8.40002 12.6C8.40002 19.5476 14.0524 25.2 21 25.2C27.9476 25.2 33.6 19.5476 33.6 12.6C33.6 5.65236 27.9476 0 21 0ZM21 22.4C15.5963 22.4 11.2 18.0037 11.2 12.6C11.2 7.19628 15.5963 2.8 21 2.8C26.4037 2.8 30.8 7.19628 30.8 12.6C30.8 18.0037 26.4037 22.4 21 22.4Z" fill="black"/>
<path d="M24.9044 28.0932H17.0955C10.6366 28.0932 4.26244 31.0753 0 37.4693V47.7865H42V37.4693C37.7437 31.0845 31.3713 28.0932 24.9044 28.0932ZM39.2001 44.9865H2.8V38.326C6.06956 33.6636 11.3822 30.8932 17.0956 30.8932H24.9045C30.6179 30.8932 35.9304 33.6636 39.2001 38.326V44.9865Z" fill="black"/>
</svg>
