<svg width="42" height="48" viewBox="0 0 42 48" fill="none" xmlns="http://www.w3.org/2000/svg">
<path d="M20.9999 0C14.0523 0 8.3999 5.65236 8.3999 12.6C8.3999 19.5476 14.0523 25.2 20.9999 25.2C27.9475 25.2 33.5999 19.5476 33.5999 12.6C33.5999 5.65236 27.9475 0 20.9999 0ZM20.9999 22.4C15.5962 22.4 11.1999 18.0037 11.1999 12.6C11.1999 7.19628 15.5962 2.8 20.9999 2.8C26.4036 2.8 30.7999 7.19628 30.7999 12.6C30.7999 18.0037 26.4036 22.4 20.9999 22.4Z" fill="white"/>
<path d="M24.9044 28.0931H17.0955C10.6366 28.0931 4.26244 31.0752 0 37.4692L0 47.7865H42V37.4692C37.7437 31.0845 31.3713 28.0931 24.9044 28.0931ZM39.2001 44.9865H39.2H2.8V38.3259C6.06956 33.6636 11.3822 30.8931 17.0956 30.8931H24.9045C30.6179 30.8931 35.9304 33.6636 39.2001 38.3259V44.9865Z" fill="white"/>
</svg>
