<svg width="227" height="339" viewBox="0 0 227 339" fill="none" xmlns="http://www.w3.org/2000/svg">
<g filter="url(#filter0_d)">
<mask id="path-1-inside-1" fill="white">
<path fill-rule="evenodd" clip-rule="evenodd" d="M176.541 50.9641L18.1633 0.623047C-0.584223 59.6044 -0.723293 122.927 17.765 181.99C36.2533 241.053 72.473 292.994 121.505 330.759L222.341 199.838C190.746 174.334 170.537 135.287 170.537 91.5203C170.537 77.4127 172.637 63.7955 176.541 50.9641Z"/>
</mask>
<path fill-rule="evenodd" clip-rule="evenodd" d="M176.541 50.9641L18.1633 0.623047C-0.584223 59.6044 -0.723293 122.927 17.765 181.99C36.2533 241.053 72.473 292.994 121.505 330.759L222.341 199.838C190.746 174.334 170.537 135.287 170.537 91.5203C170.537 77.4127 172.637 63.7955 176.541 50.9641Z" fill="#D5DAFE" fill-opacity="0.3"/>
<path d="M176.541 50.9641L180.367 52.1285L181.517 48.3488L177.752 47.1521L176.541 50.9641ZM18.1633 0.623047L19.375 -3.18902L15.563 -4.4007L14.3513 -0.588639L18.1633 0.623047ZM17.765 181.99L13.9477 183.185L17.765 181.99ZM121.505 330.759L119.064 333.928L122.233 336.369L124.674 333.2L121.505 330.759ZM222.341 199.838L225.51 202.279L227.896 199.181L224.854 196.726L222.341 199.838ZM177.752 47.1521L19.375 -3.18902L16.9517 4.43511L175.329 54.7762L177.752 47.1521ZM14.3513 -0.588639C-4.64505 59.1754 -4.78597 123.338 13.9477 183.185L21.5824 180.795C3.33938 122.516 3.47661 60.0335 21.9754 1.83473L14.3513 -0.588639ZM13.9477 183.185C32.6813 243.032 69.3815 295.662 119.064 333.928L123.945 327.59C75.5644 290.327 39.8254 239.075 21.5824 180.795L13.9477 183.185ZM124.674 333.2L225.51 202.279L219.173 197.397L118.336 328.318L124.674 333.2ZM224.854 196.726C194.159 171.948 174.537 134.027 174.537 91.5203H166.537C166.537 136.547 187.333 176.72 219.829 202.951L224.854 196.726ZM174.537 91.5203C174.537 77.8115 176.577 64.5865 180.367 52.1285L172.714 49.7998C168.696 63.0044 166.537 77.0138 166.537 91.5203H174.537Z" fill="white" mask="url(#path-1-inside-1)"/>
</g>
<path d="M76.1525 125.582C74.8726 125.597 74.2246 124.945 74.2085 123.625L73.9959 106.166C73.9801 104.866 74.6221 104.209 75.922 104.193L83.1515 104.105C85.4713 104.076 87.2683 104.635 88.5423 105.779C89.8163 106.924 90.466 108.536 90.4913 110.616C90.5166 112.696 89.9065 114.333 88.661 115.529C87.4152 116.704 85.6324 117.306 83.3126 117.334L77.973 117.399L78.0482 123.578C78.0643 124.898 77.4324 125.566 76.1525 125.582ZM77.9361 114.369L82.6757 114.311C85.4355 114.278 86.8008 113.061 86.7716 110.661C86.7426 108.281 85.3482 107.108 82.5884 107.142L77.8488 107.2L77.9361 114.369ZM95.0684 125.351C93.7885 125.367 93.1408 124.735 93.1252 123.455L92.9871 112.116C92.9718 110.856 93.5741 110.218 94.794 110.203C96.0139 110.189 96.6315 110.811 96.6468 112.071L96.6582 113.001C97.3572 111.272 98.8854 110.294 101.243 110.065C102.101 109.954 102.587 110.439 102.701 111.517C102.813 112.576 102.301 113.172 101.162 113.306L100.503 113.374C98.0461 113.644 96.8315 114.919 96.8593 117.199L96.9349 123.408C96.9505 124.688 96.3283 125.336 95.0684 125.351ZM111.892 125.206C110.232 125.227 108.798 124.934 107.591 124.329C106.383 123.723 105.442 122.855 104.769 121.723C104.115 120.591 103.778 119.245 103.759 117.685C103.741 116.165 104.035 114.831 104.641 113.684C105.267 112.536 106.126 111.636 107.218 110.982C108.33 110.309 109.596 109.963 111.016 109.946C113.096 109.921 114.743 110.561 115.959 111.866C117.195 113.171 117.827 114.963 117.855 117.243C117.864 117.983 117.389 118.359 116.429 118.371L107.369 118.481C107.681 121.097 109.197 122.389 111.917 122.356C112.437 122.35 113.016 122.282 113.655 122.155C114.313 122.007 114.93 121.769 115.506 121.442C116.022 121.136 116.461 121.04 116.823 121.156C117.184 121.252 117.436 121.459 117.58 121.777C117.744 122.095 117.768 122.455 117.653 122.856C117.558 123.237 117.282 123.571 116.825 123.856C116.131 124.305 115.325 124.645 114.408 124.876C113.51 125.087 112.672 125.197 111.892 125.206ZM111.197 112.494C110.097 112.507 109.211 112.858 108.539 113.546C107.868 114.235 107.469 115.16 107.343 116.321L114.723 116.231C114.628 115.012 114.276 114.087 113.669 113.454C113.081 112.801 112.257 112.481 111.197 112.494ZM39.1712 167.095C37.1313 167.12 35.336 166.691 33.7851 165.81C32.2543 164.929 31.059 163.683 30.1994 162.074C29.3395 160.444 28.8961 158.529 28.8693 156.329C28.8423 154.11 29.2389 152.185 30.0591 150.555C30.8793 148.924 32.044 147.66 33.5532 146.762C35.0621 145.843 36.8465 145.372 38.9064 145.346C40.9662 145.321 42.7616 145.75 44.2924 146.631C45.823 147.492 47.0182 148.728 47.8778 150.338C48.7375 151.947 49.1807 153.852 49.2075 156.052C49.2345 158.272 48.838 160.207 48.0181 161.857C47.1978 163.487 46.0333 164.761 44.5243 165.68C43.0154 166.598 41.231 167.07 39.1712 167.095ZM39.131 163.795C41.0709 163.771 42.5726 163.083 43.6362 161.73C44.6998 160.377 45.2171 158.511 45.1881 156.131C45.1589 153.731 44.5963 151.878 43.5003 150.571C42.4243 149.264 40.9064 148.622 38.9466 148.646C37.0067 148.67 35.5048 149.348 34.441 150.681C33.3771 152.014 32.8598 153.881 32.8891 156.281C32.918 158.66 33.4806 160.514 34.5769 161.84C35.6731 163.167 37.1911 163.819 39.131 163.795ZM54.8097 172.245C53.5698 172.26 52.9422 171.638 52.9268 170.378L52.7227 153.609C52.7073 152.349 53.3096 151.712 54.5295 151.697C55.7694 151.682 56.3971 152.304 56.4124 153.564L56.4201 154.194C56.8306 153.409 57.453 152.781 58.2873 152.311C59.1214 151.821 60.0784 151.569 61.1583 151.556C62.4382 151.54 63.5619 151.837 64.5294 152.445C65.5169 153.053 66.2875 153.924 66.8414 155.057C67.395 156.17 67.6814 157.517 67.7006 159.097C67.7196 160.657 67.4662 162.02 66.9403 163.186C66.4143 164.333 65.675 165.222 64.7226 165.854C63.7703 166.485 62.6441 166.809 61.3442 166.825C60.3043 166.838 59.3617 166.629 58.5164 166.199C57.6909 165.749 57.0535 165.147 56.6043 164.392L56.6766 170.332C56.6919 171.592 56.0696 172.229 54.8097 172.245ZM60.2596 163.988C61.3795 163.974 62.2746 163.563 62.9448 162.755C63.6148 161.927 63.9401 160.723 63.9209 159.143C63.9014 157.543 63.5469 156.357 62.8575 155.586C62.1678 154.794 61.263 154.405 60.1431 154.419C59.0232 154.432 58.1281 154.843 57.4579 155.651C56.7874 156.44 56.462 157.634 56.4814 159.234C56.5007 160.813 56.8553 162.009 57.5452 162.821C58.2349 163.612 59.1397 164.002 60.2596 163.988ZM78.1013 166.621C76.4414 166.641 75.0077 166.348 73.8003 165.743C72.5928 165.138 71.6522 164.269 70.9783 163.137C70.3245 162.005 69.9881 160.659 69.9691 159.099C69.9506 157.579 70.2444 156.246 70.8504 155.098C71.4765 153.951 72.3356 153.05 73.4277 152.397C74.5396 151.723 75.8055 151.378 77.2254 151.36C79.3053 151.335 80.9532 151.975 82.1691 153.28C83.4051 154.585 84.037 156.378 84.0648 158.658C84.0738 159.398 83.5983 159.773 82.6384 159.785L73.579 159.895C73.8909 162.512 75.4068 163.803 78.1266 163.77C78.6465 163.764 79.2257 163.697 79.8642 163.569C80.5225 163.421 81.1396 163.184 81.7157 162.857C82.232 162.55 82.6709 162.455 83.0323 162.571C83.3935 162.666 83.646 162.873 83.7899 163.191C83.9538 163.509 83.9782 163.869 83.8631 164.271C83.7677 164.652 83.4917 164.985 83.0352 165.271C82.3406 165.719 81.5347 166.059 80.6174 166.29C79.7199 166.501 78.8812 166.611 78.1013 166.621ZM77.4064 153.908C76.3065 153.922 75.4207 154.273 74.7491 154.961C74.0774 155.649 73.6786 156.574 73.5527 157.736L80.9322 157.646C80.8374 156.427 80.4861 155.501 79.8783 154.868C79.2903 154.215 78.4664 153.895 77.4064 153.908ZM89.0495 166.428C87.7696 166.443 87.1218 165.811 87.1063 164.531L86.9682 153.192C86.9529 151.932 87.5551 151.295 88.775 151.28C89.995 151.265 90.6126 151.887 90.6279 153.147L90.6392 154.077C91.3382 152.349 92.8664 151.37 95.2238 151.141C96.0826 151.031 96.5685 151.515 96.6816 152.594C96.7945 153.652 96.2817 154.249 95.1433 154.382L94.4841 154.45C92.0272 154.72 90.8126 155.995 90.8404 158.275L90.916 164.485C90.9316 165.765 90.3094 166.412 89.0495 166.428ZM103.561 166.311C102.501 166.324 101.548 166.135 100.704 165.746C99.8786 165.336 99.2218 164.784 98.7333 164.089C98.2648 163.395 98.0252 162.608 98.0145 161.728C98.0013 160.648 98.271 159.795 98.8234 159.168C99.3756 158.521 100.28 158.05 101.536 157.755C102.793 157.46 104.481 157.299 106.601 157.273L107.651 157.26L107.643 156.63C107.631 155.631 107.402 154.913 106.957 154.479C106.512 154.044 105.769 153.833 104.729 153.846C104.149 153.853 103.52 153.93 102.842 154.079C102.183 154.227 101.486 154.475 100.751 154.824C100.273 155.05 99.8738 155.085 99.5518 154.929C99.2297 154.753 99.0064 154.485 98.882 154.127C98.7774 153.748 98.7928 153.368 98.9281 152.986C99.0835 152.604 99.3901 152.321 99.8478 152.135C100.763 151.744 101.64 151.463 102.478 151.293C103.336 151.122 104.115 151.033 104.815 151.024C106.955 150.998 108.551 151.479 109.603 152.466C110.654 153.434 111.193 154.957 111.218 157.037L111.306 164.236C111.322 165.516 110.749 166.163 109.59 166.177C108.41 166.192 107.812 165.559 107.796 164.279L107.788 163.619C107.458 164.443 106.926 165.1 106.192 165.589C105.458 166.058 104.581 166.298 103.561 166.311ZM104.309 163.722C105.289 163.71 106.095 163.36 106.727 162.672C107.378 161.984 107.698 161.12 107.685 160.08L107.677 159.42L106.657 159.433C104.777 159.456 103.469 159.621 102.733 159.93C102.016 160.219 101.663 160.744 101.672 161.504C101.68 162.163 101.917 162.701 102.382 163.115C102.847 163.529 103.489 163.732 104.309 163.722ZM121.856 166.088C117.976 166.135 116.013 164.239 115.966 160.399L115.888 154.01L114.328 154.029C113.328 154.041 112.823 153.577 112.811 152.637C112.8 151.697 113.294 151.221 114.294 151.209L115.854 151.19L115.821 148.46C115.805 147.2 116.427 146.563 117.687 146.547C118.927 146.532 119.555 147.155 119.57 148.415L119.603 151.144L122.783 151.106C123.783 151.094 124.289 151.557 124.3 152.497C124.312 153.437 123.818 153.913 122.818 153.926L119.638 153.964L119.713 160.144C119.725 161.104 119.944 161.821 120.369 162.296C120.795 162.771 121.478 163.002 122.418 162.991C122.758 162.987 123.058 162.953 123.317 162.89C123.576 162.827 123.806 162.784 124.005 162.762C124.245 162.739 124.446 162.816 124.608 162.994C124.77 163.152 124.854 163.491 124.861 164.011C124.865 164.411 124.8 164.772 124.664 165.094C124.547 165.395 124.32 165.608 123.981 165.732C123.722 165.815 123.383 165.89 122.964 165.955C122.545 166.04 122.176 166.084 121.856 166.088ZM128.671 148.034C127.971 148.042 127.419 147.879 127.015 147.544C126.63 147.189 126.434 146.701 126.427 146.081C126.419 145.441 126.603 144.949 126.979 144.604C127.375 144.259 127.923 144.083 128.623 144.074C130.103 144.056 130.85 144.707 130.867 146.027C130.883 147.347 130.151 148.016 128.671 148.034ZM128.889 165.912C128.289 165.92 127.826 165.745 127.502 165.389C127.178 165.033 127.012 164.535 127.004 163.895L126.87 152.886C126.853 151.526 127.465 150.839 128.705 150.824C129.965 150.808 130.603 151.481 130.619 152.84L130.754 163.85C130.761 164.49 130.607 164.991 130.292 165.355C129.976 165.719 129.508 165.905 128.889 165.912ZM140.614 165.8C139.615 165.812 138.868 165.291 138.375 164.237L133.471 153.226C133.183 152.569 133.166 151.989 133.42 151.486C133.694 150.983 134.241 150.726 135.06 150.716C135.52 150.711 135.892 150.816 136.174 151.033C136.457 151.229 136.712 151.616 136.939 152.193L140.648 161.149L144.258 152.074C144.471 151.512 144.716 151.129 144.994 150.925C145.291 150.702 145.69 150.587 146.19 150.581C146.83 150.573 147.283 150.817 147.549 151.314C147.815 151.811 147.812 152.381 147.539 153.024L142.815 164.183C142.388 165.248 141.654 165.787 140.614 165.8ZM157.431 165.655C155.771 165.675 154.338 165.383 153.13 164.777C151.923 164.172 150.982 163.303 150.308 162.171C149.655 161.039 149.318 159.693 149.299 158.133C149.281 156.614 149.574 155.28 150.181 154.132C150.807 152.985 151.666 152.084 152.758 151.431C153.87 150.757 155.136 150.412 156.555 150.395C158.635 150.369 160.283 151.009 161.499 152.314C162.735 153.62 163.367 155.412 163.395 157.692C163.404 158.432 162.928 158.808 161.968 158.819L152.909 158.93C153.221 161.546 154.737 162.838 157.457 162.804C157.977 162.798 158.556 162.731 159.194 162.603C159.853 162.455 160.47 162.218 161.046 161.891C161.562 161.584 162.001 161.489 162.362 161.605C162.724 161.7 162.976 161.907 163.12 162.225C163.284 162.543 163.308 162.903 163.193 163.305C163.098 163.686 162.822 164.019 162.365 164.305C161.671 164.753 160.865 165.093 159.947 165.324C159.05 165.535 158.211 165.645 157.431 165.655ZM156.737 152.942C155.637 152.956 154.751 153.307 154.079 153.995C153.407 154.683 153.009 155.608 152.883 156.77L160.262 156.68C160.167 155.461 159.816 154.535 159.208 153.902C158.62 153.25 157.796 152.93 156.737 152.942ZM67.2051 207.457C65.8452 207.473 65.157 206.801 65.1404 205.442L64.9326 188.373C64.916 187.013 65.5877 186.325 66.9476 186.308L72.7672 186.237C76.3069 186.194 79.0478 187.071 80.9898 188.867C82.9518 190.664 83.9535 193.262 83.9949 196.661C84.0361 200.041 83.0979 202.663 81.1805 204.526C79.283 206.389 76.5644 207.343 73.0247 207.386L67.2051 207.457ZM68.9663 204.255L72.746 204.209C77.6256 204.149 80.0354 201.65 79.9752 196.71C79.9153 191.791 77.4456 189.361 72.5659 189.42L68.7862 189.466L68.9663 204.255ZM92.4884 207.449C91.4285 207.462 90.4762 207.273 89.6314 206.883C88.8063 206.473 88.1495 205.921 87.661 205.227C87.1926 204.533 86.953 203.746 86.9422 202.866C86.9291 201.786 87.1987 200.933 87.7511 200.306C88.3033 199.659 89.2076 199.188 90.4641 198.893C91.7206 198.597 93.4088 198.437 95.5286 198.411L96.5786 198.398L96.5709 197.768C96.5587 196.768 96.33 196.051 95.8846 195.616C95.4393 195.182 94.6967 194.971 93.6568 194.984C93.0768 194.991 92.4477 195.068 91.7695 195.217C91.1112 195.365 90.4142 195.613 89.6784 195.962C89.2011 196.188 88.8015 196.223 88.4796 196.067C88.1574 195.891 87.9341 195.623 87.8098 195.265C87.7051 194.886 87.7205 194.506 87.8559 194.124C88.0112 193.742 88.3178 193.458 88.7756 193.273C89.6909 192.882 90.5675 192.601 91.4055 192.431C92.2635 192.26 93.0425 192.171 93.7424 192.162C95.8823 192.136 97.4782 192.617 98.5303 193.604C99.5822 194.571 100.121 196.095 100.146 198.175L100.234 205.374C100.249 206.654 99.6772 207.301 98.5173 207.315C97.3374 207.33 96.7396 206.697 96.724 205.417L96.716 204.757C96.386 205.581 95.854 206.238 95.1198 206.727C94.3855 207.196 93.5084 207.436 92.4884 207.449ZM93.237 204.859C94.2169 204.847 95.0227 204.498 95.6544 203.81C96.3061 203.122 96.6256 202.258 96.6129 201.218L96.6049 200.558L95.5849 200.571C93.7051 200.593 92.397 200.759 91.6607 201.068C90.9442 201.357 90.5905 201.881 90.5998 202.641C90.6078 203.301 90.8444 203.838 91.3094 204.253C91.7745 204.667 92.417 204.869 93.237 204.859ZM110.783 207.226C106.904 207.273 104.94 205.377 104.894 201.537L104.816 195.148L103.256 195.167C102.256 195.179 101.75 194.715 101.739 193.775C101.727 192.835 102.222 192.359 103.222 192.347L104.782 192.328L104.748 189.598C104.733 188.338 105.355 187.701 106.615 187.685C107.855 187.67 108.483 188.293 108.498 189.552L108.531 192.282L111.711 192.244C112.711 192.231 113.217 192.695 113.228 193.635C113.24 194.575 112.745 195.051 111.745 195.063L108.566 195.102L108.641 201.282C108.652 202.242 108.871 202.959 109.297 203.434C109.723 203.909 110.406 204.14 111.346 204.129C111.686 204.125 111.985 204.091 112.245 204.028C112.504 203.965 112.733 203.922 112.933 203.9C113.173 203.877 113.374 203.954 113.536 204.132C113.698 204.29 113.782 204.629 113.788 205.149C113.793 205.549 113.728 205.91 113.591 206.232C113.475 206.533 113.248 206.746 112.909 206.87C112.65 206.953 112.311 207.027 111.892 207.092C111.473 207.178 111.103 207.222 110.783 207.226ZM120.406 207.109C119.346 207.122 118.394 206.933 117.549 206.544C116.724 206.134 116.067 205.582 115.579 204.887C115.11 204.193 114.871 203.406 114.86 202.526C114.847 201.446 115.117 200.593 115.669 199.966C116.221 199.319 117.125 198.848 118.382 198.553C119.638 198.258 121.327 198.097 123.446 198.071L124.496 198.058L124.489 197.428C124.477 196.428 124.248 195.711 123.802 195.277C123.357 194.842 122.615 194.631 121.575 194.644C120.995 194.651 120.366 194.728 119.687 194.877C119.029 195.025 118.332 195.273 117.596 195.622C117.119 195.848 116.719 195.883 116.397 195.727C116.075 195.551 115.852 195.283 115.728 194.925C115.623 194.546 115.638 194.166 115.774 193.784C115.929 193.402 116.236 193.119 116.693 192.933C117.609 192.542 118.485 192.261 119.323 192.091C120.181 191.92 120.96 191.831 121.66 191.822C123.8 191.796 125.396 192.277 126.448 193.264C127.5 194.231 128.039 195.755 128.064 197.835L128.152 205.034C128.167 206.314 127.595 206.961 126.435 206.975C125.255 206.99 124.657 206.357 124.642 205.077L124.634 204.417C124.304 205.241 123.772 205.898 123.038 206.387C122.303 206.856 121.426 207.096 120.406 207.109ZM121.155 204.52C122.135 204.508 122.941 204.158 123.572 203.47C124.224 202.782 124.543 201.918 124.531 200.878L124.523 200.218L123.503 200.231C121.623 200.253 120.315 200.419 119.579 200.728C118.862 201.017 118.508 201.542 118.518 202.301C118.526 202.961 118.762 203.499 119.227 203.913C119.692 204.327 120.335 204.529 121.155 204.52Z" fill="#00218A" fill-opacity="0.3"/>
<defs>
<filter id="filter0_d" x="0" y="0.623047" width="226.341" height="338.136" filterUnits="userSpaceOnUse" color-interpolation-filters="sRGB">
<feFlood flood-opacity="0" result="BackgroundImageFix"/>
<feColorMatrix in="SourceAlpha" type="matrix" values="0 0 0 0 0 0 0 0 0 0 0 0 0 0 0 0 0 0 127 0"/>
<feOffset dy="4"/>
<feGaussianBlur stdDeviation="2"/>
<feColorMatrix type="matrix" values="0 0 0 0 0.83401 0 0 0 0 0.85569 0 0 0 0 0.995833 0 0 0 0.46 0"/>
<feBlend mode="normal" in2="BackgroundImageFix" result="effect1_dropShadow"/>
<feBlend mode="normal" in="SourceGraphic" in2="effect1_dropShadow" result="shape"/>
</filter>
</defs>
</svg>
