<svg width="297" height="268" viewBox="0 0 297 268" fill="none" xmlns="http://www.w3.org/2000/svg">
<g filter="url(#filter0_d)">
<mask id="path-1-inside-1" fill="white">
<path fill-rule="evenodd" clip-rule="evenodd" d="M183.692 59.0243C235.417 97.1988 273.584 150.91 292.619 212.314L141.806 259.065C123.374 203.692 70.5563 163.709 8.27557 163.709C6.98642 163.709 5.70132 163.727 4.42049 163.761L4.10156 0C68.3887 0.0884427 131.966 20.8499 183.692 59.0243Z"/>
</mask>
<path fill-rule="evenodd" clip-rule="evenodd" d="M183.692 59.0243C235.417 97.1988 273.584 150.91 292.619 212.314L141.806 259.065C123.374 203.692 70.5563 163.709 8.27557 163.709C6.98642 163.709 5.70132 163.727 4.42049 163.761L4.10156 0C68.3887 0.0884427 131.966 20.8499 183.692 59.0243Z" fill="#D5DAFE" fill-opacity="0.3"/>
<path d="M292.619 212.314L293.804 216.135L297.624 214.951L296.44 211.13L292.619 212.314ZM183.692 59.0243L181.316 62.2427L183.692 59.0243ZM141.806 259.065L138.011 260.328L139.249 264.046L142.991 262.886L141.806 259.065ZM4.42049 163.761L0.420499 163.768L0.428484 167.868L4.52677 167.759L4.42049 163.761ZM4.10156 0L4.10707 -4L0.0937538 -4.00552L0.10157 0.00779012L4.10156 0ZM296.44 211.13C277.152 148.911 238.479 94.4869 186.067 55.8059L181.316 62.2427C232.356 99.9106 270.016 152.909 288.799 213.499L296.44 211.13ZM142.991 262.886L293.804 216.135L291.435 208.494L140.622 255.244L142.991 262.886ZM8.27557 167.709C68.8116 167.709 120.115 206.568 138.011 260.328L145.602 257.802C126.632 200.816 72.301 159.709 8.27557 159.709V167.709ZM4.52677 167.759C5.77219 167.726 7.02187 167.709 8.27557 167.709V159.709C6.95097 159.709 5.63044 159.727 4.31422 159.762L4.52677 167.759ZM0.10157 0.00779012L0.420499 163.768L8.42048 163.753L8.10155 -0.00779012L0.10157 0.00779012ZM186.067 55.8059C133.648 17.1198 69.2386 -3.91039 4.10707 -4L4.09606 4C67.5388 4.08728 130.284 24.58 181.316 62.2427L186.067 55.8059Z" fill="white" mask="url(#path-1-inside-1)"/>
</g>
<path d="M120.375 122.563C117.476 122.509 115.27 121.718 113.758 120.19C112.266 118.642 111.548 116.389 111.603 113.429L111.802 102.661C111.826 101.361 112.478 100.723 113.758 100.747C115.038 100.771 115.665 101.432 115.641 102.732L115.443 113.47C115.407 115.37 115.811 116.808 116.653 117.783C117.515 118.739 118.776 119.233 120.436 119.264C123.816 119.326 125.54 117.458 125.611 113.658L125.81 102.92C125.834 101.62 126.486 100.982 127.765 101.006C129.025 101.029 129.643 101.691 129.619 102.991L129.42 113.759C129.365 116.718 128.573 118.944 127.046 120.436C125.518 121.908 123.295 122.617 120.375 122.563ZM141.02 122.945C139.68 122.92 138.373 122.746 137.099 122.423C135.845 122.099 134.753 121.629 133.825 121.012C133.37 120.703 133.097 120.328 133.005 119.886C132.913 119.445 132.951 119.035 133.118 118.658C133.305 118.262 133.58 117.997 133.943 117.863C134.326 117.71 134.754 117.788 135.229 118.097C136.099 118.633 137.022 119.031 137.997 119.289C138.973 119.547 140 119.686 141.08 119.706C142.66 119.735 143.814 119.496 144.544 118.99C145.274 118.463 145.646 117.78 145.662 116.94C145.675 116.24 145.425 115.686 144.913 115.276C144.42 114.867 143.556 114.521 142.321 114.238L139.035 113.487C135.29 112.617 133.446 110.653 133.503 107.593C133.527 106.274 133.899 105.13 134.617 104.163C135.335 103.197 136.318 102.455 137.568 101.938C138.818 101.421 140.253 101.177 141.872 101.207C143.072 101.23 144.209 101.401 145.284 101.721C146.358 102.04 147.32 102.498 148.169 103.094C148.563 103.382 148.797 103.736 148.869 104.157C148.942 104.559 148.885 104.938 148.698 105.294C148.512 105.631 148.217 105.866 147.815 105.998C147.433 106.111 146.984 106.013 146.47 105.703C145.738 105.27 144.994 104.956 144.237 104.762C143.481 104.568 142.662 104.462 141.783 104.446C140.403 104.421 139.318 104.691 138.527 105.256C137.736 105.822 137.332 106.574 137.315 107.514C137.302 108.234 137.531 108.818 138.003 109.267C138.475 109.696 139.289 110.041 140.444 110.302L143.701 111.053C145.672 111.509 147.13 112.196 148.073 113.114C149.036 114.032 149.504 115.241 149.476 116.741C149.453 118 149.092 119.104 148.395 120.051C147.697 120.998 146.713 121.73 145.444 122.247C144.194 122.744 142.72 122.977 141.02 122.945ZM162.822 123.349C160.482 123.306 158.511 122.829 156.907 121.919C155.324 121.01 154.127 119.737 153.318 118.102C152.508 116.467 152.123 114.539 152.164 112.32C152.206 110.08 152.671 108.158 153.561 106.555C154.452 104.931 155.715 103.694 157.351 102.844C158.987 101.974 160.935 101.56 163.195 101.602C164.314 101.623 165.432 101.783 166.546 102.084C167.681 102.365 168.743 102.835 169.731 103.493C170.166 103.761 170.409 104.116 170.461 104.557C170.533 104.978 170.466 105.377 170.259 105.753C170.052 106.13 169.747 106.394 169.344 106.547C168.942 106.679 168.503 106.601 168.028 106.312C167.277 105.858 166.513 105.524 165.736 105.31C164.96 105.095 164.092 104.979 163.132 104.961C160.893 104.92 159.181 105.538 157.997 106.817C156.833 108.095 156.229 109.955 156.184 112.394C156.138 114.854 156.693 116.734 157.85 118.036C159.006 119.338 160.743 120.01 163.063 120.053C163.723 120.065 164.394 120.027 165.076 119.94C165.778 119.833 166.471 119.676 167.155 119.468L167.246 114.549L163.946 114.488C162.906 114.469 162.395 113.979 162.413 113.02C162.431 112.08 162.959 111.619 163.999 111.639L168.948 111.73C169.988 111.75 170.498 112.279 170.479 113.319L170.344 120.608C170.327 121.527 169.956 122.111 169.231 122.357C168.346 122.661 167.331 122.912 166.187 123.111C165.043 123.29 163.922 123.369 162.822 123.349ZM110.866 163.094C109.507 163.069 108.839 162.376 108.865 161.017L109.18 143.95C109.206 142.59 109.898 141.922 111.258 141.948L117.077 142.055C120.616 142.121 123.329 143.081 125.215 144.936C127.121 146.792 128.042 149.42 127.98 152.819C127.917 156.198 126.899 158.79 124.925 160.594C122.971 162.398 120.225 163.267 116.685 163.202L110.866 163.094ZM112.725 159.948L116.504 160.018C121.383 160.108 123.869 157.684 123.96 152.745C124.051 147.825 121.657 145.321 116.778 145.23L112.999 145.16L112.725 159.948ZM136.138 163.862C135.078 163.842 134.132 163.625 133.3 163.209C132.488 162.774 131.848 162.202 131.381 161.493C130.934 160.785 130.719 159.991 130.735 159.111C130.755 158.031 131.051 157.187 131.622 156.577C132.194 155.948 133.112 155.504 134.377 155.248C135.642 154.991 137.334 154.882 139.454 154.922L140.504 154.941L140.516 154.311C140.534 153.311 140.327 152.587 139.896 152.139C139.464 151.691 138.728 151.458 137.688 151.438C137.108 151.428 136.477 151.486 135.795 151.613C135.132 151.741 134.428 151.968 133.682 152.294C133.198 152.506 132.797 152.528 132.48 152.362C132.164 152.176 131.949 151.902 131.835 151.54C131.742 151.158 131.769 150.779 131.917 150.401C132.084 150.024 132.399 149.75 132.862 149.579C133.789 149.216 134.674 148.962 135.516 148.818C136.379 148.674 137.161 148.608 137.86 148.621C140 148.661 141.581 149.19 142.602 150.209C143.624 151.208 144.115 152.748 144.077 154.827L143.943 162.026C143.92 163.306 143.328 163.935 142.168 163.914C140.988 163.892 140.41 163.241 140.434 161.961L140.446 161.301C140.091 162.115 139.539 162.755 138.79 163.221C138.042 163.667 137.158 163.881 136.138 163.862ZM136.966 161.297C137.946 161.315 138.762 160.99 139.414 160.322C140.087 159.654 140.433 158.801 140.452 157.761L140.464 157.101L139.444 157.082C137.564 157.047 136.252 157.173 135.506 157.459C134.781 157.726 134.412 158.239 134.398 158.999C134.386 159.659 134.606 160.203 135.058 160.631C135.51 161.06 136.146 161.282 136.966 161.297ZM154.431 164.201C150.552 164.129 148.648 162.173 148.719 158.334L148.837 151.945L147.277 151.916C146.278 151.898 145.786 151.418 145.804 150.478C145.821 149.539 146.33 149.078 147.33 149.097L148.889 149.125L148.94 146.396C148.963 145.136 149.605 144.518 150.864 144.541C152.104 144.564 152.712 145.205 152.689 146.465L152.639 149.195L155.818 149.254C156.818 149.272 157.309 149.751 157.292 150.691C157.274 151.631 156.766 152.092 155.766 152.073L152.586 152.014L152.472 158.193C152.454 159.153 152.651 159.877 153.062 160.365C153.473 160.852 154.148 161.105 155.088 161.122C155.428 161.128 155.729 161.104 155.99 161.049C156.251 160.994 156.482 160.958 156.682 160.942C156.922 160.926 157.121 161.01 157.277 161.193C157.434 161.356 157.508 161.697 157.498 162.217C157.491 162.617 157.414 162.976 157.268 163.293C157.143 163.591 156.909 163.796 156.567 163.91C156.306 163.985 155.964 164.049 155.543 164.101C155.122 164.173 154.751 164.206 154.431 164.201ZM164.053 164.379C162.993 164.359 162.047 164.142 161.215 163.726C160.403 163.291 159.763 162.719 159.296 162.01C158.849 161.302 158.634 160.508 158.65 159.628C158.67 158.548 158.966 157.703 159.537 157.094C160.109 156.464 161.027 156.021 162.292 155.765C163.557 155.508 165.25 155.399 167.369 155.439L168.419 155.458L168.431 154.828C168.449 153.828 168.243 153.104 167.811 152.656C167.379 152.208 166.643 151.974 165.603 151.955C165.024 151.945 164.392 152.003 163.71 152.13C163.047 152.258 162.343 152.485 161.597 152.811C161.113 153.022 160.712 153.045 160.395 152.879C160.079 152.693 159.864 152.419 159.751 152.057C159.658 151.675 159.685 151.296 159.832 150.918C159.999 150.541 160.314 150.267 160.777 150.096C161.704 149.733 162.589 149.479 163.432 149.335C164.294 149.191 165.076 149.125 165.776 149.138C167.915 149.178 169.496 149.707 170.517 150.726C171.539 151.725 172.03 153.264 171.992 155.344L171.859 162.543C171.835 163.823 171.243 164.452 170.083 164.43C168.904 164.408 168.325 163.758 168.349 162.478L168.361 161.818C168.006 162.632 167.454 163.271 166.706 163.738C165.957 164.184 165.073 164.398 164.053 164.379ZM164.881 161.814C165.861 161.832 166.677 161.507 167.329 160.839C168.002 160.171 168.348 159.317 168.367 158.277L168.379 157.618L167.359 157.599C165.48 157.564 164.167 157.69 163.422 157.976C162.697 158.243 162.327 158.756 162.313 159.516C162.301 160.176 162.521 160.72 162.973 161.148C163.425 161.577 164.061 161.798 164.881 161.814Z" fill="#00218A" fill-opacity="0.3"/>
<defs>
<filter id="filter0_d" x="0.101562" y="0" width="296.518" height="267.065" filterUnits="userSpaceOnUse" color-interpolation-filters="sRGB">
<feFlood flood-opacity="0" result="BackgroundImageFix"/>
<feColorMatrix in="SourceAlpha" type="matrix" values="0 0 0 0 0 0 0 0 0 0 0 0 0 0 0 0 0 0 127 0"/>
<feOffset dy="4"/>
<feGaussianBlur stdDeviation="2"/>
<feColorMatrix type="matrix" values="0 0 0 0 0.83401 0 0 0 0 0.85569 0 0 0 0 0.995833 0 0 0 0.46 0"/>
<feBlend mode="normal" in2="BackgroundImageFix" result="effect1_dropShadow"/>
<feBlend mode="normal" in="SourceGraphic" in2="effect1_dropShadow" result="shape"/>
</filter>
</defs>
</svg>
