<svg width="244" height="244" viewBox="0 0 244 244" fill="none" xmlns="http://www.w3.org/2000/svg">
<g filter="url(#filter0_d)">
<circle cx="122" cy="118" r="118" fill="#D5DAFE" fill-opacity="0.3"/>
<circle cx="122" cy="118" r="116" stroke="white" stroke-width="4"/>
</g>
<path d="M70.8128 103.36C67.0528 103.36 64.1728 102.373 62.1728 100.4C60.1995 98.4 59.2128 95.48 59.2128 91.64V76.6C59.2128 75.2133 59.9061 74.52 61.2928 74.52C62.6795 74.52 63.3728 75.2133 63.3728 76.6V91.56C63.3728 97.0267 65.8528 99.76 70.8128 99.76C75.7728 99.76 78.2528 97.0267 78.2528 91.56V76.6C78.2528 75.2133 78.9328 74.52 80.2928 74.52C81.6528 74.52 82.3328 75.2133 82.3328 76.6V91.64C82.3328 95.48 81.3595 98.4 79.4128 100.4C77.4661 102.373 74.5995 103.36 70.8128 103.36ZM90.3088 110.48C88.9754 110.48 88.3088 109.8 88.3088 108.44V85.24C88.3088 83.88 88.9621 83.2 90.2688 83.2C91.6021 83.2 92.2688 83.88 92.2688 85.24V86.76C92.8554 85.64 93.7221 84.76 94.8688 84.12C96.0154 83.4533 97.3221 83.12 98.7888 83.12C100.522 83.12 102.029 83.5333 103.309 84.36C104.615 85.1867 105.615 86.36 106.309 87.88C107.029 89.3733 107.389 91.16 107.389 93.24C107.389 95.32 107.029 97.12 106.309 98.64C105.615 100.16 104.615 101.333 103.309 102.16C102.029 102.96 100.522 103.36 98.7888 103.36C97.3488 103.36 96.0554 103.053 94.9088 102.44C93.7888 101.8 92.9354 100.933 92.3488 99.84V108.44C92.3488 109.8 91.6688 110.48 90.3088 110.48ZM97.7888 100.24C99.4688 100.24 100.802 99.64 101.789 98.44C102.802 97.24 103.309 95.5067 103.309 93.24C103.309 90.9733 102.802 89.2533 101.789 88.08C100.802 86.88 99.4688 86.28 97.7888 86.28C96.1088 86.28 94.7621 86.88 93.7488 88.08C92.7621 89.2533 92.2688 90.9733 92.2688 93.24C92.2688 95.5067 92.7621 97.24 93.7488 98.44C94.7621 99.64 96.1088 100.24 97.7888 100.24ZM118.222 103.36C116.142 103.36 114.568 102.76 113.502 101.56C112.462 100.36 111.942 98.6 111.942 96.28V76.56C111.942 75.2 112.608 74.52 113.942 74.52C115.302 74.52 115.982 75.2 115.982 76.56V96.04C115.982 98.68 117.048 100 119.182 100C119.422 100 119.635 99.9867 119.822 99.96C120.008 99.9333 120.195 99.92 120.382 99.92C120.702 99.8933 120.928 99.9867 121.062 100.2C121.195 100.387 121.262 100.787 121.262 101.4C121.262 102.493 120.755 103.12 119.742 103.28C119.475 103.307 119.208 103.32 118.942 103.32C118.702 103.347 118.462 103.36 118.222 103.36ZM132.453 103.36C130.479 103.36 128.773 102.947 127.333 102.12C125.893 101.293 124.773 100.133 123.973 98.64C123.199 97.12 122.813 95.32 122.813 93.24C122.813 91.16 123.199 89.3733 123.973 87.88C124.773 86.36 125.893 85.1867 127.333 84.36C128.773 83.5333 130.479 83.12 132.453 83.12C134.373 83.12 136.053 83.5333 137.493 84.36C138.933 85.1867 140.053 86.36 140.853 87.88C141.653 89.3733 142.053 91.16 142.053 93.24C142.053 95.32 141.653 97.12 140.853 98.64C140.053 100.133 138.933 101.293 137.493 102.12C136.053 102.947 134.373 103.36 132.453 103.36ZM132.453 100.24C134.106 100.24 135.439 99.64 136.453 98.44C137.466 97.24 137.973 95.5067 137.973 93.24C137.973 90.9733 137.466 89.2533 136.453 88.08C135.439 86.88 134.106 86.28 132.453 86.28C130.773 86.28 129.426 86.88 128.413 88.08C127.399 89.2533 126.893 90.9733 126.893 93.24C126.893 95.5067 127.399 97.24 128.413 98.44C129.426 99.64 130.773 100.24 132.453 100.24ZM152.83 103.36C151.47 103.36 150.257 103.093 149.19 102.56C148.123 102.027 147.27 101.307 146.63 100.4C146.017 99.4933 145.71 98.4667 145.71 97.32C145.71 95.88 146.07 94.7467 146.79 93.92C147.537 93.0933 148.75 92.4933 150.43 92.12C152.137 91.7467 154.43 91.56 157.31 91.56H158.67V90.52C158.67 89 158.35 87.9067 157.71 87.24C157.07 86.5733 156.017 86.24 154.55 86.24C153.697 86.24 152.803 86.3467 151.87 86.56C150.963 86.7733 150.017 87.1333 149.03 87.64C148.47 87.9067 148.003 87.9467 147.63 87.76C147.283 87.5733 147.043 87.28 146.91 86.88C146.777 86.48 146.79 86.0667 146.95 85.64C147.11 85.2133 147.443 84.8933 147.95 84.68C149.123 84.1467 150.283 83.76 151.43 83.52C152.577 83.2533 153.657 83.12 154.67 83.12C157.337 83.12 159.31 83.76 160.59 85.04C161.87 86.2933 162.51 88.2667 162.51 90.96V101.24C162.51 102.6 161.883 103.28 160.63 103.28C159.35 103.28 158.71 102.6 158.71 101.24V99.76C158.23 100.88 157.483 101.76 156.47 102.4C155.457 103.04 154.243 103.36 152.83 103.36ZM153.63 100.48C155.07 100.48 156.27 99.9733 157.23 98.96C158.19 97.9467 158.67 96.6667 158.67 95.12V94.04H157.35C155.403 94.04 153.87 94.1333 152.75 94.32C151.657 94.5067 150.87 94.8267 150.39 95.28C149.937 95.7067 149.71 96.3067 149.71 97.08C149.71 98.0933 150.057 98.92 150.75 99.56C151.443 100.173 152.403 100.48 153.63 100.48ZM175.514 103.36C173.808 103.36 172.301 102.96 170.994 102.16C169.714 101.333 168.714 100.16 167.994 98.64C167.274 97.12 166.914 95.32 166.914 93.24C166.914 91.16 167.274 89.3733 167.994 87.88C168.714 86.36 169.714 85.1867 170.994 84.36C172.274 83.5333 173.781 83.12 175.514 83.12C176.981 83.12 178.288 83.44 179.434 84.08C180.581 84.72 181.434 85.5867 181.994 86.68V76.56C181.994 75.2 182.661 74.52 183.994 74.52C185.354 74.52 186.034 75.2 186.034 76.56V101.24C186.034 102.6 185.368 103.28 184.034 103.28C182.701 103.28 182.034 102.6 182.034 101.24V99.72C181.448 100.84 180.581 101.733 179.434 102.4C178.288 103.04 176.981 103.36 175.514 103.36ZM176.554 100.24C178.208 100.24 179.541 99.64 180.554 98.44C181.568 97.24 182.074 95.5067 182.074 93.24C182.074 90.9733 181.568 89.2533 180.554 88.08C179.541 86.88 178.208 86.28 176.554 86.28C174.874 86.28 173.528 86.88 172.514 88.08C171.501 89.2533 170.994 90.9733 170.994 93.24C170.994 95.5067 171.501 97.24 172.514 98.44C173.528 99.64 174.874 100.24 176.554 100.24ZM56.4966 158C55.0032 158 54.2566 157.253 54.2566 155.76V132.04C54.2566 130.547 55.0032 129.8 56.4966 129.8H64.2166C68.8566 129.8 72.4299 131.013 74.9366 133.44C77.4699 135.867 78.7366 139.347 78.7366 143.88C78.7366 148.413 77.4699 151.907 74.9366 154.36C72.4299 156.787 68.8566 158 64.2166 158H56.4966ZM58.4166 154.52H63.9766C70.9366 154.52 74.4166 150.973 74.4166 143.88C74.4166 136.813 70.9366 133.28 63.9766 133.28H58.4166V154.52ZM90.0956 158.36C88.7356 158.36 87.5223 158.093 86.4556 157.56C85.389 157.027 84.5356 156.307 83.8956 155.4C83.2823 154.493 82.9756 153.467 82.9756 152.32C82.9756 150.88 83.3356 149.747 84.0556 148.92C84.8023 148.093 86.0156 147.493 87.6956 147.12C89.4023 146.747 91.6956 146.56 94.5756 146.56H95.9356V145.52C95.9356 144 95.6156 142.907 94.9756 142.24C94.3356 141.573 93.2823 141.24 91.8156 141.24C90.9623 141.24 90.069 141.347 89.1356 141.56C88.229 141.773 87.2823 142.133 86.2956 142.64C85.7356 142.907 85.269 142.947 84.8956 142.76C84.549 142.573 84.309 142.28 84.1756 141.88C84.0423 141.48 84.0556 141.067 84.2156 140.64C84.3756 140.213 84.709 139.893 85.2156 139.68C86.389 139.147 87.549 138.76 88.6956 138.52C89.8423 138.253 90.9223 138.12 91.9356 138.12C94.6023 138.12 96.5756 138.76 97.8556 140.04C99.1356 141.293 99.7756 143.267 99.7756 145.96V156.24C99.7756 157.6 99.149 158.28 97.8956 158.28C96.6156 158.28 95.9756 157.6 95.9756 156.24V154.76C95.4956 155.88 94.749 156.76 93.7356 157.4C92.7223 158.04 91.509 158.36 90.0956 158.36ZM90.8956 155.48C92.3356 155.48 93.5356 154.973 94.4956 153.96C95.4556 152.947 95.9356 151.667 95.9356 150.12V149.04H94.6156C92.669 149.04 91.1356 149.133 90.0156 149.32C88.9223 149.507 88.1356 149.827 87.6556 150.28C87.2023 150.707 86.9756 151.307 86.9756 152.08C86.9756 153.093 87.3223 153.92 88.0156 154.56C88.709 155.173 89.669 155.48 90.8956 155.48ZM113.66 158.36C111.207 158.36 109.38 157.733 108.18 156.48C106.98 155.227 106.38 153.413 106.38 151.04V141.6H103.98C102.86 141.6 102.3 141.08 102.3 140.04C102.3 139 102.86 138.48 103.98 138.48H106.38V134.36C106.38 133 107.06 132.32 108.42 132.32C109.753 132.32 110.42 133 110.42 134.36V138.48H115.1C116.22 138.48 116.78 139 116.78 140.04C116.78 141.08 116.22 141.6 115.1 141.6H110.42V150.72C110.42 152.133 110.713 153.2 111.3 153.92C111.913 154.64 112.9 155 114.26 155C114.74 155 115.153 154.96 115.5 154.88C115.847 154.773 116.153 154.707 116.42 154.68C116.713 154.68 116.953 154.787 117.14 155C117.327 155.187 117.42 155.56 117.42 156.12C117.42 156.547 117.34 156.933 117.18 157.28C117.047 157.6 116.793 157.813 116.42 157.92C116.1 158.053 115.66 158.16 115.1 158.24C114.567 158.32 114.087 158.36 113.66 158.36ZM126.189 158.36C124.829 158.36 123.616 158.093 122.549 157.56C121.483 157.027 120.629 156.307 119.989 155.4C119.376 154.493 119.069 153.467 119.069 152.32C119.069 150.88 119.429 149.747 120.149 148.92C120.896 148.093 122.109 147.493 123.789 147.12C125.496 146.747 127.789 146.56 130.669 146.56H132.029V145.52C132.029 144 131.709 142.907 131.069 142.24C130.429 141.573 129.376 141.24 127.909 141.24C127.056 141.24 126.163 141.347 125.229 141.56C124.323 141.773 123.376 142.133 122.389 142.64C121.829 142.907 121.363 142.947 120.989 142.76C120.643 142.573 120.403 142.28 120.269 141.88C120.136 141.48 120.149 141.067 120.309 140.64C120.469 140.213 120.803 139.893 121.309 139.68C122.483 139.147 123.643 138.76 124.789 138.52C125.936 138.253 127.016 138.12 128.029 138.12C130.696 138.12 132.669 138.76 133.949 140.04C135.229 141.293 135.869 143.267 135.869 145.96V156.24C135.869 157.6 135.243 158.28 133.989 158.28C132.709 158.28 132.069 157.6 132.069 156.24V154.76C131.589 155.88 130.843 156.76 129.829 157.4C128.816 158.04 127.603 158.36 126.189 158.36ZM126.989 155.48C128.429 155.48 129.629 154.973 130.589 153.96C131.549 152.947 132.029 151.667 132.029 150.12V149.04H130.709C128.763 149.04 127.229 149.133 126.109 149.32C125.016 149.507 124.229 149.827 123.749 150.28C123.296 150.707 123.069 151.307 123.069 152.08C123.069 153.093 123.416 153.92 124.109 154.56C124.803 155.173 125.763 155.48 126.989 155.48ZM148.274 158.36C147.1 158.36 145.887 158.227 144.634 157.96C143.38 157.693 142.247 157.24 141.234 156.6C140.78 156.333 140.5 156 140.394 155.6C140.287 155.2 140.314 154.827 140.474 154.48C140.634 154.133 140.887 153.893 141.234 153.76C141.607 153.6 142.02 153.64 142.474 153.88C143.514 154.44 144.514 154.84 145.474 155.08C146.434 155.32 147.38 155.44 148.314 155.44C149.727 155.44 150.794 155.187 151.514 154.68C152.234 154.173 152.594 153.493 152.594 152.64C152.594 151.947 152.354 151.413 151.874 151.04C151.394 150.64 150.674 150.333 149.714 150.12L145.914 149.36C142.554 148.667 140.874 146.933 140.874 144.16C140.874 142.32 141.607 140.853 143.074 139.76C144.54 138.667 146.46 138.12 148.834 138.12C151.234 138.12 153.3 138.707 155.034 139.88C155.46 140.147 155.714 140.48 155.794 140.88C155.874 141.253 155.82 141.613 155.634 141.96C155.447 142.28 155.167 142.507 154.794 142.64C154.447 142.773 154.034 142.72 153.554 142.48C152.754 142 151.954 141.653 151.154 141.44C150.354 141.2 149.58 141.08 148.834 141.08C147.447 141.08 146.394 141.347 145.674 141.88C144.954 142.387 144.594 143.08 144.594 143.96C144.594 145.293 145.474 146.147 147.234 146.52L151.034 147.28C152.767 147.627 154.074 148.213 154.954 149.04C155.86 149.867 156.314 150.987 156.314 152.4C156.314 154.267 155.58 155.733 154.114 156.8C152.647 157.84 150.7 158.36 148.274 158.36ZM169.969 158.36C166.769 158.36 164.249 157.467 162.409 155.68C160.569 153.867 159.649 151.4 159.649 148.28C159.649 146.28 160.049 144.52 160.849 143C161.675 141.453 162.809 140.253 164.249 139.4C165.689 138.547 167.342 138.12 169.209 138.12C171.902 138.12 174.022 138.987 175.569 140.72C177.115 142.427 177.889 144.787 177.889 147.8C177.889 148.707 177.355 149.16 176.289 149.16H163.569C163.862 153.213 166.009 155.24 170.009 155.24C170.809 155.24 171.649 155.147 172.529 154.96C173.409 154.747 174.262 154.373 175.089 153.84C175.649 153.52 176.129 153.413 176.529 153.52C176.955 153.6 177.262 153.827 177.449 154.2C177.635 154.547 177.662 154.947 177.529 155.4C177.422 155.827 177.115 156.2 176.609 156.52C175.702 157.133 174.635 157.6 173.409 157.92C172.209 158.213 171.062 158.36 169.969 158.36ZM169.369 140.96C167.689 140.96 166.355 141.48 165.369 142.52C164.382 143.56 163.782 144.947 163.569 146.68H174.489C174.409 144.867 173.929 143.467 173.049 142.48C172.169 141.467 170.942 140.96 169.369 140.96ZM190.574 158.36C188.121 158.36 186.294 157.733 185.094 156.48C183.894 155.227 183.294 153.413 183.294 151.04V141.6H180.894C179.774 141.6 179.214 141.08 179.214 140.04C179.214 139 179.774 138.48 180.894 138.48H183.294V134.36C183.294 133 183.974 132.32 185.334 132.32C186.667 132.32 187.334 133 187.334 134.36V138.48H192.014C193.134 138.48 193.694 139 193.694 140.04C193.694 141.08 193.134 141.6 192.014 141.6H187.334V150.72C187.334 152.133 187.627 153.2 188.214 153.92C188.827 154.64 189.814 155 191.174 155C191.654 155 192.067 154.96 192.414 154.88C192.761 154.773 193.067 154.707 193.334 154.68C193.627 154.68 193.867 154.787 194.054 155C194.241 155.187 194.334 155.56 194.334 156.12C194.334 156.547 194.254 156.933 194.094 157.28C193.961 157.6 193.707 157.813 193.334 157.92C193.014 158.053 192.574 158.16 192.014 158.24C191.481 158.32 191.001 158.36 190.574 158.36Z" fill="#00218A" fill-opacity="0.3"/>
<defs>
<filter id="filter0_d" x="0" y="0" width="244" height="244" filterUnits="userSpaceOnUse" color-interpolation-filters="sRGB">
<feFlood flood-opacity="0" result="BackgroundImageFix"/>
<feColorMatrix in="SourceAlpha" type="matrix" values="0 0 0 0 0 0 0 0 0 0 0 0 0 0 0 0 0 0 127 0"/>
<feOffset dy="4"/>
<feGaussianBlur stdDeviation="2"/>
<feColorMatrix type="matrix" values="0 0 0 0 0.835294 0 0 0 0 0.854902 0 0 0 0 0.996078 0 0 0 1 0"/>
<feBlend mode="normal" in2="BackgroundImageFix" result="effect1_dropShadow"/>
<feBlend mode="normal" in="SourceGraphic" in2="effect1_dropShadow" result="shape"/>
</filter>
</defs>
</svg>
