<svg width="326" height="41" viewBox="0 0 326 41" fill="none" xmlns="http://www.w3.org/2000/svg">
<path d="M12.7907 34.238C11.9293 34.238 11.4987 33.7847 11.4987 32.878V11.152C11.4987 10.2453 11.9293 9.792 12.7907 9.792C13.1533 9.792 13.4367 9.87133 13.6407 10.03C13.8673 10.166 14.0713 10.404 14.2527 10.744L23.0587 27.336L31.8307 10.744C32.012 10.404 32.2047 10.166 32.4087 10.03C32.6127 9.87133 32.9073 9.792 33.2927 9.792C34.1313 9.792 34.5507 10.2453 34.5507 11.152V32.878C34.5507 33.7847 34.12 34.238 33.2587 34.238C32.3973 34.238 31.9667 33.7847 31.9667 32.878V15.266L24.2827 29.716C24.124 30.0107 23.954 30.226 23.7727 30.362C23.614 30.4753 23.376 30.532 23.0587 30.532C22.7413 30.532 22.492 30.464 22.3107 30.328C22.1293 30.192 21.9707 29.988 21.8347 29.716L14.0487 15.3V32.878C14.0487 33.7847 13.6293 34.238 12.7907 34.238ZM47.0106 34.306C45.4013 34.306 44.0073 33.9547 42.8286 33.252C41.6499 32.5493 40.7319 31.5633 40.0746 30.294C39.4399 29.002 39.1226 27.4833 39.1226 25.738C39.1226 23.9927 39.4399 22.4853 40.0746 21.216C40.7319 19.924 41.6499 18.9267 42.8286 18.224C44.0073 17.5213 45.4013 17.17 47.0106 17.17C48.5973 17.17 49.9799 17.5213 51.1586 18.224C52.3599 18.9267 53.2779 19.924 53.9126 21.216C54.5699 22.4853 54.8986 23.9927 54.8986 25.738C54.8986 27.4833 54.5699 29.002 53.9126 30.294C53.2779 31.5633 52.3599 32.5493 51.1586 33.252C49.9799 33.9547 48.5973 34.306 47.0106 34.306ZM47.0106 32.096C48.5519 32.096 49.7873 31.552 50.7166 30.464C51.6459 29.3533 52.1106 27.778 52.1106 25.738C52.1106 23.6753 51.6459 22.1 50.7166 21.012C49.7873 19.924 48.5519 19.38 47.0106 19.38C45.4466 19.38 44.1999 19.924 43.2706 21.012C42.3639 22.1 41.9106 23.6753 41.9106 25.738C41.9106 27.778 42.3639 29.3533 43.2706 30.464C44.1999 31.552 45.4466 32.096 47.0106 32.096ZM65.3252 34.306C63.8518 34.306 62.5598 33.9547 61.4492 33.252C60.3612 32.5493 59.5112 31.5633 58.8992 30.294C58.3098 29.002 58.0152 27.4833 58.0152 25.738C58.0152 23.97 58.3098 22.4513 58.8992 21.182C59.5112 19.89 60.3612 18.904 61.4492 18.224C62.5598 17.5213 63.8518 17.17 65.3252 17.17C66.6172 17.17 67.7505 17.4533 68.7252 18.02C69.7225 18.5867 70.4592 19.3687 70.9352 20.366V11.186C70.9352 10.2567 71.3998 9.792 72.3292 9.792C73.2358 9.792 73.6892 10.2567 73.6892 11.186V32.81C73.6892 33.762 73.2358 34.238 72.3292 34.238C71.4225 34.238 70.9692 33.762 70.9692 32.81V31.042C70.4705 32.062 69.7225 32.8667 68.7252 33.456C67.7505 34.0227 66.6172 34.306 65.3252 34.306ZM65.9032 32.096C67.4445 32.096 68.6798 31.552 69.6092 30.464C70.5385 29.3533 71.0032 27.778 71.0032 25.738C71.0032 23.6753 70.5385 22.1 69.6092 21.012C68.6798 19.924 67.4445 19.38 65.9032 19.38C64.3392 19.38 63.0925 19.924 62.1632 21.012C61.2565 22.1 60.8032 23.6753 60.8032 25.738C60.8032 27.778 61.2565 29.3533 62.1632 30.464C63.0925 31.552 64.3392 32.096 65.9032 32.096ZM80.2174 13.498C79.0161 13.498 78.4154 12.9313 78.4154 11.798C78.4154 10.6873 79.0161 10.132 80.2174 10.132C81.4188 10.132 82.0194 10.6873 82.0194 11.798C82.0194 12.9313 81.4188 13.498 80.2174 13.498ZM80.2174 34.17C79.3108 34.17 78.8574 33.6713 78.8574 32.674V18.768C78.8574 17.7933 79.3108 17.306 80.2174 17.306C81.1468 17.306 81.6114 17.7933 81.6114 18.768V32.674C81.6114 33.6713 81.1468 34.17 80.2174 34.17ZM89.0038 34.238C88.0971 34.238 87.6438 33.762 87.6438 32.81V19.618H85.4678C84.6744 19.618 84.2778 19.2553 84.2778 18.53C84.2778 17.8273 84.6744 17.476 85.4678 17.476H87.6438V16.898C87.6438 12.6593 89.7178 10.3587 93.8658 9.996L94.8518 9.894C95.2598 9.87133 95.5544 9.962 95.7358 10.166C95.9171 10.37 96.0078 10.6193 96.0078 10.914C96.0304 11.186 95.9624 11.4353 95.8038 11.662C95.6451 11.8887 95.4184 12.0133 95.1238 12.036L94.3418 12.104C92.9591 12.2173 91.9504 12.6367 91.3158 13.362C90.7038 14.0873 90.3978 15.1527 90.3978 16.558V17.476H94.0698C94.8631 17.476 95.2598 17.8273 95.2598 18.53C95.2598 19.2553 94.8631 19.618 94.0698 19.618H90.3978V32.81C90.3978 33.762 89.9331 34.238 89.0038 34.238ZM101.522 40.358C101 40.358 100.649 40.154 100.468 39.746C100.286 39.3607 100.298 38.9187 100.502 38.42L102.576 33.728L96.3196 19.176C96.093 18.6547 96.0816 18.2013 96.2856 17.816C96.5123 17.4307 96.9316 17.238 97.5436 17.238C98.1783 17.238 98.643 17.6007 98.9376 18.326L104.072 30.872L109.24 18.326C109.421 17.918 109.614 17.6347 109.818 17.476C110.022 17.3173 110.316 17.238 110.702 17.238C111.223 17.238 111.574 17.4307 111.756 17.816C111.937 18.2013 111.926 18.6433 111.722 19.142L103.018 39.27C102.836 39.678 102.632 39.9613 102.406 40.12C102.202 40.2787 101.907 40.358 101.522 40.358ZM131.526 34.306C128.919 34.306 126.857 33.5467 125.338 32.028C123.819 30.4867 123.06 28.4013 123.06 25.772C123.06 24.072 123.4 22.576 124.08 21.284C124.76 19.9693 125.689 18.9607 126.868 18.258C128.069 17.5327 129.452 17.17 131.016 17.17C133.26 17.17 135.017 17.8953 136.286 19.346C137.555 20.774 138.19 22.746 138.19 25.262C138.19 25.9647 137.793 26.316 137 26.316H125.746C125.837 28.1973 126.381 29.6367 127.378 30.634C128.375 31.6087 129.758 32.096 131.526 32.096C132.274 32.096 133.033 32.0053 133.804 31.824C134.575 31.62 135.323 31.2687 136.048 30.77C136.569 30.43 137 30.362 137.34 30.566C137.703 30.77 137.884 31.0873 137.884 31.518C137.907 31.926 137.68 32.2887 137.204 32.606C136.456 33.15 135.561 33.5693 134.518 33.864C133.498 34.1587 132.501 34.306 131.526 34.306ZM131.084 19.21C129.52 19.21 128.285 19.6973 127.378 20.672C126.471 21.6467 125.939 22.9273 125.78 24.514H135.81C135.742 22.8367 135.3 21.5333 134.484 20.604C133.691 19.6747 132.557 19.21 131.084 19.21ZM142.111 34.204C141.658 34.204 141.318 34.0113 141.091 33.626C140.864 33.218 140.966 32.7533 141.397 32.232L146.803 25.466L141.771 19.21C141.34 18.6887 141.238 18.2353 141.465 17.85C141.692 17.442 142.032 17.238 142.485 17.238C142.848 17.238 143.142 17.306 143.369 17.442C143.596 17.5553 143.811 17.748 144.015 18.02L148.401 23.562L152.821 18.02C153.025 17.748 153.24 17.5553 153.467 17.442C153.694 17.306 153.977 17.238 154.317 17.238C154.793 17.238 155.133 17.442 155.337 17.85C155.564 18.2353 155.462 18.7 155.031 19.244L149.999 25.466L155.439 32.232C155.847 32.7533 155.938 33.218 155.711 33.626C155.484 34.0113 155.133 34.204 154.657 34.204C154.045 34.204 153.535 33.9433 153.127 33.422L148.367 27.438L143.641 33.422C143.437 33.6713 143.222 33.864 142.995 34C142.768 34.136 142.474 34.204 142.111 34.204ZM161.266 13.498C160.065 13.498 159.464 12.9313 159.464 11.798C159.464 10.6873 160.065 10.132 161.266 10.132C162.468 10.132 163.068 10.6873 163.068 11.798C163.068 12.9313 162.468 13.498 161.266 13.498ZM161.266 34.17C160.36 34.17 159.906 33.6713 159.906 32.674V18.768C159.906 17.7933 160.36 17.306 161.266 17.306C162.196 17.306 162.66 17.7933 162.66 18.768V32.674C162.66 33.6713 162.196 34.17 161.266 34.17ZM173.385 34.306C172.365 34.306 171.333 34.1813 170.291 33.932C169.271 33.66 168.319 33.2293 167.435 32.64C167.027 32.3907 166.823 32.0733 166.823 31.688C166.845 31.28 167.004 30.9627 167.299 30.736C167.593 30.5093 167.967 30.5093 168.421 30.736C169.305 31.28 170.155 31.6653 170.971 31.892C171.809 32.096 172.637 32.198 173.453 32.198C174.745 32.198 175.719 31.96 176.377 31.484C177.034 31.008 177.363 30.362 177.363 29.546C177.363 28.9113 177.147 28.4127 176.717 28.05C176.286 27.6647 175.606 27.37 174.677 27.166L171.583 26.486C168.772 25.874 167.367 24.4233 167.367 22.134C167.367 20.638 167.956 19.4367 169.135 18.53C170.336 17.6233 171.9 17.17 173.827 17.17C174.801 17.17 175.742 17.306 176.649 17.578C177.555 17.8273 178.371 18.2353 179.097 18.802C179.482 19.074 179.652 19.4027 179.607 19.788C179.561 20.1733 179.38 20.4793 179.063 20.706C178.768 20.91 178.405 20.876 177.975 20.604C177.295 20.1507 176.603 19.822 175.901 19.618C175.198 19.3913 174.507 19.278 173.827 19.278C172.557 19.278 171.594 19.5273 170.937 20.026C170.279 20.5247 169.951 21.182 169.951 21.998C169.951 23.2673 170.789 24.0833 172.467 24.446L175.561 25.092C177.011 25.4093 178.111 25.9193 178.859 26.622C179.607 27.302 179.981 28.2313 179.981 29.41C179.981 30.9287 179.38 32.13 178.179 33.014C176.977 33.8753 175.379 34.306 173.385 34.306ZM190.642 34.306C188.692 34.306 187.23 33.796 186.256 32.776C185.281 31.7333 184.794 30.2373 184.794 28.288V19.618H182.516C181.722 19.618 181.326 19.2553 181.326 18.53C181.326 17.8273 181.722 17.476 182.516 17.476H184.794V13.566C184.794 12.6367 185.258 12.172 186.188 12.172C187.094 12.172 187.548 12.6367 187.548 13.566V17.476H191.832C192.625 17.476 193.022 17.8273 193.022 18.53C193.022 19.2553 192.625 19.618 191.832 19.618H187.548V28.016C187.548 29.308 187.82 30.294 188.364 30.974C188.908 31.6313 189.792 31.96 191.016 31.96C191.446 31.96 191.809 31.9147 192.104 31.824C192.398 31.7333 192.659 31.688 192.886 31.688C193.09 31.6653 193.26 31.7333 193.396 31.892C193.532 32.0507 193.6 32.3227 193.6 32.708C193.6 32.98 193.543 33.2293 193.43 33.456C193.339 33.6827 193.169 33.8413 192.92 33.932C192.648 34.0227 192.285 34.102 191.832 34.17C191.401 34.2607 191.004 34.306 190.642 34.306ZM197.458 13.498C196.256 13.498 195.656 12.9313 195.656 11.798C195.656 10.6873 196.256 10.132 197.458 10.132C198.659 10.132 199.26 10.6873 199.26 11.798C199.26 12.9313 198.659 13.498 197.458 13.498ZM197.458 34.17C196.551 34.17 196.098 33.6713 196.098 32.674V18.768C196.098 17.7933 196.551 17.306 197.458 17.306C198.387 17.306 198.852 17.7933 198.852 18.768V32.674C198.852 33.6713 198.387 34.17 197.458 34.17ZM205.36 34.238C204.453 34.238 204 33.762 204 32.81V18.632C204 17.7027 204.442 17.238 205.326 17.238C206.233 17.238 206.686 17.7027 206.686 18.632V20.298C207.23 19.2553 208.001 18.4733 208.998 17.952C209.995 17.4307 211.117 17.17 212.364 17.17C216.285 17.17 218.246 19.346 218.246 23.698V32.81C218.246 33.762 217.793 34.238 216.886 34.238C215.957 34.238 215.492 33.762 215.492 32.81V23.868C215.492 22.3267 215.186 21.2047 214.574 20.502C213.985 19.7767 213.033 19.414 211.718 19.414C210.199 19.414 208.987 19.89 208.08 20.842C207.196 21.7713 206.754 23.018 206.754 24.582V32.81C206.754 33.762 206.289 34.238 205.36 34.238ZM230.634 40.426C229.433 40.426 228.254 40.2787 227.098 39.984C225.965 39.712 224.934 39.27 224.004 38.658C223.664 38.454 223.46 38.2047 223.392 37.91C223.347 37.638 223.392 37.366 223.528 37.094C223.664 36.8447 223.857 36.6633 224.106 36.55C224.378 36.4367 224.662 36.4593 224.956 36.618C225.954 37.23 226.906 37.6493 227.812 37.876C228.719 38.1027 229.614 38.216 230.498 38.216C233.762 38.216 235.394 36.5387 235.394 33.184V30.26C234.918 31.3027 234.17 32.13 233.15 32.742C232.153 33.3313 231.008 33.626 229.716 33.626C228.198 33.626 226.883 33.2747 225.772 32.572C224.662 31.8693 223.8 30.906 223.188 29.682C222.599 28.4353 222.304 26.996 222.304 25.364C222.304 23.732 222.599 22.304 223.188 21.08C223.8 19.8333 224.662 18.87 225.772 18.19C226.883 17.51 228.198 17.17 229.716 17.17C231.008 17.17 232.153 17.4533 233.15 18.02C234.148 18.5867 234.884 19.38 235.36 20.4V18.632C235.36 17.7027 235.814 17.238 236.72 17.238C237.627 17.238 238.08 17.7027 238.08 18.632V32.81C238.08 35.3487 237.446 37.2527 236.176 38.522C234.93 39.7913 233.082 40.426 230.634 40.426ZM230.226 31.382C231.813 31.382 233.071 30.838 234 29.75C234.93 28.662 235.394 27.2 235.394 25.364C235.394 23.528 234.93 22.0773 234 21.012C233.071 19.924 231.813 19.38 230.226 19.38C228.662 19.38 227.416 19.924 226.486 21.012C225.557 22.0773 225.092 23.528 225.092 25.364C225.092 27.2 225.557 28.662 226.486 29.75C227.416 30.838 228.662 31.382 230.226 31.382ZM259.016 34.306C257.361 34.306 255.933 33.9547 254.732 33.252C253.53 32.5267 252.601 31.518 251.944 30.226C251.309 28.9113 250.992 27.3813 250.992 25.636C250.992 23.0067 251.706 20.944 253.134 19.448C254.562 17.9293 256.522 17.17 259.016 17.17C259.832 17.17 260.682 17.306 261.566 17.578C262.45 17.8273 263.254 18.2467 263.98 18.836C264.365 19.108 264.524 19.448 264.456 19.856C264.41 20.264 264.218 20.57 263.878 20.774C263.56 20.978 263.186 20.9327 262.756 20.638C262.144 20.1847 261.532 19.8673 260.92 19.686C260.33 19.5047 259.752 19.414 259.186 19.414C257.463 19.414 256.137 19.958 255.208 21.046C254.278 22.1113 253.814 23.6527 253.814 25.67C253.814 27.642 254.278 29.206 255.208 30.362C256.137 31.4953 257.463 32.062 259.186 32.062C259.752 32.062 260.33 31.9713 260.92 31.79C261.532 31.6087 262.144 31.2913 262.756 30.838C263.186 30.5433 263.56 30.5093 263.878 30.736C264.195 30.94 264.365 31.246 264.388 31.654C264.433 32.062 264.274 32.3907 263.912 32.64C263.186 33.2293 262.393 33.66 261.532 33.932C260.67 34.1813 259.832 34.306 259.016 34.306ZM272.819 34.306C271.686 34.306 270.666 34.0907 269.759 33.66C268.875 33.2067 268.173 32.5947 267.651 31.824C267.13 31.0533 266.869 30.192 266.869 29.24C266.869 28.0387 267.175 27.0867 267.787 26.384C268.422 25.6813 269.453 25.1827 270.881 24.888C272.332 24.5707 274.304 24.412 276.797 24.412H277.885V23.358C277.885 21.9527 277.591 20.944 277.001 20.332C276.435 19.6973 275.517 19.38 274.247 19.38C273.454 19.38 272.649 19.482 271.833 19.686C271.04 19.89 270.213 20.2187 269.351 20.672C268.966 20.876 268.637 20.9213 268.365 20.808C268.116 20.672 267.935 20.468 267.821 20.196C267.731 19.9013 267.731 19.6067 267.821 19.312C267.935 18.9947 268.161 18.7567 268.501 18.598C269.476 18.0993 270.451 17.7367 271.425 17.51C272.423 17.2833 273.363 17.17 274.247 17.17C276.378 17.17 277.953 17.6913 278.973 18.734C280.016 19.7767 280.537 21.3973 280.537 23.596V32.81C280.537 33.762 280.118 34.238 279.279 34.238C278.395 34.238 277.953 33.762 277.953 32.81V31.144C277.523 32.1187 276.854 32.8893 275.947 33.456C275.063 34.0227 274.021 34.306 272.819 34.306ZM273.261 32.232C274.621 32.232 275.732 31.7673 276.593 30.838C277.455 29.886 277.885 28.6847 277.885 27.234V26.214H276.831C274.995 26.214 273.545 26.3047 272.479 26.486C271.437 26.6447 270.7 26.9393 270.269 27.37C269.861 27.778 269.657 28.3447 269.657 29.07C269.657 29.9993 269.975 30.7587 270.609 31.348C271.267 31.9373 272.151 32.232 273.261 32.232ZM291.223 34.306C290.203 34.306 289.171 34.1813 288.129 33.932C287.109 33.66 286.157 33.2293 285.273 32.64C284.865 32.3907 284.661 32.0733 284.661 31.688C284.683 31.28 284.842 30.9627 285.137 30.736C285.431 30.5093 285.805 30.5093 286.259 30.736C287.143 31.28 287.993 31.6653 288.809 31.892C289.647 32.096 290.475 32.198 291.291 32.198C292.583 32.198 293.557 31.96 294.215 31.484C294.872 31.008 295.201 30.362 295.201 29.546C295.201 28.9113 294.985 28.4127 294.555 28.05C294.124 27.6647 293.444 27.37 292.515 27.166L289.421 26.486C286.61 25.874 285.205 24.4233 285.205 22.134C285.205 20.638 285.794 19.4367 286.973 18.53C288.174 17.6233 289.738 17.17 291.665 17.17C292.639 17.17 293.58 17.306 294.487 17.578C295.393 17.8273 296.209 18.2353 296.935 18.802C297.32 19.074 297.49 19.4027 297.445 19.788C297.399 20.1733 297.218 20.4793 296.901 20.706C296.606 20.91 296.243 20.876 295.813 20.604C295.133 20.1507 294.441 19.822 293.739 19.618C293.036 19.3913 292.345 19.278 291.665 19.278C290.395 19.278 289.432 19.5273 288.775 20.026C288.117 20.5247 287.789 21.182 287.789 21.998C287.789 23.2673 288.627 24.0833 290.305 24.446L293.399 25.092C294.849 25.4093 295.949 25.9193 296.697 26.622C297.445 27.302 297.819 28.2313 297.819 29.41C297.819 30.9287 297.218 32.13 296.017 33.014C294.815 33.8753 293.217 34.306 291.223 34.306ZM309.462 34.306C306.855 34.306 304.792 33.5467 303.274 32.028C301.755 30.4867 300.996 28.4013 300.996 25.772C300.996 24.072 301.336 22.576 302.016 21.284C302.696 19.9693 303.625 18.9607 304.804 18.258C306.005 17.5327 307.388 17.17 308.952 17.17C311.196 17.17 312.952 17.8953 314.222 19.346C315.491 20.774 316.126 22.746 316.126 25.262C316.126 25.9647 315.729 26.316 314.936 26.316H303.682C303.772 28.1973 304.316 29.6367 305.314 30.634C306.311 31.6087 307.694 32.096 309.462 32.096C310.21 32.096 310.969 32.0053 311.74 31.824C312.51 31.62 313.258 31.2687 313.984 30.77C314.505 30.43 314.936 30.362 315.276 30.566C315.638 30.77 315.82 31.0873 315.82 31.518C315.842 31.926 315.616 32.2887 315.14 32.606C314.392 33.15 313.496 33.5693 312.454 33.864C311.434 34.1587 310.436 34.306 309.462 34.306ZM309.02 19.21C307.456 19.21 306.22 19.6973 305.314 20.672C304.407 21.6467 303.874 22.9273 303.716 24.514H313.746C313.678 22.8367 313.236 21.5333 312.42 20.604C311.626 19.6747 310.493 19.21 309.02 19.21Z" fill="#0A0A0A" fill-opacity="0.8"/>
</svg>
