<svg width="229" height="346" viewBox="0 0 229 346" fill="none" xmlns="http://www.w3.org/2000/svg">
<g filter="url(#filter0_d)">
<mask id="path-1-inside-1" fill="white">
<path fill-rule="evenodd" clip-rule="evenodd" d="M4.96875 206.865C42.6338 182.025 67.5019 139.238 67.5019 90.6211C67.5019 75.3552 65.0499 60.664 60.5197 46.9229L211.31 0.404297C230.108 61.7933 228.861 127.607 207.751 188.234C186.641 248.861 146.774 301.126 93.9706 337.398L4.96875 206.865Z"/>
</mask>
<path fill-rule="evenodd" clip-rule="evenodd" d="M4.96875 206.865C42.6338 182.025 67.5019 139.238 67.5019 90.6211C67.5019 75.3552 65.0499 60.664 60.5197 46.9229L211.31 0.404297C230.108 61.7933 228.861 127.607 207.751 188.234C186.641 248.861 146.774 301.126 93.9706 337.398L4.96875 206.865Z" fill="#D5DAFE" fill-opacity="0.3"/>
<path d="M4.96875 206.865L2.76652 203.526L-0.624485 205.762L1.66387 209.118L4.96875 206.865ZM60.5197 46.9229L59.3405 43.1006L55.444 44.3027L56.7208 48.1753L60.5197 46.9229ZM211.31 0.404297L215.135 -0.766873L213.961 -4.59958L210.131 -3.41795L211.31 0.404297ZM207.751 188.234L211.528 189.549L207.751 188.234ZM93.9706 337.398L90.6657 339.651L92.9269 342.968L96.2354 340.695L93.9706 337.398ZM63.5019 90.6211C63.5019 137.841 39.3532 179.397 2.76652 203.526L7.17098 210.204C45.9143 184.653 71.5019 140.634 71.5019 90.6211H63.5019ZM56.7208 48.1753C61.1195 61.5173 63.5019 75.7859 63.5019 90.6211H71.5019C71.5019 74.9245 68.9804 59.8108 64.3185 45.6704L56.7208 48.1753ZM210.131 -3.41795L59.3405 43.1006L61.6988 50.7451L212.489 4.22655L210.131 -3.41795ZM211.528 189.549C232.918 128.119 234.182 61.4348 215.135 -0.766873L207.485 1.57547C226.034 62.1517 224.804 127.094 203.973 186.918L211.528 189.549ZM96.2354 340.695C149.742 303.94 190.139 250.979 211.528 189.549L203.973 186.918C183.143 246.742 143.805 298.313 91.7057 334.101L96.2354 340.695ZM1.66387 209.118L90.6657 339.651L97.2755 335.145L8.27363 204.612L1.66387 209.118Z" fill="white" mask="url(#path-1-inside-1)"/>
</g>
<path d="M110.175 121.24C108.895 121.24 108.255 120.58 108.255 119.26V101.8C108.255 100.5 108.905 99.85 110.205 99.85H117.435C119.755 99.85 121.545 100.43 122.805 101.59C124.065 102.75 124.695 104.37 124.695 106.45C124.695 108.53 124.065 110.16 122.805 111.34C121.545 112.5 119.755 113.08 117.435 113.08H112.095V119.26C112.095 120.58 111.455 121.24 110.175 121.24ZM112.095 110.05H116.835C119.595 110.05 120.975 108.85 120.975 106.45C120.975 104.07 119.595 102.88 116.835 102.88H112.095V110.05ZM133.394 121.3C131.874 121.3 130.554 120.99 129.434 120.37C128.314 119.75 127.444 118.87 126.824 117.73C126.204 116.57 125.894 115.21 125.894 113.65C125.894 112.09 126.204 110.74 126.824 109.6C127.444 108.46 128.314 107.58 129.434 106.96C130.554 106.34 131.874 106.03 133.394 106.03C134.914 106.03 136.234 106.34 137.354 106.96C138.474 107.58 139.344 108.46 139.964 109.6C140.584 110.74 140.894 112.09 140.894 113.65C140.894 115.21 140.584 116.57 139.964 117.73C139.344 118.87 138.474 119.75 137.354 120.37C136.234 120.99 134.914 121.3 133.394 121.3ZM133.394 118.45C134.514 118.45 135.414 118.05 136.094 117.25C136.774 116.43 137.114 115.23 137.114 113.65C137.114 112.05 136.774 110.86 136.094 110.08C135.414 109.28 134.514 108.88 133.394 108.88C132.274 108.88 131.374 109.28 130.694 110.08C130.014 110.86 129.674 112.05 129.674 113.65C129.674 115.23 130.014 116.43 130.694 117.25C131.374 118.05 132.274 118.45 133.394 118.45ZM149.359 121.3C148.499 121.3 147.589 121.21 146.629 121.03C145.669 120.85 144.809 120.54 144.049 120.1C143.629 119.86 143.369 119.57 143.269 119.23C143.169 118.87 143.179 118.54 143.299 118.24C143.439 117.92 143.659 117.69 143.959 117.55C144.279 117.41 144.649 117.44 145.069 117.64C145.869 118.02 146.619 118.29 147.319 118.45C148.019 118.59 148.709 118.66 149.389 118.66C150.349 118.66 151.059 118.5 151.519 118.18C151.999 117.84 152.239 117.4 152.239 116.86C152.239 116.02 151.619 115.48 150.379 115.24L147.379 114.67C144.839 114.19 143.569 112.87 143.569 110.71C143.569 109.75 143.829 108.92 144.349 108.22C144.889 107.52 145.629 106.98 146.569 106.6C147.509 106.22 148.589 106.03 149.809 106.03C151.569 106.03 153.139 106.42 154.519 107.2C154.899 107.4 155.119 107.68 155.179 108.04C155.259 108.38 155.219 108.71 155.059 109.03C154.919 109.33 154.689 109.55 154.369 109.69C154.049 109.81 153.679 109.77 153.259 109.57C152.639 109.25 152.039 109.02 151.459 108.88C150.899 108.74 150.359 108.67 149.839 108.67C148.859 108.67 148.129 108.84 147.649 109.18C147.189 109.52 146.959 109.97 146.959 110.53C146.959 111.41 147.529 111.95 148.669 112.15L151.669 112.72C152.969 112.96 153.949 113.4 154.609 114.04C155.289 114.68 155.629 115.54 155.629 116.62C155.629 118.08 155.059 119.23 153.919 120.07C152.779 120.89 151.259 121.3 149.359 121.3ZM165.211 121.3C161.331 121.3 159.391 119.38 159.391 115.54V109.15H157.831C156.831 109.15 156.331 108.68 156.331 107.74C156.331 106.8 156.831 106.33 157.831 106.33H159.391V103.6C159.391 102.34 160.021 101.71 161.281 101.71C162.521 101.71 163.141 102.34 163.141 103.6V106.33H166.321C167.321 106.33 167.821 106.8 167.821 107.74C167.821 108.68 167.321 109.15 166.321 109.15H163.141V115.33C163.141 116.29 163.351 117.01 163.771 117.49C164.191 117.97 164.871 118.21 165.811 118.21C166.151 118.21 166.451 118.18 166.711 118.12C166.971 118.06 167.201 118.02 167.401 118C167.641 117.98 167.841 118.06 168.001 118.24C168.161 118.4 168.241 118.74 168.241 119.26C168.241 119.66 168.171 120.02 168.031 120.34C167.911 120.64 167.681 120.85 167.341 120.97C167.081 121.05 166.741 121.12 166.321 121.18C165.901 121.26 165.531 121.3 165.211 121.3ZM80.2207 162.3C78.1807 162.3 76.3907 161.85 74.8507 160.95C73.3307 160.05 72.1507 158.79 71.3107 157.17C70.4707 155.53 70.0507 153.61 70.0507 151.41C70.0507 149.19 70.4707 147.27 71.3107 145.65C72.1507 144.03 73.3307 142.78 74.8507 141.9C76.3707 141 78.1607 140.55 80.2207 140.55C82.2807 140.55 84.0707 141 85.5907 141.9C87.1107 142.78 88.2907 144.03 89.1307 145.65C89.9707 147.27 90.3907 149.18 90.3907 151.38C90.3907 153.6 89.9707 155.53 89.1307 157.17C88.2907 158.79 87.1107 160.05 85.5907 160.95C84.0707 161.85 82.2807 162.3 80.2207 162.3ZM80.2207 159C82.1607 159 83.6707 158.33 84.7507 156.99C85.8307 155.65 86.3707 153.79 86.3707 151.41C86.3707 149.01 85.8307 147.15 84.7507 145.83C83.6907 144.51 82.1807 143.85 80.2207 143.85C78.2807 143.85 76.7707 144.51 75.6907 145.83C74.6107 147.15 74.0707 149.01 74.0707 151.41C74.0707 153.79 74.6107 155.65 75.6907 156.99C76.7707 158.33 78.2807 159 80.2207 159ZM95.7954 167.64C94.5554 167.64 93.9354 167.01 93.9354 165.75V148.98C93.9354 147.72 94.5454 147.09 95.7654 147.09C97.0054 147.09 97.6254 147.72 97.6254 148.98V149.61C98.0454 148.83 98.6754 148.21 99.5154 147.75C100.355 147.27 101.315 147.03 102.395 147.03C103.675 147.03 104.795 147.34 105.755 147.96C106.735 148.58 107.495 149.46 108.035 150.6C108.575 151.72 108.845 153.07 108.845 154.65C108.845 156.21 108.575 157.57 108.035 158.73C107.495 159.87 106.745 160.75 105.785 161.37C104.825 161.99 103.695 162.3 102.395 162.3C101.355 162.3 100.415 162.08 99.5754 161.64C98.7554 161.18 98.1254 160.57 97.6854 159.81V165.75C97.6854 167.01 97.0554 167.64 95.7954 167.64ZM101.345 159.45C102.465 159.45 103.365 159.05 104.045 158.25C104.725 157.43 105.065 156.23 105.065 154.65C105.065 153.05 104.725 151.86 104.045 151.08C103.365 150.28 102.465 149.88 101.345 149.88C100.225 149.88 99.3254 150.28 98.6454 151.08C97.9654 151.86 97.6254 153.05 97.6254 154.65C97.6254 156.23 97.9654 157.43 98.6454 158.25C99.3254 159.05 100.225 159.45 101.345 159.45ZM119.154 162.3C117.494 162.3 116.064 161.99 114.864 161.37C113.664 160.75 112.734 159.87 112.074 158.73C111.434 157.59 111.114 156.24 111.114 154.68C111.114 153.16 111.424 151.83 112.044 150.69C112.684 149.55 113.554 148.66 114.654 148.02C115.774 147.36 117.044 147.03 118.464 147.03C120.544 147.03 122.184 147.69 123.384 149.01C124.604 150.33 125.214 152.13 125.214 154.41C125.214 155.15 124.734 155.52 123.774 155.52H114.714C114.994 158.14 116.494 159.45 119.214 159.45C119.734 159.45 120.314 159.39 120.954 159.27C121.614 159.13 122.234 158.9 122.814 158.58C123.334 158.28 123.774 158.19 124.134 158.31C124.494 158.41 124.744 158.62 124.884 158.94C125.044 159.26 125.064 159.62 124.944 160.02C124.844 160.4 124.564 160.73 124.104 161.01C123.404 161.45 122.594 161.78 121.674 162C120.774 162.2 119.934 162.3 119.154 162.3ZM118.614 149.58C117.514 149.58 116.624 149.92 115.944 150.6C115.264 151.28 114.854 152.2 114.714 153.36H122.094C122.014 152.14 121.674 151.21 121.074 150.57C120.494 149.91 119.674 149.58 118.614 149.58ZM130.103 162.24C128.823 162.24 128.183 161.6 128.183 160.32V148.98C128.183 147.72 128.793 147.09 130.013 147.09C131.233 147.09 131.843 147.72 131.843 148.98V149.91C132.563 148.19 134.103 147.23 136.463 147.03C137.323 146.93 137.803 147.42 137.903 148.5C138.003 149.56 137.483 150.15 136.343 150.27L135.683 150.33C133.223 150.57 131.993 151.83 131.993 154.11V160.32C131.993 161.6 131.363 162.24 130.103 162.24ZM144.615 162.3C143.555 162.3 142.605 162.1 141.765 161.7C140.945 161.28 140.295 160.72 139.815 160.02C139.355 159.32 139.125 158.53 139.125 157.65C139.125 156.57 139.405 155.72 139.965 155.1C140.525 154.46 141.435 154 142.695 153.72C143.955 153.44 145.645 153.3 147.765 153.3H148.815V152.67C148.815 151.67 148.595 150.95 148.155 150.51C147.715 150.07 146.975 149.85 145.935 149.85C145.355 149.85 144.725 149.92 144.045 150.06C143.385 150.2 142.685 150.44 141.945 150.78C141.465 151 141.065 151.03 140.745 150.87C140.425 150.69 140.205 150.42 140.085 150.06C139.985 149.68 140.005 149.3 140.145 148.92C140.305 148.54 140.615 148.26 141.075 148.08C141.995 147.7 142.875 147.43 143.715 147.27C144.575 147.11 145.355 147.03 146.055 147.03C148.195 147.03 149.785 147.53 150.825 148.53C151.865 149.51 152.385 151.04 152.385 153.12V160.32C152.385 161.6 151.805 162.24 150.645 162.24C149.465 162.24 148.875 161.6 148.875 160.32V159.66C148.535 160.48 147.995 161.13 147.255 161.61C146.515 162.07 145.635 162.3 144.615 162.3ZM145.395 159.72C146.375 159.72 147.185 159.38 147.825 158.7C148.485 158.02 148.815 157.16 148.815 156.12V155.46H147.795C145.915 155.46 144.605 155.61 143.865 155.91C143.145 156.19 142.785 156.71 142.785 157.47C142.785 158.13 143.015 158.67 143.475 159.09C143.935 159.51 144.575 159.72 145.395 159.72ZM162.911 162.3C159.031 162.3 157.091 160.38 157.091 156.54V150.15H155.531C154.531 150.15 154.031 149.68 154.031 148.74C154.031 147.8 154.531 147.33 155.531 147.33H157.091V144.6C157.091 143.34 157.721 142.71 158.981 142.71C160.221 142.71 160.841 143.34 160.841 144.6V147.33H164.021C165.021 147.33 165.521 147.8 165.521 148.74C165.521 149.68 165.021 150.15 164.021 150.15H160.841V156.33C160.841 157.29 161.051 158.01 161.471 158.49C161.891 158.97 162.571 159.21 163.511 159.21C163.851 159.21 164.151 159.18 164.411 159.12C164.671 159.06 164.901 159.02 165.101 159C165.341 158.98 165.541 159.06 165.701 159.24C165.861 159.4 165.941 159.74 165.941 160.26C165.941 160.66 165.871 161.02 165.731 161.34C165.611 161.64 165.381 161.85 165.041 161.97C164.781 162.05 164.441 162.12 164.021 162.18C163.601 162.26 163.231 162.3 162.911 162.3ZM169.946 144.33C169.246 144.33 168.696 144.16 168.296 143.82C167.916 143.46 167.726 142.97 167.726 142.35C167.726 141.71 167.916 141.22 168.296 140.88C168.696 140.54 169.246 140.37 169.946 140.37C171.426 140.37 172.166 141.03 172.166 142.35C172.166 143.67 171.426 144.33 169.946 144.33ZM169.946 162.21C169.346 162.21 168.886 162.03 168.566 161.67C168.246 161.31 168.086 160.81 168.086 160.17V149.16C168.086 147.8 168.706 147.12 169.946 147.12C171.206 147.12 171.836 147.8 171.836 149.16V160.17C171.836 160.81 171.676 161.31 171.356 161.67C171.036 162.03 170.566 162.21 169.946 162.21ZM181.672 162.24C180.672 162.24 179.932 161.71 179.452 160.65L174.682 149.58C174.402 148.92 174.392 148.34 174.652 147.84C174.932 147.34 175.482 147.09 176.302 147.09C176.762 147.09 177.132 147.2 177.412 147.42C177.692 147.62 177.942 148.01 178.162 148.59L181.762 157.59L185.482 148.56C185.702 148 185.952 147.62 186.232 147.42C186.532 147.2 186.932 147.09 187.432 147.09C188.072 147.09 188.522 147.34 188.782 147.84C189.042 148.34 189.032 148.91 188.752 149.55L183.892 160.65C183.452 161.71 182.712 162.24 181.672 162.24ZM198.49 162.3C196.83 162.3 195.4 161.99 194.2 161.37C193 160.75 192.07 159.87 191.41 158.73C190.77 157.59 190.45 156.24 190.45 154.68C190.45 153.16 190.76 151.83 191.38 150.69C192.02 149.55 192.89 148.66 193.99 148.02C195.11 147.36 196.38 147.03 197.8 147.03C199.88 147.03 201.52 147.69 202.72 149.01C203.94 150.33 204.55 152.13 204.55 154.41C204.55 155.15 204.07 155.52 203.11 155.52H194.05C194.33 158.14 195.83 159.45 198.55 159.45C199.07 159.45 199.65 159.39 200.29 159.27C200.95 159.13 201.57 158.9 202.15 158.58C202.67 158.28 203.11 158.19 203.47 158.31C203.83 158.41 204.08 158.62 204.22 158.94C204.38 159.26 204.4 159.62 204.28 160.02C204.18 160.4 203.9 160.73 203.44 161.01C202.74 161.45 201.93 161.78 201.01 162C200.11 162.2 199.27 162.3 198.49 162.3ZM197.95 149.58C196.85 149.58 195.96 149.92 195.28 150.6C194.6 151.28 194.19 152.2 194.05 153.36H201.43C201.35 152.14 201.01 151.21 200.41 150.57C199.83 149.91 199.01 149.58 197.95 149.58ZM107.761 203C106.401 203 105.721 202.32 105.721 200.96V183.89C105.721 182.53 106.401 181.85 107.761 181.85H113.581C117.121 181.85 119.851 182.76 121.771 184.58C123.711 186.4 124.681 189.01 124.681 192.41C124.681 195.79 123.711 198.4 121.771 200.24C119.851 202.08 117.121 203 113.581 203H107.761ZM109.561 199.82H113.341C118.221 199.82 120.661 197.35 120.661 192.41C120.661 187.49 118.221 185.03 113.341 185.03H109.561V199.82ZM133.043 203.3C131.983 203.3 131.033 203.1 130.193 202.7C129.373 202.28 128.723 201.72 128.243 201.02C127.783 200.32 127.553 199.53 127.553 198.65C127.553 197.57 127.833 196.72 128.393 196.1C128.953 195.46 129.863 195 131.123 194.72C132.383 194.44 134.073 194.3 136.193 194.3H137.243V193.67C137.243 192.67 137.023 191.95 136.583 191.51C136.143 191.07 135.403 190.85 134.363 190.85C133.783 190.85 133.153 190.92 132.473 191.06C131.813 191.2 131.113 191.44 130.373 191.78C129.893 192 129.493 192.03 129.173 191.87C128.853 191.69 128.633 191.42 128.513 191.06C128.413 190.68 128.433 190.3 128.573 189.92C128.733 189.54 129.043 189.26 129.503 189.08C130.423 188.7 131.303 188.43 132.143 188.27C133.003 188.11 133.783 188.03 134.483 188.03C136.623 188.03 138.213 188.53 139.253 189.53C140.293 190.51 140.813 192.04 140.813 194.12V201.32C140.813 202.6 140.233 203.24 139.073 203.24C137.893 203.24 137.303 202.6 137.303 201.32V200.66C136.963 201.48 136.423 202.13 135.683 202.61C134.943 203.07 134.063 203.3 133.043 203.3ZM133.823 200.72C134.803 200.72 135.613 200.38 136.253 199.7C136.913 199.02 137.243 198.16 137.243 197.12V196.46H136.223C134.343 196.46 133.033 196.61 132.293 196.91C131.573 197.19 131.213 197.71 131.213 198.47C131.213 199.13 131.443 199.67 131.903 200.09C132.363 200.51 133.003 200.72 133.823 200.72ZM151.339 203.3C147.459 203.3 145.519 201.38 145.519 197.54V191.15H143.959C142.959 191.15 142.459 190.68 142.459 189.74C142.459 188.8 142.959 188.33 143.959 188.33H145.519V185.6C145.519 184.34 146.149 183.71 147.409 183.71C148.649 183.71 149.269 184.34 149.269 185.6V188.33H152.449C153.449 188.33 153.949 188.8 153.949 189.74C153.949 190.68 153.449 191.15 152.449 191.15H149.269V197.33C149.269 198.29 149.479 199.01 149.899 199.49C150.319 199.97 150.999 200.21 151.939 200.21C152.279 200.21 152.579 200.18 152.839 200.12C153.099 200.06 153.329 200.02 153.529 200C153.769 199.98 153.969 200.06 154.129 200.24C154.289 200.4 154.369 200.74 154.369 201.26C154.369 201.66 154.299 202.02 154.159 202.34C154.039 202.64 153.809 202.85 153.469 202.97C153.209 203.05 152.869 203.12 152.449 203.18C152.029 203.26 151.659 203.3 151.339 203.3ZM160.963 203.3C159.903 203.3 158.953 203.1 158.113 202.7C157.293 202.28 156.643 201.72 156.163 201.02C155.703 200.32 155.473 199.53 155.473 198.65C155.473 197.57 155.753 196.72 156.313 196.1C156.873 195.46 157.783 195 159.043 194.72C160.303 194.44 161.993 194.3 164.113 194.3H165.163V193.67C165.163 192.67 164.943 191.95 164.503 191.51C164.063 191.07 163.323 190.85 162.283 190.85C161.703 190.85 161.073 190.92 160.393 191.06C159.733 191.2 159.033 191.44 158.293 191.78C157.813 192 157.413 192.03 157.093 191.87C156.773 191.69 156.553 191.42 156.433 191.06C156.333 190.68 156.353 190.3 156.493 189.92C156.653 189.54 156.963 189.26 157.423 189.08C158.343 188.7 159.223 188.43 160.063 188.27C160.923 188.11 161.703 188.03 162.403 188.03C164.543 188.03 166.133 188.53 167.173 189.53C168.213 190.51 168.733 192.04 168.733 194.12V201.32C168.733 202.6 168.153 203.24 166.993 203.24C165.813 203.24 165.223 202.6 165.223 201.32V200.66C164.883 201.48 164.343 202.13 163.603 202.61C162.863 203.07 161.983 203.3 160.963 203.3ZM161.743 200.72C162.723 200.72 163.533 200.38 164.173 199.7C164.833 199.02 165.163 198.16 165.163 197.12V196.46H164.143C162.263 196.46 160.953 196.61 160.213 196.91C159.493 197.19 159.133 197.71 159.133 198.47C159.133 199.13 159.363 199.67 159.823 200.09C160.283 200.51 160.923 200.72 161.743 200.72Z" fill="#00218A" fill-opacity="0.3"/>
<defs>
<filter id="filter0_d" x="0.96875" y="0.404297" width="227.581" height="344.994" filterUnits="userSpaceOnUse" color-interpolation-filters="sRGB">
<feFlood flood-opacity="0" result="BackgroundImageFix"/>
<feColorMatrix in="SourceAlpha" type="matrix" values="0 0 0 0 0 0 0 0 0 0 0 0 0 0 0 0 0 0 127 0"/>
<feOffset dy="4"/>
<feGaussianBlur stdDeviation="2"/>
<feColorMatrix type="matrix" values="0 0 0 0 0.83401 0 0 0 0 0.85569 0 0 0 0 0.995833 0 0 0 0.46 0"/>
<feBlend mode="normal" in2="BackgroundImageFix" result="effect1_dropShadow"/>
<feBlend mode="normal" in="SourceGraphic" in2="effect1_dropShadow" result="shape"/>
</filter>
</defs>
</svg>
