<svg width="278" height="279" viewBox="0 0 278 279" fill="none" xmlns="http://www.w3.org/2000/svg">
<path d="M277.5 139.5C277.5 216.269 215.49 278.5 139 278.5C62.5103 278.5 0.5 216.269 0.5 139.5C0.5 62.7307 62.5103 0.5 139 0.5C215.49 0.5 277.5 62.7307 277.5 139.5Z" fill="#D5DAFE" fill-opacity="0.3" stroke="white"/>
<path d="M89.9348 119C88.2121 119 87.3508 118.139 87.3508 116.416V94.794C87.3508 93.0713 88.2121 92.21 89.9348 92.21H103.501C104.818 92.21 105.477 92.8433 105.477 94.11C105.477 95.4273 104.818 96.086 103.501 96.086H92.0248V103.458H102.665C103.982 103.458 104.641 104.104 104.641 105.396C104.641 106.688 103.982 107.334 102.665 107.334H92.0248V115.124H103.501C104.818 115.124 105.477 115.77 105.477 117.062C105.477 118.354 104.818 119 103.501 119H89.9348ZM111.925 119.304C110.354 119.304 109.569 118.493 109.569 116.872V102.508C109.569 100.912 110.341 100.114 111.887 100.114C113.432 100.114 114.205 100.912 114.205 102.508V103.306C114.838 102.242 115.687 101.431 116.751 100.874C117.84 100.317 119.056 100.038 120.399 100.038C124.781 100.038 126.973 102.584 126.973 107.676V116.872C126.973 118.493 126.187 119.304 124.617 119.304C123.021 119.304 122.223 118.493 122.223 116.872V107.904C122.223 106.46 121.944 105.409 121.387 104.75C120.855 104.091 120.019 103.762 118.879 103.762C117.485 103.762 116.371 104.205 115.535 105.092C114.724 105.953 114.319 107.106 114.319 108.55V116.872C114.319 118.493 113.521 119.304 111.925 119.304ZM140.309 119.38C135.394 119.38 132.937 116.948 132.937 112.084V103.99H130.961C129.694 103.99 129.061 103.395 129.061 102.204C129.061 101.013 129.694 100.418 130.961 100.418H132.937V96.96C132.937 95.364 133.735 94.566 135.331 94.566C136.902 94.566 137.687 95.364 137.687 96.96V100.418H141.715C142.982 100.418 143.615 101.013 143.615 102.204C143.615 103.395 142.982 103.99 141.715 103.99H137.687V111.818C137.687 113.034 137.953 113.946 138.485 114.554C139.017 115.162 139.878 115.466 141.069 115.466C141.5 115.466 141.88 115.428 142.209 115.352C142.538 115.276 142.83 115.225 143.083 115.2C143.387 115.175 143.64 115.276 143.843 115.504C144.046 115.707 144.147 116.137 144.147 116.796C144.147 117.303 144.058 117.759 143.881 118.164C143.729 118.544 143.438 118.81 143.007 118.962C142.678 119.063 142.247 119.152 141.715 119.228C141.183 119.329 140.714 119.38 140.309 119.38ZM149.22 96.618C148.333 96.618 147.636 96.4027 147.13 95.972C146.648 95.516 146.408 94.8953 146.408 94.11C146.408 93.2993 146.648 92.6787 147.13 92.248C147.636 91.8173 148.333 91.602 149.22 91.602C151.094 91.602 152.032 92.438 152.032 94.11C152.032 95.782 151.094 96.618 149.22 96.618ZM149.22 119.266C148.46 119.266 147.877 119.038 147.472 118.582C147.066 118.126 146.864 117.493 146.864 116.682V102.736C146.864 101.013 147.649 100.152 149.22 100.152C150.816 100.152 151.614 101.013 151.614 102.736V116.682C151.614 117.493 151.411 118.126 151.006 118.582C150.6 119.038 150.005 119.266 149.22 119.266ZM158.981 119.304C157.36 119.304 156.549 118.493 156.549 116.872V102.508C156.549 100.912 157.322 100.114 158.867 100.114C160.412 100.114 161.185 100.912 161.185 102.508V103.686C162.097 101.507 164.048 100.291 167.037 100.038C168.126 99.9113 168.734 100.532 168.861 101.9C168.988 103.243 168.329 103.99 166.885 104.142L166.049 104.218C162.933 104.522 161.375 106.118 161.375 109.006V116.872C161.375 118.493 160.577 119.304 158.981 119.304ZM180.291 119.38C178.188 119.38 176.377 118.987 174.857 118.202C173.337 117.417 172.159 116.302 171.323 114.858C170.512 113.414 170.107 111.704 170.107 109.728C170.107 107.803 170.5 106.118 171.285 104.674C172.096 103.23 173.198 102.103 174.591 101.292C176.01 100.456 177.618 100.038 179.417 100.038C182.052 100.038 184.129 100.874 185.649 102.546C187.194 104.218 187.967 106.498 187.967 109.386C187.967 110.323 187.359 110.792 186.143 110.792H174.667C175.022 114.111 176.922 115.77 180.367 115.77C181.026 115.77 181.76 115.694 182.571 115.542C183.407 115.365 184.192 115.073 184.927 114.668C185.586 114.288 186.143 114.174 186.599 114.326C187.055 114.453 187.372 114.719 187.549 115.124C187.752 115.529 187.777 115.985 187.625 116.492C187.498 116.973 187.144 117.391 186.561 117.746C185.674 118.303 184.648 118.721 183.483 119C182.343 119.253 181.279 119.38 180.291 119.38ZM179.607 103.268C178.214 103.268 177.086 103.699 176.225 104.56C175.364 105.421 174.844 106.587 174.667 108.056H184.015C183.914 106.511 183.483 105.333 182.723 104.522C181.988 103.686 180.95 103.268 179.607 103.268ZM77.141 171.38C74.3543 171.38 71.9603 170.823 69.959 169.708C67.983 168.568 66.463 166.972 65.399 164.92C64.335 162.843 63.803 160.398 63.803 157.586C63.803 154.774 64.335 152.342 65.399 150.29C66.463 148.238 67.983 146.655 69.959 145.54C71.9603 144.4 74.3543 143.83 77.141 143.83C78.5343 143.83 79.9023 144.007 81.245 144.362C82.5876 144.717 83.7656 145.223 84.779 145.882C85.4376 146.313 85.8303 146.832 85.957 147.44C86.0836 148.023 86.0076 148.567 85.729 149.074C85.4503 149.555 85.0323 149.885 84.475 150.062C83.9176 150.214 83.297 150.062 82.613 149.606C81.8276 149.099 80.979 148.732 80.067 148.504C79.155 148.276 78.2303 148.162 77.293 148.162C74.5823 148.162 72.5176 148.985 71.099 150.632C69.6803 152.253 68.971 154.571 68.971 157.586C68.971 160.601 69.6803 162.931 71.099 164.578C72.5176 166.225 74.5823 167.048 77.293 167.048C78.2556 167.048 79.2056 166.934 80.143 166.706C81.0803 166.453 81.967 166.073 82.803 165.566C83.487 165.135 84.095 164.996 84.627 165.148C85.159 165.3 85.5516 165.617 85.805 166.098C86.0836 166.554 86.1723 167.061 86.071 167.618C85.9696 168.175 85.6276 168.669 85.045 169.1C84.0316 169.835 82.8156 170.405 81.397 170.81C80.0036 171.19 78.585 171.38 77.141 171.38ZM95.4991 171.38C94.1565 171.38 92.9531 171.127 91.8891 170.62C90.8505 170.088 90.0271 169.379 89.4191 168.492C88.8365 167.605 88.5451 166.605 88.5451 165.49C88.5451 164.122 88.8998 163.045 89.6091 162.26C90.3185 161.449 91.4711 160.867 93.0671 160.512C94.6631 160.157 96.8038 159.98 99.4891 159.98H100.819V159.182C100.819 157.915 100.54 157.003 99.9831 156.446C99.4258 155.889 98.4885 155.61 97.1711 155.61C96.4365 155.61 95.6385 155.699 94.7771 155.876C93.9411 156.053 93.0545 156.357 92.1171 156.788C91.5091 157.067 91.0025 157.105 90.5971 156.902C90.1918 156.674 89.9131 156.332 89.7611 155.876C89.6345 155.395 89.6598 154.913 89.8371 154.432C90.0398 153.951 90.4325 153.596 91.0151 153.368C92.1805 152.887 93.2951 152.545 94.3591 152.342C95.4485 152.139 96.4365 152.038 97.3231 152.038C100.034 152.038 102.048 152.671 103.365 153.938C104.682 155.179 105.341 157.117 105.341 159.752V168.872C105.341 170.493 104.606 171.304 103.137 171.304C101.642 171.304 100.895 170.493 100.895 168.872V168.036C100.464 169.075 99.7805 169.898 98.8431 170.506C97.9058 171.089 96.7911 171.38 95.4991 171.38ZM96.4871 168.112C97.7285 168.112 98.7545 167.681 99.5651 166.82C100.401 165.959 100.819 164.869 100.819 163.552V162.716H99.5271C97.1458 162.716 95.4865 162.906 94.5491 163.286C93.6371 163.641 93.1811 164.299 93.1811 165.262C93.1811 166.098 93.4725 166.782 94.0551 167.314C94.6378 167.846 95.4485 168.112 96.4871 168.112ZM116.964 171.38C115.875 171.38 114.722 171.266 113.506 171.038C112.29 170.81 111.201 170.417 110.238 169.86C109.706 169.556 109.377 169.189 109.25 168.758C109.124 168.302 109.136 167.884 109.288 167.504C109.466 167.099 109.744 166.807 110.124 166.63C110.53 166.453 110.998 166.491 111.53 166.744C112.544 167.225 113.494 167.567 114.38 167.77C115.267 167.947 116.141 168.036 117.002 168.036C118.218 168.036 119.118 167.833 119.7 167.428C120.308 166.997 120.612 166.44 120.612 165.756C120.612 164.692 119.827 164.008 118.256 163.704L114.456 162.982C111.239 162.374 109.63 160.702 109.63 157.966C109.63 156.75 109.96 155.699 110.618 154.812C111.302 153.925 112.24 153.241 113.43 152.76C114.621 152.279 115.989 152.038 117.534 152.038C119.764 152.038 121.752 152.532 123.5 153.52C123.982 153.773 124.26 154.128 124.336 154.584C124.438 155.015 124.387 155.433 124.184 155.838C124.007 156.218 123.716 156.497 123.31 156.674C122.905 156.826 122.436 156.775 121.904 156.522C121.119 156.117 120.359 155.825 119.624 155.648C118.915 155.471 118.231 155.382 117.572 155.382C116.331 155.382 115.406 155.597 114.798 156.028C114.216 156.459 113.924 157.029 113.924 157.738C113.924 158.853 114.646 159.537 116.09 159.79L119.89 160.512C121.537 160.816 122.778 161.373 123.614 162.184C124.476 162.995 124.906 164.084 124.906 165.452C124.906 167.301 124.184 168.758 122.74 169.822C121.296 170.861 119.371 171.38 116.964 171.38ZM137.875 171.38C135.772 171.38 133.961 170.987 132.441 170.202C130.921 169.417 129.743 168.302 128.907 166.858C128.096 165.414 127.691 163.704 127.691 161.728C127.691 159.803 128.084 158.118 128.869 156.674C129.68 155.23 130.782 154.103 132.175 153.292C133.594 152.456 135.202 152.038 137.001 152.038C139.636 152.038 141.713 152.874 143.233 154.546C144.778 156.218 145.551 158.498 145.551 161.386C145.551 162.323 144.943 162.792 143.727 162.792H132.251C132.606 166.111 134.506 167.77 137.951 167.77C138.61 167.77 139.344 167.694 140.155 167.542C140.991 167.365 141.776 167.073 142.511 166.668C143.17 166.288 143.727 166.174 144.183 166.326C144.639 166.453 144.956 166.719 145.133 167.124C145.336 167.529 145.361 167.985 145.209 168.492C145.082 168.973 144.728 169.391 144.145 169.746C143.258 170.303 142.232 170.721 141.067 171C139.927 171.253 138.863 171.38 137.875 171.38ZM137.191 155.268C135.798 155.268 134.67 155.699 133.809 156.56C132.948 157.421 132.428 158.587 132.251 160.056H141.599C141.498 158.511 141.067 157.333 140.307 156.522C139.572 155.686 138.534 155.268 137.191 155.268ZM162.593 171.304C160.921 171.304 160.085 170.443 160.085 168.72V146.794C160.085 145.071 160.947 144.21 162.669 144.21H175.931C177.249 144.21 177.907 144.843 177.907 146.11C177.907 147.427 177.249 148.086 175.931 148.086H164.949V155.648H175.133C176.451 155.648 177.109 156.281 177.109 157.548C177.109 158.865 176.451 159.524 175.133 159.524H164.949V168.72C164.949 170.443 164.164 171.304 162.593 171.304ZM184.845 148.618C183.958 148.618 183.261 148.403 182.755 147.972C182.273 147.516 182.033 146.895 182.033 146.11C182.033 145.299 182.273 144.679 182.755 144.248C183.261 143.817 183.958 143.602 184.845 143.602C186.719 143.602 187.657 144.438 187.657 146.11C187.657 147.782 186.719 148.618 184.845 148.618ZM184.845 171.266C184.085 171.266 183.502 171.038 183.097 170.582C182.691 170.126 182.489 169.493 182.489 168.682V154.736C182.489 153.013 183.274 152.152 184.845 152.152C186.441 152.152 187.239 153.013 187.239 154.736V168.682C187.239 169.493 187.036 170.126 186.631 170.582C186.225 171.038 185.63 171.266 184.845 171.266ZM198.52 171.38C194.289 171.38 192.174 169.011 192.174 164.274V146.3C192.174 144.704 192.959 143.906 194.53 143.906C196.126 143.906 196.924 144.704 196.924 146.3V164.046C196.924 166.326 197.874 167.466 199.774 167.466C199.977 167.466 200.167 167.466 200.344 167.466C200.521 167.441 200.699 167.415 200.876 167.39C201.231 167.339 201.471 167.441 201.598 167.694C201.725 167.922 201.788 168.403 201.788 169.138C201.788 169.771 201.661 170.265 201.408 170.62C201.155 170.975 200.737 171.19 200.154 171.266C199.622 171.342 199.077 171.38 198.52 171.38ZM213.281 171.38C211.179 171.38 209.367 170.987 207.847 170.202C206.327 169.417 205.149 168.302 204.313 166.858C203.503 165.414 203.097 163.704 203.097 161.728C203.097 159.803 203.49 158.118 204.275 156.674C205.086 155.23 206.188 154.103 207.581 153.292C209 152.456 210.609 152.038 212.407 152.038C215.042 152.038 217.119 152.874 218.639 154.546C220.185 156.218 220.957 158.498 220.957 161.386C220.957 162.323 220.349 162.792 219.133 162.792H207.657C208.012 166.111 209.912 167.77 213.357 167.77C214.016 167.77 214.751 167.694 215.561 167.542C216.397 167.365 217.183 167.073 217.917 166.668C218.576 166.288 219.133 166.174 219.589 166.326C220.045 166.453 220.362 166.719 220.539 167.124C220.742 167.529 220.767 167.985 220.615 168.492C220.489 168.973 220.134 169.391 219.551 169.746C218.665 170.303 217.639 170.721 216.473 171C215.333 171.253 214.269 171.38 213.281 171.38ZM212.597 155.268C211.204 155.268 210.077 155.699 209.215 156.56C208.354 157.421 207.835 158.587 207.657 160.056H217.005C216.904 158.511 216.473 157.333 215.713 156.522C214.979 155.686 213.94 155.268 212.597 155.268Z" fill="#00218A" fill-opacity="0.3"/>
</svg>
