<svg width="36" height="36" viewBox="0 0 36 36" fill="none" xmlns="http://www.w3.org/2000/svg">
<path d="M18 0C8.0744 0 0 8.0744 0 18C0 27.9256 8.0744 36 18 36C27.9256 36 36 27.9256 36 18C36 8.0744 27.9256 0 18 0ZM18 33.75C9.31503 33.75 2.25 26.685 2.25 18C2.25 9.31503 9.31503 2.25 18 2.25C26.685 2.25 33.75 9.31503 33.75 18C33.75 26.685 26.685 33.75 18 33.75Z" fill="#0A0A0A" fill-opacity="0.8"/>
<path d="M25.875 16.875H10.125C9.504 16.875 9 17.379 9 18C9 18.621 9.504 19.125 10.125 19.125H25.875C26.496 19.125 27 18.621 27 18C27 17.379 26.496 16.875 25.875 16.875Z" fill="#0A0A0A" fill-opacity="0.8"/>
<path d="M18 9C17.379 9 16.875 9.504 16.875 10.125V25.875C16.875 26.496 17.379 27 18 27C18.621 27 19.125 26.496 19.125 25.875V10.125C19.125 9.504 18.621 9 18 9Z" fill="#0A0A0A" fill-opacity="0.8"/>
</svg>
