<svg width="403" height="805" viewBox="0 0 403 805" fill="none" xmlns="http://www.w3.org/2000/svg">
<mask id="path-1-inside-1" fill="white">
<path fill-rule="evenodd" clip-rule="evenodd" d="M0 0C106.75 0 209.127 42.4061 284.61 117.89C360.094 193.373 402.5 295.75 402.5 402.5C402.5 509.25 360.094 611.627 284.611 687.11C209.127 762.594 106.75 805 6.10352e-05 805L3.05176e-05 701.987C2.73474 701.975 5.47205 701.926 8.21121 701.84C72.7582 699.814 134.96 677.448 185.732 638.008L185.546 637.773C233.283 600.183 268.569 549.025 286.735 490.99C305.206 431.981 305.084 368.721 286.388 309.786L286.5 309.75C266.772 249.399 228.54 196.809 177.239 159.456C126.187 122.284 63.524 100.419 0.398438 100.007V100L0 100.001V0ZM133.963 400.52C133.963 386.612 131.922 373.179 128.123 360.507L127.702 360.649C112.407 311.887 71.0623 274.671 19.9924 265.341C84.5848 277.356 133.5 334.195 133.5 402.5C133.5 412.638 132.422 422.523 130.376 432.046C132.723 421.917 133.963 411.363 133.963 400.52Z"/>
</mask>
<path fill-rule="evenodd" clip-rule="evenodd" d="M0 0C106.75 0 209.127 42.4061 284.61 117.89C360.094 193.373 402.5 295.75 402.5 402.5C402.5 509.25 360.094 611.627 284.611 687.11C209.127 762.594 106.75 805 6.10352e-05 805L3.05176e-05 701.987C2.73474 701.975 5.47205 701.926 8.21121 701.84C72.7582 699.814 134.96 677.448 185.732 638.008L185.546 637.773C233.283 600.183 268.569 549.025 286.735 490.99C305.206 431.981 305.084 368.721 286.388 309.786L286.5 309.75C266.772 249.399 228.54 196.809 177.239 159.456C126.187 122.284 63.524 100.419 0.398438 100.007V100L0 100.001V0ZM133.963 400.52C133.963 386.612 131.922 373.179 128.123 360.507L127.702 360.649C112.407 311.887 71.0623 274.671 19.9924 265.341C84.5848 277.356 133.5 334.195 133.5 402.5C133.5 412.638 132.422 422.523 130.376 432.046C132.723 421.917 133.963 411.363 133.963 400.52Z" fill="#6BB024"/>
<path d="M284.61 117.89L281.782 120.718L284.61 117.89ZM0 0H-4V-4H0V0ZM402.5 402.5H406.5H402.5ZM284.611 687.11L281.782 684.282L284.611 687.11ZM6.10352e-05 805V809H-3.99994V805H6.10352e-05ZM3.05176e-05 701.987H-3.99997V698.005L-0.01828 697.987L3.05176e-05 701.987ZM8.21121 701.84L8.33667 705.838H8.33664L8.21121 701.84ZM185.732 638.008L188.863 635.518L191.381 638.685L188.186 641.167L185.732 638.008ZM185.546 637.773L182.415 640.263L179.913 637.117L183.071 634.63L185.546 637.773ZM286.735 490.99L282.918 489.795L286.735 490.99ZM286.388 309.786L282.576 310.996L281.369 307.193L285.168 305.977L286.388 309.786ZM286.5 309.75L290.302 308.507L291.552 312.332L287.72 313.56L286.5 309.75ZM177.239 159.456L179.594 156.222L177.239 159.456ZM0.398438 100.007L0.372314 104.007L-3.60156 103.981V100.007H0.398438ZM0.398438 100L0.390228 96L4.39844 95.9918V100H0.398438ZM0 100.001L0.00820923 104.001L-4 104.009V100.001H0ZM128.123 360.507L126.848 356.716L130.768 355.398L131.955 359.359L128.123 360.507ZM127.702 360.649L128.977 364.44L125.107 365.742L123.885 361.846L127.702 360.649ZM19.9924 265.341L19.2609 269.273L20.7113 261.406L19.9924 265.341ZM130.376 432.046L134.273 432.949L126.465 431.206L130.376 432.046ZM281.782 120.718C207.049 45.9847 105.689 4 0 4V-4C107.81 -4 211.205 38.8276 287.439 115.061L281.782 120.718ZM398.5 402.5C398.5 296.811 356.515 195.451 281.782 120.718L287.439 115.061C363.672 191.295 406.5 294.689 406.5 402.5H398.5ZM281.782 684.282C356.515 609.549 398.5 508.189 398.5 402.5H406.5C406.5 510.31 363.672 613.705 287.439 689.939L281.782 684.282ZM6.10352e-05 801C105.689 801 207.049 759.015 281.782 684.282L287.439 689.939C211.205 766.172 107.811 809 6.10352e-05 809V801ZM4.00003 701.987L4.00006 805H-3.99994L-3.99997 701.987H4.00003ZM8.33664 705.838C5.56177 705.925 2.78873 705.975 0.0183411 705.987L-0.01828 697.987C2.68076 697.975 5.38232 697.926 8.08578 697.842L8.33664 705.838ZM188.186 641.167C136.742 681.129 73.7249 703.786 8.33667 705.838L8.08575 697.842C71.7915 695.843 133.177 673.768 183.279 634.849L188.186 641.167ZM188.676 635.283L188.863 635.518L182.602 640.498L182.415 640.263L188.676 635.283ZM290.552 492.185C272.145 550.99 236.391 602.827 188.02 640.916L183.071 634.63C230.175 597.539 264.992 547.06 282.918 489.795L290.552 492.185ZM290.201 308.577C309.145 368.294 309.269 432.393 290.552 492.185L282.918 489.795C301.144 431.569 301.024 369.149 282.576 310.996L290.201 308.577ZM287.72 313.56L287.608 313.595L285.168 305.977L285.28 305.941L287.72 313.56ZM179.594 156.222C231.575 194.071 270.313 247.358 290.302 308.507L282.698 310.993C263.231 251.441 225.505 199.547 174.885 162.69L179.594 156.222ZM0.424561 96.0075C64.439 96.4254 127.908 118.589 179.594 156.222L174.885 162.69C124.467 125.979 62.6091 104.414 0.372314 104.007L0.424561 96.0075ZM4.39844 100V100.007H-3.60156V100H4.39844ZM-0.00820923 96.0008L0.390228 96L0.406647 104L0.00820923 104.001L-0.00820923 96.0008ZM4 0V100.001H-4V0H4ZM131.955 359.359C135.864 372.399 137.963 386.218 137.963 400.52H129.963C129.963 387.005 127.98 373.959 124.292 361.656L131.955 359.359ZM126.427 356.858L126.848 356.716L129.398 364.299L128.977 364.44L126.427 356.858ZM20.7113 261.406C73.2601 271.006 115.785 309.291 131.518 359.452L123.885 361.846C109.029 314.484 68.8645 278.336 19.2736 269.276L20.7113 261.406ZM129.5 402.5C129.5 336.147 81.9834 280.941 19.2609 269.273L20.724 261.408C87.1863 273.772 137.5 332.243 137.5 402.5H129.5ZM126.465 431.206C128.453 421.957 129.5 412.353 129.5 402.5H137.5C137.5 412.922 136.392 423.089 134.287 432.887L126.465 431.206ZM137.963 400.52C137.963 411.669 136.688 422.526 134.273 432.949L126.479 431.143C128.758 421.308 129.963 411.057 129.963 400.52H137.963Z" fill="white" mask="url(#path-1-inside-1)"/>
<path d="M315.326 233.427C315.321 229.561 316.317 226.6 318.314 224.544C320.338 222.514 323.323 221.497 327.27 221.492L341.63 221.472C343.363 221.47 344.231 222.322 344.233 224.029C344.235 225.736 343.37 226.59 341.637 226.592L327.317 226.611C324.783 226.615 322.877 227.191 321.599 228.339C320.347 229.514 319.723 231.208 319.726 233.422C319.732 237.928 322.268 240.178 327.335 240.171L341.655 240.152C343.388 240.15 344.256 241.002 344.258 242.709C344.26 244.389 343.395 245.23 341.662 245.232L327.302 245.252C323.355 245.257 320.367 244.261 318.338 242.263C316.335 240.266 315.331 237.321 315.326 233.427ZM315.362 260.959C315.36 259.172 315.558 257.425 315.955 255.718C316.353 254.037 316.951 252.57 317.75 251.316C318.149 250.702 318.642 250.328 319.228 250.194C319.815 250.059 320.361 250.099 320.868 250.311C321.402 250.551 321.762 250.91 321.95 251.39C322.164 251.896 322.071 252.47 321.672 253.11C320.98 254.285 320.475 255.525 320.157 256.832C319.839 258.139 319.681 259.513 319.682 260.953C319.685 263.06 320.034 264.592 320.729 265.552C321.45 266.511 322.371 266.989 323.491 266.988C324.424 266.987 325.157 266.639 325.689 265.945C326.222 265.278 326.66 264.117 327.005 262.463L327.919 258.062C328.979 253.047 331.549 250.537 335.629 250.532C337.389 250.529 338.923 250.994 340.23 251.926C341.538 252.857 342.553 254.149 343.276 255.801C343.998 257.454 344.36 259.36 344.363 261.52C344.365 263.12 344.167 264.64 343.769 266.081C343.371 267.521 342.786 268.815 342.015 269.963C341.642 270.497 341.176 270.818 340.616 270.925C340.083 271.032 339.576 270.966 339.096 270.727C338.642 270.488 338.321 270.101 338.134 269.568C337.973 269.062 338.093 268.462 338.492 267.768C339.05 266.78 339.449 265.78 339.688 264.766C339.926 263.753 340.045 262.659 340.043 261.486C340.041 259.646 339.652 258.206 338.877 257.167C338.103 256.128 337.089 255.61 335.835 255.611C334.875 255.613 334.102 255.934 333.517 256.574C332.958 257.215 332.519 258.309 332.201 259.856L331.287 264.217C330.73 266.858 329.853 268.819 328.655 270.101C327.456 271.409 325.857 272.065 323.857 272.067C322.177 272.07 320.697 271.618 319.416 270.713C318.134 269.808 317.133 268.516 316.41 266.837C315.715 265.185 315.366 263.225 315.362 260.959ZM315.401 290.033C315.397 286.913 315.98 284.272 317.151 282.111C318.321 279.976 319.986 278.347 322.144 277.224C324.303 276.101 326.862 275.538 329.822 275.534C332.809 275.53 335.383 276.1 337.544 277.244C339.732 278.387 341.415 280.038 342.591 282.197C343.794 284.355 344.397 286.941 344.401 289.954C344.403 291.448 344.219 292.941 343.847 294.435C343.503 295.956 342.904 297.383 342.053 298.718C341.707 299.305 341.241 299.639 340.654 299.719C340.094 299.827 339.561 299.748 339.054 299.482C338.547 299.216 338.186 298.816 337.972 298.283C337.785 297.75 337.877 297.163 338.25 296.523C338.835 295.508 339.261 294.481 339.526 293.441C339.791 292.401 339.923 291.24 339.921 289.96C339.917 286.974 339.048 284.708 337.312 283.164C335.577 281.646 333.082 280.889 329.829 280.894C326.549 280.898 324.057 281.688 322.352 283.264C320.648 284.839 319.797 287.174 319.802 290.267C319.803 291.147 319.871 292.04 320.005 292.947C320.166 293.88 320.394 294.8 320.689 295.706L327.249 295.697L327.243 291.297C327.241 289.911 327.88 289.216 329.16 289.215C330.414 289.213 331.041 289.906 331.043 291.292L331.052 297.892C331.054 299.279 330.361 299.973 328.975 299.975L319.255 299.988C318.028 299.99 317.241 299.511 316.893 298.551C316.464 297.378 316.103 296.032 315.807 294.513C315.539 292.993 315.403 291.5 315.401 290.033ZM315.532 327.985C315.53 326.625 316.196 325.651 317.528 325.063L340.954 314.591C341.967 314.163 342.78 314.176 343.394 314.628C344.035 315.107 344.356 315.8 344.357 316.707C344.358 317.48 344.185 318.054 343.839 318.428C343.52 318.828 343.027 319.162 342.361 319.43L322.412 328.056L342.424 336.63C343.064 336.922 343.544 337.268 343.865 337.668C344.212 338.067 344.386 338.627 344.387 339.347C344.388 340.2 344.069 340.841 343.43 341.268C342.79 341.722 341.977 341.723 340.99 341.271L317.536 330.863C316.869 330.57 316.362 330.198 316.014 329.745C315.694 329.319 315.533 328.732 315.532 327.985ZM339.44 349.261C339.439 348.328 339.665 347.594 340.117 347.06C340.597 346.553 341.25 346.299 342.076 346.298C342.93 346.297 343.583 346.549 344.037 347.055C344.491 347.588 344.719 348.321 344.72 349.254C344.723 351.228 343.844 352.215 342.084 352.218C340.324 352.22 339.443 351.235 339.44 349.261ZM315.6 349.293C315.599 348.493 315.839 347.88 316.318 347.452C316.797 347.025 317.464 346.811 318.317 346.81L332.997 346.79C334.81 346.788 335.718 347.613 335.72 349.266C335.723 350.946 334.817 351.788 333.004 351.79L318.324 351.81C317.47 351.811 316.803 351.598 316.323 351.172C315.842 350.746 315.601 350.12 315.6 349.293ZM315.501 364.529C315.498 362.822 315.91 361.315 316.735 360.007C317.56 358.726 318.732 357.724 320.251 357.002C321.796 356.28 323.609 355.918 325.689 355.915C327.796 355.912 329.596 356.27 331.091 356.988C332.612 357.706 333.786 358.704 334.615 359.983C335.443 361.289 335.858 362.795 335.861 364.501C335.863 365.888 335.558 367.142 334.946 368.263C334.334 369.384 333.522 370.225 332.509 370.786L341.909 370.773C343.589 370.771 344.43 371.597 344.432 373.25C344.435 374.93 343.596 375.771 341.916 375.773L318.156 375.805C316.449 375.807 315.595 374.982 315.592 373.329C315.59 371.675 316.442 370.847 318.149 370.845L318.989 370.844C317.922 370.285 317.067 369.447 316.426 368.327C315.811 367.208 315.503 365.942 315.501 364.529ZM319.303 365.924C319.305 367.417 319.84 368.616 320.907 369.521C322.002 370.427 323.603 370.878 325.709 370.875C327.843 370.872 329.429 370.417 330.467 369.509C331.533 368.601 332.065 367.4 332.063 365.907C332.061 364.413 331.526 363.214 330.458 362.309C329.417 361.403 327.829 360.952 325.696 360.955C323.589 360.958 321.99 361.413 320.898 362.321C319.832 363.23 319.301 364.43 319.303 365.924ZM315.536 390.633C315.533 388.42 315.943 386.512 316.768 384.911C317.592 383.31 318.764 382.069 320.283 381.187C321.802 380.331 323.601 379.902 325.681 379.899C327.708 379.897 329.482 380.308 331.003 381.132C332.524 381.984 333.712 383.142 334.568 384.608C335.45 386.1 335.892 387.792 335.894 389.686C335.898 392.459 335.021 394.647 333.263 396.249C331.505 397.878 329.106 398.695 326.066 398.699C325.08 398.7 324.585 398.061 324.584 396.781L324.568 384.701C321.075 385.079 319.331 387.081 319.336 390.708C319.337 391.401 319.418 392.174 319.579 393.028C319.767 393.907 320.074 394.734 320.502 395.506C320.903 396.199 321.024 396.786 320.864 397.266C320.732 397.746 320.452 398.08 320.026 398.267C319.599 398.481 319.119 398.508 318.586 398.349C318.079 398.216 317.639 397.844 317.264 397.231C316.676 396.298 316.235 395.219 315.94 393.992C315.672 392.793 315.537 391.673 315.536 390.633ZM332.495 389.89C332.493 388.424 332.038 387.238 331.13 386.332C330.222 385.427 328.995 384.882 327.448 384.697L327.461 394.537C329.087 394.428 330.327 393.973 331.179 393.172C332.058 392.398 332.496 391.304 332.495 389.89ZM315.564 411.593C315.561 409.566 315.972 407.805 316.796 406.311C317.621 404.817 318.793 403.655 320.312 402.826C321.857 401.998 323.67 401.582 325.75 401.579C327.83 401.576 329.631 401.987 331.152 402.812C332.673 403.636 333.848 404.795 334.676 406.287C335.505 407.779 335.921 409.539 335.924 411.565C335.926 413.592 335.515 415.353 334.691 416.847C333.866 418.342 332.694 419.503 331.175 420.332C329.656 421.161 327.857 421.576 325.777 421.579C323.697 421.582 321.883 421.171 320.335 420.346C318.814 419.522 317.639 418.363 316.811 416.871C315.982 415.379 315.566 413.619 315.564 411.593ZM319.364 411.588C319.366 413.081 319.9 414.28 320.968 415.185C322.063 416.091 323.663 416.542 325.77 416.539C327.903 416.536 329.49 416.081 330.528 415.173C331.594 414.265 332.126 413.064 332.124 411.571C332.122 410.077 331.587 408.878 330.519 407.973C329.478 407.067 327.89 406.616 325.757 406.619C323.65 406.622 322.051 407.077 320.959 407.985C319.893 408.894 319.362 410.094 319.364 411.588ZM315.592 432.88C315.59 431.733 315.709 430.519 315.947 429.239C316.185 427.959 316.597 426.812 317.183 425.797C317.502 425.237 317.888 424.89 318.341 424.756C318.821 424.622 319.261 424.635 319.661 424.794C320.088 424.98 320.395 425.273 320.582 425.673C320.77 426.099 320.73 426.593 320.464 427.153C319.959 428.22 319.6 429.221 319.388 430.154C319.203 431.088 319.111 432.008 319.112 432.915C319.114 434.195 319.328 435.141 319.756 435.754C320.21 436.393 320.797 436.713 321.517 436.712C322.637 436.71 323.356 435.882 323.674 434.229L324.428 430.228C325.064 426.84 326.822 425.145 329.702 425.141C330.982 425.139 332.089 425.484 333.023 426.176C333.957 426.895 334.679 427.881 335.187 429.133C335.695 430.386 335.951 431.826 335.953 433.452C335.956 435.799 335.439 437.893 334.401 439.734C334.135 440.241 333.762 440.535 333.282 440.616C332.829 440.723 332.389 440.67 331.962 440.458C331.562 440.272 331.268 439.965 331.081 439.539C330.92 439.112 330.973 438.619 331.239 438.059C331.664 437.231 331.97 436.431 332.156 435.657C332.341 434.911 332.434 434.19 332.433 433.497C332.431 432.19 332.203 431.217 331.749 430.578C331.295 429.965 330.694 429.659 329.948 429.66C328.774 429.662 328.055 430.423 327.791 431.943L327.036 435.944C326.718 437.678 326.133 438.985 325.281 439.867C324.429 440.774 323.283 441.229 321.843 441.231C319.896 441.234 318.362 440.476 317.24 438.957C316.145 437.439 315.595 435.413 315.592 432.88ZM314.85 446.172C314.209 445.986 313.796 445.64 313.608 445.133C313.394 444.654 313.367 444.16 313.526 443.654C313.659 443.173 313.939 442.8 314.365 442.532C314.791 442.239 315.338 442.198 316.005 442.41L344.697 451.612C345.337 451.824 345.764 452.171 345.978 452.65C346.192 453.13 346.22 453.61 346.06 454.09C345.928 454.597 345.635 454.984 345.182 455.251C344.756 455.545 344.222 455.586 343.582 455.373L314.85 446.172ZM315.709 460.83C315.707 459.123 316.586 458.269 318.346 458.266L341.906 458.235C343.666 458.232 344.547 459.085 344.549 460.791C344.552 462.498 343.673 463.352 341.913 463.355L318.353 463.386C316.593 463.389 315.712 462.536 315.709 460.83ZM315.724 471.639C315.721 469.985 316.574 469.158 318.28 469.155L333.4 469.135C335.08 469.133 335.921 469.945 335.924 471.572C335.926 473.198 335.087 474.013 333.407 474.015L332.607 474.016C333.674 474.601 334.502 475.414 335.09 476.453C335.705 477.492 336.013 478.692 336.015 480.052C336.019 482.985 334.741 484.907 332.183 485.817C333.383 486.429 334.318 487.307 334.986 488.453C335.681 489.599 336.029 490.905 336.031 492.372C336.037 496.772 333.36 498.975 328 498.982L318.32 498.995C316.614 498.998 315.759 498.159 315.757 496.479C315.755 494.825 316.607 493.998 318.314 493.995L327.794 493.983C329.287 493.981 330.38 493.726 331.073 493.218C331.765 492.737 332.111 491.91 332.109 490.737C332.107 489.43 331.639 488.404 330.705 487.659C329.797 486.913 328.53 486.542 326.904 486.544L318.304 486.555C316.597 486.558 315.743 485.732 315.74 484.079C315.738 482.399 316.59 481.558 318.297 481.555L327.777 481.543C329.27 481.541 330.363 481.286 331.056 480.778C331.749 480.297 332.094 479.484 332.093 478.337C332.091 477.03 331.623 476.004 330.689 475.259C329.781 474.513 328.514 474.142 326.887 474.144L318.287 474.155C316.58 474.158 315.726 473.319 315.724 471.639ZM315.696 510.597C315.694 509.184 315.959 507.917 316.491 506.796C317.049 505.702 317.795 504.834 318.727 504.193C319.66 503.578 320.713 503.27 321.886 503.269C323.326 503.267 324.46 503.639 325.287 504.384C326.142 505.13 326.757 506.342 327.132 508.022C327.508 509.701 327.698 511.954 327.701 514.781L327.703 516.181L328.543 516.18C329.876 516.178 330.836 515.883 331.422 515.296C332.008 514.709 332.3 513.721 332.298 512.335C332.297 511.561 332.203 510.722 332.015 509.815C331.827 508.935 331.506 508.003 331.051 507.016C330.757 506.377 330.716 505.844 330.929 505.417C331.168 504.99 331.528 504.696 332.008 504.535C332.514 504.401 333.021 504.427 333.528 504.613C334.035 504.826 334.409 505.239 334.649 505.852C335.158 507.078 335.519 508.25 335.734 509.37C335.949 510.517 336.057 511.556 336.058 512.49C336.062 515.343 335.398 517.464 334.067 518.852C332.762 520.241 330.723 520.937 327.95 520.941L318.35 520.953C316.643 520.956 315.788 520.184 315.786 518.637C315.784 517.064 316.637 516.276 318.343 516.273L319.223 516.272C318.129 515.82 317.262 515.102 316.62 514.116C316.006 513.13 315.698 511.957 315.696 510.597ZM319.137 511.632C319.139 512.939 319.594 514.018 320.501 514.871C321.409 515.749 322.556 516.188 323.943 516.186L324.823 516.185L324.821 514.825C324.818 512.318 324.616 510.572 324.214 509.586C323.84 508.626 323.146 508.147 322.132 508.148C321.252 508.15 320.533 508.457 319.974 509.071C319.414 509.685 319.136 510.539 319.137 511.632ZM308.528 535.162C308.527 533.722 308.658 532.321 308.923 530.961C309.188 529.627 309.599 528.413 310.158 527.319C310.477 526.679 310.89 526.292 311.396 526.158C311.876 526.05 312.343 526.103 312.797 526.316C313.25 526.529 313.584 526.848 313.798 527.275C313.985 527.728 313.959 528.208 313.72 528.715C313.135 529.889 312.763 530.996 312.604 532.036C312.419 533.103 312.327 534.01 312.328 534.756C312.333 538.33 314.055 540.114 317.495 540.11L320.175 540.106C319.081 539.547 318.213 538.682 317.572 537.509C316.93 536.364 316.608 535.084 316.606 533.671C316.604 531.911 317.002 530.377 317.8 529.069C318.625 527.761 319.771 526.747 321.236 526.025C322.702 525.303 324.408 524.94 326.355 524.938C328.302 524.935 329.995 525.293 331.436 526.011C332.904 526.729 334.039 527.741 334.84 529.046C335.669 530.352 336.084 531.885 336.086 533.645C336.088 535.058 335.783 536.338 335.172 537.486C334.56 538.633 333.721 539.475 332.655 540.009L333.495 540.008C334.322 540.007 334.949 540.22 335.376 540.646C335.803 541.098 336.017 541.712 336.018 542.485C336.02 544.138 335.182 544.966 333.502 544.968L318.102 544.989C314.928 544.993 312.54 544.156 310.938 542.478C309.336 540.8 308.533 538.362 308.528 535.162ZM320.408 535.026C320.41 536.572 320.945 537.798 322.013 538.704C323.081 539.609 324.535 540.06 326.375 540.058C328.215 540.055 329.654 539.6 330.693 538.692C331.759 537.784 332.29 536.556 332.288 535.01C332.286 533.463 331.751 532.237 330.683 531.332C329.642 530.427 328.202 529.975 326.362 529.978C324.522 529.98 323.069 530.435 322.003 531.344C320.938 532.252 320.406 533.479 320.408 535.026ZM315.761 559.813C315.758 557.599 316.169 555.692 316.994 554.091C317.818 552.49 318.99 551.248 320.509 550.366C322.028 549.511 323.827 549.082 325.907 549.079C327.934 549.076 329.708 549.487 331.229 550.312C332.75 551.163 333.938 552.322 334.793 553.787C335.675 555.279 336.118 556.972 336.12 558.865C336.124 561.639 335.247 563.827 333.489 565.429C331.731 567.058 329.332 567.874 326.292 567.878C325.305 567.88 324.811 567.24 324.81 565.96L324.793 553.88C321.301 554.258 319.557 556.261 319.561 559.887C319.562 560.581 319.643 561.354 319.805 562.207C319.992 563.087 320.3 563.913 320.728 564.686C321.129 565.379 321.25 565.965 321.09 566.445C320.958 566.926 320.678 567.259 320.252 567.447C319.825 567.66 319.345 567.688 318.812 567.528C318.305 567.396 317.864 567.023 317.49 566.41C316.902 565.478 316.461 564.398 316.166 563.172C315.898 561.972 315.763 560.853 315.761 559.813ZM332.72 559.07C332.718 557.603 332.264 556.417 331.356 555.512C330.448 554.606 329.22 554.061 327.673 553.877L327.687 563.717C329.313 563.608 330.553 563.153 331.405 562.352C332.284 561.577 332.722 560.483 332.72 559.07ZM315.787 579.012C315.785 577.866 315.904 576.652 316.142 575.372C316.38 574.091 316.792 572.944 317.378 571.93C317.697 571.37 318.083 571.022 318.536 570.889C319.016 570.755 319.456 570.767 319.856 570.927C320.283 571.113 320.59 571.406 320.777 571.806C320.965 572.232 320.925 572.725 320.659 573.286C320.154 574.353 319.795 575.354 319.583 576.287C319.398 577.221 319.306 578.141 319.307 579.048C319.309 580.328 319.523 581.274 319.951 581.887C320.405 582.526 320.992 582.845 321.712 582.844C322.832 582.843 323.551 582.015 323.869 580.361L324.623 576.36C325.259 572.973 327.017 571.277 329.897 571.273C331.177 571.272 332.284 571.617 333.218 572.309C334.152 573.028 334.874 574.013 335.382 575.266C335.89 576.519 336.146 577.958 336.148 579.585C336.151 581.932 335.634 584.026 334.596 585.867C334.33 586.374 333.957 586.668 333.477 586.749C333.024 586.856 332.584 586.803 332.157 586.59C331.757 586.404 331.463 586.098 331.276 585.672C331.115 585.245 331.168 584.752 331.434 584.191C331.859 583.364 332.165 582.564 332.351 581.79C332.536 581.043 332.629 580.323 332.628 579.63C332.626 578.323 332.398 577.35 331.944 576.711C331.49 576.098 330.889 575.792 330.143 575.793C328.969 575.795 328.25 576.556 327.986 578.076L327.231 582.077C326.913 583.811 326.328 585.118 325.476 585.999C324.624 586.907 323.478 587.362 322.038 587.364C320.091 587.366 318.557 586.609 317.435 585.09C316.34 583.571 315.79 581.546 315.787 579.012Z" fill="white"/>
</svg>
